<svg xmlns="http://www.w3.org/2000/svg" width="43.652" height="45.438" viewBox="0 0 43.652 45.438">
  <path id="vehicule-electrique-station-charge-icone" d="M39.074,22.6c.115,1.572.348,3.154.584,4.726a51.676,51.676,0,0,1,.647,5.706,11.428,11.428,0,0,1-1.021,6,4.674,4.674,0,0,1-4.6,2.407h0c-2.622-.048-4.234-1.52-4.962-4.238a19.719,19.719,0,0,1-.259-6.841A28.593,28.593,0,0,0,29.829,25a15.045,15.045,0,0,0-1.257-5.547,4.256,4.256,0,0,0-2.318-2.219V39.4a3.025,3.025,0,0,1,.85.606,3.11,3.11,0,0,1,.913,2.219v2.219a1.013,1.013,0,0,1-1.024.995H1.013A1.013,1.013,0,0,1,0,44.424V42.206a3.113,3.113,0,0,1,.913-2.219,3.169,3.169,0,0,1,.566-.422V5.369A5.376,5.376,0,0,1,6.863,0h13.97a5.41,5.41,0,0,1,5.395,5.395v9.766c4.2.917,5.325,5.787,5.595,9.8.181,2.7-.055,2.662-.348,5.41a18.025,18.025,0,0,0,.181,6.319c.47,1.764,1.479,2.718,3.047,2.74h.018A2.807,2.807,0,0,0,37.5,38.046a9.463,9.463,0,0,0,.74-4.922,51.678,51.678,0,0,0-.621-5.491c-.244-1.642-.492-3.295-.606-5.018h-.34l-.033-2.174c-2.588-.251-3.565-1.993-3.565-4.5V14.791h-.37a.61.61,0,0,1-.61-.61v-.7a.61.61,0,0,1,.61-.61h1.808v-3.2a.958.958,0,0,1,.961-.961h0a.961.961,0,0,1,.961.961v3.2h2.829v-3.2a.961.961,0,0,1,.961-.961h0a.961.961,0,0,1,.965.961v3.2h1.849a.61.61,0,0,1,.61.61v.706a.61.61,0,0,1-.6.6h-.477v1.276c0,2.47-.836,3.942-3.236,4.326v2.2ZM15.608,26.357h2.548a.669.669,0,0,1,.669.669.684.684,0,0,1-.115.37L12.642,37.75a.666.666,0,0,1-1.224-.481l.895-6.349L9.3,30.972a.666.666,0,0,1-.673-.651.632.632,0,0,1,.092-.351L14.68,19.616a.669.669,0,0,1,1.22.436l-.307,6.3ZM8.083,4.637H19.849a2.219,2.219,0,0,1,1.568.651c.026.03.055.055.081.089a2.219,2.219,0,0,1,.577,1.479v7.506a2.219,2.219,0,0,1-2.219,2.219H8.083a2.219,2.219,0,0,1-1.564-.651h0a2.219,2.219,0,0,1-.651-1.568V6.852a2.219,2.219,0,0,1,.651-1.568.891.891,0,0,1,.089-.078,2.219,2.219,0,0,1,1.479-.569ZM25.307,41.226H2.684a1.109,1.109,0,0,0-.336.229,1.08,1.08,0,0,0-.318.765v1.2H25.973v-1.2a1.084,1.084,0,0,0-.666-1Z" transform="translate(0)" fill="#00ec99" fill-rule="evenodd"/>
</svg>
