<?xml version="1.0" encoding="UTF-8"?>
<svg id="Calque_2" data-name="Calque 2" xmlns="http://www.w3.org/2000/svg" viewBox="0 0 90.73 89.96">
  <defs>
    <style>
      .cls-1 {
        fill: #dd7455;
      }

      .cls-2 {
        fill: #c6b044;
      }

      .cls-3 {
        fill: #7f392f;
      }

      .cls-4 {
        fill: #42342a;
      }

      .cls-5 {
        fill: #2d2625;
      }

      .cls-6 {
        fill: #e58e88;
      }

      .cls-7 {
        fill: #f4af9f;
      }

      .cls-8 {
        fill: #8fc6c3;
      }

      .cls-9 {
        fill: #1d1d1b;
        opacity: .3;
      }

      .cls-10 {
        fill: #604d3f;
      }

      .cls-11 {
        fill: #3a2d26;
      }

      .cls-12 {
        fill: #4f6d6b;
      }

      .cls-13 {
        fill: #e8db64;
      }

      .cls-14 {
        fill: #c99085;
      }

      .cls-15 {
        fill: #efb3ab;
      }

      .cls-16 {
        fill: #f29031;
      }

      .cls-17 {
        fill: #efded0;
      }

      .cls-18 {
        fill: #e0d0c1;
      }

      .cls-19 {
        fill: #d3ca53;
      }

      .cls-20 {
        fill: #6d9b97;
      }

      .cls-21 {
        fill: #bf5c45;
      }

      .cls-22 {
        fill: #719b99;
      }

      .cls-23 {
        fill: #261e1d;
      }

      .cls-24 {
        fill: #a34c3b;
      }

      .cls-25 {
        fill: #342f33;
      }
    </style>
  </defs>
  <g id="Layer_1" data-name="Layer 1">
    <g>
      <rect class="cls-25" y="88.45" width="90.73" height="1.5"/>
      <g>
        <g>
          <g>
            <rect class="cls-10" x="8.95" y="82.34" width="4.38" height="6.11"/>
            <path class="cls-4" d="M8.95,83.74v.97s2,1.65,4.38,0v-1.86l-4.38,.89Z"/>
          </g>
          <g>
            <path class="cls-19" d="M11.01,42.84c-6.65,.29-7.71,19.68-7.56,30.59,.15,10.91,7.56,10.72,7.56,10.72,0,0,7.41,.18,7.56-10.72,.15-10.91-.91-30.3-7.56-30.59Z"/>
            <path class="cls-2" d="M18.02,67.2c-1.84,6.19-4.78,10.22-8.53,11.16-2,.5-4.11-.02-5.8-2.08,1.28,8.01,7.32,7.86,7.32,7.86,0,0,7.41,.18,7.56-10.72,.03-2.33,0-5.04-.11-7.87-.13,.56-.28,1.11-.44,1.65Z"/>
            <path class="cls-13" d="M9.32,50.38c-.91,1.9-2.02,2.8-2.49,2.03s-.11-2.94,.8-4.83c.91-1.9,2.02-2.8,2.49-2.03,.47,.77,.11,2.94-.8,4.83Z"/>
          </g>
        </g>
        <g>
          <g>
            <path class="cls-16" d="M53.78,75.3c.53,0,.95,.36,.95,.81s-.43,.81-.95,.81-.96-.36-.96-.81,.43-.81,.96-.81Z"/>
            <path class="cls-17" d="M55.72,61.58v23.88h-11.42v-23.88h11.42Zm-.98,12.22v-11.1h-9.34v11.1h9.34Zm0,2.32c0-.45-.43-.81-.95-.81s-.96,.36-.96,.81,.43,.81,.96,.81,.95-.36,.95-.81Z"/>
            <polygon class="cls-20" points="70.82 64.88 70.82 65.8 67.41 68.02 70.82 64.88"/>
            <polygon class="cls-20" points="68.21 61.58 64.56 64.59 67.16 61.58 68.21 61.58"/>
            <polygon class="cls-20" points="69.22 63.59 64.44 68.82 63.9 68.82 63.9 67.85 69.22 63.59"/>
            <polygon class="cls-20" points="71.2 38.62 71.2 39.54 67.79 41.76 71.2 38.62"/>
            <polygon class="cls-11" points="77.08 85.45 78.28 88.45 74.02 88.45 74.06 85.45 77.08 85.45"/>
            <polygon class="cls-18" points="77.57 0 76.67 5.89 75.11 5.89 60.47 5.89 60.47 0 77.57 0"/>
            <polygon class="cls-6" points="76.05 23.22 76.05 25.2 74.85 25.2 74.88 23.22 76.05 23.22"/>
            <polygon class="cls-6" points="76.05 16.2 76.05 18.19 74.95 18.19 74.97 16.2 76.05 16.2"/>
            <polygon class="cls-6" points="76.05 9.28 76.05 11.27 75.04 11.27 75.06 9.28 76.05 9.28"/>
            <polygon class="cls-6" points="75.87 49.02 75.87 51.01 74.51 51.01 74.54 49.02 75.87 49.02"/>
            <polygon class="cls-6" points="75.87 42.01 75.87 43.99 74.6 43.99 74.63 42.01 75.87 42.01"/>
            <polygon class="cls-6" points="75.87 35.09 75.87 37.08 74.7 37.08 74.72 35.09 75.87 35.09"/>
            <polygon class="cls-14" points="75.71 27.79 75.71 31.02 74.78 31.02 74.82 27.79 75.71 27.79"/>
            <polygon class="cls-6" points="75.69 19.59 75.69 21.58 74.9 21.58 74.93 19.59 75.69 19.59"/>
            <polygon class="cls-6" points="75.69 12.68 75.69 14.66 74.99 14.66 75.02 12.68 75.69 12.68"/>
            <polygon class="cls-14" points="75.52 53.46 75.52 56.7 74.44 56.7 74.48 53.46 75.52 53.46"/>
            <polygon class="cls-6" points="75.51 45.4 75.51 47.38 74.56 47.38 74.59 45.4 75.51 45.4"/>
            <polygon class="cls-6" points="75.51 38.48 75.51 40.47 74.65 40.47 74.68 38.48 75.51 38.48"/>
            <polygon class="cls-6" points="75.26 81.22 75.26 83.2 74.09 83.2 74.11 81.22 75.26 81.22"/>
            <polygon class="cls-6" points="75.11 73.85 75.11 75.84 74.19 75.84 74.21 73.85 75.11 73.85"/>
            <polygon class="cls-6" points="75.11 66.84 75.11 68.83 74.28 68.83 74.3 66.84 75.11 66.84"/>
            <polygon class="cls-6" points="75.11 59.92 75.11 61.91 74.37 61.91 74.39 59.92 75.11 59.92"/>
            <path class="cls-3" d="M75.11,5.89l-.03,2.47c-7.65-2.34-14.61,0-14.61,0v-2.47h14.64Z"/>
            <path class="cls-24" d="M75.08,8.36v.93h-2.01v1.99h1.97l-.02,1.4h-2.31v1.98h2.29l-.02,1.54h-1.9v1.98h1.88l-.02,1.4h-2.22v1.99h2.2l-.02,1.64h-1.81v1.98h1.79l-.03,2.58h-14.35V8.36s6.96-2.34,14.61,0Zm-3.19,15.9V9.62h-8.09v14.64h8.09Z"/>
            <polygon class="cls-6" points="75.06 9.28 75.04 11.27 73.07 11.27 73.07 9.28 75.06 9.28"/>
            <polygon class="cls-6" points="75.02 12.68 74.99 14.66 72.71 14.66 72.71 12.68 75.02 12.68"/>
            <polygon class="cls-6" points="74.97 16.2 74.95 18.19 73.07 18.19 73.07 16.2 74.97 16.2"/>
            <polygon class="cls-6" points="74.96 77.59 74.96 79.58 74.14 79.58 74.16 77.59 74.96 77.59"/>
            <polygon class="cls-6" points="74.93 19.59 74.9 21.58 72.71 21.58 72.71 19.59 74.93 19.59"/>
            <polygon class="cls-6" points="74.88 23.22 74.85 25.2 73.07 25.2 73.07 23.22 74.88 23.22"/>
            <polygon class="cls-14" points="74.82 27.79 74.78 31.02 60.47 31.02 60.47 27.79 74.82 27.79"/>
            <polygon class="cls-6" points="74.81 70.23 74.81 72.21 74.23 72.21 74.26 70.23 74.81 70.23"/>
            <polygon class="cls-6" points="74.81 63.31 74.81 65.3 74.32 65.3 74.35 63.31 74.81 63.31"/>
            <path class="cls-3" d="M74.78,31.02l-.03,2.19c-7.16-1.84-14.28,0-14.28,0v-2.19h14.31Z"/>
            <path class="cls-24" d="M74.75,33.21l-.03,1.88h-1.84v1.99h1.81l-.02,1.4h-2.16v1.99h2.13l-.02,1.54h-1.74v1.99h1.72l-.02,1.4h-2.06v1.98h2.04l-.02,1.64h-1.65v1.99h1.63l-.03,2.45h-14.01v-20.25s7.12-1.84,14.28,0Zm-2.92,16v-14.64h-8.09v14.64h8.09Z"/>
            <polygon class="cls-6" points="74.72 35.09 74.7 37.08 72.89 37.08 72.89 35.09 74.72 35.09"/>
            <polygon class="cls-6" points="74.68 38.48 74.65 40.47 72.52 40.47 72.52 38.48 74.68 38.48"/>
            <polygon class="cls-6" points="74.63 42.01 74.6 43.99 72.89 43.99 72.89 42.01 74.63 42.01"/>
            <polygon class="cls-6" points="74.59 45.4 74.56 47.38 72.52 47.38 72.52 45.4 74.59 45.4"/>
            <polygon class="cls-6" points="74.54 49.02 74.51 51.01 72.89 51.01 72.89 49.02 74.54 49.02"/>
            <polygon class="cls-14" points="74.48 53.46 74.44 56.7 60.47 56.7 60.47 53.46 74.48 53.46"/>
            <path class="cls-3" d="M74.44,56.7l-.02,1.87h0c-7-1.5-13.94,0-13.94,0v-1.87h13.97Z"/>
            <path class="cls-24" d="M74.41,58.56l-.02,1.36h-1.75v1.99h1.72l-.02,1.4h-2.01v1.98h1.98l-.02,1.54h-1.66v1.99h1.63l-.02,1.4h-1.92v1.99h1.89l-.02,1.64h-1.57v1.98h1.54l-.02,1.75h-1.67v1.99h1.64l-.02,1.64h-1.32v1.98h1.29l-.03,2.25h-13.59v-26.89s6.94-1.5,13.94,0h0Zm-2.97,16.9v-14.64h-8.08v14.64h8.08Z"/>
            <polygon class="cls-6" points="74.39 59.92 74.37 61.91 72.64 61.91 72.64 59.92 74.39 59.92"/>
            <polygon class="cls-6" points="74.35 63.31 74.32 65.3 72.34 65.3 72.34 63.31 74.35 63.31"/>
            <polygon class="cls-6" points="74.3 66.84 74.28 68.83 72.64 68.83 72.64 66.84 74.3 66.84"/>
            <polygon class="cls-6" points="74.26 70.23 74.23 72.21 72.34 72.21 72.34 70.23 74.26 70.23"/>
            <polygon class="cls-6" points="74.21 73.85 74.19 75.84 72.64 75.84 72.64 73.85 74.21 73.85"/>
            <polygon class="cls-6" points="74.16 77.59 74.14 79.58 72.49 79.58 72.49 77.59 74.16 77.59"/>
            <polygon class="cls-6" points="74.11 81.22 74.09 83.2 72.79 83.2 72.79 81.22 74.11 81.22"/>
            <polygon class="cls-11" points="74.06 85.45 74.02 88.45 60.47 88.45 60.47 85.45 74.06 85.45"/>
            <path class="cls-11" d="M71.89,9.62v14.64h-8.09V9.62h8.09Zm-.64,9.06V10.37h-6.92v13.18h6.92v-4.87Z"/>
            <path class="cls-11" d="M71.83,34.56v14.64h-8.09v-14.64h8.09Zm-.64,9.07v-8.31h-6.92v13.18h6.92v-4.87Z"/>
            <path class="cls-11" d="M71.45,60.82v14.64h-8.08v-14.64h8.08Zm-.63,9.06v-8.31h-6.92v13.18h6.92v-4.87Z"/>
            <rect class="cls-16" x="64.33" y="18.68" width="6.92" height="4.87"/>
            <polygon class="cls-11" points="71.25 17.61 71.25 18.68 64.33 18.68 64.33 17.61 64.88 17.61 71.25 17.61"/>
            <polygon class="cls-12" points="71.25 14.6 71.25 17.61 64.88 17.61 69.66 12.38 64.33 16.65 64.33 10.37 67.6 10.37 64.99 13.38 68.65 10.37 71.25 10.37 71.25 13.68 67.84 16.81 71.25 14.6"/>
            <polygon class="cls-20" points="71.25 13.68 71.25 14.6 67.84 16.81 71.25 13.68"/>
            <rect class="cls-23" x="64.28" y="43.63" width="6.92" height="4.87"/>
            <polygon class="cls-11" points="71.2 42.56 71.2 43.63 64.28 43.63 64.28 42.56 64.82 42.56 71.2 42.56"/>
            <polygon class="cls-12" points="71.2 39.54 71.2 42.56 64.82 42.56 69.6 37.32 64.28 41.59 64.28 35.32 67.54 35.32 64.94 38.33 68.59 35.32 71.2 35.32 71.2 38.62 67.79 41.76 71.2 39.54"/>
            <rect class="cls-16" x="63.9" y="69.89" width="6.92" height="4.87"/>
            <polygon class="cls-11" points="70.82 68.82 70.82 69.89 63.9 69.89 63.9 68.82 64.44 68.82 70.82 68.82"/>
            <polygon class="cls-12" points="70.82 65.8 70.82 68.82 64.44 68.82 69.22 63.59 63.9 67.85 63.9 61.58 67.16 61.58 64.56 64.59 68.21 61.58 70.82 61.58 70.82 64.88 67.41 68.02 70.82 65.8"/>
            <polygon class="cls-20" points="69.66 12.38 64.88 17.61 64.33 17.61 64.33 16.65 69.66 12.38"/>
            <polygon class="cls-20" points="69.6 37.32 64.82 42.56 64.28 42.56 64.28 41.59 69.6 37.32"/>
            <polygon class="cls-20" points="68.65 10.37 64.99 13.38 67.6 10.37 68.65 10.37"/>
            <polygon class="cls-20" points="68.59 35.32 64.94 38.33 67.54 35.32 68.59 35.32"/>
            <polygon class="cls-10" points="60.47 85.45 60.47 88.45 16.77 88.45 16.75 85.45 43.32 85.45 44.3 85.45 55.72 85.45 56.75 85.45 60.47 85.45"/>
            <path class="cls-1" d="M60.47,58.56v26.89h-3.71v-25.09h-13.44v25.09H16.75v-1.39s1.53,0,1.53,0v-1.99h-1.55v-1.64s1.89,0,1.89,0v-1.98h-1.91v-1.49s.59,0,.59,0v-1.99h-.61v-1.64s.84,0,.84,0v-1.98h-.86v-1.4s.63,0,.63,0v-1.99h-.65v-1.54s.87,0,.87,0v-1.99h-.89v-1.4s.67,0,.67,0v-1.98h-.68v-2.47s25.6-1.34,43.84,0Zm-20.16,16.23v-14.64h-8.52v14.64h8.52Zm-13.16,0v-14.64h-8.52v14.64h8.52Z"/>
            <path class="cls-21" d="M60.47,56.7v1.87c-18.24-1.34-43.86,0-43.86,0v-1.87s43.86,0,43.86,0Z"/>
            <polygon class="cls-7" points="60.47 53.46 60.47 56.7 16.6 56.7 16.58 53.46 60.47 53.46"/>
            <path class="cls-1" d="M60.47,33.21v20.25H16.58v-1.91s2.38,0,2.38,0v-1.99h-2.4v-1.64s2.85,0,2.85,0v-1.99h.76v3.23h8.52v-14.64h-8.52v4.49h-3.66v-1.4s2.45,0,2.45,0v-1.99h-2.47v-2.42s25.24-2.43,43.98,0Zm-5.16,15.98v-14.64h-8.52v14.64h8.52Zm-13.45-.02v-14.64h-8.52v14.64h8.52Z"/>
            <path class="cls-21" d="M60.47,31.02v2.19c-18.73-2.43-43.99,0-43.99,0v-2.19s43.99,0,43.99,0Z"/>
            <polygon class="cls-7" points="60.47 27.79 60.47 31.02 16.46 31.02 16.45 27.79 60.47 27.79"/>
            <path class="cls-1" d="M60.47,8.36V27.79H16.45v-2.26s2.29,0,2.29,0v-1.99h-2.31v-1.64s2.76,0,2.76,0v-1.99h-2.78v-1.4s2.33,0,2.33,0v-1.98h-2.35v-1.54s2.8,0,2.8,0v-1.99h-2.82v-1.4s2.37,0,2.37,0v-1.99h-2.38v-1.25s24.4-2.68,44.12,0Zm-5.16,15.89V9.61h-8.52v14.64h8.52Zm-13.45-.02V9.59h-8.52v14.64h8.52Zm-13.16,0V9.59h-8.52v14.64h8.52Z"/>
            <path class="cls-21" d="M60.47,5.89v2.47c-19.72-2.68-44.12,0-44.12,0v-2.47s44.12,0,44.12,0Z"/>
            <polygon class="cls-17" points="60.47 0 60.47 5.89 16.33 5.89 13.98 5.89 11.61 0 60.47 0"/>
            <polygon class="cls-10" points="56.75 60.36 56.75 85.45 55.72 85.45 55.72 61.58 44.3 61.58 44.3 85.45 43.32 85.45 43.32 60.36 56.75 60.36"/>
            <path class="cls-10" d="M55.31,34.54v14.64h-8.52v-14.64h8.52Zm-.67,9.06v-8.31h-7.29v13.18h7.29v-4.87Z"/>
            <path class="cls-10" d="M55.31,9.61v14.64h-8.52V9.61h8.52Zm-.67,9.06V10.36h-7.29v13.18h7.29v-4.87Z"/>
            <path class="cls-10" d="M54.73,62.69v11.1h-9.34v-11.1h9.34Zm-.82,10.22v-9.43h-7.81v9.43h7.81Z"/>
            <rect class="cls-16" x="47.34" y="43.61" width="7.29" height="4.87"/>
            <polygon class="cls-10" points="54.64 42.53 54.64 43.61 47.34 43.61 47.34 42.53 47.92 42.53 54.64 42.53"/>
            <polygon class="cls-22" points="54.64 39.52 54.64 42.53 47.92 42.53 52.96 37.3 47.34 41.57 47.34 35.3 50.79 35.3 48.04 38.31 51.89 35.3 54.64 35.3 54.64 38.6 51.05 41.74 54.64 39.52"/>
            <polygon class="cls-8" points="54.64 38.6 54.64 39.52 51.05 41.74 54.64 38.6"/>
            <rect class="cls-5" x="47.34" y="18.67" width="7.29" height="4.87"/>
            <polygon class="cls-10" points="54.64 17.6 54.64 18.67 47.34 18.67 47.34 17.6 47.92 17.6 54.64 17.6"/>
            <polygon class="cls-22" points="54.64 14.58 54.64 17.6 47.92 17.6 52.96 12.37 47.34 16.64 47.34 10.36 50.79 10.36 48.04 13.37 51.89 10.36 54.64 10.36 54.64 13.66 51.05 16.8 54.64 14.58"/>
            <polygon class="cls-8" points="54.64 13.66 54.64 14.58 51.05 16.8 54.64 13.66"/>
            <polygon class="cls-22" points="53.91 70.39 53.91 72.91 47.09 72.91 51.73 67.88 46.1 71.79 46.1 63.48 50.31 63.48 46.87 67.6 52.82 63.48 53.91 63.48 53.91 69 50.69 71.95 53.91 70.39"/>
            <polygon class="cls-8" points="53.91 69 53.91 70.39 50.69 71.95 53.91 69"/>
            <polygon class="cls-8" points="52.96 12.37 47.92 17.6 47.34 17.6 47.34 16.64 52.96 12.37"/>
            <polygon class="cls-8" points="52.96 37.3 47.92 42.53 47.34 42.53 47.34 41.57 52.96 37.3"/>
            <polygon class="cls-8" points="52.82 63.48 46.87 67.6 50.31 63.48 52.82 63.48"/>
            <polygon class="cls-8" points="51.89 10.36 48.04 13.37 50.79 10.36 51.89 10.36"/>
            <polygon class="cls-8" points="51.89 35.3 48.04 38.31 50.79 35.3 51.89 35.3"/>
            <polygon class="cls-8" points="51.73 67.88 47.09 72.91 46.1 72.91 46.1 71.79 51.73 67.88"/>
            <path class="cls-10" d="M41.85,34.52v14.64h-8.52v-14.64h8.52Zm-.67,9.06v-8.31h-7.29v13.18h7.29v-4.87Z"/>
            <path class="cls-10" d="M41.85,9.59v14.64h-8.52V9.59h8.52Zm-.67,9.06V10.34h-7.29v13.18h7.29v-4.87Z"/>
            <rect class="cls-16" x="33.89" y="43.59" width="7.29" height="4.87"/>
            <polygon class="cls-10" points="41.19 42.51 41.19 43.59 33.89 43.59 33.89 42.51 34.47 42.51 41.19 42.51"/>
            <polygon class="cls-22" points="41.19 39.5 41.19 42.51 34.47 42.51 39.51 37.28 33.89 41.55 33.89 35.28 37.33 35.28 34.59 38.29 38.44 35.28 41.19 35.28 41.19 38.58 37.59 41.72 41.19 39.5"/>
            <polygon class="cls-8" points="41.19 38.58 41.19 39.5 37.59 41.72 41.19 38.58"/>
            <rect class="cls-5" x="33.89" y="18.65" width="7.29" height="4.87"/>
            <polygon class="cls-10" points="41.19 17.58 41.19 18.65 33.89 18.65 33.89 17.58 34.47 17.58 41.19 17.58"/>
            <polygon class="cls-22" points="41.19 14.56 41.19 17.58 34.47 17.58 39.51 12.35 33.89 16.62 33.89 10.34 37.33 10.34 34.59 13.35 38.44 10.34 41.19 10.34 41.19 13.64 37.59 16.78 41.19 14.56"/>
            <polygon class="cls-8" points="41.19 13.64 41.19 14.56 37.59 16.78 41.19 13.64"/>
            <path class="cls-10" d="M40.31,60.15v14.64h-8.52v-14.64h8.52Zm-.67,9.06v-8.31h-7.29v13.18h7.29v-4.87Z"/>
            <rect class="cls-5" x="32.35" y="69.22" width="7.29" height="4.87"/>
            <polygon class="cls-10" points="39.64 68.14 39.64 69.22 32.35 69.22 32.35 68.14 32.92 68.14 39.64 68.14"/>
            <polygon class="cls-22" points="39.64 65.13 39.64 68.14 32.92 68.14 37.96 62.92 32.35 67.18 32.35 60.91 35.79 60.91 33.05 63.92 36.9 60.91 39.64 60.91 39.64 64.21 36.05 67.35 39.64 65.13"/>
            <polygon class="cls-8" points="39.64 64.21 39.64 65.13 36.05 67.35 39.64 64.21"/>
            <polygon class="cls-8" points="39.51 12.35 34.47 17.58 33.89 17.58 33.89 16.62 39.51 12.35"/>
            <polygon class="cls-8" points="39.51 37.28 34.47 42.51 33.89 42.51 33.89 41.55 39.51 37.28"/>
            <polygon class="cls-8" points="38.44 10.34 34.59 13.35 37.33 10.34 38.44 10.34"/>
            <polygon class="cls-8" points="38.44 35.28 34.59 38.29 37.33 35.28 38.44 35.28"/>
            <polygon class="cls-8" points="37.96 62.92 32.92 68.14 32.35 68.14 32.35 67.18 37.96 62.92"/>
            <polygon class="cls-8" points="36.9 60.91 33.05 63.92 35.79 60.91 36.9 60.91"/>
            <path class="cls-10" d="M28.69,34.52v14.64h-8.52v-14.64h8.52Zm-.67,9.06v-8.31h-7.29v13.18h7.29v-4.87Z"/>
            <path class="cls-10" d="M28.69,9.59v14.64h-8.52V9.59h8.52Zm-.67,9.06V10.34h-7.29v13.18h7.29v-4.87Z"/>
            <rect class="cls-5" x="20.73" y="43.59" width="7.29" height="4.87"/>
            <polygon class="cls-10" points="28.02 42.51 28.02 43.59 20.73 43.59 20.73 42.51 21.3 42.51 28.02 42.51"/>
            <polygon class="cls-22" points="28.02 39.5 28.02 42.51 21.3 42.51 26.34 37.28 20.73 41.55 20.73 35.28 24.17 35.28 21.43 38.29 25.28 35.28 28.02 35.28 28.02 38.58 24.43 41.72 28.02 39.5"/>
            <polygon class="cls-8" points="28.02 38.58 28.02 39.5 24.43 41.72 28.02 38.58"/>
            <rect class="cls-16" x="20.73" y="18.65" width="7.29" height="4.87"/>
            <polygon class="cls-10" points="28.02 17.58 28.02 18.65 20.73 18.65 20.73 17.58 21.3 17.58 28.02 17.58"/>
            <polygon class="cls-22" points="28.02 14.56 28.02 17.58 21.3 17.58 26.34 12.35 20.73 16.62 20.73 10.34 24.17 10.34 21.43 13.35 25.28 10.34 28.02 10.34 28.02 13.64 24.43 16.78 28.02 14.56"/>
            <polygon class="cls-8" points="28.02 13.64 28.02 14.56 24.43 16.78 28.02 13.64"/>
            <path class="cls-10" d="M27.15,60.15v14.64h-8.52v-14.64h8.52Zm-.67,9.06v-8.31h-7.29v13.18h7.29v-4.87Z"/>
            <rect class="cls-16" x="19.19" y="69.22" width="7.29" height="4.87"/>
            <polygon class="cls-10" points="26.48 68.14 26.48 69.22 19.19 69.22 19.19 68.14 19.76 68.14 26.48 68.14"/>
            <polygon class="cls-22" points="26.48 65.13 26.48 68.14 19.76 68.14 24.8 62.92 19.19 67.18 19.19 60.91 22.63 60.91 19.88 63.92 23.73 60.91 26.48 60.91 26.48 64.21 22.89 67.35 26.48 65.13"/>
            <polygon class="cls-8" points="26.48 64.21 26.48 65.13 22.89 67.35 26.48 64.21"/>
            <polygon class="cls-8" points="26.34 12.35 21.3 17.58 20.73 17.58 20.73 16.62 26.34 12.35"/>
            <polygon class="cls-8" points="26.34 37.28 21.3 42.51 20.73 42.51 20.73 41.55 26.34 37.28"/>
            <polygon class="cls-8" points="25.28 10.34 21.43 13.35 24.17 10.34 25.28 10.34"/>
            <polygon class="cls-8" points="25.28 35.28 21.43 38.29 24.17 35.28 25.28 35.28"/>
            <polygon class="cls-8" points="24.8 62.92 19.76 68.14 19.19 68.14 19.19 67.18 24.8 62.92"/>
            <polygon class="cls-8" points="23.73 60.91 19.88 63.92 22.63 60.91 23.73 60.91"/>
            <polygon class="cls-1" points="20.17 39.01 20.17 45.93 19.41 45.93 16.55 45.93 16.54 44.53 18.96 44.53 18.96 42.55 16.53 42.55 16.52 41 19.41 41 19.41 39.01 20.17 39.01"/>
            <polygon class="cls-15" points="19.41 45.93 19.41 47.92 16.55 47.92 16.55 45.93 19.41 45.93"/>
            <polygon class="cls-15" points="19.41 39.01 19.41 41 16.52 41 16.51 39.01 19.41 39.01"/>
            <polygon class="cls-15" points="19.19 19.91 19.19 21.9 16.42 21.9 16.41 19.91 19.19 19.91"/>
            <polygon class="cls-15" points="19.19 12.99 19.19 14.98 16.38 14.98 16.37 12.99 19.19 12.99"/>
            <polygon class="cls-15" points="18.96 49.56 18.96 51.55 16.57 51.55 16.56 49.56 18.96 49.56"/>
            <polygon class="cls-15" points="18.96 42.55 18.96 44.53 16.54 44.53 16.53 42.55 18.96 42.55"/>
            <polygon class="cls-15" points="18.96 35.63 18.96 37.62 16.5 37.62 16.49 35.63 18.96 35.63"/>
            <polygon class="cls-15" points="18.73 23.54 18.73 25.53 16.44 25.53 16.42 23.54 18.73 23.54"/>
            <polygon class="cls-15" points="18.73 16.52 18.73 18.51 16.4 18.51 16.39 16.52 18.73 16.52"/>
            <polygon class="cls-15" points="18.73 9.61 18.73 11.59 16.36 11.59 16.35 9.61 18.73 9.61"/>
            <polygon class="cls-15" points="18.63 78.45 18.63 80.43 16.73 80.43 16.72 78.45 18.63 78.45"/>
            <polygon class="cls-15" points="18.29 82.07 18.29 84.06 16.75 84.06 16.74 82.07 18.29 82.07"/>
            <polygon class="cls-15" points="17.53 71.34 17.53 73.33 16.69 73.33 16.68 71.34 17.53 71.34"/>
            <polygon class="cls-15" points="17.53 64.43 17.53 66.41 16.65 66.41 16.64 64.43 17.53 64.43"/>
            <polygon class="cls-15" points="17.31 74.97 17.31 76.96 16.71 76.96 16.7 74.97 17.31 74.97"/>
            <polygon class="cls-15" points="17.31 67.95 17.31 69.94 16.67 69.94 16.66 67.95 17.31 67.95"/>
            <polygon class="cls-15" points="17.31 61.04 17.31 63.02 16.63 63.02 16.62 61.04 17.31 61.04"/>
            <polygon class="cls-10" points="16.75 85.45 16.77 88.45 13.38 88.45 15.57 85.45 16.75 85.45"/>
            <polygon class="cls-15" points="16.74 82.07 16.75 84.06 15.47 84.06 15.47 82.07 16.74 82.07"/>
            <polygon class="cls-15" points="16.72 78.45 16.73 80.43 15.81 80.43 15.81 78.45 16.72 78.45"/>
            <polygon class="cls-15" points="16.7 74.97 16.71 76.96 15.47 76.96 15.47 74.97 16.7 74.97"/>
            <polygon class="cls-15" points="16.68 71.34 16.69 73.33 15.69 73.33 15.69 71.34 16.68 71.34"/>
            <polygon class="cls-15" points="16.66 67.95 16.67 69.94 15.47 69.94 15.47 67.95 16.66 67.95"/>
            <polygon class="cls-15" points="16.65 66.41 15.69 66.41 15.69 64.43 16.64 64.43 16.65 66.41"/>
            <polygon class="cls-15" points="16.62 61.04 16.63 63.02 15.47 63.02 15.47 61.04 16.62 61.04"/>
            <polygon class="cls-7" points="16.58 53.46 16.6 56.7 15.68 56.7 15.68 53.46 16.58 53.46"/>
            <polygon class="cls-15" points="16.56 49.56 16.57 51.55 15.24 51.55 15.24 49.56 16.56 49.56"/>
            <polygon class="cls-15" points="16.55 45.93 16.55 47.92 15.7 47.92 15.7 45.93 16.55 45.93"/>
            <polygon class="cls-15" points="16.53 42.55 16.54 44.53 15.24 44.53 15.24 42.55 16.53 42.55"/>
            <polygon class="cls-15" points="16.51 39.01 16.52 41 15.7 41 15.7 39.01 16.51 39.01"/>
            <polygon class="cls-15" points="16.49 35.63 16.5 37.62 15.24 37.62 15.24 35.63 16.49 35.63"/>
            <polygon class="cls-7" points="16.45 27.79 16.46 31.02 15.47 31.02 15.47 27.79 16.45 27.79"/>
            <polygon class="cls-15" points="16.42 23.54 16.44 25.53 15.02 25.53 15.02 23.54 16.42 23.54"/>
            <polygon class="cls-15" points="16.41 19.91 16.42 21.9 15.47 21.9 15.47 19.91 16.41 19.91"/>
            <polygon class="cls-15" points="16.39 16.52 16.4 18.51 15.02 18.51 15.02 16.52 16.39 16.52"/>
            <polygon class="cls-15" points="16.37 12.99 16.38 14.98 15.47 14.98 15.47 12.99 16.37 12.99"/>
            <polygon class="cls-15" points="16.35 9.61 16.36 11.59 15.02 11.59 15.02 9.61 16.35 9.61"/>
          </g>
          <path class="cls-9" d="M75.11,5.89l-.05,3.4h.99v1.99h-1.01l-.02,1.4h.67v1.98h-.69l-.02,1.54h1.08v1.98h-1.1l-.02,1.4h.76v1.99h-.79l-.02,1.64h1.17v1.98h-1.2l-.03,2.58h.89v3.24h-.93l-.06,4.06h1.15v1.99h-1.17l-.02,1.4h.83v1.99h-.86l-.02,1.54h1.24v1.99h-1.27l-.02,1.4h.92v1.98h-.95l-.02,1.64h1.33v1.99h-1.36l-.03,2.45h1.04v3.24h-1.08l-.04,3.22h.71v1.99h-.74l-.02,1.4h.46v1.98h-.49l-.02,1.54h.81v1.99h-.83l-.02,1.4h.55v1.99h-.58l-.02,1.64h.9v1.98h-.92l-.02,1.75h.8v1.99h-.82l-.02,1.64h1.15v1.98h-1.17l-.03,2.25h3.02l1.2,3h-17.81V41.49s10.03,22.3,14.64-35.6Z"/>
        </g>
        <g>
          <g>
            <rect class="cls-10" x="70.28" y="83.84" width="2.96" height="4.62"/>
            <path class="cls-4" d="M70.28,84.9v.73s1.35,1.25,2.96,0v-1.41l-2.96,.68Z"/>
          </g>
          <g>
            <path class="cls-19" d="M71.68,53.98c-4.5,.22-5.21,14.88-5.11,23.12,.1,8.24,5.11,8.1,5.11,8.1,0,0,5.01,.14,5.11-8.1s-.61-22.9-5.11-23.12Z"/>
            <path class="cls-2" d="M76.41,72.4c-1.25,4.67-3.23,7.72-5.77,8.43-1.35,.38-2.78-.02-3.92-1.57,.87,6.05,4.95,5.94,4.95,5.94,0,0,5.01,.14,5.11-8.1,.02-1.76,0-3.81-.08-5.95-.09,.42-.19,.84-.3,1.25Z"/>
            <path class="cls-13" d="M70.53,59.68c-.61,1.43-1.37,2.12-1.68,1.53-.32-.59-.07-2.22,.54-3.65,.61-1.43,1.37-2.12,1.68-1.53,.32,.59,.07,2.22-.54,3.65Z"/>
          </g>
        </g>
        <g>
          <g>
            <rect class="cls-10" x="81.75" y="85.09" width="2.52" height="3.37"/>
            <path class="cls-4" d="M81.75,85.86v.53s1.15,.91,2.52,0v-1.03l-2.52,.49Z"/>
          </g>
          <g>
            <path class="cls-19" d="M82.94,63.31c-3.82,.16-4.43,10.85-4.34,16.86s4.34,5.91,4.34,5.91c0,0,4.25,.1,4.34-5.91,.09-6.01-.52-16.7-4.34-16.86Z"/>
            <path class="cls-2" d="M86.97,76.74c-1.06,3.41-2.75,5.63-4.9,6.15-1.15,.28-2.36-.01-3.33-1.15,.74,4.42,4.21,4.33,4.21,4.33,0,0,4.25,.1,4.34-5.91,.02-1.28,0-2.78-.06-4.34-.08,.31-.16,.61-.25,.91Z"/>
            <path class="cls-13" d="M81.97,67.47c-.52,1.04-1.16,1.55-1.43,1.12-.27-.43-.06-1.62,.46-2.66,.52-1.04,1.16-1.55,1.43-1.12,.27,.43,.06,1.62-.46,2.66Z"/>
          </g>
        </g>
      </g>
    </g>
  </g>
</svg>