<svg xmlns="http://www.w3.org/2000/svg" width="37.724" height="26.117" viewBox="0 0 37.724 26.117">
  <g id="Icon_ionic-ios-mail" data-name="Icon ionic-ios-mail" transform="translate(-3.375 -7.875)">
    <path id="Tracé_2840" data-name="Tracé 2840" d="M40.791,10.37l-9.758,9.939a.175.175,0,0,0,0,.254l6.828,7.273a1.177,1.177,0,0,1,0,1.669,1.182,1.182,0,0,1-1.669,0l-6.8-7.246a.186.186,0,0,0-.263,0l-1.66,1.687a7.3,7.3,0,0,1-5.205,2.195,7.448,7.448,0,0,1-5.314-2.258l-1.6-1.623a.186.186,0,0,0-.263,0L8.29,29.5a1.182,1.182,0,0,1-1.669,0,1.177,1.177,0,0,1,0-1.669l6.828-7.273a.193.193,0,0,0,0-.254L3.683,10.37a.179.179,0,0,0-.308.127V30.383a2.91,2.91,0,0,0,2.9,2.9H38.2a2.91,2.91,0,0,0,2.9-2.9V10.5A.181.181,0,0,0,40.791,10.37Z" transform="translate(0 0.707)" fill="#00ec99"/>
    <path id="Tracé_2841" data-name="Tracé 2841" d="M21.991,24.479a4.93,4.93,0,0,0,3.546-1.487L39.765,8.51a2.85,2.85,0,0,0-1.8-.635H6.021a2.831,2.831,0,0,0-1.8.635L18.454,22.992A4.931,4.931,0,0,0,21.991,24.479Z" transform="translate(0.246 0)" fill="#00ec99"/>
  </g>
</svg>