<?xml version="1.0" encoding="UTF-8"?>
<svg xmlns="http://www.w3.org/2000/svg" viewBox="0 0 294.03 245.23">
  <defs>
    <style>
      .cls-1 {
        fill: #ddeedc;
      }

      .cls-2 {
        fill: #fff;
      }

      .cls-3 {
        fill: #554b3f;
      }

      .cls-4 {
        fill: #469fbb;
      }

      .cls-5 {
        fill: #a6a6a6;
      }

      .cls-6 {
        isolation: isolate;
      }

      .cls-7 {
        fill: #1ca9c1;
      }

      .cls-8, .cls-9, .cls-10 {
        fill: #d99356;
      }

      .cls-11, .cls-12, .cls-9 {
        mix-blend-mode: screen;
      }

      .cls-11, .cls-13 {
        fill: #165766;
      }

      .cls-12 {
        fill: #1776a8;
      }

      .cls-14 {
        fill: #92633a;
      }

      .cls-15 {
        fill: #f6e5cb;
      }

      .cls-16 {
        fill: #123d47;
      }

      .cls-17 {
        fill: #d3d7da;
      }

      .cls-10, .cls-18, .cls-19 {
        mix-blend-mode: multiply;
      }

      .cls-20 {
        fill: #c8874f;
      }

      .cls-21 {
        fill: #ddc993;
      }

      .cls-22 {
        fill: #fdc489;
      }

      .cls-23 {
        fill: #674629;
      }

      .cls-24 {
        fill: #1d7b90;
      }

      .cls-25 {
        fill: #8f8561;
      }

      .cls-26 {
        fill: #2183a4;
      }

      .cls-27, .cls-18 {
        fill: #a46f41;
      }

      .cls-28 {
        fill: #7d5532;
      }

      .cls-29 {
        fill: #2a6b7e;
      }

      .cls-30 {
        fill: #7cb9c5;
      }
    </style>
  </defs>
  <g class="cls-6">
    <g id="Layer_1" data-name="Layer 1">
      <g>
        <g>
          <rect class="cls-8" x="20.13" y="89.75" width="253.24" height="152.06"/>
          <rect class="cls-22" x="27.23" y="89.75" width="238.19" height="152.06"/>
          <g class="cls-19">
            <rect class="cls-27" x="20.13" y="89.75" width="253.24" height="28.84"/>
          </g>
          <g>
            <polygon class="cls-13" points="254.51 23.25 41 23.25 7.12 89.81 24.32 89.81 271.19 89.81 288.37 89.81 254.51 23.25"/>
            <rect class="cls-16" x="4.77" y="87.1" width="284.49" height="27.46"/>
            <polygon class="cls-11" points="4.77 87.1 287.09 89.88 289.26 114.57 289.26 87.1 4.77 87.1"/>
          </g>
          <g>
            <polygon class="cls-26" points="16.33 71.73 279.16 71.73 277.89 69.22 17.6 69.22 16.33 71.73"/>
            <polygon class="cls-26" points="19.38 65.73 276.12 65.73 274.84 63.22 20.65 63.22 19.38 65.73"/>
            <polygon class="cls-26" points="22.43 59.73 273.06 59.73 271.79 57.22 23.71 57.22 22.43 59.73"/>
            <polygon class="cls-26" points="28.54 47.73 266.96 47.73 265.69 45.23 29.82 45.23 28.54 47.73"/>
            <polygon class="cls-26" points="25.49 53.73 270.01 53.73 268.73 51.23 26.76 51.23 25.49 53.73"/>
            <polygon class="cls-26" points="31.59 41.73 263.91 41.73 262.63 39.23 32.87 39.23 31.59 41.73"/>
            <polygon class="cls-26" points="34.64 35.74 260.86 35.74 259.58 33.23 35.92 33.23 34.64 35.74"/>
            <polygon class="cls-26" points="256.53 27.23 38.97 27.23 37.7 29.74 257.8 29.74 256.53 27.23"/>
            <polygon class="cls-26" points="10.22 83.72 285.27 83.72 283.99 81.22 11.5 81.22 10.22 83.72"/>
            <polygon class="cls-26" points="13.28 77.72 282.22 77.72 280.94 75.22 14.55 75.22 13.28 77.72"/>
          </g>
          <polygon class="cls-12" points="254.51 23.25 41 23.25 7.12 89.81 43.28 27 250.02 28.32 288.37 89.81 254.51 23.25"/>
        </g>
        <g>
          <rect class="cls-28" x="118.86" y="161.72" width="55.98" height="70.82"/>
          <rect class="cls-8" x="121.18" y="165.04" width="51.35" height="67.49"/>
          <polygon class="cls-9" points="172.53 232.54 171.05 166.39 121.18 165.04 172.53 165.04 172.53 232.54"/>
          <g>
            <path class="cls-5" d="M128.19,201.23c0,1.41-1.15,2.56-2.55,2.56s-2.55-1.14-2.55-2.56,1.14-2.55,2.55-2.55,2.55,1.14,2.55,2.55Z"/>
            <path class="cls-17" d="M126.04,200.61c0,.61-.49,1.11-1.11,1.11s-1.11-.5-1.11-1.11,.5-1.11,1.11-1.11,1.11,.5,1.11,1.11Z"/>
          </g>
          <rect class="cls-28" x="129.86" y="173.37" width="36.25" height="16.25"/>
          <rect class="cls-28" x="129.86" y="193.44" width="36.25" height="16.25"/>
          <rect class="cls-28" x="129.86" y="213.51" width="36.25" height="16.25"/>
          <g>
            <rect class="cls-20" x="129.16" y="172.56" width="36.25" height="16.25"/>
            <polygon class="cls-9" points="165.41 188.81 164.73 173.16 129.16 172.56 165.41 172.56 165.41 188.81"/>
          </g>
          <g>
            <rect class="cls-20" x="129.16" y="192.63" width="36.25" height="16.25"/>
            <polygon class="cls-9" points="165.41 208.88 164.73 193.24 129.16 192.63 165.41 192.63 165.41 208.88"/>
          </g>
          <g>
            <rect class="cls-20" x="129.16" y="212.71" width="36.25" height="16.25"/>
            <polygon class="cls-9" points="165.41 228.95 164.73 213.31 129.16 212.71 165.41 212.71 165.41 228.95"/>
          </g>
        </g>
        <g>
          <g>
            <rect class="cls-8" x="42.02" y="42.59" width="84.31" height="71.89"/>
            <rect class="cls-10" x="42.02" y="42.59" width="84.31" height="8.5"/>
            <polygon class="cls-7" points="30.83 47.4 84.18 3.37 137.51 47.4 30.83 47.4"/>
            <polygon class="cls-24" points="30.83 47.4 84.18 7.31 137.51 47.4 30.83 47.4"/>
            <polygon class="cls-8" points="41.93 47.4 84.18 12.53 126.43 47.4 41.93 47.4"/>
            <polygon class="cls-22" points="44.89 47.4 84.18 14.98 123.46 47.4 44.89 47.4"/>
            <polygon class="cls-15" points="56.51 43.48 84.17 20.65 111.84 43.48 56.51 43.48"/>
            <polygon class="cls-8" points="56.51 43.48 84.17 20.65 111.84 43.48 84.16 22.69 56.51 43.48"/>
            <g>
              <rect class="cls-22" x="47.54" y="47.33" width="9.1" height="67.15"/>
              <rect class="cls-10" x="55.1" y="47.33" width="1.53" height="67.15"/>
              <rect class="cls-10" x="47.54" y="47.33" width="1.54" height="67.15"/>
            </g>
            <g>
              <rect class="cls-22" x="111.75" y="47.33" width="9.1" height="67.15"/>
              <rect class="cls-10" x="119.31" y="47.33" width="1.54" height="67.15"/>
              <rect class="cls-10" x="111.75" y="47.33" width="1.53" height="67.15"/>
            </g>
            <g>
              <rect class="cls-1" x="68.84" y="56.83" width="32.34" height="46.37"/>
              <g>
                <rect class="cls-3" x="71.29" y="59.12" width="27.45" height="41.83"/>
                <rect class="cls-30" x="72.08" y="59.75" width="25.87" height="40.43"/>
                <rect class="cls-1" x="84.3" y="59.12" width="1.43" height="41.83"/>
                <rect class="cls-1" x="71.34" y="68.44" width="27.36" height="1.42"/>
                <rect class="cls-1" x="71.34" y="79.62" width="27.36" height="1.42"/>
                <rect class="cls-1" x="71.34" y="90.82" width="27.36" height="1.41"/>
              </g>
            </g>
          </g>
          <g>
            <rect class="cls-8" x="169.83" y="42.59" width="84.31" height="71.89"/>
            <rect class="cls-10" x="169.83" y="42.59" width="84.31" height="8.5"/>
            <polygon class="cls-7" points="158.65 47.4 211.99 3.37 265.33 47.4 158.65 47.4"/>
            <polygon class="cls-24" points="158.65 47.4 211.99 7.31 265.33 47.4 158.65 47.4"/>
            <polygon class="cls-8" points="169.74 47.4 211.99 12.53 254.23 47.4 169.74 47.4"/>
            <polygon class="cls-22" points="172.71 47.4 211.99 14.98 251.27 47.4 172.71 47.4"/>
            <polygon class="cls-15" points="181.35 44.47 211.99 19.19 242.62 44.47 181.35 44.47"/>
            <polygon class="cls-8" points="181.35 44.47 211.99 19.19 242.62 44.47 212.18 21.07 181.35 44.47"/>
            <g>
              <rect class="cls-22" x="175.35" y="47.33" width="9.09" height="67.15"/>
              <rect class="cls-10" x="182.91" y="47.33" width="1.53" height="67.15"/>
              <rect class="cls-10" x="175.35" y="47.33" width="1.53" height="67.15"/>
            </g>
            <g>
              <rect class="cls-22" x="239.56" y="47.33" width="9.1" height="67.15"/>
              <rect class="cls-10" x="247.12" y="47.33" width="1.54" height="67.15"/>
              <rect class="cls-10" x="239.56" y="47.33" width="1.53" height="67.15"/>
            </g>
            <g>
              <rect class="cls-1" x="196.65" y="56.83" width="32.33" height="46.37"/>
              <g>
                <rect class="cls-3" x="199.11" y="59.12" width="27.45" height="41.83"/>
                <rect class="cls-30" x="199.89" y="59.75" width="25.88" height="40.43"/>
                <rect class="cls-1" x="212.11" y="59.12" width="1.43" height="41.83"/>
                <rect class="cls-1" x="199.15" y="68.44" width="27.36" height="1.42"/>
                <rect class="cls-1" x="199.15" y="79.62" width="27.36" height="1.42"/>
                <rect class="cls-1" x="199.15" y="90.82" width="27.36" height="1.41"/>
              </g>
            </g>
          </g>
        </g>
        <g>
          <g>
            <rect class="cls-18" x="47.76" y="143.87" width="47.82" height="59.94"/>
            <g>
              <rect class="cls-22" x="49.8" y="146.23" width="43.52" height="55.29"/>
              <g>
                <g>
                  <rect class="cls-29" x="53.1" y="150.17" width="16.82" height="47.4"/>
                  <path class="cls-2" d="M70.36,198.03h-17.7v-48.3h17.7v48.3Zm-16.82-.9h15.94v-46.52h-15.94v46.52Z"/>
                </g>
                <g>
                  <rect class="cls-29" x="72.93" y="150.17" width="16.82" height="47.4"/>
                  <path class="cls-2" d="M90.19,198.03h-17.7v-48.3h17.7v48.3Zm-16.81-.9h15.92v-46.52h-15.92v46.52Z"/>
                </g>
              </g>
              <g>
                <g>
                  <rect class="cls-4" x="53.1" y="150.17" width="16.82" height="22.9"/>
                  <path class="cls-2" d="M70.36,173.51h-17.7v-23.79h17.7v23.79Zm-16.82-.89h15.94v-22.02h-15.94v22.02Z"/>
                </g>
                <g>
                  <rect class="cls-4" x="72.93" y="150.17" width="16.82" height="22.9"/>
                  <path class="cls-2" d="M90.19,173.51h-17.7v-23.79h17.7v23.79Zm-16.81-.89h15.92v-22.02h-15.92v22.02Z"/>
                </g>
              </g>
            </g>
          </g>
          <g>
            <rect class="cls-18" x="198.12" y="143.87" width="47.82" height="59.94"/>
            <g>
              <rect class="cls-22" x="200.17" y="146.23" width="43.53" height="55.29"/>
              <g>
                <g>
                  <rect class="cls-29" x="203.47" y="150.17" width="16.82" height="47.4"/>
                  <path class="cls-2" d="M220.72,198.03h-17.7v-48.3h17.7v48.3Zm-16.81-.9h15.93v-46.52h-15.93v46.52Z"/>
                </g>
                <g>
                  <rect class="cls-29" x="223.3" y="150.17" width="16.82" height="47.4"/>
                  <path class="cls-2" d="M240.55,198.03h-17.7v-48.3h17.7v48.3Zm-16.81-.9h15.92v-46.52h-15.92v46.52Z"/>
                </g>
              </g>
              <g>
                <g>
                  <rect class="cls-4" x="203.47" y="150.17" width="16.82" height="22.9"/>
                  <path class="cls-2" d="M220.72,173.51h-17.7v-23.79h17.7v23.79Zm-16.81-.89h15.93v-22.02h-15.93v22.02Z"/>
                </g>
                <g>
                  <rect class="cls-4" x="223.3" y="150.17" width="16.82" height="22.9"/>
                  <path class="cls-2" d="M240.55,173.51h-17.7v-23.79h17.7v23.79Zm-16.81-.89h15.92v-22.02h-15.92v22.02Z"/>
                </g>
              </g>
            </g>
          </g>
        </g>
        <g>
          <rect class="cls-25" x="118.19" y="231.82" width="57.76" height="5.2"/>
          <rect class="cls-21" x="113.75" y="235.86" width="66.65" height="5.99"/>
        </g>
        <g>
          <g>
            <rect class="cls-23" x="15.28" y="212.06" width="3.13" height="27.78"/>
            <rect class="cls-23" x="26.61" y="212.06" width="3.13" height="27.78"/>
            <rect class="cls-23" x="37.94" y="212.06" width="3.13" height="27.78"/>
            <rect class="cls-23" x="49.27" y="212.06" width="3.13" height="27.78"/>
            <rect class="cls-23" x="60.59" y="212.06" width="3.13" height="27.78"/>
            <rect class="cls-23" x="71.93" y="212.06" width="3.13" height="27.78"/>
            <rect class="cls-23" x="83.26" y="212.06" width="3.13" height="27.78"/>
            <rect class="cls-23" x="94.58" y="212.06" width="3.13" height="27.78"/>
            <rect class="cls-23" x="105.92" y="212.06" width="3.13" height="27.78"/>
          </g>
          <g>
            <rect class="cls-14" x="13.4" y="210.8" width="100.04" height="2.51"/>
            <rect class="cls-14" x="13.4" y="237.43" width="100.04" height="4.39"/>
          </g>
        </g>
        <g>
          <g>
            <rect class="cls-23" x="276.03" y="212.06" width="3.13" height="27.78"/>
            <rect class="cls-23" x="264.69" y="212.06" width="3.13" height="27.78"/>
            <rect class="cls-23" x="253.36" y="212.06" width="3.13" height="27.78"/>
            <rect class="cls-23" x="242.03" y="212.06" width="3.13" height="27.78"/>
            <rect class="cls-23" x="230.71" y="212.06" width="3.13" height="27.78"/>
            <rect class="cls-23" x="219.38" y="212.06" width="3.13" height="27.78"/>
            <rect class="cls-23" x="208.05" y="212.06" width="3.13" height="27.78"/>
            <rect class="cls-23" x="196.71" y="212.06" width="3.13" height="27.78"/>
            <rect class="cls-23" x="185.39" y="212.06" width="3.13" height="27.78"/>
          </g>
          <g>
            <rect class="cls-14" x="180.99" y="210.8" width="100.04" height="2.51"/>
            <rect class="cls-14" x="180.99" y="237.43" width="100.04" height="4.39"/>
          </g>
        </g>
      </g>
    </g>
  </g>
</svg>