<?xml version="1.0" encoding="UTF-8"?>
<svg xmlns="http://www.w3.org/2000/svg" xmlns:xlink="http://www.w3.org/1999/xlink" viewBox="0 0 115.07 84.81">
  <defs>
    <style>
      .cls-1 {
        fill: #afddf3;
      }

      .cls-2 {
        fill: #2c3e50;
      }

      .cls-3 {
        fill: #804438;
      }

      .cls-4 {
        fill: #7e827a;
      }

      .cls-5 {
        isolation: isolate;
      }

      .cls-6 {
        fill: #5c6667;
      }

      .cls-7 {
        fill: #878787;
      }

      .cls-8 {
        clip-path: url(#clippath);
      }

      .cls-9, .cls-10 {
        fill: #bdc3c7;
      }

      .cls-10, .cls-11 {
        mix-blend-mode: multiply;
      }
    </style>
    <clipPath id="clippath">
      <polygon class="cls-7" points="49.51 26.11 49.51 42.35 12.31 42.35 12.31 63.85 0 63.85 0 84.63 24.62 84.63 24.62 84.62 74.13 84.62 74.13 46.89 74.13 42.35 74.13 26.11 49.51 26.11"/>
    </clipPath>
  </defs>
  <g class="cls-5">
    <g id="Calque_2" data-name="Calque 2">
      <g id="Building_Icons" data-name="Building Icons">
        <g>
          <rect class="cls-7" x="76.23" y="20.01" width="38.84" height="64.61"/>
          <g>
            <g>
              <rect class="cls-3" x="76.18" y="20.01" width="5.97" height="2.6"/>
              <rect class="cls-3" x="76.18" y="23.29" width="5.97" height="2.6"/>
              <rect class="cls-3" x="76.18" y="26.56" width="5.97" height="2.6"/>
              <rect class="cls-3" x="76.18" y="29.83" width="5.97" height="2.6"/>
              <rect class="cls-3" x="76.18" y="33.11" width="5.97" height="2.6"/>
              <rect class="cls-3" x="76.18" y="36.38" width="5.97" height="2.6"/>
              <rect class="cls-3" x="76.18" y="39.65" width="5.97" height="2.6"/>
              <rect class="cls-3" x="76.18" y="42.93" width="5.97" height="2.6"/>
              <rect class="cls-3" x="76.18" y="46.2" width="5.97" height="2.6"/>
              <rect class="cls-3" x="76.18" y="49.47" width="5.97" height="2.6"/>
              <rect class="cls-3" x="76.18" y="52.75" width="5.97" height="2.6"/>
              <rect class="cls-3" x="76.18" y="56.02" width="5.97" height="2.6"/>
              <rect class="cls-3" x="76.18" y="59.29" width="5.97" height="2.6"/>
              <rect class="cls-3" x="76.18" y="62.57" width="5.97" height="2.6"/>
              <rect class="cls-3" x="76.18" y="65.84" width="5.97" height="2.6"/>
              <rect class="cls-3" x="76.18" y="69.11" width="5.97" height="2.6"/>
              <rect class="cls-3" x="76.18" y="72.39" width="5.97" height="2.6"/>
              <rect class="cls-3" x="76.18" y="75.66" width="5.97" height="2.6"/>
              <rect class="cls-3" x="76.18" y="78.93" width="5.97" height="2.6"/>
              <rect class="cls-3" x="76.18" y="82.21" width="5.97" height="2.6"/>
            </g>
            <g>
              <rect class="cls-3" x="82.76" y="20.01" width="5.97" height="2.6"/>
              <rect class="cls-3" x="82.76" y="23.29" width="5.97" height="2.6"/>
              <rect class="cls-3" x="82.76" y="26.56" width="5.97" height="2.6"/>
              <rect class="cls-3" x="82.76" y="29.83" width="5.97" height="2.6"/>
              <rect class="cls-3" x="82.76" y="33.11" width="5.97" height="2.6"/>
              <rect class="cls-3" x="82.76" y="36.38" width="5.97" height="2.6"/>
              <rect class="cls-3" x="82.76" y="39.65" width="5.97" height="2.6"/>
              <rect class="cls-3" x="82.76" y="42.93" width="5.97" height="2.6"/>
              <rect class="cls-3" x="82.76" y="46.2" width="5.97" height="2.6"/>
              <rect class="cls-3" x="82.76" y="49.47" width="5.97" height="2.6"/>
              <rect class="cls-3" x="82.76" y="52.75" width="5.97" height="2.6"/>
              <rect class="cls-3" x="82.76" y="56.02" width="5.97" height="2.6"/>
              <rect class="cls-3" x="82.76" y="59.29" width="5.97" height="2.6"/>
              <rect class="cls-3" x="82.76" y="62.57" width="5.97" height="2.6"/>
              <rect class="cls-3" x="82.76" y="65.84" width="5.97" height="2.6"/>
              <rect class="cls-3" x="82.76" y="69.11" width="5.97" height="2.6"/>
              <rect class="cls-3" x="82.76" y="72.39" width="5.97" height="2.6"/>
              <rect class="cls-3" x="82.76" y="75.66" width="5.97" height="2.6"/>
              <rect class="cls-3" x="82.76" y="78.93" width="5.97" height="2.6"/>
              <rect class="cls-3" x="82.76" y="82.21" width="5.97" height="2.6"/>
            </g>
            <g>
              <rect class="cls-3" x="89.34" y="20.01" width="5.97" height="2.6"/>
              <rect class="cls-3" x="89.34" y="23.29" width="5.97" height="2.6"/>
              <rect class="cls-3" x="89.34" y="26.56" width="5.97" height="2.6"/>
              <rect class="cls-3" x="89.34" y="29.83" width="5.97" height="2.6"/>
              <rect class="cls-3" x="89.34" y="33.11" width="5.97" height="2.6"/>
              <rect class="cls-3" x="89.34" y="36.38" width="5.97" height="2.6"/>
              <rect class="cls-3" x="89.34" y="39.65" width="5.97" height="2.6"/>
              <rect class="cls-3" x="89.34" y="42.93" width="5.97" height="2.6"/>
              <rect class="cls-3" x="89.34" y="46.2" width="5.97" height="2.6"/>
              <rect class="cls-3" x="89.34" y="49.47" width="5.97" height="2.6"/>
              <rect class="cls-3" x="89.34" y="52.75" width="5.97" height="2.6"/>
              <rect class="cls-3" x="89.34" y="56.02" width="5.97" height="2.6"/>
              <rect class="cls-3" x="89.34" y="59.29" width="5.97" height="2.6"/>
              <rect class="cls-3" x="89.34" y="62.57" width="5.97" height="2.6"/>
              <rect class="cls-3" x="89.34" y="65.84" width="5.97" height="2.6"/>
              <rect class="cls-3" x="89.34" y="69.11" width="5.97" height="2.6"/>
              <rect class="cls-3" x="89.34" y="72.39" width="5.97" height="2.6"/>
              <rect class="cls-3" x="89.34" y="75.66" width="5.97" height="2.6"/>
              <rect class="cls-3" x="89.34" y="78.93" width="5.97" height="2.6"/>
              <rect class="cls-3" x="89.34" y="82.21" width="5.97" height="2.6"/>
            </g>
            <g>
              <rect class="cls-3" x="95.93" y="20.01" width="5.97" height="2.6"/>
              <rect class="cls-3" x="95.93" y="23.29" width="5.97" height="2.6"/>
              <rect class="cls-3" x="95.93" y="26.56" width="5.97" height="2.6"/>
              <rect class="cls-3" x="95.93" y="29.83" width="5.97" height="2.6"/>
              <rect class="cls-3" x="95.93" y="33.11" width="5.97" height="2.6"/>
              <rect class="cls-3" x="95.93" y="36.38" width="5.97" height="2.6"/>
              <rect class="cls-3" x="95.93" y="39.65" width="5.97" height="2.6"/>
              <rect class="cls-3" x="95.93" y="42.93" width="5.97" height="2.6"/>
              <rect class="cls-3" x="95.93" y="46.2" width="5.97" height="2.6"/>
              <rect class="cls-3" x="95.93" y="49.47" width="5.97" height="2.6"/>
              <rect class="cls-3" x="95.93" y="52.75" width="5.97" height="2.6"/>
              <rect class="cls-3" x="95.93" y="56.02" width="5.97" height="2.6"/>
              <rect class="cls-3" x="95.93" y="59.29" width="5.97" height="2.6"/>
              <rect class="cls-3" x="95.93" y="62.57" width="5.97" height="2.6"/>
              <rect class="cls-3" x="95.93" y="65.84" width="5.97" height="2.6"/>
              <rect class="cls-3" x="95.93" y="69.11" width="5.97" height="2.6"/>
              <rect class="cls-3" x="95.93" y="72.39" width="5.97" height="2.6"/>
              <rect class="cls-3" x="95.93" y="75.66" width="5.97" height="2.6"/>
              <rect class="cls-3" x="95.93" y="78.93" width="5.97" height="2.6"/>
              <rect class="cls-3" x="95.93" y="82.21" width="5.97" height="2.6"/>
            </g>
            <g>
              <rect class="cls-3" x="102.51" y="20.01" width="5.97" height="2.6"/>
              <rect class="cls-3" x="102.51" y="23.29" width="5.97" height="2.6"/>
              <rect class="cls-3" x="102.51" y="26.56" width="5.97" height="2.6"/>
              <rect class="cls-3" x="102.51" y="29.83" width="5.97" height="2.6"/>
              <rect class="cls-3" x="102.51" y="33.11" width="5.97" height="2.6"/>
              <rect class="cls-3" x="102.51" y="36.38" width="5.97" height="2.6"/>
              <rect class="cls-3" x="102.51" y="39.65" width="5.97" height="2.6"/>
              <rect class="cls-3" x="102.51" y="42.93" width="5.97" height="2.6"/>
              <rect class="cls-3" x="102.51" y="46.2" width="5.97" height="2.6"/>
              <rect class="cls-3" x="102.51" y="49.47" width="5.97" height="2.6"/>
              <rect class="cls-3" x="102.51" y="52.75" width="5.97" height="2.6"/>
              <rect class="cls-3" x="102.51" y="56.02" width="5.97" height="2.6"/>
              <rect class="cls-3" x="102.51" y="59.29" width="5.97" height="2.6"/>
              <rect class="cls-3" x="102.51" y="62.57" width="5.97" height="2.6"/>
              <rect class="cls-3" x="102.51" y="65.84" width="5.97" height="2.6"/>
              <rect class="cls-3" x="102.51" y="69.11" width="5.97" height="2.6"/>
              <rect class="cls-3" x="102.51" y="72.39" width="5.97" height="2.6"/>
              <rect class="cls-3" x="102.51" y="75.66" width="5.97" height="2.6"/>
              <rect class="cls-3" x="102.51" y="78.93" width="5.97" height="2.6"/>
              <rect class="cls-3" x="102.51" y="82.21" width="5.97" height="2.6"/>
            </g>
            <g>
              <rect class="cls-3" x="109.1" y="20.01" width="5.97" height="2.6"/>
              <rect class="cls-3" x="109.1" y="23.29" width="5.97" height="2.6"/>
              <rect class="cls-3" x="109.1" y="26.56" width="5.97" height="2.6"/>
              <rect class="cls-3" x="109.1" y="29.83" width="5.97" height="2.6"/>
              <rect class="cls-3" x="109.1" y="33.11" width="5.97" height="2.6"/>
              <rect class="cls-3" x="109.1" y="36.38" width="5.97" height="2.6"/>
              <rect class="cls-3" x="109.1" y="39.65" width="5.97" height="2.6"/>
              <rect class="cls-3" x="109.1" y="42.93" width="5.97" height="2.6"/>
              <rect class="cls-3" x="109.1" y="46.2" width="5.97" height="2.6"/>
              <rect class="cls-3" x="109.1" y="49.47" width="5.97" height="2.6"/>
              <rect class="cls-3" x="109.1" y="52.75" width="5.97" height="2.6"/>
              <rect class="cls-3" x="109.1" y="56.02" width="5.97" height="2.6"/>
              <rect class="cls-3" x="109.1" y="59.29" width="5.97" height="2.6"/>
              <rect class="cls-3" x="109.1" y="62.57" width="5.97" height="2.6"/>
              <rect class="cls-3" x="109.1" y="65.84" width="5.97" height="2.6"/>
              <rect class="cls-3" x="109.1" y="69.11" width="5.97" height="2.6"/>
              <rect class="cls-3" x="109.1" y="72.39" width="5.97" height="2.6"/>
              <rect class="cls-3" x="109.1" y="75.66" width="5.97" height="2.6"/>
              <rect class="cls-3" x="109.1" y="78.93" width="5.97" height="2.6"/>
              <rect class="cls-3" x="109.1" y="82.21" width="5.97" height="2.6"/>
            </g>
          </g>
          <g>
            <polygon class="cls-7" points="49.51 26.11 49.51 42.35 12.31 42.35 12.31 63.85 0 63.85 0 84.63 24.62 84.63 24.62 84.62 74.13 84.62 74.13 46.89 74.13 42.35 74.13 26.11 49.51 26.11"/>
            <g class="cls-8">
              <g>
                <g>
                  <rect class="cls-3" x="70.36" y="26.12" width="5.97" height="2.61"/>
                  <rect class="cls-3" x="70.36" y="29.4" width="5.97" height="2.61"/>
                  <rect class="cls-3" x="70.36" y="32.68" width="5.97" height="2.61"/>
                  <rect class="cls-3" x="70.36" y="35.96" width="5.97" height="2.61"/>
                  <rect class="cls-3" x="70.36" y="39.23" width="5.97" height="2.61"/>
                  <rect class="cls-3" x="70.36" y="42.51" width="5.97" height="2.61"/>
                  <rect class="cls-3" x="70.36" y="45.79" width="5.97" height="2.61"/>
                  <rect class="cls-3" x="70.36" y="49.07" width="5.97" height="2.61"/>
                  <rect class="cls-3" x="70.36" y="52.35" width="5.97" height="2.61"/>
                  <rect class="cls-3" x="70.36" y="55.63" width="5.97" height="2.61"/>
                  <rect class="cls-3" x="70.36" y="58.91" width="5.97" height="2.61"/>
                  <rect class="cls-3" x="70.36" y="62.19" width="5.97" height="2.61"/>
                  <rect class="cls-3" x="70.36" y="65.47" width="5.97" height="2.61"/>
                  <rect class="cls-3" x="70.36" y="68.75" width="5.97" height="2.61"/>
                  <rect class="cls-3" x="70.36" y="72.03" width="5.97" height="2.61"/>
                  <rect class="cls-3" x="70.36" y="75.31" width="5.97" height="2.61"/>
                  <rect class="cls-3" x="70.36" y="78.59" width="5.97" height="2.61"/>
                  <rect class="cls-3" x="70.36" y="81.87" width="5.97" height="2.61"/>
                </g>
                <g>
                  <rect class="cls-3" x="63.68" y="26.12" width="5.97" height="2.61"/>
                  <rect class="cls-3" x="63.68" y="29.4" width="5.97" height="2.61"/>
                  <rect class="cls-3" x="63.68" y="32.68" width="5.97" height="2.61"/>
                  <rect class="cls-3" x="63.68" y="35.96" width="5.97" height="2.61"/>
                  <rect class="cls-3" x="63.68" y="39.23" width="5.97" height="2.61"/>
                  <rect class="cls-3" x="63.68" y="42.51" width="5.97" height="2.61"/>
                  <rect class="cls-3" x="63.68" y="45.79" width="5.97" height="2.61"/>
                  <rect class="cls-3" x="63.68" y="49.07" width="5.97" height="2.61"/>
                  <rect class="cls-3" x="63.68" y="52.35" width="5.97" height="2.61"/>
                  <rect class="cls-3" x="63.68" y="55.63" width="5.97" height="2.61"/>
                  <rect class="cls-3" x="63.68" y="58.91" width="5.97" height="2.61"/>
                  <rect class="cls-3" x="63.68" y="62.19" width="5.97" height="2.61"/>
                  <rect class="cls-3" x="63.68" y="65.47" width="5.97" height="2.61"/>
                  <rect class="cls-3" x="63.68" y="68.75" width="5.97" height="2.61"/>
                  <rect class="cls-3" x="63.68" y="72.03" width="5.97" height="2.61"/>
                  <rect class="cls-3" x="63.68" y="75.31" width="5.97" height="2.61"/>
                  <rect class="cls-3" x="63.68" y="78.59" width="5.97" height="2.61"/>
                  <rect class="cls-3" x="63.68" y="81.87" width="5.97" height="2.61"/>
                </g>
                <g>
                  <rect class="cls-3" x="57" y="26.12" width="5.97" height="2.61"/>
                  <rect class="cls-3" x="57" y="29.4" width="5.97" height="2.61"/>
                  <rect class="cls-3" x="57" y="32.68" width="5.97" height="2.61"/>
                  <rect class="cls-3" x="57" y="35.96" width="5.97" height="2.61"/>
                  <rect class="cls-3" x="57" y="39.23" width="5.97" height="2.61"/>
                  <rect class="cls-3" x="57" y="42.51" width="5.97" height="2.61"/>
                  <rect class="cls-3" x="57" y="45.79" width="5.97" height="2.61"/>
                  <rect class="cls-3" x="57" y="49.07" width="5.97" height="2.61"/>
                  <rect class="cls-3" x="57" y="52.35" width="5.97" height="2.61"/>
                  <rect class="cls-3" x="57" y="55.63" width="5.97" height="2.61"/>
                  <rect class="cls-3" x="57" y="58.91" width="5.97" height="2.61"/>
                  <rect class="cls-3" x="57" y="62.19" width="5.97" height="2.61"/>
                  <rect class="cls-3" x="57" y="65.47" width="5.97" height="2.61"/>
                  <rect class="cls-3" x="57" y="68.75" width="5.97" height="2.61"/>
                  <rect class="cls-3" x="57" y="72.03" width="5.97" height="2.61"/>
                  <rect class="cls-3" x="57" y="75.31" width="5.97" height="2.61"/>
                  <rect class="cls-3" x="57" y="78.59" width="5.97" height="2.61"/>
                  <rect class="cls-3" x="57" y="81.87" width="5.97" height="2.61"/>
                </g>
                <g>
                  <rect class="cls-3" x="50.32" y="26.12" width="5.97" height="2.61"/>
                  <rect class="cls-3" x="50.32" y="29.4" width="5.97" height="2.61"/>
                  <rect class="cls-3" x="50.32" y="32.68" width="5.97" height="2.61"/>
                  <rect class="cls-3" x="50.32" y="35.96" width="5.97" height="2.61"/>
                  <rect class="cls-3" x="50.32" y="39.23" width="5.97" height="2.61"/>
                  <rect class="cls-3" x="50.32" y="42.51" width="5.97" height="2.61"/>
                  <rect class="cls-3" x="50.32" y="45.79" width="5.97" height="2.61"/>
                  <rect class="cls-3" x="50.32" y="49.07" width="5.97" height="2.61"/>
                  <rect class="cls-3" x="50.32" y="52.35" width="5.97" height="2.61"/>
                  <rect class="cls-3" x="50.32" y="55.63" width="5.97" height="2.61"/>
                  <rect class="cls-3" x="50.32" y="58.91" width="5.97" height="2.61"/>
                  <rect class="cls-3" x="50.32" y="62.19" width="5.97" height="2.61"/>
                  <rect class="cls-3" x="50.32" y="65.47" width="5.97" height="2.61"/>
                  <rect class="cls-3" x="50.32" y="68.75" width="5.97" height="2.61"/>
                  <rect class="cls-3" x="50.32" y="72.03" width="5.97" height="2.61"/>
                  <rect class="cls-3" x="50.32" y="75.31" width="5.97" height="2.61"/>
                  <rect class="cls-3" x="50.32" y="78.59" width="5.97" height="2.61"/>
                  <rect class="cls-3" x="50.32" y="81.87" width="5.97" height="2.61"/>
                </g>
                <g>
                  <rect class="cls-3" x="43.64" y="26.12" width="5.97" height="2.61"/>
                  <rect class="cls-3" x="43.64" y="29.4" width="5.97" height="2.61"/>
                  <rect class="cls-3" x="43.64" y="32.68" width="5.97" height="2.61"/>
                  <rect class="cls-3" x="43.64" y="35.96" width="5.97" height="2.61"/>
                  <rect class="cls-3" x="43.64" y="39.23" width="5.97" height="2.61"/>
                  <rect class="cls-3" x="43.64" y="42.51" width="5.97" height="2.61"/>
                  <rect class="cls-3" x="43.64" y="45.79" width="5.97" height="2.61"/>
                  <rect class="cls-3" x="43.64" y="49.07" width="5.97" height="2.61"/>
                  <rect class="cls-3" x="43.64" y="52.35" width="5.97" height="2.61"/>
                  <rect class="cls-3" x="43.64" y="55.63" width="5.97" height="2.61"/>
                  <rect class="cls-3" x="43.64" y="58.91" width="5.97" height="2.61"/>
                  <rect class="cls-3" x="43.64" y="62.19" width="5.97" height="2.61"/>
                  <rect class="cls-3" x="43.64" y="65.47" width="5.97" height="2.61"/>
                  <rect class="cls-3" x="43.64" y="68.75" width="5.97" height="2.61"/>
                  <rect class="cls-3" x="43.64" y="72.03" width="5.97" height="2.61"/>
                  <rect class="cls-3" x="43.64" y="75.31" width="5.97" height="2.61"/>
                  <rect class="cls-3" x="43.64" y="78.59" width="5.97" height="2.61"/>
                  <rect class="cls-3" x="43.64" y="81.87" width="5.97" height="2.61"/>
                </g>
                <g>
                  <rect class="cls-3" x="36.96" y="26.12" width="5.97" height="2.61"/>
                  <rect class="cls-3" x="36.96" y="29.4" width="5.97" height="2.61"/>
                  <rect class="cls-3" x="36.96" y="32.68" width="5.97" height="2.61"/>
                  <rect class="cls-3" x="36.96" y="35.96" width="5.97" height="2.61"/>
                  <rect class="cls-3" x="36.96" y="39.23" width="5.97" height="2.61"/>
                  <rect class="cls-3" x="36.96" y="42.51" width="5.97" height="2.61"/>
                  <rect class="cls-3" x="36.96" y="45.79" width="5.97" height="2.61"/>
                  <rect class="cls-3" x="36.96" y="49.07" width="5.97" height="2.61"/>
                  <rect class="cls-3" x="36.96" y="52.35" width="5.97" height="2.61"/>
                  <rect class="cls-3" x="36.96" y="55.63" width="5.97" height="2.61"/>
                  <rect class="cls-3" x="36.96" y="58.91" width="5.97" height="2.61"/>
                  <rect class="cls-3" x="36.96" y="62.19" width="5.97" height="2.61"/>
                  <rect class="cls-3" x="36.96" y="65.47" width="5.97" height="2.61"/>
                  <rect class="cls-3" x="36.96" y="68.75" width="5.97" height="2.61"/>
                  <rect class="cls-3" x="36.96" y="72.03" width="5.97" height="2.61"/>
                  <rect class="cls-3" x="36.96" y="75.31" width="5.97" height="2.61"/>
                  <rect class="cls-3" x="36.96" y="78.59" width="5.97" height="2.61"/>
                  <rect class="cls-3" x="36.96" y="81.87" width="5.97" height="2.61"/>
                </g>
                <g>
                  <rect class="cls-3" x="30.28" y="26.12" width="5.97" height="2.61"/>
                  <rect class="cls-3" x="30.28" y="29.4" width="5.97" height="2.61"/>
                  <rect class="cls-3" x="30.28" y="32.68" width="5.97" height="2.61"/>
                  <rect class="cls-3" x="30.28" y="35.96" width="5.97" height="2.61"/>
                  <rect class="cls-3" x="30.28" y="39.23" width="5.97" height="2.61"/>
                  <rect class="cls-3" x="30.28" y="42.51" width="5.97" height="2.61"/>
                  <rect class="cls-3" x="30.28" y="45.79" width="5.97" height="2.61"/>
                  <rect class="cls-3" x="30.28" y="49.07" width="5.97" height="2.61"/>
                  <rect class="cls-3" x="30.28" y="52.35" width="5.97" height="2.61"/>
                  <rect class="cls-3" x="30.28" y="55.63" width="5.97" height="2.61"/>
                  <rect class="cls-3" x="30.28" y="58.91" width="5.97" height="2.61"/>
                  <rect class="cls-3" x="30.28" y="62.19" width="5.97" height="2.61"/>
                  <rect class="cls-3" x="30.28" y="65.47" width="5.97" height="2.61"/>
                  <rect class="cls-3" x="30.28" y="68.75" width="5.97" height="2.61"/>
                  <rect class="cls-3" x="30.28" y="72.03" width="5.97" height="2.61"/>
                  <rect class="cls-3" x="30.28" y="75.31" width="5.97" height="2.61"/>
                  <rect class="cls-3" x="30.28" y="78.59" width="5.97" height="2.61"/>
                  <rect class="cls-3" x="30.28" y="81.87" width="5.97" height="2.61"/>
                </g>
                <g>
                  <rect class="cls-3" x="23.6" y="26.12" width="5.97" height="2.61"/>
                  <rect class="cls-3" x="23.6" y="29.4" width="5.97" height="2.61"/>
                  <rect class="cls-3" x="23.6" y="32.68" width="5.97" height="2.61"/>
                  <rect class="cls-3" x="23.6" y="35.96" width="5.97" height="2.61"/>
                  <rect class="cls-3" x="23.6" y="39.23" width="5.97" height="2.61"/>
                  <rect class="cls-3" x="23.6" y="42.51" width="5.97" height="2.61"/>
                  <rect class="cls-3" x="23.6" y="45.79" width="5.97" height="2.61"/>
                  <rect class="cls-3" x="23.6" y="49.07" width="5.97" height="2.61"/>
                  <rect class="cls-3" x="23.6" y="52.35" width="5.97" height="2.61"/>
                  <rect class="cls-3" x="23.6" y="55.63" width="5.97" height="2.61"/>
                  <rect class="cls-3" x="23.6" y="58.91" width="5.97" height="2.61"/>
                  <rect class="cls-3" x="23.6" y="62.19" width="5.97" height="2.61"/>
                  <rect class="cls-3" x="23.6" y="65.47" width="5.97" height="2.61"/>
                  <rect class="cls-3" x="23.6" y="68.75" width="5.97" height="2.61"/>
                  <rect class="cls-3" x="23.6" y="72.03" width="5.97" height="2.61"/>
                  <rect class="cls-3" x="23.6" y="75.31" width="5.97" height="2.61"/>
                  <rect class="cls-3" x="23.6" y="78.59" width="5.97" height="2.61"/>
                  <rect class="cls-3" x="23.6" y="81.87" width="5.97" height="2.61"/>
                </g>
                <g>
                  <rect class="cls-3" x="16.91" y="26.12" width="5.97" height="2.61"/>
                  <rect class="cls-3" x="16.91" y="29.4" width="5.97" height="2.61"/>
                  <rect class="cls-3" x="16.91" y="32.68" width="5.97" height="2.61"/>
                  <rect class="cls-3" x="16.91" y="35.96" width="5.97" height="2.61"/>
                  <rect class="cls-3" x="16.91" y="39.23" width="5.97" height="2.61"/>
                  <rect class="cls-3" x="16.91" y="42.51" width="5.97" height="2.61"/>
                  <rect class="cls-3" x="16.91" y="45.79" width="5.97" height="2.61"/>
                  <rect class="cls-3" x="16.91" y="49.07" width="5.97" height="2.61"/>
                  <rect class="cls-3" x="16.91" y="52.35" width="5.97" height="2.61"/>
                  <rect class="cls-3" x="16.91" y="55.63" width="5.97" height="2.61"/>
                  <rect class="cls-3" x="16.91" y="58.91" width="5.97" height="2.61"/>
                  <rect class="cls-3" x="16.91" y="62.19" width="5.97" height="2.61"/>
                  <rect class="cls-3" x="16.91" y="65.47" width="5.97" height="2.61"/>
                  <rect class="cls-3" x="16.91" y="68.75" width="5.97" height="2.61"/>
                  <rect class="cls-3" x="16.91" y="72.03" width="5.97" height="2.61"/>
                  <rect class="cls-3" x="16.91" y="75.31" width="5.97" height="2.61"/>
                  <rect class="cls-3" x="16.91" y="78.59" width="5.97" height="2.61"/>
                  <rect class="cls-3" x="16.91" y="81.87" width="5.97" height="2.61"/>
                </g>
                <g>
                  <rect class="cls-3" x="10.23" y="26.12" width="5.97" height="2.61"/>
                  <rect class="cls-3" x="10.23" y="29.4" width="5.97" height="2.61"/>
                  <rect class="cls-3" x="10.23" y="32.68" width="5.97" height="2.61"/>
                  <rect class="cls-3" x="10.23" y="35.96" width="5.97" height="2.61"/>
                  <rect class="cls-3" x="10.23" y="39.23" width="5.97" height="2.61"/>
                  <rect class="cls-3" x="10.23" y="42.51" width="5.97" height="2.61"/>
                  <rect class="cls-3" x="10.23" y="45.79" width="5.97" height="2.61"/>
                  <rect class="cls-3" x="10.23" y="49.07" width="5.97" height="2.61"/>
                  <rect class="cls-3" x="10.23" y="52.35" width="5.97" height="2.61"/>
                  <rect class="cls-3" x="10.23" y="55.63" width="5.97" height="2.61"/>
                  <rect class="cls-3" x="10.23" y="58.91" width="5.97" height="2.61"/>
                  <rect class="cls-3" x="10.23" y="62.19" width="5.97" height="2.61"/>
                  <rect class="cls-3" x="10.23" y="65.47" width="5.97" height="2.61"/>
                  <rect class="cls-3" x="10.23" y="68.75" width="5.97" height="2.61"/>
                  <rect class="cls-3" x="10.23" y="72.03" width="5.97" height="2.61"/>
                  <rect class="cls-3" x="10.23" y="75.31" width="5.97" height="2.61"/>
                  <rect class="cls-3" x="10.23" y="78.59" width="5.97" height="2.61"/>
                  <rect class="cls-3" x="10.23" y="81.87" width="5.97" height="2.61"/>
                </g>
                <g>
                  <rect class="cls-3" x="3.55" y="26.12" width="5.97" height="2.61"/>
                  <rect class="cls-3" x="3.55" y="29.4" width="5.97" height="2.61"/>
                  <rect class="cls-3" x="3.55" y="32.68" width="5.97" height="2.61"/>
                  <rect class="cls-3" x="3.55" y="35.96" width="5.97" height="2.61"/>
                  <rect class="cls-3" x="3.55" y="39.23" width="5.97" height="2.61"/>
                  <rect class="cls-3" x="3.55" y="42.51" width="5.97" height="2.61"/>
                  <rect class="cls-3" x="3.55" y="45.79" width="5.97" height="2.61"/>
                  <rect class="cls-3" x="3.55" y="49.07" width="5.97" height="2.61"/>
                  <rect class="cls-3" x="3.55" y="52.35" width="5.97" height="2.61"/>
                  <rect class="cls-3" x="3.55" y="55.63" width="5.97" height="2.61"/>
                  <rect class="cls-3" x="3.55" y="58.91" width="5.97" height="2.61"/>
                  <rect class="cls-3" x="3.55" y="62.19" width="5.97" height="2.61"/>
                  <rect class="cls-3" x="3.55" y="65.47" width="5.97" height="2.61"/>
                  <rect class="cls-3" x="3.55" y="68.75" width="5.97" height="2.61"/>
                  <rect class="cls-3" x="3.55" y="72.03" width="5.97" height="2.61"/>
                  <rect class="cls-3" x="3.55" y="75.31" width="5.97" height="2.61"/>
                  <rect class="cls-3" x="3.55" y="78.59" width="5.97" height="2.61"/>
                  <rect class="cls-3" x="3.55" y="81.87" width="5.97" height="2.61"/>
                </g>
                <g>
                  <rect class="cls-3" x="-3.13" y="26.12" width="5.97" height="2.61"/>
                  <rect class="cls-3" x="-3.13" y="29.4" width="5.97" height="2.61"/>
                  <rect class="cls-3" x="-3.13" y="32.68" width="5.97" height="2.61"/>
                  <rect class="cls-3" x="-3.13" y="35.96" width="5.97" height="2.61"/>
                  <rect class="cls-3" x="-3.13" y="39.23" width="5.97" height="2.61"/>
                  <rect class="cls-3" x="-3.13" y="42.51" width="5.97" height="2.61"/>
                  <rect class="cls-3" x="-3.13" y="45.79" width="5.97" height="2.61"/>
                  <rect class="cls-3" x="-3.13" y="49.07" width="5.97" height="2.61"/>
                  <rect class="cls-3" x="-3.13" y="52.35" width="5.97" height="2.61"/>
                  <rect class="cls-3" x="-3.13" y="55.63" width="5.97" height="2.61"/>
                  <rect class="cls-3" x="-3.13" y="58.91" width="5.97" height="2.61"/>
                  <rect class="cls-3" x="-3.13" y="62.19" width="5.97" height="2.61"/>
                  <rect class="cls-3" x="-3.13" y="65.47" width="5.97" height="2.61"/>
                  <rect class="cls-3" x="-3.13" y="68.75" width="5.97" height="2.61"/>
                  <rect class="cls-3" x="-3.13" y="72.03" width="5.97" height="2.61"/>
                  <rect class="cls-3" x="-3.13" y="75.31" width="5.97" height="2.61"/>
                  <rect class="cls-3" x="-3.13" y="78.59" width="5.97" height="2.61"/>
                  <rect class="cls-3" x="-3.13" y="81.87" width="5.97" height="2.61"/>
                </g>
              </g>
            </g>
          </g>
          <rect class="cls-10" x="4.55" y="73.32" width="66.1" height="7.27"/>
          <rect class="cls-2" x="3.55" y="72.32" width="66.1" height="7.27"/>
          <rect class="cls-10" x="17.21" y="50.85" width="54.99" height="14.95"/>
          <rect class="cls-2" x="16.21" y="49.85" width="54.99" height="14.95"/>
          <rect class="cls-10" x="54.76" y="33.18" width="15.89" height="7.47"/>
          <rect class="cls-2" x="53.76" y="32.18" width="15.89" height="7.47"/>
          <g>
            <rect class="cls-1" x="17.44" y="51.05" width="4.78" height="12.44"/>
            <rect class="cls-1" x="25.43" y="51.05" width="4.78" height="12.44"/>
            <rect class="cls-1" x="33.42" y="51.05" width="4.78" height="12.44"/>
            <rect class="cls-1" x="41.41" y="51.05" width="4.78" height="12.44"/>
            <rect class="cls-1" x="49.4" y="51.05" width="4.78" height="12.44"/>
            <rect class="cls-1" x="57.39" y="51.05" width="4.78" height="12.44"/>
            <rect class="cls-1" x="65.38" y="51.05" width="4.78" height="12.44"/>
          </g>
          <g>
            <rect class="cls-2" x="85.75" y="73.38" width="6.43" height="11.43"/>
            <rect class="cls-4" x="86.42" y="74.26" width="5.01" height="10.54"/>
          </g>
          <g>
            <rect class="cls-2" x="99.03" y="73.38" width="6.43" height="11.43"/>
            <rect class="cls-4" x="99.7" y="74.26" width="5.01" height="10.54"/>
          </g>
          <rect class="cls-1" x="55" y="33.59" width="13.36" height="4.78"/>
          <g>
            <rect class="cls-1" x="19.83" y="73.38" width="4.78" height="4.78"/>
            <rect class="cls-1" x="12.48" y="73.38" width="4.78" height="4.78"/>
            <rect class="cls-1" x="5.13" y="73.38" width="4.78" height="4.78"/>
            <rect class="cls-1" x="41.49" y="73.38" width="4.78" height="4.78"/>
            <rect class="cls-1" x="34.14" y="73.38" width="4.78" height="4.78"/>
            <rect class="cls-1" x="26.79" y="73.38" width="4.78" height="4.78"/>
            <rect class="cls-1" x="63.57" y="73.38" width="4.78" height="4.78"/>
            <rect class="cls-1" x="56.22" y="73.38" width="4.78" height="4.78"/>
            <rect class="cls-1" x="48.87" y="73.38" width="4.78" height="4.78"/>
          </g>
          <g class="cls-11">
            <rect class="cls-9" x="79.83" y="60.26" width="6.09" height="8.16"/>
            <rect class="cls-9" x="93.04" y="60.26" width="6.09" height="8.16"/>
            <rect class="cls-9" x="106.24" y="60.26" width="6.09" height="8.16"/>
            <rect class="cls-9" x="79.83" y="48.71" width="6.09" height="8.16"/>
            <rect class="cls-9" x="93.04" y="48.71" width="6.09" height="8.16"/>
            <rect class="cls-9" x="106.24" y="48.71" width="6.09" height="8.16"/>
            <rect class="cls-9" x="79.83" y="37.16" width="6.09" height="8.16"/>
            <rect class="cls-9" x="93.04" y="37.16" width="6.09" height="8.16"/>
            <rect class="cls-9" x="106.24" y="37.16" width="6.09" height="8.16"/>
            <rect class="cls-9" x="79.83" y="25.61" width="6.09" height="8.16"/>
            <rect class="cls-9" x="93.04" y="25.61" width="6.09" height="8.16"/>
            <rect class="cls-9" x="106.24" y="25.61" width="6.09" height="8.16"/>
          </g>
          <g>
            <g>
              <rect class="cls-2" x="79.4" y="59.79" width="6.09" height="8.16"/>
              <g>
                <rect class="cls-1" x="80.22" y="60.66" width="1.8" height="2.7"/>
                <rect class="cls-1" x="82.92" y="60.66" width="1.8" height="2.7"/>
                <rect class="cls-1" x="80.22" y="64.25" width="1.8" height="2.7"/>
                <rect class="cls-1" x="82.92" y="64.25" width="1.8" height="2.7"/>
              </g>
            </g>
            <g>
              <rect class="cls-2" x="92.6" y="59.79" width="6.09" height="8.16"/>
              <g>
                <rect class="cls-1" x="93.42" y="60.66" width="1.8" height="2.7"/>
                <rect class="cls-1" x="96.12" y="60.66" width="1.8" height="2.7"/>
                <rect class="cls-1" x="93.42" y="64.25" width="1.8" height="2.7"/>
                <rect class="cls-1" x="96.12" y="64.25" width="1.8" height="2.7"/>
              </g>
            </g>
            <g>
              <rect class="cls-2" x="105.8" y="59.79" width="6.09" height="8.16"/>
              <g>
                <rect class="cls-1" x="106.62" y="60.66" width="1.8" height="2.7"/>
                <rect class="cls-1" x="109.32" y="60.66" width="1.8" height="2.7"/>
                <rect class="cls-1" x="106.62" y="64.25" width="1.8" height="2.7"/>
                <rect class="cls-1" x="109.32" y="64.25" width="1.8" height="2.7"/>
              </g>
            </g>
            <g>
              <rect class="cls-2" x="79.4" y="48.24" width="6.09" height="8.16"/>
              <g>
                <rect class="cls-1" x="80.22" y="49.11" width="1.8" height="2.7"/>
                <rect class="cls-1" x="82.92" y="49.11" width="1.8" height="2.7"/>
                <rect class="cls-1" x="80.22" y="52.7" width="1.8" height="2.7"/>
                <rect class="cls-1" x="82.92" y="52.7" width="1.8" height="2.7"/>
              </g>
            </g>
            <g>
              <rect class="cls-2" x="92.6" y="48.24" width="6.09" height="8.16"/>
              <g>
                <rect class="cls-1" x="93.42" y="49.11" width="1.8" height="2.7"/>
                <rect class="cls-1" x="96.12" y="49.11" width="1.8" height="2.7"/>
                <rect class="cls-1" x="93.42" y="52.7" width="1.8" height="2.7"/>
                <rect class="cls-1" x="96.12" y="52.7" width="1.8" height="2.7"/>
              </g>
            </g>
            <g>
              <rect class="cls-2" x="105.8" y="48.24" width="6.09" height="8.16"/>
              <g>
                <rect class="cls-1" x="106.62" y="49.11" width="1.8" height="2.7"/>
                <rect class="cls-1" x="109.32" y="49.11" width="1.8" height="2.7"/>
                <rect class="cls-1" x="106.62" y="52.7" width="1.8" height="2.7"/>
                <rect class="cls-1" x="109.32" y="52.7" width="1.8" height="2.7"/>
              </g>
            </g>
            <g>
              <rect class="cls-2" x="79.4" y="36.69" width="6.09" height="8.16"/>
              <g>
                <rect class="cls-1" x="80.22" y="37.56" width="1.8" height="2.7"/>
                <rect class="cls-1" x="82.92" y="37.56" width="1.8" height="2.7"/>
                <rect class="cls-1" x="80.22" y="41.15" width="1.8" height="2.7"/>
                <rect class="cls-1" x="82.92" y="41.15" width="1.8" height="2.7"/>
              </g>
            </g>
            <g>
              <rect class="cls-2" x="92.6" y="36.69" width="6.09" height="8.16"/>
              <g>
                <rect class="cls-1" x="93.42" y="37.56" width="1.8" height="2.7"/>
                <rect class="cls-1" x="96.12" y="37.56" width="1.8" height="2.7"/>
                <rect class="cls-1" x="93.42" y="41.15" width="1.8" height="2.7"/>
                <rect class="cls-1" x="96.12" y="41.15" width="1.8" height="2.7"/>
              </g>
            </g>
            <g>
              <rect class="cls-2" x="105.8" y="36.69" width="6.09" height="8.16"/>
              <g>
                <rect class="cls-1" x="106.62" y="37.56" width="1.8" height="2.7"/>
                <rect class="cls-1" x="109.32" y="37.56" width="1.8" height="2.7"/>
                <rect class="cls-1" x="106.62" y="41.15" width="1.8" height="2.7"/>
                <rect class="cls-1" x="109.32" y="41.15" width="1.8" height="2.7"/>
              </g>
            </g>
            <g>
              <rect class="cls-2" x="79.4" y="25.14" width="6.09" height="8.16"/>
              <g>
                <rect class="cls-1" x="80.22" y="26.01" width="1.8" height="2.7"/>
                <rect class="cls-1" x="82.92" y="26.01" width="1.8" height="2.7"/>
                <rect class="cls-1" x="80.22" y="29.6" width="1.8" height="2.7"/>
                <rect class="cls-1" x="82.92" y="29.6" width="1.8" height="2.7"/>
              </g>
            </g>
            <g>
              <rect class="cls-2" x="92.6" y="25.14" width="6.09" height="8.16"/>
              <g>
                <rect class="cls-1" x="93.42" y="26.01" width="1.8" height="2.7"/>
                <rect class="cls-1" x="96.12" y="26.01" width="1.8" height="2.7"/>
                <rect class="cls-1" x="93.42" y="29.6" width="1.8" height="2.7"/>
                <rect class="cls-1" x="96.12" y="29.6" width="1.8" height="2.7"/>
              </g>
            </g>
            <g>
              <rect class="cls-2" x="105.8" y="25.14" width="6.09" height="8.16"/>
              <g>
                <rect class="cls-1" x="106.62" y="26.01" width="1.8" height="2.7"/>
                <rect class="cls-1" x="109.32" y="26.01" width="1.8" height="2.7"/>
                <rect class="cls-1" x="106.62" y="29.6" width="1.8" height="2.7"/>
                <rect class="cls-1" x="109.32" y="29.6" width="1.8" height="2.7"/>
              </g>
            </g>
          </g>
          <g>
            <rect class="cls-6" x="17" y="2.61" width="6.81" height="39.87"/>
            <rect class="cls-9" x="16.21" width="8.41" height="2.61"/>
            <rect class="cls-10" x="17" y="2.61" width="6.81" height="1.31"/>
          </g>
          <g>
            <rect class="cls-6" x="54.05" y="11.78" width="6.81" height="14.54"/>
            <rect class="cls-9" x="53.25" y="9.08" width="8.41" height="2.61"/>
            <rect class="cls-10" x="54.04" y="11.69" width="6.81" height="1.31"/>
          </g>
          <g>
            <rect class="cls-6" x="30.07" y="2.61" width="6.81" height="39.87"/>
            <rect class="cls-9" x="29.27" width="8.41" height="2.61"/>
            <rect class="cls-10" x="30.06" y="2.61" width="6.81" height="1.31"/>
          </g>
        </g>
      </g>
    </g>
  </g>
</svg>