<?xml version="1.0" standalone="no"?>
<!DOCTYPE svg PUBLIC "-//W3C//DTD SVG 20010904//EN"
 "http://www.w3.org/TR/2001/REC-SVG-20010904/DTD/svg10.dtd">
<svg version="1.0" xmlns="http://www.w3.org/2000/svg"
 width="500.000000pt" height="500.000000pt" viewBox="0 0 500.000000 500.000000"
 preserveAspectRatio="xMidYMid meet">
<metadata>
Created by potrace 1.14, written by Peter Selinger 2001-2017
</metadata>
<g transform="translate(0.000000,500.000000) scale(0.100000,-0.100000)"
fill="#000000" stroke="none">
<path d="M1616 4478 c-7 -13 -29 -50 -48 -83 -20 -33 -201 -334 -403 -670
-608 -1008 -815 -1354 -815 -1360 0 -2 157 -6 349 -7 l350 -3 -38 -85 c-42
-93 -70 -156 -108 -240 -26 -56 -210 -465 -481 -1070 -82 -184 -164 -366 -181
-404 -18 -38 -31 -70 -29 -71 5 -6 413 389 1103 1067 l190 188 416 0 417 0 93
110 c52 61 96 115 97 120 2 7 -133 10 -385 10 l-388 0 245 241 c135 132 286
279 335 327 50 47 182 177 296 289 l205 203 372 0 371 0 73 87 c40 47 86 101
101 120 l28 33 -787 0 -787 0 49 53 c27 29 108 115 179 191 72 76 137 147 145
156 13 15 70 76 246 266 20 22 62 66 93 99 31 34 110 119 176 190 66 71 129
139 140 151 11 12 40 42 65 68 l44 46 -857 0 -857 0 -14 -22z m1088 -281 c-32
-34 -81 -87 -108 -117 -52 -59 -244 -264 -417 -444 -58 -61 -208 -220 -333
-353 l-227 -243 438 -2 437 -3 -634 -604 c-349 -332 -675 -643 -724 -690 -49
-47 -86 -81 -82 -75 13 25 386 917 386 925 0 5 -151 10 -335 11 l-335 3 503
827 502 827 494 1 494 0 -59 -63z"/>
<path d="M2901 3675 l-195 -194 680 -3 679 -4 67 -23 c128 -45 178 -115 178
-250 0 -120 -58 -287 -129 -372 -67 -81 -194 -140 -341 -159 -41 -5 -307 -10
-590 -10 l-515 0 -182 -186 c-101 -102 -183 -187 -183 -190 0 -2 319 -4 708
-4 716 1 777 -2 844 -36 53 -27 101 -79 130 -139 63 -133 22 -340 -97 -495
-74 -96 -171 -161 -305 -203 -64 -21 -83 -21 -1136 -25 l-1071 -3 -189 -192
-189 -192 1195 -3 c1072 -2 1207 -1 1315 14 250 35 444 119 608 264 186 165
347 530 347 788 0 193 -84 349 -222 415 l-47 22 72 38 c40 20 98 57 129 82
254 200 378 698 241 968 -49 98 -165 189 -299 235 -135 47 -218 52 -781 52
l-528 0 -194 -195z"/>
</g>
</svg>
