<?xml version="1.0" encoding="UTF-8" standalone="no" ?>
<!DOCTYPE svg PUBLIC "-//W3C//DTD SVG 1.1//EN" "http://www.w3.org/Graphics/SVG/1.1/DTD/svg11.dtd">
<svg xmlns="http://www.w3.org/2000/svg" xmlns:xlink="http://www.w3.org/1999/xlink" version="1.1" width="390" height="275" viewBox="0 0 390 275" xml:space="preserve">
<desc>Created with Fabric.js 5.2.4</desc>
<defs>
</defs>
<g transform="matrix(0 0 0 0 0 0)" id="e9a6bb34-3b1a-4938-a2d0-282306ba04ba"  >
</g>
<g transform="matrix(1 0 0 1 195 137.5)" id="28129d38-ca5a-406a-be97-55076d2f1b02"  >
<rect style="stroke: none; stroke-width: 1; stroke-dasharray: none; stroke-linecap: butt; stroke-dashoffset: 0; stroke-linejoin: miter; stroke-miterlimit: 4; fill: rgb(255,255,255); fill-rule: nonzero; opacity: 1; visibility: hidden;" vector-effect="non-scaling-stroke"  x="-195" y="-137.5" rx="0" ry="0" width="390" height="275" />
</g>
<g transform="matrix(0.95 0 0 0.95 195 137.5)"  >
<g style="" vector-effect="non-scaling-stroke"   >
		<g transform="matrix(1 0 0 1 128.51 -93.69)"  >
<path style="stroke: none; stroke-width: 1; stroke-dasharray: none; stroke-linecap: butt; stroke-dashoffset: 0; stroke-linejoin: miter; stroke-miterlimit: 4; fill: rgb(0,0,0); fill-rule: nonzero; opacity: 1;" vector-effect="non-scaling-stroke"  transform=" translate(-328.5, -27.39)" d="M 379.773 0 L 277.236 0 C 267.746 0 260.048 7.647 260.048 17.085 L 260.048 37.709 C 260.048 47.142 267.746 54.789 277.236 54.789 L 379.773 54.789 C 389.26800000000003 54.789 396.961 47.142 396.961 37.709 L 396.961 17.085 C 396.961 7.647 389.268 0 379.773 0" stroke-linecap="round" />
</g>
		<g transform="matrix(1 0 0 1 128.51 15.89)"  >
<path style="stroke: none; stroke-width: 1; stroke-dasharray: none; stroke-linecap: butt; stroke-dashoffset: 0; stroke-linejoin: miter; stroke-miterlimit: 4; fill: rgb(0,0,0); fill-rule: nonzero; opacity: 1;" vector-effect="non-scaling-stroke"  transform=" translate(-328.5, -136.97)" d="M 379.773 109.579 L 277.236 109.579 C 267.746 109.579 260.048 117.231 260.048 126.66399999999999 L 260.048 147.28799999999998 C 260.048 156.72099999999998 267.746 164.368 277.236 164.368 L 379.773 164.368 C 389.26800000000003 164.368 396.961 156.721 396.961 147.288 L 396.961 126.66400000000002 C 396.961 117.23100000000002 389.26800000000003 109.57900000000001 379.773 109.57900000000001" stroke-linecap="round" />
</g>
		<g transform="matrix(1 0 0 1 -69.97 -38.9)"  >
<path style="stroke: none; stroke-width: 1; stroke-dasharray: none; stroke-linecap: butt; stroke-dashoffset: 0; stroke-linejoin: miter; stroke-miterlimit: 4; fill: rgb(0,0,0); fill-rule: nonzero; opacity: 1;" vector-effect="non-scaling-stroke"  transform=" translate(-130.03, -82.18)" d="M 242.867 54.79 L 154.09699999999998 54.79 C 144.60099999999997 54.79 136.908 47.138 136.908 37.706 L 136.908 17.082 C 136.908 7.649000000000001 129.21499999999997 0.0020000000000024443 119.725 0.0020000000000024443 L 17.188 0.0020000000000024443 C 7.693 0.002 0 7.65 0 17.082 L 0 37.706 C 0 47.138 7.693 54.79 17.188 54.79 L 119.73 54.79 C 129.22 54.79 136.907 62.436 136.907 71.869 L 136.907 92.493 C 136.907 101.931 129.214 109.578 119.72400000000002 109.578 L 17.188 109.578 C 7.693 109.579 0 117.23 0 126.664 L 0 147.288 C 0 156.721 7.693 164.36200000000002 17.188 164.36200000000002 L 119.72500000000001 164.36200000000002 C 129.215 164.36200000000002 136.90800000000002 156.72100000000003 136.90800000000002 147.288 L 136.90800000000002 126.66400000000002 C 136.90800000000002 117.23100000000002 144.60100000000003 109.57900000000001 154.096 109.57900000000001 L 242.86599999999999 109.57900000000001 C 252.356 109.57900000000001 260.05 101.927 260.05 92.494 L 260.05 71.87 C 260.05 62.437000000000005 252.357 54.790000000000006 242.86700000000002 54.790000000000006" stroke-linecap="round" />
</g>
		<g transform="matrix(1 0 0 1 12.26 103.91)"  >
<path style="stroke: none; stroke-width: 1; stroke-dasharray: none; stroke-linecap: butt; stroke-dashoffset: 0; stroke-linejoin: miter; stroke-miterlimit: 4; fill: rgb(0,0,0); fill-rule: nonzero; opacity: 1;" vector-effect="non-scaling-stroke"  transform=" translate(-212.26, -224.99)" d="M 232.711 207.812 L 191.812 207.812 C 182.66000000000003 207.812 179.543 212.619 179.543 218.656 L 179.543 241.673 C 179.543 241.673 179.466 242.163 179.953 242.163 L 188.013 242.163 C 188.46800000000002 242.163 188.429 241.76100000000002 188.423 241.70100000000002 L 188.423 233.23800000000003 L 227.465 233.23800000000003 C 227.609 233.23800000000003 227.90800000000002 233.19400000000002 227.90800000000002 232.85200000000003 L 227.90800000000002 225.63600000000002 C 227.90800000000002 225.28300000000002 227.58100000000002 225.25000000000003 227.448 225.25000000000003 L 188.423 225.25000000000003 L 188.423 217.89000000000001 C 188.423 216.346 189.123 215.806 190.825 215.806 L 233.832 215.806 C 235.54 215.806 236.095 216.346 236.095 217.89000000000001 L 236.095 241.74 L 236.1 241.74 C 236.1 241.877 236.13899999999998 242.16400000000002 236.516 242.16400000000002 L 244.564 242.16400000000002 C 244.935 242.16400000000002 244.974 241.877 244.974 241.739 L 244.974 218.656 C 244.974 212.619 241.862 207.812 232.71099999999998 207.812" stroke-linecap="round" />
</g>
		<g transform="matrix(1 0 0 1 -167.28 103.91)"  >
<path style="stroke: none; stroke-width: 1; stroke-dasharray: none; stroke-linecap: butt; stroke-dashoffset: 0; stroke-linejoin: miter; stroke-miterlimit: 4; fill: rgb(0,0,0); fill-rule: nonzero; opacity: 1;" vector-effect="non-scaling-stroke"  transform=" translate(-32.72, -224.99)" d="M 53.167 207.812 L 12.268 207.812 C 3.117000000000001 207.812 0.005000000000000782 212.619 0.005000000000000782 218.656 L 0.005000000000000782 241.673 C 0.005000000000000782 241.673 -0.07299999999999922 242.163 0.4100000000000008 242.163 L 8.469 242.163 C 8.918999999999999 242.163 8.889999999999999 241.76700000000002 8.879 241.70600000000002 L 8.879 233.23800000000003 L 47.921 233.23800000000003 C 48.065 233.23800000000003 48.364 233.19400000000002 48.364 232.85200000000003 L 48.364 225.63600000000002 C 48.364 225.28300000000002 48.037 225.25000000000003 47.903999999999996 225.25000000000003 L 8.879 225.25000000000003 L 8.879 217.89000000000001 C 8.879 216.346 9.578999999999999 215.806 11.286 215.806 L 32.746 215.80100000000002 L 54.288000000000004 215.806 C 56.002 215.806 56.556000000000004 216.346 56.556000000000004 217.89000000000001 L 56.556000000000004 241.74 C 56.556000000000004 241.877 56.601000000000006 242.16400000000002 56.972 242.16400000000002 L 65.02 242.16400000000002 C 65.39699999999999 242.16400000000002 65.42999999999999 241.877 65.43599999999999 241.739 L 65.43599999999999 218.656 C 65.43599999999999 212.619 62.318999999999996 207.812 53.166999999999994 207.812" stroke-linecap="round" />
</g>
		<g transform="matrix(1 0 0 1 -118.21 103.91)"  >
<path style="stroke: none; stroke-width: 1; stroke-dasharray: none; stroke-linecap: butt; stroke-dashoffset: 0; stroke-linejoin: miter; stroke-miterlimit: 4; fill: rgb(0,0,0); fill-rule: nonzero; opacity: 1;" vector-effect="non-scaling-stroke"  transform=" translate(-81.79, -224.99)" d="M 85.818 207.812 L 85.823 207.812 L 77.764 207.812 L 77.76899999999999 207.812 C 77.38099999999999 207.812 77.353 208.121 77.353 208.25300000000001 L 77.353 241.739 C 77.353 241.877 77.393 242.16400000000002 77.76899999999999 242.16400000000002 L 85.817 242.16400000000002 C 86.19399999999999 242.16400000000002 86.22699999999999 241.866 86.22699999999999 241.728 L 86.22699999999999 208.23700000000002 C 86.22699999999999 208.104 86.189 207.812 85.817 207.812" stroke-linecap="round" />
</g>
		<g transform="matrix(1 0 0 1 166.45 103.91)"  >
<path style="stroke: none; stroke-width: 1; stroke-dasharray: none; stroke-linecap: butt; stroke-dashoffset: 0; stroke-linejoin: miter; stroke-miterlimit: 4; fill: rgb(0,0,0); fill-rule: nonzero; opacity: 1;" vector-effect="non-scaling-stroke"  transform=" translate(-366.45, -224.99)" d="M 389.967 221.083 L 343.055 221.088 C 342.17900000000003 221.088 341.785 220.75799999999998 341.785 219.99099999999999 C 341.785 219.42899999999997 341.78000000000003 218.535 341.78000000000003 217.03099999999998 C 341.78000000000003 216.176 342.26200000000006 215.81699999999998 343.233 215.81699999999998 C 343.843 215.81699999999998 392.668 215.801 397.683 215.801 C 397.82099999999997 215.801 398.126 215.75699999999998 398.126 215.415 L 398.126 208.20399999999998 C 398.126 207.84599999999998 397.799 207.813 397.666 207.813 L 342.234 207.813 C 336.388 207.813 332.904 211.32999999999998 332.904 215.96099999999998 L 332.904 220.76799999999997 C 332.904 226.29199999999997 335.584 229.07599999999996 343.837 229.07599999999996 L 390 229.07099999999997 C 390.826 229.07099999999997 391.131 229.51799999999997 391.131 230.04699999999997 L 391.131 233.11699999999996 C 391.131 233.85699999999997 390.77099999999996 234.17699999999996 389.68899999999996 234.17699999999996 L 334.29099999999994 234.17699999999996 C 334.15299999999996 234.17699999999996 333.8419999999999 234.22099999999998 333.8419999999999 234.56699999999995 L 333.8419999999999 241.77899999999994 L 333.8419999999999 241.77399999999994 C 333.8419999999999 242.13799999999995 334.16399999999993 242.16499999999994 334.30799999999994 242.16499999999994 L 389.25699999999995 242.16499999999994 C 395.32399999999996 242.16499999999994 399.99999999999994 239.88299999999992 399.99999999999994 233.63099999999994 L 399.99999999999994 229.12699999999995 C 399.99999999999994 224.13199999999995 396.44999999999993 221.08299999999994 389.9669999999999 221.08299999999994" stroke-linecap="round" />
</g>
		<g transform="matrix(1 0 0 1 89.02 103.91)"  >
<path style="stroke: none; stroke-width: 1; stroke-dasharray: none; stroke-linecap: butt; stroke-dashoffset: 0; stroke-linejoin: miter; stroke-miterlimit: 4; fill: rgb(0,0,0); fill-rule: nonzero; opacity: 1;" vector-effect="non-scaling-stroke"  transform=" translate(-289.02, -224.99)" d="M 321.93 207.812 L 321.936 207.812 L 313.876 207.812 L 313.88199999999995 207.812 C 313.49899999999997 207.812 313.4719999999999 208.115 313.4719999999999 208.247 L 313.4719999999999 222.687 C 313.4719999999999 224.235 312.9119999999999 224.869 310.92599999999993 224.869 L 267.13 224.869 C 265.139 224.869 264.584 224.235 264.584 222.686 L 264.584 208.23600000000002 L 264.584 208.241 C 264.584 208.104 264.54 207.811 264.168 207.811 L 264.173 207.811 L 256.114 207.811 L 256.11899999999997 207.811 C 255.74199999999996 207.811 255.70899999999997 208.109 255.70899999999997 208.241 L 255.70899999999997 221.947 C 255.70899999999997 227.984 258.82 232.791 267.96599999999995 232.791 L 284.58899999999994 232.791 L 284.58899999999994 241.744 C 284.58899999999994 241.882 284.62799999999993 242.163 284.99899999999997 242.163 L 293.05299999999994 242.163 C 293.4239999999999 242.163 293.46299999999997 241.871 293.46299999999997 241.733 L 293.46299999999997 232.791 L 310.075 232.791 C 319.23199999999997 232.791 322.33799999999997 227.984 322.33799999999997 221.947 L 322.33799999999997 208.242 C 322.33799999999997 208.10399999999998 322.299 207.81199999999998 321.92799999999994 207.81199999999998" stroke-linecap="round" />
</g>
		<g transform="matrix(1 0 0 1 -66.72 96.75)"  >
<path style="stroke: none; stroke-width: 1; stroke-dasharray: none; stroke-linecap: butt; stroke-dashoffset: 0; stroke-linejoin: miter; stroke-miterlimit: 4; fill: rgb(0,0,0); fill-rule: nonzero; opacity: 1;" vector-effect="non-scaling-stroke"  transform=" translate(-133.27, -217.83)" d="M 129.257 227.748 L 137.294 227.748 C 137.66600000000003 227.748 137.699 227.46699999999998 137.699 227.33499999999998 L 137.699 208.30399999999997 C 137.69400000000002 208.15399999999997 137.649 207.91199999999998 137.299 207.91199999999998 L 129.246 207.91199999999998 L 129.251 207.91199999999998 C 128.89600000000002 207.91199999999998 128.851 208.16599999999997 128.846 208.31499999999997 L 128.846 227.32399999999996 C 128.846 227.45599999999996 128.89000000000001 227.74799999999996 129.256 227.74799999999996" stroke-linecap="round" />
</g>
		<g transform="matrix(1 0 0 1 -66.72 103.96)"  >
<path style="stroke: none; stroke-width: 1; stroke-dasharray: none; stroke-linecap: butt; stroke-dashoffset: 0; stroke-linejoin: miter; stroke-miterlimit: 4; fill: rgb(0,0,0); fill-rule: nonzero; opacity: 1;" vector-effect="non-scaling-stroke"  transform=" translate(-133.27, -225.04)" d="M 168.001 207.915 L 168.006 207.915 L 159.947 207.915 L 159.952 207.915 C 159.564 207.915 159.536 208.22299999999998 159.536 208.35 L 159.536 231.995 C 159.536 233.53300000000002 158.976 234.179 156.991 234.179 L 109.56300000000002 234.179 C 107.56600000000002 234.179 107.01700000000001 233.53300000000002 107.01700000000001 231.995 L 107.01700000000001 208.333 C 107.01200000000001 208.196 106.96700000000001 207.915 106.60100000000001 207.915 L 106.60600000000001 207.915 L 98.55300000000001 207.915 C 98.17000000000002 207.915 98.13700000000001 208.22299999999998 98.13700000000001 208.35 L 98.13700000000001 231.32299999999998 C 98.13700000000001 237.35999999999999 101.24800000000002 242.16699999999997 110.40000000000002 242.16699999999997 L 156.14100000000002 242.16699999999997 C 165.299 242.16699999999997 168.41100000000003 237.35999999999999 168.41100000000003 231.32299999999998 L 168.41100000000003 208.32299999999998 C 168.40500000000003 208.18499999999997 168.36100000000002 207.915 168.00000000000003 207.915" stroke-linecap="round" />
</g>
</g>
</g>
</svg>