<?xml version="1.0" encoding="UTF-8" standalone="no" ?>
<!DOCTYPE svg PUBLIC "-//W3C//DTD SVG 1.1//EN" "http://www.w3.org/Graphics/SVG/1.1/DTD/svg11.dtd">
<svg xmlns="http://www.w3.org/2000/svg" xmlns:xlink="http://www.w3.org/1999/xlink" version="1.1" width="425" height="275" viewBox="0 0 425 275" xml:space="preserve">
<desc>Created with Fabric.js 5.2.4</desc>
<defs>
</defs>
<g transform="matrix(Infinity NaN NaN Infinity 0 0)" id="4658ade1-2dff-4c6a-a96d-4121c7d61e02"  >
</g>
<g transform="matrix(1 0 0 1 212.5 137.5)" id="90e630eb-443c-400f-aecc-85a3384674e8"  >
<rect style="stroke: none; stroke-width: 1; stroke-dasharray: none; stroke-linecap: butt; stroke-dashoffset: 0; stroke-linejoin: miter; stroke-miterlimit: 4; fill: rgb(255,255,255); fill-rule: nonzero; opacity: 1; visibility: hidden;" vector-effect="non-scaling-stroke"  x="-212.5" y="-137.5" rx="0" ry="0" width="425" height="275" />
</g>
<g transform="matrix(2.3 0 0 2.3 212.5 137.5)"  >
<path style="stroke: none; stroke-width: 1; stroke-dasharray: none; stroke-linecap: butt; stroke-dashoffset: 0; stroke-linejoin: miter; stroke-miterlimit: 4; fill: rgb(0,0,0); fill-rule: evenodd; opacity: 1;" vector-effect="non-scaling-stroke"  transform=" translate(-96.38, -96.38)" d="M 156.588 149.965 L 156.588 126.63300000000001 L 146.959 126.63300000000001 L 146.959 149.965 L 156.588 149.965 z M 105.611 140.277 L 105.611 126.98599999999999 L 96.278 126.98599999999999 L 96.278 137.146 C 96.278 140.099 96.16000000000001 140.927 95.983 141.695 C 95.333 143.822 93.08800000000001 144.765 90.785 144.765 C 87.596 144.765 86.119 143.52499999999998 85.52799999999999 141.576 C 85.35099999999998 140.928 85.29199999999999 140.219 85.23299999999999 139.51 C 85.17399999999999 138.742 85.23299999999999 137.914 85.23299999999999 137.03 L 85.23299999999999 126.987 L 75.78199999999998 126.987 L 75.78199999999998 140.337 C 75.78199999999998 143.351 76.78699999999998 145.595 78.43999999999998 147.13 C 81.27499999999998 149.90699999999998 86.05999999999999 150.734 90.48999999999998 150.734 C 95.86499999999998 150.734 99.99999999999999 149.966 102.95299999999997 147.072 C 104.48999999999998 145.594 105.61099999999998 143.645 105.61099999999998 140.27700000000002 z M 59.774 138.623 C 59.30611601227693 138.54170282717755 58.83188180138855 138.50254587398493 58.35699999999999 138.506 L 47.725 138.506 C 47.193 138.506 46.602000000000004 138.565 46.307 138.623 C 46.484 138.445 46.839 138.09199999999998 47.193000000000005 137.619 L 51.977000000000004 129.703 C 52.627 128.641 52.922000000000004 127.932 53.040000000000006 127.637 C 53.15800000000001 127.932 53.453 128.641 54.10300000000001 129.764 L 59.00600000000001 137.739 C 59.24300000000001 138.092 59.59700000000001 138.445 59.77400000000001 138.623 z M 77.613 149.965 L 56.348 118.069 L 44.417 118.069 L 47.547000000000004 121.79 C 47.606 121.849 47.725 121.90700000000001 47.842000000000006 121.968 C 47.724000000000004 122.027 47.60600000000001 122.08500000000001 47.547000000000004 122.144 L 29 149.965 L 39.75 149.965 L 42.645 145.18 C 42.763000000000005 144.94400000000002 42.822 144.707 42.822 144.59 C 42.940000000000005 144.59 43.236000000000004 144.707 43.531000000000006 144.707 L 62.72800000000001 144.707 C 63.02300000000001 144.707 63.25900000000001 144.648 63.37700000000001 144.59 C 63.366166877951166 144.75610324124827 63.40741593505861 144.9214490379586 63.49500000000001 145.06300000000002 L 66.50800000000001 149.965 L 77.61300000000001 149.965 z M 144.361 137.975 C 144.361 135.375 143.297 132.362 139.98999999999998 128.168 L 132.015 118.06800000000001 L 120.91 118.06800000000001 L 127.22999999999999 125.156 C 128.29399999999998 126.33800000000001 129.652 127.4 129.652 127.4 C 128.117 126.513 126.16799999999999 126.16000000000001 124.63199999999999 126.16000000000001 C 120.96999999999998 126.16000000000001 117.24699999999999 126.92800000000001 113.94099999999999 128.76000000000002 C 110.39599999999999 130.70700000000002 108.03299999999999 133.95700000000002 108.03299999999999 138.27 C 108.03299999999999 141.577 109.50999999999999 144.11800000000002 111.39999999999999 146.067 C 115.654 150.31900000000002 123.38999999999999 150.733 126.226 150.733 C 130.419 150.733 136.976 149.788 140.699 146.421 C 142.88500000000002 144.412 144.36100000000002 141.637 144.36100000000002 137.975 z M 135.146 138.26999999999998 C 135.146 140.69199999999998 133.54999999999998 142.522 131.54199999999997 143.52599999999998 C 129.88799999999998 144.41299999999998 127.93799999999997 144.64899999999997 126.22599999999997 144.64899999999997 C 124.51399999999997 144.64899999999997 122.50499999999997 144.29399999999998 120.85099999999997 143.46699999999998 C 118.84299999999998 142.463 117.30599999999997 140.51399999999998 117.30599999999997 138.38699999999997 C 117.30599999999997 135.84799999999998 119.25499999999997 133.83799999999997 121.55999999999997 132.83399999999997 C 122.97799999999998 132.18599999999998 124.69099999999997 131.94899999999998 126.04799999999997 131.94899999999998 C 127.34899999999998 131.94899999999998 129.23899999999998 132.12499999999997 130.71599999999998 132.71699999999998 C 133.37499999999997 133.838 135.146 135.96499999999997 135.146 138.26999999999998 z M 153.529 42.023 C 146.61294000872874 42.01183458768812 139.8972819132549 44.3450948330265 134.478 48.641999999999996 C 129.05887239967083 44.34481397042157 122.34311306282396 42.01151855020271 115.427 42.02300000000001 C 108.5113225595279 42.012297750967036 101.79612910978526 44.34551903410859 96.37700000000001 48.64200000000001 C 90.95837242491571 44.344606234491394 84.24284994018096 42.01127062680323 77.32700000000003 42.022999999999996 C 70.4113225595279 42.012297750967036 63.69612910978526 44.34551903410859 58.27700000000001 48.64200000000001 C 52.85794801431457 44.34537865680552 46.14270397329978 42.01213979552064 39.227000000000004 42.023 C 22.256000000000018 42.023 8.503000000000018 55.775000000000006 8.503000000000018 72.747 C 8.503000000000018 89.717 22.255000000000017 103.471 39.22700000000002 103.471 C 46.142664174820354 103.48162327998553 52.85783233294639 101.14841078451906 58.277000000000015 96.852 C 63.69605198568546 101.14862134319449 70.41129602670023 103.48186020447936 77.32700000000001 103.471 C 84.2428233961748 103.48257129041737 90.95829523063291 101.1492532813739 96.37700000000001 96.852 C 101.79612910978527 101.14848096589142 108.51132255952791 103.48170224903296 115.427 103.471 C 122.3430997941738 103.48240243174429 129.05883381665438 101.1491158066433 134.478 96.852 C 139.89716618334563 101.14911580664328 146.6129002058262 103.48240243174428 153.529 103.471 C 170.5 103.471 184.252 89.718 184.252 72.747 C 184.252 55.775999999999996 170.5 42.023 153.529 42.023 z M 53.25 91.833 C 49.335 94.689 44.444 96.432 39.227000000000004 96.432 C 26.135000000000005 96.432 15.541000000000004 85.839 15.541000000000004 72.747 C 15.541000000000004 59.655 26.135000000000005 49.061 39.227000000000004 49.061 C 44.444 49.061 49.33200000000001 50.805 53.25 53.662 C 48.93324474050996 59.08523564113367 46.589553035545926 65.8155028980158 46.604 72.747 C 46.607245002672165 79.67581687990004 48.94895150455214 86.40073567238895 53.25000000000001 91.83300000000001 z M 58.278 86.82 C 55.25867012314607 82.75009340151998 53.63313955715239 77.8145827962926 53.642999999999994 72.74699999999999 C 53.630278979690495 67.67896152585838 55.256098626389196 62.74257320050978 58.27799999999999 58.67399999999999 C 61.29932198409775 62.742873711641565 62.92507644965239 67.67906413100518 62.913 72.74699999999999 C 62.92250362799996 77.81452589914967 61.29700908606328 82.74992712647975 58.27799999999999 86.82 z M 91.351 91.833 C 87.28345337680425 94.82758772692392 82.36197431378585 96.43723387061199 77.311 96.425 C 72.27049571251511 96.43525076643111 67.36011082207192 94.82544942303744 63.30400000000001 91.833 C 67.60546228986288 86.40134872456379 69.94723458446246 79.67659334652691 69.95 72.74799999999999 C 69.96444696445407 65.81650289801578 67.62075525949004 59.08623564113367 63.304 53.663 C 67.35972430912018 50.66968444589156 72.27029302133766 49.05947225946942 77.311 49.06999999999999 C 82.566 49.06999999999999 87.421 50.769999999999996 91.351 53.663 C 87.03424474050996 59.08623564113367 84.69055303554593 65.8165028980158 84.705 72.748 C 84.70792206304455 79.67656681889375 87.04967695206021 86.40127221414862 91.351 91.833 z M 96.377 86.82 C 93.35767012314606 82.75009340151998 91.7321395571524 77.8145827962926 91.74199999999999 72.74699999999999 C 91.72978035970404 67.67904133375788 93.35554930301922 62.742806956352396 96.377 58.67399999999998 C 99.3990647652405 62.742549022593735 101.02521703759484 67.67888226867713 101.01299999999999 72.74699999999997 C 101.02264266673411 77.81470746632078 99.39675059965563 82.75025083560365 96.377 86.82 z M 129.451 91.833 C 125.52099999999999 94.727 120.666 96.425 115.41199999999999 96.425 C 110.15799999999999 96.425 105.33399999999999 94.724 101.404 91.833 C 105.7058801304608 86.40157833120793 108.04770466380776 79.67667294166128 108.05 72.74799999999999 C 108.06444696445406 65.81650289801578 105.72075525949003 59.08623564113367 101.404 53.663 C 105.334 50.77099999999999 110.158 49.06999999999999 115.41199999999999 49.06999999999999 C 120.66599999999998 49.06999999999999 125.52099999999999 50.769999999999996 129.451 53.663 C 125.13473938627224 59.086508229125684 122.79111000449615 65.81659651549295 122.80499999999999 72.74799999999999 C 122.80847014983777 79.6764739882342 125.15016414815827 86.40100452659513 129.451 91.833 z M 134.47899999999998 86.82 C 131.45967012314605 82.75009340151998 129.83413955715238 77.81458279629258 129.844 72.74699999999999 C 129.83084896178372 67.67889309737626 131.45671210721673 62.742372699171526 134.47899999999998 58.67399999999999 C 137.50032198409775 62.742873711641565 139.12607644965237 67.67906413100516 139.11399999999998 72.74699999999997 C 139.1230756717884 77.81445764093016 137.49762432625354 82.7497277133599 134.47899999999998 86.81999999999998 z M 153.529 96.43199999999999 C 148.31 96.43199999999999 143.42 94.689 139.506 91.83299999999998 C 143.8070446214836 86.40111923099896 146.14876471032292 79.67651376974433 146.152 72.74799999999999 C 146.16588999550385 65.81659651549295 143.82226061372776 59.0865082291257 139.506 53.663000000000004 C 143.424 50.80699999999999 148.311 49.06199999999999 153.529 49.06199999999999 C 166.619 49.06199999999999 177.215 59.65599999999999 177.215 72.74799999999999 C 177.215 85.838 166.619 96.43199999999999 153.529 96.43199999999999 z" stroke-linecap="round" />
</g>
</svg>