<?xml version="1.0" encoding="UTF-8" standalone="no" ?>
<!DOCTYPE svg PUBLIC "-//W3C//DTD SVG 1.1//EN" "http://www.w3.org/Graphics/SVG/1.1/DTD/svg11.dtd">
<svg xmlns="http://www.w3.org/2000/svg" xmlns:xlink="http://www.w3.org/1999/xlink" version="1.1" width="800" height="275" viewBox="0 0 800 275" xml:space="preserve">
<desc>Created with Fabric.js 5.2.4</desc>
<defs>
</defs>
<g transform="matrix(1 0 0 1 400 137.5)" id="ce05a855-fae5-427b-8daa-9c1247643512"  >
<rect style="stroke: none; stroke-width: 1; stroke-dasharray: none; stroke-linecap: butt; stroke-dashoffset: 0; stroke-linejoin: miter; stroke-miterlimit: 4; fill: rgb(255,255,255); fill-rule: nonzero; opacity: 1; visibility: hidden;" vector-effect="non-scaling-stroke"  x="-400" y="-137.5" rx="0" ry="0" width="800" height="275" />
</g>
<g transform="matrix(Infinity NaN NaN Infinity 0 0)" id="fedf05b1-73b6-4db3-98ae-0b78dc26a684"  >
</g>
<g transform="matrix(0.32 0 0 0.32 400 137.5)"  >
<g style="" vector-effect="non-scaling-stroke"   >
		<g transform="matrix(17.79 0 0 17.79 0 0)"  >
<path style="stroke: none; stroke-width: 1; stroke-dasharray: none; stroke-linecap: butt; stroke-dashoffset: 0; stroke-linejoin: miter; stroke-miterlimit: 4; fill: rgb(0,0,0); fill-rule: nonzero; opacity: 1;" vector-effect="non-scaling-stroke"  transform=" translate(-70.26, -22.02)" d="M 71.961 42.996 C 72.756 44.494 75.068 44.069 75.398 42.563 C 76.34899999999999 43.949000000000005 78.551 43.302 78.761 41.844 C 79.682 42.848 81.509 42.446 81.923 41.146 C 81.929 41.127 81.917 41.165 81.923 41.146 C 88.7 38.359 93.66 33.317 95.6 27.298 C 96.01174755445531 27.125873535813028 96.37180602800214 26.849886131687658 96.645 26.497 C 98.741 26.99 101.083 27.976 101.946 25.634 C 103.79599999999999 26.127 107.675 27.418 108.849 24.279 C 111.561 24.649 115.50500000000001 24.895 115.99900000000001 22.06 C 118.34100000000001 22.06 122.40800000000002 21.689999999999998 122.40800000000002 18.977999999999998 C 124.75100000000002 18.977999999999998 128.818 17.374999999999996 128.32500000000002 15.525999999999998 C 130.42100000000002 15.279999999999998 133.257 13.060999999999998 133.257 11.581999999999997 C 135.352 10.965999999999998 137.695 9.362999999999998 137.201 7.267999999999997 C 138.433 6.527999999999997 140.529 5.664999999999997 140.529 4.432999999999997 C 140.529 3.200999999999997 139.543 2.2139999999999973 138.433 2.2139999999999973 C 137.32299999999998 2.2139999999999973 133.132 2.4679999999999973 131.653 2.4679999999999973 C 130.17499999999998 2.4679999999999973 112.29999999999998 2.2209999999999974 108.109 2.4679999999999973 C 103.91799999999999 2.7139999999999973 98.61699999999999 2.8299999999999974 96.02799999999999 2.5839999999999974 C 94.121 2.3999999999999972 87.624 2.0279999999999974 83.72299999999998 3.0709999999999975 C 75.46099999999998 -1.0230000000000028 65.07 -1.0240000000000022 56.80599999999998 3.0709999999999975 C 52.905999999999985 2.0289999999999973 46.40799999999999 2.4009999999999976 44.499999999999986 2.5819999999999976 C 41.91099999999999 2.8289999999999975 36.61099999999998 2.7119999999999975 32.41899999999998 2.4659999999999975 C 28.227999999999984 2.2189999999999976 10.352999999999984 2.4659999999999975 8.873999999999981 2.4659999999999975 C 7.394999999999978 2.4659999999999975 3.203999999999981 2.2119999999999975 2.0939999999999808 2.2119999999999975 C 0.9839999999999804 2.2119999999999975 0 3.199 0 4.431 C 0 5.664 2.096 6.527 3.329 7.266 C 2.835 9.362 5.178 10.964 7.273 11.58 C 7.273 13.059000000000001 10.108 15.278 12.204 15.524000000000001 C 11.711 17.374000000000002 15.779 18.976 18.121000000000002 18.976 C 18.121000000000002 21.686999999999998 22.189 22.058 24.531000000000002 22.058 C 25.024 24.893 28.969 24.647 31.681000000000004 24.277 C 32.855000000000004 27.417 36.73500000000001 26.126 38.584 25.632 C 39.447 27.975 41.789 26.988000000000003 43.885000000000005 26.495 C 44.17100000000001 26.867 44.531000000000006 27.125 44.93000000000001 27.296 C 46.870000000000005 33.316 51.831 38.358 58.607000000000006 41.144999999999996 C 58.61200000000001 41.163999999999994 58.601000000000006 41.126 58.607000000000006 41.144999999999996 C 59.02100000000001 42.44499999999999 60.848000000000006 42.846999999999994 61.769000000000005 41.842999999999996 C 61.979000000000006 43.300999999999995 64.18100000000001 43.946999999999996 65.132 42.562 C 65.461 44.068 67.774 44.492999999999995 68.56800000000001 42.995 C 68.757 44.396 71.772 44.396 71.96100000000001 42.995999999999995 z" stroke-linecap="round" />
</g>
		<g transform="matrix(17.79 0 0 17.79 -280.79 197.41)"  >
<path style="stroke: none; stroke-width: 1; stroke-dasharray: none; stroke-linecap: butt; stroke-dashoffset: 0; stroke-linejoin: miter; stroke-miterlimit: 4; fill: rgb(255,255,255); fill-rule: nonzero; opacity: 1;" vector-effect="non-scaling-stroke"  transform=" translate(-54.48, -33.12)" d="M 48.939 26.99 C 49.664 28.647 51.955 28.302 53.327 27.785 C 55.157 30.569 58.201 32.835 61.949 34.204 L 58.972 39.25 C 53.185 36.729 48.901 32.509 47.013000000000005 27.54 C 47.68131916032191 27.466065889358703 48.332420063738795 27.280133647988357 48.93900000000001 26.989999999999995 z" stroke-linecap="round" />
</g>
		<g transform="matrix(17.79 0 0 17.79 -596.49 26.8)"  >
<path style="stroke: none; stroke-width: 1; stroke-dasharray: none; stroke-linecap: butt; stroke-dashoffset: 0; stroke-linejoin: miter; stroke-miterlimit: 4; fill: rgb(255,255,255); fill-rule: nonzero; opacity: 1;" vector-effect="non-scaling-stroke"  transform=" translate(-36.73, -23.53)" d="M 58.541 40.56 C 52.151999999999994 37.862 47.455999999999996 33.142 45.510999999999996 27.484 C 45.831999999999994 27.554000000000002 46.165 27.581000000000003 46.498 27.575000000000003 C 48.403 32.722 52.802 37.096000000000004 58.751999999999995 39.693000000000005 C 58.632230023135016 39.96768145397783 58.56084565289688 40.26100016960088 58.541 40.56 z M 61.884 40.711000000000006 C 61.88316832500452 40.71405350913035 61.88216676548182 40.717058187698434 61.881 40.720000000000006 C 60.934 43.050000000000004 58.125 41.702000000000005 59.396 39.50200000000001 L 62.423 34.37200000000001 C 62.978 34.56000000000001 63.547000000000004 34.72800000000001 64.129 34.87800000000001 C 64.141 34.95700000000001 61.917 40.605000000000004 61.88400000000001 40.711000000000006 z M 65.085 41.43600000000001 C 64.499 43.76700000000001 61.68899999999999 43.056000000000004 62.349999999999994 40.87400000000001 L 64.756 35.028000000000006 C 65.328 35.15800000000001 65.911 35.26800000000001 66.504 35.357000000000006 C 66.51 35.379000000000005 65.08500000000001 41.43600000000001 65.08500000000001 41.43600000000001 z M 68.384 41.80400000000001 C 68.175 44.31200000000001 65.096 43.87700000000001 65.648 41.37900000000001 C 65.648 41.381000000000014 67.023 35.44400000000001 67.02799999999999 35.43100000000001 C 67.606 35.50400000000001 68.192 35.56000000000001 68.78699999999999 35.59400000000001 C 68.80799999999999 35.64800000000001 68.386 41.754000000000005 68.38399999999999 41.80400000000001 z M 68.92 41.76600000000001 C 68.92 41.76700000000001 69.248 35.695000000000014 69.253 35.680000000000014 C 69.829 35.704000000000015 70.68 35.72100000000001 71.273 35.661000000000016 C 71.301 35.713000000000015 71.68299999999999 41.70300000000002 71.689 41.75200000000002 C 71.875 44.207000000000015 68.773 44.25700000000002 68.91999999999999 41.76600000000002 z M 2.028 3.687 C 2.3040000000000003 3.476 2.898 3.4869999999999997 3.649 3.445 C 7.470000000000001 3.445 16.346 3.6919999999999997 18.072 3.6919999999999997 C 19.798 3.6919999999999997 32.001999999999995 5.048 33.912 5.665 C 34.775 5.912 34.96 6.774 33.912 6.836 C 32.864 6.898000000000001 19.836 7.0840000000000005 17.987 7.0840000000000005 C 16.552999999999997 7.0840000000000005 9.093999999999998 7.059 4.782999999999998 6.204000000000001 C 2.450999999999998 5.7410000000000005 1.1989999999999976 4.319000000000001 2.027999999999998 3.6870000000000007 z M 6.225 8.252 C 8.443999999999999 8.314 19.538 8.376000000000001 20.833 8.314 C 22.127 8.252 32.174 7.698 33.345 7.636 C 35.878 7.503 36.698 8.631 34.022999999999996 9.239 C 32.666999999999994 9.548 20.154999999999994 10.965 10.662999999999997 10.780000000000001 C 8.874999999999996 10.842 6.471999999999997 9.917000000000002 5.854999999999997 9.054000000000002 C 5.238999999999997 8.191000000000003 5.916999999999997 8.252000000000002 6.224999999999997 8.252000000000002 z M 10.54 12.321000000000002 C 12.081 12.321000000000002 30.262999999999998 10.965000000000002 34.085 10.164000000000001 C 37.409 9.658000000000001 36.659 11.366000000000001 35.317 11.643 C 34.189 11.876000000000001 20.709 14.478000000000002 13.867999999999999 14.601 C 11.586999999999998 14.540000000000001 8.936999999999998 12.382000000000001 10.54 12.321000000000002 z M 15.161999999999999 16.142000000000003 C 17.32 15.895000000000003 31.680999999999997 13.615000000000002 35.564 12.567000000000004 C 39.076 11.657000000000004 38.367 13.991000000000003 37.105 14.355000000000004 C 35.980999999999995 14.679000000000004 23.741999999999997 17.658000000000005 20.955999999999996 17.807000000000002 C 19.774713209493452 17.869124901697745 18.590239717588524 17.789219943910506 17.427999999999997 17.569 C 13.491999999999997 16.782000000000004 15.161999999999997 16.142000000000003 15.161999999999997 16.142000000000003 z M 20.956 19.347 C 22.497 19.039 35.009 16.203000000000003 38.584 14.848000000000003 C 40.326 14.241000000000003 40.85 15.952000000000002 39.755 16.450000000000003 C 39.077000000000005 16.758000000000003 29.462000000000003 20.764000000000003 24.901000000000003 21.011000000000003 C 23.237000000000002 21.011000000000003 20.159000000000002 20.115000000000002 20.956000000000003 19.347 z M 41.357 16.758000000000003 C 39.94 17.436000000000003 31.311 21.073000000000004 27.982 21.813000000000002 C 27.52 21.936000000000003 27.032 22.140000000000004 27.070999999999998 22.397000000000002 C 27.366999999999997 24.365000000000002 33.492999999999995 22.691000000000003 33.918 22.555000000000003 C 36.274 21.800000000000004 41.077 20.037000000000003 43.114 18.052000000000003 C 42.620999999999995 17.806000000000004 41.480999999999995 17.005000000000003 41.357 16.758000000000003 z M 43.946 18.854000000000003 C 43.022 19.470000000000002 36.980999999999995 22.615000000000002 34.208 23.477000000000004 C 32.759 23.960000000000004 34.284 25.450000000000003 37.114 24.643000000000004 C 40.242 24.158000000000005 44.809 20.457000000000004 45.549 19.779000000000003 C 45.179 19.594000000000005 44.378 19.101000000000003 43.946 18.854000000000003 z M 46.782 20.519000000000002 C 45.665 21.283 43.51499999999999 22.711000000000002 42.15 23.622000000000003 C 41.586999999999996 23.998000000000005 40.242999999999995 24.741000000000003 40.272 25.335000000000004 C 40.286 25.619000000000003 40.826 26.158000000000005 43.293 25.262000000000004 C 44.827 24.634000000000004 46.684 23.357000000000003 48.260999999999996 21.074000000000005 C 47.952999999999996 20.980000000000004 47.150999999999996 20.703000000000007 46.782 20.519000000000005 z M 49.555 21.443 C 48.977 22.021 48.23 22.811 47.499 23.539 C 46.826 24.407 45.326 25.032 45.842 26.035 C 46.400999999999996 27.121 48.161 25.558 48.795 24.96 C 49.691 24.113 50.556000000000004 22.994 50.881 21.874000000000002 C 50.449 21.751 49.956 21.628000000000004 49.555 21.443 z" stroke-linecap="round" />
</g>
		<g transform="matrix(17.79 0 0 17.79 -473.79 -224.57)"  >
<path style="stroke: none; stroke-width: 1; stroke-dasharray: none; stroke-linecap: butt; stroke-dashoffset: 0; stroke-linejoin: miter; stroke-miterlimit: 4; fill: rgb(255,255,255); fill-rule: nonzero; opacity: 1;" vector-effect="non-scaling-stroke"  transform=" translate(-43.63, -9.4)" d="M 28.106 3.199 C 29.709000000000003 3.199 35.132000000000005 3.569 37.105000000000004 3.569 C 42.773 3.569 50.443000000000005 2.569 55.715 3.652 C 58.992000000000004 4.325 59.462 5.274 59.462 6.2940000000000005 C 59.462 7.621 58.353 8.418000000000001 57.567 8.994 C 56.643 9.672 53.807 11.336 53.684 15.651 C 52.945 15.343 51.897 15.158 52.637 13.617 C 53.928 11.034 56.831 7.888000000000001 51.866 6.548000000000001 C 51.083 6.337000000000001 50.118 6.199000000000001 48.939 6.159000000000001 C 45.303 6.0360000000000005 40.03 6.009 38.242000000000004 5.7010000000000005 C 36.455000000000005 5.393000000000001 29.708000000000006 3.8170000000000006 28.291000000000004 3.6330000000000005 C 27.674000000000003 3.5680000000000005 27.674000000000003 3.2600000000000007 28.106000000000005 3.1990000000000003 z" stroke-linecap="round" />
</g>
		<g transform="matrix(17.79 0 0 17.79 -451.28 -164.68)"  >
<path style="stroke: none; stroke-width: 1; stroke-dasharray: none; stroke-linecap: butt; stroke-dashoffset: 0; stroke-linejoin: miter; stroke-miterlimit: 4; fill: rgb(255,255,255); fill-rule: nonzero; opacity: 1;" vector-effect="non-scaling-stroke"  transform=" translate(-44.9, -12.77)" d="M 42.355 6.947 C 43.648999999999994 6.947 47.611999999999995 6.92 48.940999999999995 6.983 C 52.617 7.1579999999999995 55.242 8.949 52.586999999999996 12.309999999999999 C 52.06699999999999 12.966999999999999 50.677 14.343999999999998 50.122 14.837 C 49.629 15.206999999999999 48.704 14.59 49.505 13.666 C 48.457 14.282 47.163000000000004 14.159 47.779 12.742 C 46.854000000000006 13.482000000000001 45.31400000000001 13.543000000000001 46.23800000000001 11.633000000000001 C 45.62200000000001 12.126000000000001 43.89600000000001 12.065000000000001 45.00500000000001 10.585 C 44.08100000000001 10.893 43.03300000000001 10.338000000000001 43.71100000000001 9.414000000000001 C 42.54000000000001 9.600000000000001 41.862000000000016 8.736 43.09500000000001 8.059000000000001 C 41.924000000000014 8.364 41.616000000000014 7.008000000000001 42.35500000000001 6.947000000000001 z M 38.739 6.292 C 38.239999999999995 6.26 36.074999999999996 5.9079999999999995 36.126999999999995 7.075 C 36.178999999999995 8.243 38.583999999999996 7.8020000000000005 39.077999999999996 7.71 C 39.98799999999999 7.541 40.714999999999996 7.263 40.693999999999996 6.886 C 40.672999999999995 6.4990000000000006 39.724999999999994 6.354 38.739 6.292 z M 38.827 8.293 C 38.300999999999995 8.332999999999998 36.41 8.239999999999998 36.705 9.308 C 36.798 9.644 37.492999999999995 10.324 39.818 9.759 C 40.836999999999996 9.511000000000001 41.364999999999995 8.965 41.364999999999995 8.531 C 41.364999999999995 8.152000000000001 39.995 8.204 38.827 8.293000000000001 z M 40.32 10.027 C 39.946 10.088999999999999 37.778 10.237 38.141 11.329999999999998 C 38.394999999999996 12.091999999999999 38.785 11.850999999999999 39.446 11.929999999999998 C 39.882 11.981999999999998 43.111999999999995 11.071999999999997 42.607 10.035999999999998 C 42.457 9.727999999999998 41.507 9.831999999999997 40.32 10.026999999999997 z M 41.392 11.575999999999999 C 39.242000000000004 12.448999999999998 39.27 13.04 39.368 13.358999999999998 C 39.465 13.678999999999998 40.451 14.073999999999998 42.491 13.076999999999998 C 43.524 12.571999999999997 43.537 11.997999999999998 43.283 11.591999999999999 C 42.966 11.082999999999998 42.164 11.261999999999999 41.392 11.575999999999999 z M 42.897000000000006 13.043999999999999 C 40.659000000000006 13.823999999999998 40.787000000000006 14.535999999999998 40.964000000000006 14.953999999999999 C 41.159000000000006 15.415999999999999 41.86600000000001 15.908 43.73400000000001 14.717999999999998 C 44.86200000000001 13.999999999999998 45.59600000000001 13.397999999999998 45.39500000000001 12.919999999999998 C 45.21300000000001 12.485999999999999 44.14600000000001 12.598999999999998 42.89700000000001 13.043999999999999 z M 43.773 15.285999999999998 C 43.186 15.641999999999998 42.919000000000004 16.124 43.289 16.673 C 43.951 17.656999999999996 45.903 15.920999999999998 46.393 15.389999999999999 C 46.757 14.995999999999999 46.99 14.581999999999999 46.784 14.278999999999998 C 46.571 13.966999999999999 45.909 13.990999999999998 43.772999999999996 15.285999999999998 z M 47.307 15.452999999999998 C 44.701 16.781999999999996 44.951 17.426 45.314 17.700999999999997 C 45.715 18.004999999999995 46.66 18.323999999999998 48.24 16.497999999999998 C 48.933 15.697999999999997 48.552 14.821999999999997 47.307 15.452999999999998 z M 48.608000000000004 16.846999999999998 C 48.05800000000001 17.461999999999996 46.769000000000005 18.389 47.767 19.08 C 48.608000000000004 19.662 49.101000000000006 19.023 49.515 18.627 C 51.909 16.323999999999998 51.117 14.866 48.608000000000004 16.846999999999998 z" stroke-linecap="round" />
</g>
		<g transform="matrix(17.79 0 0 17.79 -225.8 -278.44)"  >
<path style="stroke: none; stroke-width: 1; stroke-dasharray: none; stroke-linecap: butt; stroke-dashoffset: 0; stroke-linejoin: miter; stroke-miterlimit: 4; fill: rgb(0,0,0); fill-rule: nonzero; opacity: 1;" vector-effect="non-scaling-stroke"  transform=" translate(-57.57, -6.37)" d="M 56.472 4.775 C 58.302 5.69 59.059000000000005 6.662000000000001 57.18 7.99 C 56.95 8.152000000000001 57.234 8.555 57.464 8.393 C 59.532 6.933000000000001 59.086999999999996 5.418000000000001 56.693 4.3340000000000005 C 56.440999999999995 4.208 56.221 4.649000000000001 56.472 4.775 z" stroke-linecap="round" />
</g>
		<g transform="matrix(17.79 0 0 17.79 5.35 -16.43)"  >
<path style="stroke: none; stroke-width: 1; stroke-dasharray: none; stroke-linecap: butt; stroke-dashoffset: 0; stroke-linejoin: miter; stroke-miterlimit: 4; fill: rgb(255,255,255); fill-rule: nonzero; opacity: 1;" vector-effect="non-scaling-stroke"  transform=" translate(-70.56, -21.1)" d="M 81.59 25.638 C 81.59 23.672 79.565 21.706000000000003 77.316 21.028000000000002 C 76.715 20.892000000000003 76.81 20.358 77.278 20.147000000000002 C 77.72800000000001 19.943 80.35300000000001 18.113000000000003 80.316 15.808000000000002 C 80.316 13.571000000000002 77.69 10.181000000000001 70.04 10.181000000000001 C 65.54 10.181000000000001 61.790000000000006 11.198 59.540000000000006 13.097000000000001 C 60.06400000000001 13.504000000000001 60.665000000000006 14.114 60.665000000000006 14.792000000000002 L 60.665000000000006 27.199 C 60.59 27.945 60.215 28.555000000000003 59.614000000000004 29.233 C 61.63400000000001 30.667 65.251 32.035000000000004 70.444 32.018 C 75.994 31.882 81.59 30.248 81.59 25.638 z" stroke-linecap="round" />
</g>
		<g transform="matrix(17.79 0 0 17.79 2.77 -103.34)"  >
<ellipse style="stroke: none; stroke-width: 1; stroke-dasharray: none; stroke-linecap: butt; stroke-dashoffset: 0; stroke-linejoin: miter; stroke-miterlimit: 4; fill: rgb(0,0,0); fill-rule: nonzero; opacity: 1;" vector-effect="non-scaling-stroke"  cx="0" cy="0" rx="4.322" ry="3.452" />
</g>
		<g transform="matrix(17.79 0 0 17.79 12.68 63.1)"  >
<ellipse style="stroke: none; stroke-width: 1; stroke-dasharray: none; stroke-linecap: butt; stroke-dashoffset: 0; stroke-linejoin: miter; stroke-miterlimit: 4; fill: rgb(0,0,0); fill-rule: nonzero; opacity: 1;" vector-effect="non-scaling-stroke"  cx="0" cy="0" rx="4.845" ry="3.644" />
</g>
		<g transform="matrix(17.79 0 0 17.79 -69.09 -147.88)"  >
<path style="stroke: none; stroke-width: 1; stroke-dasharray: none; stroke-linecap: butt; stroke-dashoffset: 0; stroke-linejoin: miter; stroke-miterlimit: 4; fill: rgb(255,255,255); fill-rule: nonzero; opacity: 1;" vector-effect="non-scaling-stroke"  transform=" translate(-66.38, -13.71)" d="M 51.644 19.617 C 51.812999999999995 18.776 52.083999999999996 17.959 52.446 17.174 C 52.425 17.143 51.784 16.323 50.205 18.605 C 49.333 19.864 50.873 20.371000000000002 51.644 19.617 z M 51.592999999999996 23.493000000000002 C 50.943 24.248 50.33 24.882 49.925 25.388 C 49.079 26.446 51.279999999999994 27.75 52.465999999999994 26.246000000000002 C 52.05502184459537 25.370787204181728 51.761481786985335 24.445110481844445 51.592999999999996 23.493000000000002 z M 81.929 3.771 C 82.27777226700316 3.573431165147925 82.6448092227843 3.4100059512599663 83.025 3.2830000000000004 C 75.13300000000001 -0.4370000000000003 65.396 -0.4370000000000003 57.50500000000001 3.283 C 57.915000000000006 3.425 58.28300000000001 3.5869999999999997 58.60000000000001 3.771 C 65.90800000000002 0.5880000000000001 74.685 0.6160000000000001 81.929 3.771 z" stroke-linecap="round" />
</g>
		<g transform="matrix(17.79 0 0 17.79 70.78 -25.88)"  >
<path style="stroke: none; stroke-width: 1; stroke-dasharray: none; stroke-linecap: butt; stroke-dashoffset: 0; stroke-linejoin: miter; stroke-miterlimit: 4; fill: rgb(255,255,255); fill-rule: nonzero; opacity: 1;" vector-effect="non-scaling-stroke"  transform=" translate(-74.24, -20.57)" d="M 85.562 13.558 C 84.676 10.475999999999999 82.464 9.222 81.606 8.622 C 79.881 7.417 79.975 5.635999999999999 81.449 4.101 C 74.40599999999999 1.1320000000000001 66.041 1.166 59.081 4.101 C 60.555 5.636 60.648 7.417 58.92400000000001 8.622 C 58.06600000000001 9.222 55.85300000000001 10.475999999999999 54.968 13.558 C 62.491 5.805 78.039 5.804 85.56200000000001 13.558 z M 91.591 26.990000000000002 C 90.865 28.647000000000002 88.574 28.302000000000003 87.20299999999999 27.785000000000004 C 85.37299999999999 30.569000000000003 82.329 32.835 78.57999999999998 34.204 L 81.55799999999998 39.25 C 87.34499999999998 36.729 91.62799999999999 32.509 93.51799999999997 27.54 C 92.84930605493179 27.466345080664208 92.197830378604 27.28040236038383 91.59099999999997 26.99 z" stroke-linecap="round" />
</g>
		<g transform="matrix(17.79 0 0 17.79 622.39 25.63)"  >
<path style="stroke: none; stroke-width: 1; stroke-dasharray: none; stroke-linecap: butt; stroke-dashoffset: 0; stroke-linejoin: miter; stroke-miterlimit: 4; fill: rgb(255,255,255); fill-rule: nonzero; opacity: 1;" vector-effect="non-scaling-stroke"  transform=" translate(-105.25, -23.46)" d="M 81.989 40.56 C 88.378 37.862 93.075 33.142 95.019 27.484 C 94.69463449492865 27.552455352179173 94.36341397292047 27.582993414491984 94.03200000000001 27.575000000000003 C 92.12700000000001 32.722 87.72800000000001 37.096000000000004 81.778 39.693000000000005 C 81.89776997686499 39.96768145397783 81.96915434710311 40.26100016960088 81.989 40.56 z M 78.64500000000001 40.711000000000006 L 78.64900000000002 40.720000000000006 C 79.59600000000002 43.050000000000004 82.40500000000002 41.702000000000005 81.13400000000001 39.50200000000001 L 78.10700000000001 34.37200000000001 C 77.552 34.56000000000001 76.98400000000001 34.72800000000001 76.40100000000001 34.87800000000001 C 76.38900000000001 34.95700000000001 78.61300000000001 40.605000000000004 78.64500000000001 40.711000000000006 z M 75.44400000000002 41.43600000000001 C 76.03100000000002 43.76700000000001 78.84000000000002 43.056000000000004 78.17900000000002 40.87400000000001 C 78.17900000000002 40.87400000000001 75.89900000000002 35.33100000000001 75.77300000000001 35.028000000000006 C 75.20200000000001 35.15800000000001 74.61900000000001 35.26800000000001 74.02600000000001 35.357000000000006 C 74.02000000000001 35.379000000000005 75.44400000000002 41.43600000000001 75.44400000000002 41.43600000000001 z M 72.14600000000002 41.80400000000001 C 72.35500000000002 44.31200000000001 75.43300000000002 43.87700000000001 74.88100000000001 41.37900000000001 C 74.88200000000002 41.381000000000014 73.50700000000002 35.44400000000001 73.50100000000002 35.43100000000001 C 72.92300000000002 35.50400000000001 72.33600000000001 35.56000000000001 71.74200000000002 35.59400000000001 C 71.72200000000002 35.64800000000001 72.14400000000002 41.754000000000005 72.14600000000002 41.80400000000001 z M 138.502 3.687000000000012 C 138.226 3.476000000000012 137.632 3.4870000000000116 136.881 3.445000000000012 C 133.06 3.445000000000012 124.184 3.6920000000000117 122.458 3.6920000000000117 C 120.732 3.6920000000000117 108.52799999999999 5.048000000000012 106.618 5.665000000000012 C 105.755 5.9120000000000115 105.57 6.774000000000012 106.618 6.836000000000012 C 107.666 6.898000000000012 120.693 7.084000000000012 122.542 7.084000000000012 C 123.977 7.084000000000012 131.436 7.059000000000012 135.746 6.204000000000012 C 138.08 5.741000000000012 139.33200000000002 4.319000000000012 138.502 3.6870000000000123 z M 134.304 8.252000000000013 C 132.085 8.314000000000012 120.992 8.376000000000014 119.697 8.314000000000012 C 118.403 8.252000000000013 108.35600000000001 7.698000000000013 107.185 7.6360000000000126 C 104.652 7.5030000000000125 103.831 8.631000000000013 106.507 9.239000000000013 C 107.86200000000001 9.548000000000012 120.375 10.965000000000014 129.866 10.780000000000014 C 131.65300000000002 10.842000000000013 134.05700000000002 9.917000000000014 134.674 9.054000000000013 C 135.291 8.191000000000011 134.613 8.252000000000013 134.304 8.252000000000013 z M 129.99 12.321000000000012 C 128.449 12.321000000000012 110.26700000000001 10.965000000000012 106.44500000000001 10.164000000000012 C 103.12100000000001 9.658000000000012 103.87100000000001 11.366000000000012 105.21300000000001 11.643000000000011 C 106.34100000000001 11.876000000000012 119.82000000000001 14.478000000000012 126.662 14.601000000000012 C 128.942 14.540000000000012 131.592 12.382000000000012 129.99 12.321000000000012 z M 125.36800000000001 16.142000000000014 C 123.21100000000001 15.895000000000014 108.84900000000002 13.615000000000013 104.96700000000001 12.567000000000014 C 101.45500000000001 11.657000000000014 102.16300000000001 13.991000000000014 103.42600000000002 14.355000000000015 C 104.54900000000002 14.679000000000014 116.78800000000001 17.658000000000015 119.57400000000001 17.807000000000016 C 120.75528679050656 17.86912490169776 121.93976028241148 17.789219943910517 123.10200000000002 17.56900000000001 C 127.03800000000001 16.782000000000018 125.36800000000002 16.142000000000017 125.36800000000002 16.142000000000017 z M 119.57400000000001 19.347000000000016 C 118.03300000000002 19.039000000000016 105.52100000000002 16.203000000000017 101.94600000000001 14.848000000000017 C 100.20500000000001 14.241000000000017 99.68 15.952000000000016 100.775 16.450000000000017 C 101.453 16.758000000000017 111.06800000000001 20.764000000000017 115.629 21.011000000000017 C 117.293 21.011000000000017 120.37100000000001 20.115000000000016 119.574 19.347000000000016 z M 99.17200000000001 16.758000000000017 C 100.58900000000001 17.436000000000018 109.21900000000001 21.073000000000018 112.54700000000001 21.813000000000017 C 113.00900000000001 21.936000000000018 113.49700000000001 22.14000000000002 113.45800000000001 22.397000000000016 C 113.162 24.365000000000016 107.03600000000002 22.691000000000017 106.61100000000002 22.555000000000017 C 104.25600000000001 21.80000000000002 99.45200000000001 20.037000000000017 97.41500000000002 18.052000000000017 C 97.90900000000002 17.80600000000002 99.04900000000002 17.005000000000017 99.17200000000003 16.758000000000017 z M 96.58300000000001 18.854000000000017 C 97.50700000000002 19.470000000000017 103.54800000000002 22.615000000000016 106.32100000000001 23.477000000000018 C 107.77000000000001 23.96000000000002 106.24500000000002 25.450000000000017 103.415 24.64300000000002 C 100.287 24.15800000000002 95.72 20.45700000000002 94.98 19.779000000000018 C 95.351 19.59400000000002 96.152 19.101000000000017 96.583 18.854000000000017 z M 93.74900000000001 20.519000000000016 C 94.86500000000001 21.283000000000015 97.016 22.711000000000016 98.38100000000001 23.622000000000018 C 98.94400000000002 23.99800000000002 100.28800000000001 24.741000000000017 100.25900000000001 25.33500000000002 C 100.24500000000002 25.619000000000018 99.70500000000001 26.15800000000002 97.23800000000001 25.262000000000018 C 95.70400000000001 24.634000000000018 93.84700000000001 23.357000000000017 92.27000000000001 21.07400000000002 C 92.57700000000001 20.980000000000018 93.37800000000001 20.70300000000002 93.74900000000001 20.51900000000002 z M 90.974 21.443000000000016 C 91.552 22.021000000000015 92.3 22.811000000000014 93.031 23.539000000000016 C 93.70500000000001 24.407000000000014 95.20500000000001 25.032000000000014 94.688 26.035000000000014 C 94.129 27.121000000000013 92.369 25.558000000000014 91.736 24.960000000000015 C 90.84 24.113000000000014 89.974 22.994000000000014 89.649 21.874000000000017 C 90.081 21.751000000000015 90.574 21.628000000000018 90.974 21.443000000000016 z" stroke-linecap="round" />
</g>
		<g transform="matrix(17.79 0 0 17.79 473.8 -224.57)"  >
<path style="stroke: none; stroke-width: 1; stroke-dasharray: none; stroke-linecap: butt; stroke-dashoffset: 0; stroke-linejoin: miter; stroke-miterlimit: 4; fill: rgb(255,255,255); fill-rule: nonzero; opacity: 1;" vector-effect="non-scaling-stroke"  transform=" translate(-96.9, -9.4)" d="M 112.424 3.199 C 110.82100000000001 3.199 105.39800000000001 3.569 103.42500000000001 3.569 C 97.75600000000001 3.569 90.08600000000001 2.569 84.81500000000001 3.652 C 81.53800000000001 4.325 81.06800000000001 5.274 81.06800000000001 6.2940000000000005 C 81.06800000000001 7.621 82.17600000000002 8.418000000000001 82.96200000000002 8.994 C 83.88700000000001 9.672 86.72300000000001 11.336 86.84600000000002 15.651 C 87.58500000000002 15.343 88.63300000000002 15.158 87.89400000000002 13.617 C 86.60200000000002 11.034 83.70000000000002 7.888000000000001 88.66500000000002 6.548000000000001 C 89.44800000000002 6.337000000000001 90.41300000000003 6.199000000000001 91.59300000000002 6.159000000000001 C 95.22900000000001 6.0360000000000005 100.50200000000002 6.009 102.28900000000002 5.7010000000000005 C 104.07600000000001 5.393000000000001 110.82300000000002 3.8170000000000006 112.24000000000001 3.6330000000000005 C 112.85600000000001 3.5680000000000005 112.85600000000001 3.2600000000000007 112.424 3.1990000000000003 z" stroke-linecap="round" />
</g>
		<g transform="matrix(17.79 0 0 17.79 451.29 -164.68)"  >
<path style="stroke: none; stroke-width: 1; stroke-dasharray: none; stroke-linecap: butt; stroke-dashoffset: 0; stroke-linejoin: miter; stroke-miterlimit: 4; fill: rgb(255,255,255); fill-rule: nonzero; opacity: 1;" vector-effect="non-scaling-stroke"  transform=" translate(-95.63, -12.77)" d="M 98.174 6.947 C 96.88000000000001 6.947 92.917 6.92 91.58800000000001 6.983 C 87.912 7.1579999999999995 85.287 8.949 87.94200000000001 12.309999999999999 C 88.462 12.966999999999999 89.852 14.343999999999998 90.40700000000001 14.837 C 90.9 15.206999999999999 91.82500000000002 14.59 91.02300000000001 13.666 C 92.07200000000002 14.282 93.36600000000001 14.159 92.75000000000001 12.742 C 93.67400000000002 13.482000000000001 95.21500000000002 13.543000000000001 94.29100000000001 11.633000000000001 C 94.90700000000001 12.126000000000001 96.63300000000001 12.065000000000001 95.52300000000001 10.585 C 96.44800000000001 10.893 97.49600000000001 10.338000000000001 96.81700000000001 9.414000000000001 C 97.989 9.600000000000001 98.667 8.736 97.433 8.059000000000001 C 98.60600000000001 8.364 98.914 7.008000000000001 98.174 6.947000000000001 z M 101.79100000000001 6.292 C 102.29 6.26 104.45500000000001 5.9079999999999995 104.403 7.075 C 104.351 8.243 101.94600000000001 7.8020000000000005 101.45200000000001 7.71 C 100.54200000000002 7.541 99.81500000000001 7.263 99.83600000000001 6.886 C 99.85700000000001 6.4990000000000006 100.805 6.354 101.79100000000001 6.292 z M 101.70400000000001 8.293 C 102.22900000000001 8.332999999999998 104.12100000000001 8.239999999999998 103.825 9.308 C 103.732 9.644 103.038 10.324 100.71300000000001 9.759 C 99.69300000000001 9.511000000000001 99.16600000000001 8.965 99.16600000000001 8.531 C 99.16600000000001 8.152000000000001 100.53500000000001 8.204 101.70400000000001 8.293000000000001 z M 100.209 10.027 C 100.583 10.088999999999999 102.751 10.237 102.388 11.329999999999998 C 102.134 12.091999999999999 101.744 11.850999999999999 101.083 11.929999999999998 C 100.64699999999999 11.981999999999998 97.417 11.071999999999997 97.922 10.035999999999998 C 98.073 9.727999999999998 99.023 9.831999999999997 100.209 10.026999999999997 z M 99.138 11.575999999999999 C 101.287 12.448999999999998 101.259 13.04 101.162 13.358999999999998 C 101.06400000000001 13.678999999999998 100.07900000000001 14.073999999999998 98.039 13.076999999999998 C 97.006 12.571999999999997 96.992 11.997999999999998 97.246 11.591999999999999 C 97.564 11.082999999999998 98.366 11.261999999999999 99.13799999999999 11.575999999999999 z M 97.632 13.043999999999999 C 99.87 13.823999999999998 99.742 14.535999999999998 99.56500000000001 14.953999999999999 C 99.37000000000002 15.415999999999999 98.66300000000001 15.908 96.79400000000001 14.717999999999998 C 95.66600000000001 13.999999999999998 94.93200000000002 13.397999999999998 95.13400000000001 12.919999999999998 C 95.31700000000002 12.485999999999999 96.38300000000001 12.598999999999998 97.63200000000002 13.043999999999999 z M 96.756 15.285999999999998 C 97.343 15.641999999999998 97.61 16.124 97.24 16.673 C 96.579 17.656999999999996 94.62599999999999 15.920999999999998 94.136 15.389999999999999 C 93.773 14.995999999999999 93.539 14.581999999999999 93.74499999999999 14.278999999999998 C 93.95799999999998 13.966999999999999 94.621 13.990999999999998 96.75599999999999 15.285999999999998 z M 93.223 15.452999999999998 C 95.829 16.781999999999996 95.579 17.426 95.216 17.700999999999997 C 94.815 18.004999999999995 93.86999999999999 18.323999999999998 92.28999999999999 16.497999999999998 C 91.597 15.697999999999997 91.978 14.821999999999997 93.223 15.452999999999998 z M 91.92099999999999 16.846999999999998 C 92.47099999999999 17.461999999999996 93.75999999999999 18.389 92.76299999999999 19.08 C 91.92099999999999 19.662 91.428 19.023 91.01499999999999 18.627 C 88.62099999999998 16.323999999999998 89.41299999999998 14.866 91.92099999999999 16.846999999999998 z" stroke-linecap="round" />
</g>
		<g transform="matrix(17.79 0 0 17.79 225.82 -278.44)"  >
<path style="stroke: none; stroke-width: 1; stroke-dasharray: none; stroke-linecap: butt; stroke-dashoffset: 0; stroke-linejoin: miter; stroke-miterlimit: 4; fill: rgb(0,0,0); fill-rule: nonzero; opacity: 1;" vector-effect="non-scaling-stroke"  transform=" translate(-82.96, -6.37)" d="M 84.058 4.775 C 82.22800000000001 5.69 81.471 6.662000000000001 83.35100000000001 7.99 C 83.58000000000001 8.152000000000001 83.296 8.555 83.06600000000002 8.393 C 80.99900000000002 6.933000000000001 81.44400000000002 5.418000000000001 83.83800000000002 4.3340000000000005 C 84.08900000000003 4.208 84.30900000000003 4.649000000000001 84.05800000000002 4.775 z" stroke-linecap="round" />
</g>
		<g transform="matrix(17.79 0 0 17.79 340.93 -1)"  >
<path style="stroke: none; stroke-width: 1; stroke-dasharray: none; stroke-linecap: butt; stroke-dashoffset: 0; stroke-linejoin: miter; stroke-miterlimit: 4; fill: rgb(255,255,255); fill-rule: nonzero; opacity: 1;" vector-effect="non-scaling-stroke"  transform=" translate(-89.43, -21.97)" d="M 88.886 19.617 C 88.716 18.776 88.446 17.959 88.083 17.174 C 88.104 17.143 88.745 16.323 90.324 18.605 C 91.197 19.864 89.657 20.371000000000002 88.886 19.617 z M 88.93599999999999 23.493000000000002 C 89.586 24.248 90.19999999999999 24.882 90.60499999999999 25.388 C 91.451 26.446 89.24999999999999 27.75 88.064 26.246000000000002 C 88.475 25.365000000000002 88.77099999999999 24.443 88.93599999999999 23.493000000000002 z" stroke-linecap="round" />
</g>
</g>
</g>
</svg>