<?xml version="1.0" encoding="UTF-8" standalone="no" ?>
<!DOCTYPE svg PUBLIC "-//W3C//DTD SVG 1.1//EN" "http://www.w3.org/Graphics/SVG/1.1/DTD/svg11.dtd">
<svg xmlns="http://www.w3.org/2000/svg" xmlns:xlink="http://www.w3.org/1999/xlink" version="1.1" width="275" height="275" viewBox="0 0 275 275" xml:space="preserve">
<desc>Created with Fabric.js 5.2.4</desc>
<defs>
</defs>
<g transform="matrix(1 0 0 1 137.5 137.5)" id="5b83ec17-bda3-4aaa-91e7-2e17c397649e"  >
<rect style="stroke: none; stroke-width: 1; stroke-dasharray: none; stroke-linecap: butt; stroke-dashoffset: 0; stroke-linejoin: miter; stroke-miterlimit: 4; fill: rgb(255,255,255); fill-rule: nonzero; opacity: 1; visibility: hidden;" vector-effect="non-scaling-stroke"  x="-137.5" y="-137.5" rx="0" ry="0" width="275" height="275" />
</g>
<g transform="matrix(Infinity NaN NaN Infinity 0 0)" id="575d72a6-548f-46c3-af54-e07c7402c43b"  >
</g>
<g transform="matrix(0.25 0 0 0.25 137.5 137.5)"  >
<g style="" vector-effect="non-scaling-stroke"   >
		<g transform="matrix(1 0 0 1 0 0)"  >
<rect style="stroke: none; stroke-width: 1; stroke-dasharray: none; stroke-linecap: butt; stroke-dashoffset: 0; stroke-linejoin: miter; stroke-miterlimit: 4; fill: rgb(255,255,255); fill-rule: nonzero; opacity: 1; visibility: hidden;" vector-effect="non-scaling-stroke"  x="-540" y="-540" rx="0" ry="0" width="1080" height="1080" />
</g>
		<g transform="matrix(43.92 0 0 43.92 -0.39 -0.39)"  >
<path style="stroke: rgb(0,0,0); stroke-width: 0; stroke-dasharray: none; stroke-linecap: butt; stroke-dashoffset: 0; stroke-linejoin: miter; stroke-miterlimit: 4; fill: rgb(0,0,0); fill-rule: nonzero; opacity: 1;" vector-effect="non-scaling-stroke"  transform=" translate(-12, -12)" d="M 12 0 C 5.373 0 0 5.373 0 12 C 0 18.627 5.373 24 12 24 C 18.627 24 24 18.627 24 12 C 24 5.373000000000001 18.627 0 12 0 z M 12 0.78 C 18.196 0.78 23.219 5.803 23.219 12 C 23.219 18.195999999999998 18.197000000000003 23.219 12.000000000000002 23.219 C 5.803 23.219 0.781 18.196 0.781 12 C 0.781 5.8039999999999985 5.804 0.78 12 0.78 z M 11.322 1.4100000000000001 C 10.991999999999999 1.4240000000000002 10.661999999999999 1.4520000000000002 10.329999999999998 1.4880000000000002 L 10.222999999999999 4.432 C 10.458461937355946 4.392156491572676 10.695281975826347 4.360802852676595 10.932999999999995 4.338000000000001 L 11.003 2.35 L 10.99 2.213 L 11.033 2.343 L 11.697 3.832 L 12.302999999999999 3.832 L 12.966999999999999 2.344 L 13.006999999999998 2.213 L 12.996999999999998 2.35 L 13.066999999999998 4.338 C 13.298999999999998 4.36 13.54 4.392 13.776999999999997 4.432 L 13.667999999999997 1.4880000000000004 C 13.338304985297668 1.4508475140764183 13.007449997354167 1.4248327065566657 12.676000000000004 1.4099999999999993 L 12.022999999999998 3.035 L 11.999999999999998 3.1550000000000002 L 11.976999999999999 3.035 L 11.322 1.4100000000000001 z M 18.018 3.234 L 16.475 5.662 C 16.67 5.812 16.927000000000003 6.0329999999999995 17.092000000000002 6.184 L 18.545 5.43 L 18.637 5.361 L 18.568 5.455 L 17.816000000000003 6.908 C 17.979000000000003 7.083 18.214000000000002 7.3660000000000005 18.346000000000004 7.538 L 20.776000000000003 5.994 C 20.62697523315534 5.801217553598311 20.473602558996795 5.6118356428982 20.316 5.425999999999998 L 18.777 6.44 L 18.672 6.532 L 18.75 6.417 L 19.43 5.061 L 18.95 4.5809999999999995 L 17.593999999999998 5.260999999999999 L 17.479 5.3389999999999995 L 17.57 5.233 L 18.588 3.694 C 18.408 3.542 18.237000000000002 3.403 18.018 3.234 z M 5.5 3.785 C 5.14 3.822 4.862 4.0680000000000005 4.107 4.91 C 3.8451959870916923 5.206697078606079 3.5927391436742826 5.511512871054581 3.3500000000000023 5.824000000000002 L 5.4239999999999995 7.791 C 6.111 7.031000000000001 6.39 6.7490000000000006 6.9319999999999995 6.178000000000001 C 7.3149999999999995 5.773000000000001 7.531999999999999 5.308000000000001 7.148 4.861000000000001 C 6.9399999999999995 4.619000000000001 6.59 4.566000000000001 6.298 4.686000000000001 L 6.2700000000000005 4.696000000000001 L 6.28 4.670000000000001 C 6.353726962050594 4.3987356812750145 6.258031661858392 4.1096807415998065 6.037 3.936000000000001 C 5.8852022891500315 3.816316727626325 5.6918469862397645 3.762306866478206 5.5 3.786000000000001 z M 5.506 4.4 C 5.642 4.363 5.783 4.46 5.814 4.6000000000000005 C 5.846 4.74 5.758 4.872000000000001 5.66 4.982 C 5.44 5.232 4.6290000000000004 6.08 4.6290000000000004 6.08 L 4.227 5.697 C 4.644 5.187 5.088 4.723 5.289000000000001 4.539 C 5.349304769033099 4.47613553732968 5.423679500051788 4.428494580594206 5.506 4.3999999999999995 z M 12 4.883 C 8.350944624131502 4.881388409502193 5.29239414247167 7.640995821485667 4.919999999999999 11.270999999999997 L 4.92 11.273000000000001 C 4.690828980646307 13.527820241865086 5.548542270621691 15.757095053550156 7.229966840810728 17.276813808452108 C 8.911391410999766 18.79653256335406 11.21575224623857 19.425229163338038 13.436 18.970000000000002 C 16.744090265810904 18.28999002354855 19.117737003254327 15.37725802355196 19.116 12.000000000000007 C 19.112140385807805 8.071703437752083 15.928297065877485 4.888307538187125 11.999999999999996 4.885 L 12 4.883 z M 6.463 5.125 C 6.51 5.125 6.559 5.138 6.603 5.168 C 6.691 5.227 6.731 5.328 6.709 5.428 C 6.683 5.547 6.584 5.659 6.504 5.7459999999999996 L 5.459 6.866 L 5.039 6.465999999999999 C 5.039 6.465999999999999 5.826 5.6339999999999995 6.084 5.366999999999999 C 6.186 5.260999999999999 6.252 5.196999999999999 6.321999999999999 5.161999999999999 C 6.365363797631101 5.1394847884411 6.413174448645008 5.126849116387425 6.461999999999999 5.124999999999999 z M 12 5.818 C 13.6401379379434 5.816139678093229 15.213634941922143 6.466858250034891 16.373388345943624 7.626611654056371 C 17.533141749965104 8.786365058077852 18.183860321906767 10.359862062056596 18.182 11.999999999999996 L 12 12 L 12 18.182000000000002 C 10.3598620620566 18.18386032190677 8.786365058077855 17.53314174996511 7.626611654056374 16.37338834594363 C 6.466858250034893 15.213634941922148 5.816139678093229 13.640137937943404 5.818 12.000000000000004 L 12 12 L 12 5.818 z" stroke-linecap="round" />
</g>
</g>
</g>
</svg>