<?xml version="1.0" encoding="utf-8"?>
<!-- Generator: Adobe Illustrator 27.1.1, SVG Export Plug-In . SVG Version: 6.00 Build 0)  -->
<svg version="1.1" baseProfile="basic" id="Layer_1"
	 xmlns="http://www.w3.org/2000/svg" xmlns:xlink="http://www.w3.org/1999/xlink" x="0px" y="0px" viewBox="0 0 178 109.7"
	 xml:space="preserve">
<g>
	<g id="Group_3232">
		<path id="Path_638" fill-rule="evenodd" clip-rule="evenodd" fill="#191F27" d="M89,0C39.9,0,0,24.6,0,55
			c0,30.2,39.9,54.8,89,54.8c49.4,0,89-24.6,89-54.8C178,24.6,138.4,0,89,0 M89,10.5c45.9,0,83.1,19.8,83.1,44.5
			c0,24.5-37.2,44.3-83.1,44.3C43.4,99.3,6.2,79.5,6.2,55C6.2,30.3,43.4,10.5,89,10.5"/>
		<path id="Path_639" fill-rule="evenodd" clip-rule="evenodd" fill="#191F27" d="M146.5,34.5h-31.4v40.8h11.1V44.6h12.2l3.2,3.7
			v16.8h-13v10.1h24.1V41.8L146.5,34.5z"/>
		<path id="Path_640" fill-rule="evenodd" clip-rule="evenodd" fill="#191F27" d="M96.7,49H84.9v26.3h12.2V58.7l9.3,0l4.5-4.1V34.5
			H98.6v12.8L96.7,49z"/>
		<path id="Path_641" fill-rule="evenodd" clip-rule="evenodd" fill="#191F27" d="M80.7,34.5l-12.4,0v20.1l4.5,4.1l9.7,0v-9.8
			l-1.8-1.7L80.7,34.5z"/>
		<path id="Path_642" fill-rule="evenodd" clip-rule="evenodd" fill="#191F27" d="M64.1,40.8l-5.4-6.3H25.4v40.8h10.5l0-17.2h17.8
			l0,7.2H38.2v10h20l6-4.1V57.5l-2.8-2.6l2.8-2.3L64.1,40.8z M53.6,51.7l-17.8,0v-7.2l17.8,0V51.7z"/>
	</g>
</g>
</svg>
