<?xml version="1.0" encoding="UTF-8" standalone="no" ?>
<!DOCTYPE svg PUBLIC "-//W3C//DTD SVG 1.1//EN" "http://www.w3.org/Graphics/SVG/1.1/DTD/svg11.dtd">
<svg xmlns="http://www.w3.org/2000/svg" xmlns:xlink="http://www.w3.org/1999/xlink" version="1.1" width="625" height="275" viewBox="0 0 625 275" xml:space="preserve">
<desc>Created with Fabric.js 5.2.4</desc>
<defs>
</defs>
<g transform="matrix(1 0 0 1 312.5 137.5)" id="1cddb070-6456-4654-80aa-a40fe55a4bd7"  >
<rect style="stroke: none; stroke-width: 1; stroke-dasharray: none; stroke-linecap: butt; stroke-dashoffset: 0; stroke-linejoin: miter; stroke-miterlimit: 4; fill: rgb(255,255,255); fill-rule: nonzero; opacity: 1; visibility: hidden;" vector-effect="non-scaling-stroke"  x="-312.5" y="-137.5" rx="0" ry="0" width="625" height="275" />
</g>
<g transform="matrix(Infinity NaN NaN Infinity 0 0)" id="6840f960-18ff-400d-acee-8a05bfc98c4c"  >
</g>
<g transform="matrix(3.54 0 0 3.54 312.5 137.5)"  >
<path style="stroke: none; stroke-width: 1; stroke-dasharray: none; stroke-linecap: butt; stroke-dashoffset: 0; stroke-linejoin: miter; stroke-miterlimit: 4; fill: rgb(0,0,0); fill-rule: evenodd; opacity: 1;" vector-effect="non-scaling-stroke"  transform=" translate(-96.38, -96.38)" d="M 126.768 79.256 L 126.768 65.048 L 66.904 65.048 L 66.904 79.256 L 24.613999999999997 79.256 L 8.503999999999998 111.86099999999999 L 66.904 111.86099999999999 L 66.904 127.70899999999999 L 126.768 127.70899999999999 L 126.768 111.86099999999999 L 168.324 111.86099999999999 L 184.252 79.256 L 126.768 79.256 z" stroke-linecap="round" />
</g>
<g transform="matrix(3.54 0 0 3.54 312.1 136.9)"  >
<path style="stroke: none; stroke-width: 1; stroke-dasharray: none; stroke-linecap: butt; stroke-dashoffset: 0; stroke-linejoin: miter; stroke-miterlimit: 4; fill: rgb(255,255,255); fill-rule: evenodd; opacity: 1;" vector-effect="non-scaling-stroke"  transform=" translate(-96.26, -96.21)" d="M 126.244 81.871 L 178.785 81.871 L 175.672 83.875 L 124.779 83.875 L 126.244 81.871 z M 149.502 91.117 L 149.502 88.02 L 161.4 88.02 L 161.4 91.11699999999999 L 157.37300000000002 91.11699999999999 L 157.37300000000002 102.04499999999999 L 153.34600000000003 102.04499999999999 L 153.34600000000003 91.117 L 149.50200000000004 91.117 z M 145.777 93.849 L 145.777 96.217 L 141.201 96.217 L 141.201 99.131 L 146.326 99.131 L 146.326 102.045 L 137.357 102.045 L 137.357 88.02 L 146.326 88.02 L 146.326 91.11699999999999 L 141.201 91.11699999999999 L 141.201 93.84899999999999 L 145.777 93.84899999999999 z M 134.025 99.131 L 134.025 102.045 L 125.605 102.045 L 125.605 88.02 L 129.449 88.02 L 129.449 99.131 L 134.025 99.131 z M 122.551 67.368 L 120.721 69.371 L 73.671 69.371 L 71.84100000000001 67.368 L 122.55100000000002 67.368 z M 124.479 68.524 L 124.479 80 L 122.1 82.549 L 122.1 71.256 L 124.479 68.524 z M 104.059 102.045 L 100.215 102.045 L 97.46900000000001 98.402 L 96.004 98.402 L 96.004 102.045 L 92.16 102.045 L 92.16 88.02 L 98.018 88.02 C 101.862 88.02 103.694 89.295 103.694 92.756 C 103.694 94.578 102.778 95.671 100.94800000000001 96.764 L 104.05900000000001 102.045 z M 84.282 82.057 L 84.282 80.053 L 109.545 80.053 L 109.545 82.057 L 84.282 82.057 z M 85.869 88.02 L 89.347 88.02 L 84.77 102.045 L 79.828 102.045 L 75.983 88.02 L 79.828 88.02 L 82.757 96.217 L 85.869 88.02 z M 84.282 109.277 L 109.545 109.277 L 109.545 111.1 L 84.282 111.1 L 84.282 109.277 z M 106.334 95.114 C 106.334 90.92500000000001 109.813 87.646 114.023 87.646 C 118.23299999999999 87.646 121.71199999999999 90.925 121.71199999999999 95.114 C 121.71199999999999 99.12100000000001 118.23299999999999 102.76400000000001 114.023 102.76400000000001 C 109.813 102.76400000000001 106.334 99.30300000000001 106.334 95.114 z M 72.085 93.849 L 72.085 96.217 L 67.874 96.217 L 67.874 99.131 L 73.18299999999999 99.131 L 73.18299999999999 102.045 L 64.03 102.045 L 64.03 88.02 L 73.183 88.02 L 73.183 91.11699999999999 L 67.87400000000001 91.11699999999999 L 67.87400000000001 93.84899999999999 L 72.08500000000001 93.84899999999999 z M 69.168 68.524 L 71.548 71.256 L 71.548 82.549 L 69.168 80 L 69.168 68.524 z M 67.799 81.871 L 69.63000000000001 83.875 L 28.073 83.875 L 26.975 81.871 L 67.799 81.871 z M 50.614 96.581 L 50.614 102.045 L 46.586 102.045 L 46.586 88.02 L 50.614 88.02 L 50.614 93.11999999999999 L 54.824999999999996 93.11999999999999 L 54.824999999999996 88.02 L 58.852 88.02 L 58.852 102.045 L 54.824999999999996 102.045 L 54.824999999999996 96.581 L 50.614 96.581 z M 38.081 99.486 C 38.996 99.486 40.644000000000005 99.12100000000001 42.108000000000004 98.39200000000001 L 42.108000000000004 101.30600000000001 C 40.644000000000005 102.21800000000002 39.179 102.763 37.531000000000006 102.763 C 33.86900000000001 102.763 30.757000000000005 99.849 30.757000000000005 95.295 C 30.757000000000005 90.741 34.05200000000001 87.645 37.897000000000006 87.645 C 39.544000000000004 87.645 40.64300000000001 88.009 42.107000000000006 88.738 L 42.107000000000006 91.652 C 40.64300000000001 90.923 39.178000000000004 90.559 38.26200000000001 90.559 C 36.248000000000005 90.559 34.418000000000006 92.198 34.418000000000006 94.931 C 34.419000000000004 97.482 35.70100000000001 99.48599999999999 38.081 99.48599999999999 z M 24.83 83.444 L 25.929 85.447 L 16.226 105.48400000000001 L 12.748 107.48800000000001 L 24.83 83.444 z M 13.772 109.242 L 18.715 106.328 L 71.439 106.328 L 68.327 109.242 L 13.772 109.242 z M 69.168 111.328 L 71.548 108.777 L 71.548 121.164 L 69.168 123.533 L 69.168 111.328 z M 70.556 125.051 L 73.485 122.137 L 120.168 122.137 L 122.73 125.051 L 70.556 125.051 z M 124.479 123.533 L 122.1 121.164 L 122.1 108.777 L 124.479 111.328 L 124.479 123.533 z M 124.928 109.242 L 122.182 106.328 L 164.289 106.328 L 165.93599999999998 109.242 L 124.92799999999997 109.242 z M 168.064 107.488 L 166.6 104.756 L 176.303 85.447 L 179.781 83.444 L 168.064 107.488 z" stroke-linecap="round" />
</g>
<g transform="matrix(3.54 0 0 3.54 350.54 133.02)"  >
<path style="stroke: none; stroke-width: 1; stroke-dasharray: none; stroke-linecap: butt; stroke-dashoffset: 0; stroke-linejoin: miter; stroke-miterlimit: 4; fill: rgb(0,0,0); fill-rule: evenodd; opacity: 1;" vector-effect="non-scaling-stroke"  transform=" translate(-107.12, -95.11)" d="M 97.838 91.271 L 96.006 91.271 L 96.006 94.368 L 97.654 94.368 C 98.752 94.368 99.484 93.457 99.484 92.728 C 99.484 91.999 98.93599999999999 91.271 97.838 91.271 z M 118.229 95.112 C 118.229 92.744 116.397 90.923 114.202 90.923 C 112.005 90.923 109.991 92.744 109.991 95.112 C 109.991 97.481 112.005 99.30099999999999 114.202 99.30099999999999 C 116.396 99.30099999999999 118.229 97.47999999999999 118.229 95.112 z" stroke-linecap="round" />
</g>
</svg>