<?xml version="1.0" encoding="UTF-8" standalone="no" ?>
<!DOCTYPE svg PUBLIC "-//W3C//DTD SVG 1.1//EN" "http://www.w3.org/Graphics/SVG/1.1/DTD/svg11.dtd">
<svg xmlns="http://www.w3.org/2000/svg" xmlns:xlink="http://www.w3.org/1999/xlink" version="1.1" width="375" height="275" viewBox="0 0 375 275" xml:space="preserve">
<desc>Created with Fabric.js 5.2.4</desc>
<defs>
</defs>
<rect x="0" y="0" width="100%" height="100%" fill="transparent"></rect>
<g transform="matrix(1 0 0 1 187.5 137.5)" id="537e4968-c3b8-454c-91d7-828e340b9c38"  >
<rect style="stroke: none; stroke-width: 1; stroke-dasharray: none; stroke-linecap: butt; stroke-dashoffset: 0; stroke-linejoin: miter; stroke-miterlimit: 4; fill: rgb(255,255,255); fill-rule: nonzero; opacity: 1; visibility: hidden;" vector-effect="non-scaling-stroke"  x="-187.5" y="-137.5" rx="0" ry="0" width="375" height="275" />
</g>
<g transform="matrix(Infinity NaN NaN Infinity 0 0)" id="a5217404-c424-471b-94b7-335ed5348b54"  >
</g>
<g transform="matrix(15 0 0 15 187.5 137.5)" id="b918f676-8df7-4086-adfe-7d2b45371606"  >
<path style="stroke: rgb(0,0,0); stroke-width: 0; stroke-dasharray: none; stroke-linecap: butt; stroke-dashoffset: 0; stroke-linejoin: miter; stroke-miterlimit: 4; fill: rgb(0,0,0); fill-rule: nonzero; opacity: 1;" vector-effect="non-scaling-stroke"  transform=" translate(-12, -12)" d="M 18.591 15.407 C 17.366 14.363 13.727 11.393 12.001000000000001 11.393 C 10.271 11.393 6.635000000000002 14.361 5.410000000000001 15.406 C 5.403000000000001 15.159 5.396000000000001 15.009 5.396000000000001 14.789000000000001 C 5.396000000000001 14.789000000000001 5.3660000000000005 14.426000000000002 5.689000000000001 14.064000000000002 C 8.346 11.671000000000003 11.131 10.501000000000001 11.217 10.464000000000002 C 12.047 10.116000000000001 12.001000000000001 10.181000000000003 12 8.781000000000002 C 12 8.781000000000002 12.037 8.779000000000002 12.06 8.781000000000002 C 13.23 8.887000000000002 16.376 11.921000000000003 18.237000000000002 13.971000000000004 C 18.240000000000002 13.974000000000004 18.604000000000003 14.393000000000004 18.604000000000003 14.835000000000004 C 18.604000000000003 15.041000000000004 18.598000000000003 15.245000000000005 18.591 15.407000000000004 M 18.541 13.695000000000004 C 18.343 13.477000000000004 13.686 8.367000000000004 12 8.367000000000004 C 10.314 8.367000000000004 5.657 13.477000000000004 5.46 13.694000000000004 L 5.459 13.694000000000004 C 5.439 13.716000000000005 4.984999999999999 14.233000000000004 4.984999999999999 14.834000000000005 C 4.984999999999999 15.304000000000006 5.015999999999999 15.775000000000006 5.015999999999999 15.780000000000005 C 5.017999999999999 15.802000000000005 5.027999999999999 16.000000000000004 5.139999999999999 16.055000000000003 C 5.158045434516169 16.063824374423184 5.177914429688841 16.06827776989292 5.197999999999999 16.068000000000005 C 5.248280489786956 16.06438320729148 5.296176420238446 16.045154914044534 5.334999999999999 16.013000000000005 C 5.384999999999999 15.969000000000005 10.129999999999999 11.804000000000006 12 11.804000000000006 C 13.870000000000001 11.804000000000006 18.615000000000002 15.969000000000005 18.663 16.011000000000006 C 18.702563321361286 16.044163522988693 18.751523362314423 16.064097253948184 18.803 16.068000000000005 C 18.823077846595293 16.06820395027397 18.842930041647662 16.063754320348437 18.861 16.055000000000003 C 18.971 16.001000000000005 18.983 15.802000000000003 18.984 15.779000000000003 C 18.984 15.775000000000004 19.015 15.303000000000004 19.015 14.835000000000004 C 19.015 14.233000000000004 18.561 13.716000000000005 18.541 13.695000000000004 M 15.191 20.145000000000003 L 15.190000000000001 20.145000000000003 C 15.064692341148394 20.148587683584907 14.939307658851607 20.148587683584907 14.814 20.145000000000003 C 14.399000000000003 20.145000000000003 13.951000000000002 19.833000000000002 13.951000000000002 19.327 C 13.951000000000002 18.826 14.389000000000003 18.527 14.811000000000002 18.527 C 14.937599898939197 18.52118373127177 15.064400101060807 18.52118373127177 15.191000000000003 18.527 C 15.616000000000003 18.527 16.054000000000002 18.826 16.054000000000002 19.327 C 16.054000000000002 19.833000000000002 15.607000000000003 20.146 15.192000000000002 20.146 M 15.596000000000002 18.21 C 15.006000000000002 18.197 14.406000000000002 18.21 14.402000000000001 18.21 C 13.682 18.21 13.095 18.71 13.095 19.324 C 13.095 19.947000000000003 13.681000000000001 20.454 14.402000000000001 20.454 C 14.407000000000002 20.454 15.006 20.466 15.597000000000001 20.454 C 16.319000000000003 20.454 16.906000000000002 19.947 16.906000000000002 19.324 C 16.906000000000002 18.716 16.331000000000003 18.227 15.596000000000002 18.21 M 23.266000000000002 20.426000000000002 L 24 20.426000000000002 L 24 19.356 C 24 18.732000000000003 23.44 18.242 22.726 18.242 L 20.868 18.242 C 20.837999999999997 18.242 20.766 18.249000000000002 20.766 18.323 L 20.766 20.343 C 20.766 20.397 20.805999999999997 20.425 20.845 20.425 L 21.622 20.425 L 21.622 18.736 C 21.622 18.662 21.677 18.623 21.732 18.623 L 22.589 18.623 C 22.825 18.623 23.176 18.838 23.176 19.301000000000002 L 23.176 20.341 C 23.176 20.341 23.177999999999997 20.426000000000002 23.266 20.426000000000002 M 7.758999999999999 18.676000000000002 L 8.904999999999998 18.676000000000002 L 8.904999999999998 18.328000000000003 C 8.904999999999998 18.278000000000002 8.869999999999997 18.242000000000004 8.822999999999997 18.242000000000004 L 5.627 18.242000000000004 C 5.604812669688442 18.241998389596077 5.583548322215948 18.250880145330463 5.567953735016111 18.266662619123068 C 5.552359147816275 18.282445092915673 5.543732682708183 18.30381428003393 5.544 18.326000000000004 L 5.544 18.675000000000004 L 6.308 18.675000000000004 C 6.593999999999999 18.675000000000004 6.787 18.921000000000003 6.787 19.150000000000006 L 6.787 20.343000000000007 C 6.787 20.38200000000001 6.822 20.426000000000005 6.8709999999999996 20.426000000000005 L 7.646 20.426000000000005 L 7.646 18.787000000000006 C 7.646 18.725000000000005 7.696 18.675000000000008 7.758 18.675000000000008 M 4.226 20.343000000000007 C 4.226 20.392000000000007 4.27 20.426000000000005 4.31 20.426000000000005 L 4.353999999999999 20.426000000000005 L 4.347999999999999 20.431000000000004 C 4.369999999999999 20.426000000000005 4.444999999999999 20.426000000000005 4.704999999999999 20.426000000000005 L 5.084999999999999 20.426000000000005 L 5.084999999999999 18.325000000000006 C 5.085003260047822 18.27899581590765 5.0480009241600445 18.241547668744115 5.001999999999999 18.241000000000007 L 4.31 18.241000000000007 C 4.263833611723875 18.24154001294961 4.226540012949605 18.278833611723883 4.226 18.325000000000006 L 4.226 20.343000000000007 z M 10.219999999999999 19.264000000000006 L 10.219999999999999 18.828000000000007 C 10.219999999999999 18.709000000000007 10.305 18.626000000000005 10.425999999999998 18.626000000000005 L 11.565999999999999 18.626000000000005 C 11.738999999999999 18.626000000000005 11.886 18.771000000000004 11.886 18.943000000000005 C 11.885735194945534 19.028399837257684 11.8515560699412 19.11019668006151 11.790981730152037 19.170395946539283 C 11.730407390362874 19.230595213017057 11.648399834699745 19.264265628709385 11.562999999999999 19.264000000000006 L 10.22 19.264000000000006 z M 11.887999999999998 20.426000000000005 L 12.739999999999998 20.426000000000005 C 12.726999999999999 19.901000000000007 12.179999999999998 19.684000000000005 12.116999999999999 19.661000000000005 L 12.107 19.657000000000004 L 12.107 19.627000000000002 L 12.117999999999999 19.624000000000002 C 12.483999999999998 19.543000000000003 12.737999999999998 19.264000000000003 12.737999999999998 18.944000000000003 C 12.737999999999998 18.607000000000003 12.407999999999998 18.241000000000003 11.871999999999998 18.241000000000003 L 9.811 18.241000000000003 C 9.69230366876805 18.23964643156442 9.578073675729176 18.28620080004383 9.4941372378865 18.370137237886503 C 9.410200800043825 18.45407367572918 9.363646431564419 18.568303668768053 9.365 18.687000000000005 L 9.365 20.342000000000006 C 9.36416395243331 20.36408388799936 9.372500536240642 20.385529854085824 9.388032396037149 20.401251126806677 C 9.403564255833656 20.41697239952753 9.424907600727561 20.42556831249232 9.447000000000001 20.425000000000004 L 10.221 20.425000000000004 L 10.22 19.651000000000003 L 10.950000000000001 19.651000000000003 C 11.600000000000001 19.651000000000003 11.868 20.121000000000002 11.888000000000002 20.426000000000002 M 2.923000000000002 18.975 L 3.758000000000002 18.975 C 3.5770000000000017 18.518 3.076000000000002 18.205000000000002 2.501000000000002 18.194000000000003 L 2.245000000000002 18.188000000000002 C 1.932389387884101 18.176719790036802 1.6194407275777665 18.178721593834073 1.307000000000005 18.194000000000003 C 0.897000000000002 18.214000000000002 0.6370000000000019 18.308000000000003 0.3840000000000019 18.529000000000003 C 0.14463969116375117 18.727129971778904 0.0042660409185446 19.02030618921811 1.7763568394002505e-15 19.331000000000003 C 1.887379141862766e-15 19.956000000000003 0.5560000000000019 20.446 1.292000000000002 20.471000000000004 C 1.797000000000002 20.489000000000004 1.852000000000002 20.490000000000002 2.514000000000002 20.471000000000004 C 3.127000000000002 20.451000000000004 3.567000000000002 20.174000000000003 3.7570000000000023 19.690000000000005 L 2.9230000000000023 19.690000000000005 C 2.8931252219540537 19.688736227557545 2.865157324835351 19.704662391194585 2.851000000000002 19.731000000000005 C 2.692364719518177 19.99550548586221 2.405413116662374 20.156107046081242 2.097000000000002 20.153000000000006 C 1.9260000000000022 20.160000000000007 1.719000000000002 20.153000000000006 1.719000000000002 20.153000000000006 C 1.2950000000000021 20.153000000000006 0.8560000000000021 19.847000000000005 0.8560000000000021 19.335000000000004 L 0.8560000000000021 19.330000000000005 C 0.8590000000000021 18.821000000000005 1.296000000000002 18.517000000000007 1.721000000000002 18.517000000000007 C 1.7690000000000021 18.515000000000008 1.9400000000000022 18.509000000000007 2.097000000000002 18.517000000000007 C 2.4060000000000024 18.517000000000007 2.703000000000002 18.681000000000008 2.8530000000000024 18.935000000000006 C 2.86741813080051 18.959975603394724 2.8941625829766022 18.97525814749535 2.9230000000000023 18.975000000000005 M 20.307000000000002 20.033000000000005 L 18.287000000000003 20.033000000000005 C 18.218000000000004 20.033000000000005 18.171000000000003 19.988000000000003 18.171000000000003 19.923000000000005 L 18.171000000000003 19.507000000000005 L 19.921000000000003 19.507000000000005 L 19.921000000000003 19.124000000000006 L 18.171000000000003 19.124000000000006 L 18.17 18.744000000000007 C 18.17 18.743000000000006 18.169 18.702000000000005 18.200000000000003 18.670000000000005 C 18.222 18.646000000000004 18.256000000000004 18.634000000000004 18.300000000000004 18.634000000000004 L 20.306000000000004 18.634000000000004 L 20.306000000000004 18.327000000000005 C 20.306000000000004 18.301000000000005 20.299000000000003 18.281000000000006 20.284000000000006 18.267000000000007 C 20.256000000000007 18.240000000000006 20.210000000000004 18.242000000000008 20.208000000000006 18.242000000000008 L 17.398000000000007 18.242000000000008 C 17.389000000000006 18.242000000000008 17.31200000000001 18.244000000000007 17.31200000000001 18.32700000000001 L 17.31200000000001 19.98100000000001 C 17.31200000000001 20.20000000000001 17.48100000000001 20.42600000000001 17.762000000000008 20.42600000000001 L 20.22200000000001 20.42600000000001 C 20.24300000000001 20.42600000000001 20.26400000000001 20.416000000000007 20.28000000000001 20.40100000000001 C 20.296426001097313 20.386499172844985 20.306185514525406 20.365895755607895 20.30700000000001 20.344000000000012 L 20.30700000000001 20.034000000000013 M 19.67900000000001 17.452000000000012 C 19.588850773998704 17.398999640405705 19.48552119078686 17.372647129251007 19.38100000000001 17.376000000000012 C 19.27685796949317 17.37321404293542 19.174003412832338 17.399533727468157 19.08400000000001 17.452000000000012 C 19.00500000000001 17.501000000000012 18.943000000000012 17.566000000000013 18.85000000000001 17.566000000000013 C 18.75700000000001 17.566000000000013 18.701000000000008 17.501000000000012 18.61800000000001 17.452000000000012 C 18.527759528858223 17.40011430031001 18.42507108351798 17.373837122377825 18.32100000000001 17.376000000000012 C 18.216490801092206 17.37275662710903 18.11319113923079 17.3991015073153 18.02300000000001 17.452000000000012 C 17.94100000000001 17.502000000000013 17.90000000000001 17.562000000000012 17.90000000000001 17.633000000000013 C 17.90000000000001 17.704000000000015 17.94100000000001 17.765000000000015 18.02300000000001 17.815000000000012 C 18.10600000000001 17.865000000000013 18.20400000000001 17.89000000000001 18.32100000000001 17.89000000000001 C 18.42218719302688 17.893020588012284 18.522332698714276 17.868847534915325 18.611000000000008 17.82000000000001 C 18.686000000000007 17.77600000000001 18.76600000000001 17.702000000000012 18.85000000000001 17.702000000000012 C 18.934000000000008 17.702000000000012 19.01000000000001 17.76800000000001 19.08400000000001 17.815000000000012 C 19.1743402295666 17.86653681112372 19.277022524307956 17.89246668353315 19.38100000000001 17.89000000000001 C 19.501000000000012 17.89000000000001 19.60100000000001 17.865000000000013 19.68100000000001 17.815000000000012 C 19.76100000000001 17.76500000000001 19.801000000000013 17.705000000000013 19.801000000000013 17.633000000000013 C 19.801000000000013 17.563000000000013 19.761000000000013 17.502000000000013 19.679000000000013 17.452000000000012 M 18.58500000000001 10.547000000000011 C 17.36100000000001 9.505000000000011 13.725000000000012 6.5370000000000115 12.00000000000001 6.5370000000000115 C 10.274000000000012 6.5370000000000115 6.64000000000001 9.50300000000001 5.4170000000000105 10.547000000000011 C 5.4090000000000105 10.300000000000011 5.40300000000001 10.150000000000011 5.40300000000001 9.931000000000012 C 5.40300000000001 9.931000000000012 5.37300000000001 9.568000000000012 5.69500000000001 9.206000000000012 C 8.34900000000001 6.816000000000011 11.13200000000001 5.6460000000000115 11.21800000000001 5.610000000000012 C 12.04800000000001 5.262000000000012 12.00100000000001 5.3270000000000115 12.00000000000001 3.928000000000012 C 12.00000000000001 3.928000000000012 12.037000000000011 3.926000000000012 12.060000000000011 3.928000000000012 C 13.230000000000011 4.034000000000012 16.37100000000001 7.0640000000000125 18.23000000000001 9.113000000000012 C 18.234000000000012 9.117000000000012 18.59800000000001 9.535000000000013 18.59800000000001 9.976000000000012 C 18.59800000000001 10.182000000000011 18.59200000000001 10.386000000000012 18.585000000000008 10.547000000000011 M 18.535000000000007 8.83700000000001 C 18.337000000000007 8.61900000000001 13.685000000000008 3.5150000000000103 12.000000000000007 3.5150000000000103 C 10.316000000000008 3.5150000000000103 5.663000000000007 8.61900000000001 5.466000000000007 8.83700000000001 C 5.446000000000008 8.858000000000011 4.992000000000007 9.374000000000011 4.992000000000007 9.97600000000001 C 4.992000000000007 10.44400000000001 5.023000000000007 10.91600000000001 5.023000000000007 10.920000000000009 C 5.025000000000007 10.942000000000009 5.035000000000006 11.14000000000001 5.1470000000000065 11.19500000000001 C 5.164766526341804 11.203604886947437 5.184259407961147 11.208050631878162 5.204000000000007 11.208000000000009 C 5.254628650367676 11.204588260070379 5.302903957480115 11.185348101438608 5.342000000000007 11.15300000000001 C 5.392000000000007 11.109000000000009 10.132000000000007 6.948000000000009 12.000000000000007 6.948000000000009 C 13.868000000000007 6.948000000000009 18.608000000000008 11.109000000000009 18.656000000000006 11.15100000000001 C 18.695492452140304 11.184281005159212 18.744492015961892 11.204230827572287 18.796000000000006 11.20800000000001 C 18.8160778465953 11.208203950273976 18.835930041647668 11.203754320348445 18.854000000000006 11.195000000000011 C 18.964000000000006 11.14100000000001 18.976000000000006 10.94200000000001 18.977000000000007 10.919000000000011 C 18.977000000000007 10.915000000000012 19.008000000000006 10.444000000000011 19.008000000000006 9.976000000000012 C 19.008000000000006 9.374000000000011 18.554000000000006 8.858000000000011 18.535000000000007 8.836000000000011" stroke-linecap="round" />
</g>
</svg>