<svg
      xmlns="http://www.w3.org/2000/svg"
      width="2000"
      height="1092.297"
      version="1.1"
      viewBox="0 0 1875 1024.029"
    >
      <g
        fill="#241f21"
        fillOpacity="1"
        stroke="none"
        transform="translate(149.474 -336.204)"
      >
        <path
          fillRule="evenodd"
          strokeLinecap="butt"
          strokeLinejoin="miter"
          strokeOpacity="1"
          strokeWidth="6.089"
          d="M-44.112 336.204v157.404h582.539v158.728h-582.54V809.74H599.09c14.754 0 24.48-4.093 34.535-14.203L802.971 630.81l169.35 164.727c10.057 10.11 19.782 14.203 34.536 14.203h643.202V652.336h-582.544V493.609h582.544V336.203h-643.202c-14.754 0-24.48 4.092-34.535 14.203L802.97 515.134 633.625 350.407c-10.056-10.11-19.781-14.203-34.535-14.203z"
          opacity="1"
        ></path>
        <path
          fillRule="evenodd"
          strokeLinecap="butt"
          strokeLinejoin="miter"
          strokeOpacity="1"
          strokeWidth="6.078"
          d="M-149.474 1163.225v65.048l239.406 1.533c5.716 0 8.88 1.312 12.515 4.947l25.46 22.002c1.862 1.862 2.716 3.052 2.716 4.971 0 1.92-.854 3.114-2.716 4.977l-25.46 22.002c-3.635 3.635-6.8 4.946-12.515 4.946l-239.406 1.534v65.047h269.382c9.62 0 14.363-1.572 20.533-7.743l76.976-79.566c2.898-2.899 4.796-7.426 4.796-11.197 0-3.77-1.898-8.293-4.796-11.191l-76.976-79.572c-6.17-6.17-10.913-7.738-20.533-7.738z"
        ></path>
        <path
          strokeLinecap="butt"
          strokeLinejoin="miter"
          strokeOpacity="1"
          strokeWidth="2.566"
          d="M458.272 1163.225c-4.236 0-6.637.849-8.3 2.51L260.99 1355.497c-1.985 1.993-1.09 4.736 1.995 4.736h91.89l97.46-101.097c2.021-2.022 3.54-2.867 5.938-2.867 2.398 0 3.917.845 5.94 2.867l97.458 101.097h91.89c3.085 0 3.98-2.743 1.995-4.736l-188.983-189.76c-1.662-1.662-4.063-2.511-8.3-2.511z"
        ></path>
        <path
          fillRule="evenodd"
          strokeLinecap="butt"
          strokeLinejoin="miter"
          strokeOpacity="1"
          strokeWidth="6.078"
          d="M1067.596 1163.225v65.048l-239.407 1.533c-5.715 0-8.88 1.312-12.515 4.947l-25.46 22.002c-1.862 1.862-2.716 3.052-2.716 4.971 0 1.92.854 3.114 2.717 4.977l25.46 22.002c3.634 3.635 6.799 4.946 12.514 4.946l239.407 1.534v65.047H798.213c-9.62 0-14.362-1.572-20.533-7.743l-76.975-79.566c-2.899-2.899-4.797-7.426-4.797-11.197 0-3.77 1.898-8.293 4.797-11.191l76.975-79.572c6.17-6.17 10.914-7.738 20.533-7.738z"
        ></path>
        <path
          strokeDashoffset="131.528"
          strokeLinecap="round"
          strokeLinejoin="round"
          strokeWidth="20.762"
          d="M1180.061 1163.225H1255.364V1360.232H1180.061z"
          paintOrder="stroke fill markers"
        ></path>
        <path
          strokeLinecap="butt"
          strokeLinejoin="miter"
          strokeOpacity="1"
          strokeWidth="2.566"
          d="M1527.186 1163.225c-4.236 0-6.637.849-8.3 2.51l-188.983 189.761c-1.985 1.993-1.09 4.736 1.995 4.736h91.89l97.46-101.097c2.021-2.022 3.54-2.867 5.938-2.867 2.398 0 3.917.845 5.94 2.867l97.458 101.097h91.89c3.085 0 3.98-2.743 1.995-4.736l-188.983-189.76c-1.662-1.662-4.063-2.511-8.3-2.511z"
        ></path>
      </g>
    </svg>