<svg width="494" height="582" xmlns="http://www.w3.org/2000/svg" xmlns:xlink="http://www.w3.org/1999/xlink" overflow="hidden"><defs><clipPath id="clip0"><rect x="723" y="-4" width="494" height="582"/></clipPath></defs><g clip-path="url(#clip0)" transform="translate(-723 4)"><path d="M1091.27 227.275C1086.69 214.105 1084.72 201.561 1084.72 190.272 1084.72 180.237 1087.34 168.948 1091.27 157.659 1099.78 136.962 1117.45 113.129 1144.28 86.1603 1152.79 77.3798 1188.13 43.5122 1206.46 26.5784 1209.73 23.4425 1211.04 20.3066 1212.35 15.9164 1213 12.1533 1213 9.01744 1213 7.76308L1213 4 978.695 178.355C977.386 179.61 973.459 182.746 971.496 186.509 970.841 187.763 970.841 190.899 971.496 193.408 972.805 196.544 974.768 198.425 976.077 199.679 978.041 200.934 987.858 209.087 987.858 209.087L1195.99 364C1159.34 330.132 1107.63 274.941 1091.27 227.275Z" fill-rule="evenodd"/><path d="M1207.15 375.287C1205.2 373.409 1194.79 364.643 1194.79 364.643L987.964 210C1023.74 243.809 1076.42 298.904 1092.68 347.739 1097.23 360.887 1099.18 373.409 1099.18 384.678 1099.18 394.696 1096.58 405.965 1092.68 417.235 1084.22 437.896 1066.66 461.687 1040 488.609 1030.89 498 991.216 535.565 978.208 548.087 975.606 550.591 973.655 554.348 973.005 558.73L973.005 570 1205.2 395.948C1207.8 394.07 1213 390.313 1213 384.052 1212.35 380.296 1208.45 376.539 1207.15 375.287Z" fill-rule="evenodd"/><path d="M1057.03 497.986C1055.73 496.739 1101.39 465.563 1126.83 412.564 1134 397.6 1137.26 391.365 1152.27 390.118 1167.92 388.871 1186.84 387.624 1195.97 387 1199.88 387 1201.19 387.624 1201.84 389.494 1202.49 390.741 1201.19 392.612 1197.93 394.482 1173.79 410.694 1137.92 438.752 1088.99 475.54 1087.04 478.034 1057.68 498.61 1057.03 497.986Z" fill="#FFFFFF" fill-rule="evenodd"/><path d="M1193.84 33.2416 1189.57 37.3603 1188.39 38.3879 1184.85 41.7313C1166.84 58.8155 1145.44 79.5166 1139.08 86.1033 1112.33 113.077 1094.72 136.915 1086.24 157.616 1082.33 168.908 1079.72 180.199 1079.72 190.236 1079.72 201.528 1081.68 214.074 1086.24 227.247 1094.4 251.085 1111.19 276.648 1130.6 300.642L1136.95 308.143 1140.13 311.698C1164.67 337.81 1188.15 358.041 1194.67 364 1188.8 359.609 1183.09 355.061 1176.82 349.807L1167.94 342.231 1153.94 330.4 1148.47 324.773 1131.97 309.346C1124.06 301.269 1116.07 292.487 1107.92 283.077 1081.83 253.594 1059 221.601 1059 190.236 1059 161.38 1080.52 131.897 1108.57 105.55 1117.05 97.0812 1137.76 79.3599 1158.23 62.3441L1160.56 60.4159 1169.37 52.4256C1184.64 38.7515 1197.29 28.3127 1203 24 1202.35 25.2546 1201.7 25.8819 1201.04 26.5092L1193.84 33.2416Z" fill="#FFFFFF" fill-rule="evenodd"/><path d="M731.528 366.374 727.005 369 727.005 4 731.528 6.62591C747.355 18.4425 846.089 89.9983 871.715 151.05 876.991 162.867 880.006 174.683 880.006 186.5 880.006 198.317 876.991 210.133 871.715 221.95 845.336 283.002 747.355 354.558 731.528 366.374" fill-rule="evenodd"/><path d="M1121.99 303.986C1122.65 303.359 1098.46 280.786 1095.2 278.277 1068.4 254.45 1046.83 217.455 1046.83 217.455 1038.99 202.406 1036.37 196.135 1021.34 194.881 1005.66 193.627 995.2 193 986.05 193 982.129 193 980.822 193.627 980.168 195.508 979.515 196.762 980.822 198.643 984.09 200.525 1008.27 216.827 1044.22 244.417 1093.23 282.04 1096.5 283.921 1121.34 304.613 1121.99 303.986Z" fill="#FFFFFF" fill-rule="evenodd"/><path d="M727.005 364.708 730.923 362.199C743.986 353.417 758.354 344.007 776.642 329.578 794.276 316.405 813.216 300.095 832.156 281.902 861.547 253.046 883.753 221.68 883.753 190.314 883.753 158.948 861.547 127.582 832.156 98.7251 813.216 80.5329 794.276 64.2226 776.642 51.0489 758.354 36.6206 743.986 27.2108 730.923 18.4283L727.005 15.919 727.005 4 960.167 178.395C962.78 180.277 968.005 184.668 968.005 190.314 968.005 195.96 963.433 199.723 960.167 202.233L727.005 376Z" fill-rule="evenodd"/><path d="M815.005 303.957C815.005 303.957 820.848 298.315 834.482 286.404 837.729 283.897 840.975 280.763 843.572 278.255 870.192 254.434 891.618 217.448 891.618 217.448 899.409 202.403 902.006 196.134 916.939 194.881 932.521 193.627 942.909 193 951.999 193 955.895 193 957.193 193.627 957.842 195.508 958.492 196.761 957.193 198.642 953.947 200.523 929.924 216.821 894.864 245.031 845.52 282.016 842.274 284.524 839.027 287.031 835.781 288.912 822.796 298.315 815.654 304.584 815.005 303.957Z" fill="#FFFFFF" fill-rule="evenodd"/><path d="M1208.98 374.195C1192.01 358.546 1114.37 287.813 1093.49 227.095 1088.92 214.576 1086.96 202.683 1086.96 190.79 1086.96 180.149 1089.57 170.134 1093.49 159.492 1103.28 135.706 1124.16 110.042 1145.69 88.7596 1154.82 79.3703 1194.62 41.8131 1207.67 28.668 1210.93 25.5382 1212.89 21.7825 1213.54 18.0267 1214.2 14.2711 1214.85 10.5154 1214.85 8.01153L1214.85 1.12596 978.003 177.019C975.394 178.897 971.479 182.027 970.174 187.034 968.869 182.653 964.954 178.897 962.344 177.019L725.5 0.500053 725.5 380.454 962.344 203.935C964.954 202.057 968.869 198.928 970.174 193.92 971.479 197.676 974.089 200.805 975.394 201.431 992.358 217.08 1070.65 287.813 1091.53 348.531 1096.1 361.05 1098.06 372.943 1098.06 384.836 1098.06 395.477 1095.45 405.492 1091.53 416.134 1081.75 439.92 1060.87 465.584 1039.33 486.867 1030.2 496.256 990.4 534.439 977.351 546.958 974.741 549.462 972.131 553.844 971.479 557.599 970.826 560.729 970.174 563.859 970.174 567.615L970.174 574.5 1207.02 397.981C1210.28 395.477 1215.5 391.096 1215.5 384.836 1214.85 379.202 1210.28 375.447 1208.98 374.195ZM961.039 202.057 727.457 376.073 727.457 4.8817 960.387 178.897C962.997 180.775 968.216 185.157 968.216 190.79 968.216 195.798 963.649 200.18 961.039 202.057ZM972.131 193.92C971.479 191.416 971.479 188.912 972.131 187.034 973.436 183.279 977.351 180.149 979.308 178.897L1212.24 4.8817 1212.24 8.01153C1212.24 9.26344 1212.24 12.3932 1211.59 16.1489 1210.93 20.5306 1208.98 24.2863 1205.71 26.7901 1188.1 43.6909 1152.21 77.4924 1143.73 86.2558 1116.98 113.172 1099.36 136.958 1090.88 157.615 1086.31 168.882 1084.35 179.523 1084.35 190.164 1084.35 202.057 1086.96 214.576 1090.88 227.095 1107.19 275.294 1158.74 329.752 1194.62 363.554L988.443 209.569C988.443 209.569 978.656 201.431 976.698 200.18 975.394 198.928 973.436 196.424 972.131 193.92ZM1205.06 396.729 972.131 570.744 972.131 567.615C972.131 564.485 972.784 561.981 972.784 559.477 973.436 555.096 975.394 551.34 978.656 548.836L1040.64 489.37C1067.39 462.454 1085.01 438.668 1093.49 418.012 1098.06 406.744 1100.01 396.103 1100.01 385.462 1100.01 373.569 1097.4 361.05 1093.49 348.531 1076.53 299.706 1024.33 244.622 988.443 210.821L1196.58 366.057C1196.58 366.057 1207.02 374.821 1208.98 376.699 1210.28 377.95 1214.2 381.706 1214.2 386.088 1212.89 390.47 1207.67 394.851 1205.06 396.729Z" stroke="#000000" stroke-width="3" stroke-miterlimit="8" fill-rule="evenodd"/><path d="M734 18 734.026 18.0176 734.005 18 734.044 18.0298 744.094 24.7579C754.514 31.7701 766.039 39.7505 779.769 50.5475 797.423 63.6916 816.385 79.9653 835.346 98.1168 864.769 126.909 887 158.83 887 189.5 887 220.796 864.769 252.091 835.346 280.883 816.385 299.035 797.423 315.308 779.769 328.453 766.039 339.25 754.514 347.23 744.094 354.242L734.044 360.97 734.005 361 734.026 360.983 734 361 734.056 360.958 737.382 358.236C758.118 341.245 834.166 277.871 855.62 223.299 860.197 212.033 862.812 200.766 862.812 189.5 862.812 178.234 860.197 166.967 855.62 155.701 834.779 101.129 758.194 37.7554 737.389 20.7636L734.057 18.0431 734 18Z" fill="#FFFFFF" fill-rule="evenodd"/><path d="M1010.03 223.549 1034.16 243.601C1049.81 256.756 1065.45 273.044 1081.75 291.838 1107.18 321.282 1130 353.231 1130 384.554 1130 413.371 1108.48 442.815 1080.45 469.126 1069.85 479.698 1040.16 504.707 1015.56 524.731L1013.34 526.517 1008.15 531.131C996.966 540.959 988.001 548.398 983.437 552 984.089 550.747 984.741 550.121 985.393 549.494L989.701 545.373 985.498 548.599C984.152 549.617 982.978 550.488 982 551.193L982 550.566C984.363 548.765 987.817 546.005 992.089 542.466L997.611 537.829 999.289 536.231C1016.4 519.933 1040.49 497.028 1047.33 489.98 1074.06 463.043 1091.67 439.237 1100.14 418.564 1104.05 407.288 1106.66 396.011 1106.66 385.988 1106.66 374.712 1104.71 362.183 1100.14 349.027 1087.92 312.379 1055.16 272.207 1024.41 240.14L997.586 214 1010.03 223.549Z" fill="#FFFFFF" fill-rule="evenodd"/></g></svg>