<?xml version="1.0" encoding="UTF-8" standalone="no" ?>
<!DOCTYPE svg PUBLIC "-//W3C//DTD SVG 1.1//EN" "http://www.w3.org/Graphics/SVG/1.1/DTD/svg11.dtd">
<svg xmlns="http://www.w3.org/2000/svg" xmlns:xlink="http://www.w3.org/1999/xlink" version="1.1" width="300" height="275" viewBox="0 0 300 275" xml:space="preserve">
<desc>Created with Fabric.js 5.2.4</desc>
<defs>
</defs>
<g transform="matrix(1 0 0 1 150 137.5)" id="a73beed6-8e6c-4477-937b-8c36434e63ab"  >
<rect style="stroke: none; stroke-width: 1; stroke-dasharray: none; stroke-linecap: butt; stroke-dashoffset: 0; stroke-linejoin: miter; stroke-miterlimit: 4; fill: rgb(255,255,255); fill-rule: nonzero; opacity: 1; visibility: hidden;" vector-effect="non-scaling-stroke"  x="-150" y="-137.5" rx="0" ry="0" width="300" height="275" />
</g>
<g transform="matrix(Infinity NaN NaN Infinity 0 0)" id="18d6ad42-c0b1-4f63-be5d-336829780bc7"  >
</g>
<g transform="matrix(0.15 0 0 0.15 150 137.5)"  >
<g style="" vector-effect="non-scaling-stroke"   >
		<g transform="matrix(0.13 0 0 -0.13 5.26 -224.25)"  >
<path style="stroke: none; stroke-width: 1; stroke-dasharray: none; stroke-linecap: butt; stroke-dashoffset: 0; stroke-linejoin: miter; stroke-miterlimit: 4; fill: rgb(0,0,0); fill-rule: nonzero; opacity: 1;" vector-effect="non-scaling-stroke"  transform=" translate(-10039.91, -11680.41)" d="M 9742 16913 C 9731 16897 9708 16857 9691 16823 L 9660 16761 L 9685 16724 C 9715 16680 9717 16654 9691 16640 C 9664 16626 9582 16629 9540 16645 L 9505 16658 L 9555 16659 C 9583 16660 9611 16664 9618 16669 C 9637 16681 9624 16746 9592 16794 C 9555 16853 9480 16930 9461 16930 C 9440 16930 9420 16911 9420 16891 C 9420 16882 9409 16853 9396 16827 C 9383 16800 9375 16770 9377 16759 C 9380 16748 9406 16723 9434 16704 C 9494 16664 9484 16662 9352 16691 C 9251 16713 9159 16713 9078 16690 C 9016 16672 9035 16620 9104 16620 C 9118 16620 9132 16616 9135 16610 C 9141 16600 9120 16594 9045 16586 C 8993 16581 8876 16548 8850 16530 C 8838 16523 8837 16517 8846 16503 C 8855 16489 8869 16485 8906 16487 C 9093 16495 9126 16493 9196 16472 C 9277 16447 9357 16413 9365 16401 C 9368 16396 9317 16361 9253 16324 C 9188 16287 9110 16240 9080 16220 C 9002 16168 8740 16032 8683 16014 C 8657 16006 8597 15997 8550 15994 C 8395 15985 8405 15990 8359 15897 C 8336 15852 8292 15775 8261 15725 L 8204 15635 L 8208 15534 L 8212 15432 L 8261 15405 L 8310 15379 L 8469 15429 C 8556 15457 8631 15480 8634 15480 C 8637 15480 8640 15471 8640 15460 C 8640 15437 8598 15414 8496 15380 C 8432 15359 8380 15324 8380 15302 C 8380 15281 8409 15258 8445 15250 C 8501 15237 8600 15252 8709 15290 C 8833 15332 8932 15334 9073 15296 C 9169 15271 9333 15250 9438 15250 C 9482 15250 9495 15245 9517 15224 C 9540 15201 9542 15193 9536 15150 C 9518 15017 9380 14652 9306 14540 C 9205 14390 9083 14244 8948 14110 C 8833 13997 8806 13964 8781 13910 C 8765 13874 8736 13826 8716 13803 C 8670 13750 8560 13668 8445 13601 C 8384 13565 8331 13523 8279 13471 C 8227 13417 8190 13388 8157 13375 C 8110 13357 8110 13357 8063 13382 C 7650 13595 7646 13597 7485 13720 C 7359 13816 7330 13833 7251 13859 C 7174 13884 7122 13885 7049 13864 C 6935 13830 6845 13768 6810 13700 C 6775 13631 6660 13272 6651 13204 C 6641 13124 6564 12867 6509 12730 C 6488 12678 6462 12590 6451 12535 C 6440 12480 6415 12393 6395 12342 C 6362 12257 6359 12236 6349 12087 C 6343 11997 6340 11837 6342 11730 C 6345 11554 6347 11532 6366 11500 C 6384 11468 6391 11465 6429 11466 C 6465 11467 6478 11474 6516 11511 C 6593 11585 6679 11716 6701 11792 C 6706 11812 6696 11873 6664 12007 C 6591 12311 6593 12457 6671 12612 C 6709 12688 6762 12746 6819 12775 C 6881 12806 6955 12873 6986 12926 C 7002 12953 7018 13007 7030 13074 C 7041 13132 7055 13188 7062 13200 C 7080 13228 7111 13234 7151 13217 C 7200 13195 7228 13167 7315 13053 C 7357 12997 7419 12926 7452 12895 C 7516 12835 7607 12770 7626 12770 C 7637 12770 7650 12748 7650 12729 C 7650 12714 7583 12719 7435 12746 C 7081 12809 6957 12814 6879 12767 C 6787 12713 6701 12597 6659 12472 C 6629 12380 6637 12300 6710 12017 C 6772 11772 6807 11623 6865 11345 C 6920 11082 6921 11080 7000 10994 C 7083 10904 7115 10859 7165 10760 C 7270 10551 7411 10411 7518 10410 C 7570 10410 7589 10426 7626 10503 C 7659 10572 7660 10579 7660 10690 C 7660 10821 7644 10900 7604 10960 C 7576 11002 7472 11078 7404 11106 C 7382 11115 7364 11123 7362 11125 C 7360 11127 7350 11160 7340 11199 C 7329 11243 7309 11288 7287 11317 C 7239 11383 7208 11464 7160 11653 C 7137 11742 7103 11854 7084 11903 C 7028 12047 7028 12156 7086 12214 C 7125 12252 7154 12247 7250 12184 C 7296 12154 7362 12117 7395 12102 C 7519 12047 7786 11912 7808 11894 C 7820 11883 7838 11859 7848 11840 C 7896 11743 8089 11681 8349 11680 L 8423 11680 L 8416 11640 C 8412 11613 8415 11587 8425 11563 C 8452 11499 8549 11380 8699 11226 C 8938 10982 9094 10860 9345 10720 C 9504 10631 9786 10445 9897 10355 C 9986 10284 10098 10160 10148 10077 C 10165 10048 10184 10000 10190 9970 C 10203 9902 10241 9845 10303 9803 C 10356 9768 10406 9754 10446 9764 C 10492 9776 10567 9856 10586 9913 C 10595 9942 10611 9981 10620 10000 C 10656 10071 10681 10167 10691 10270 C 10702 10386 10720 10430 10762 10441 C 10777 10445 10791 10446 10794 10443 C 10796 10440 10785 10408 10769 10370 C 10743 10309 10710 10161 10710 10106 C 10710 10056 10676 9977 10590 9826 C 10539 9738 10488 9634 10475 9596 C 10435 9476 10417 9333 10423 9196 C 10431 9015 10468 8907 10642 8560 C 10721 8402 10770 8317 10829 8238 C 10919 8118 10940 8081 10940 8048 C 10940 8023 10873 7907 10817 7836 C 10730 7724 10580 7551 10493 7463 C 10414 7384 10385 7361 10344 7347 C 10277 7324 10231 7284 10176 7202 C 10151 7165 10087 7086 10034 7026 C 9863 6831 9814 6747 9785 6594 C 9769 6514 9777 6465 9809 6436 C 9826 6421 9845 6419 9947 6422 C 10064 6425 10066 6425 10150 6468 C 10197 6492 10244 6520 10255 6530 C 10266 6540 10295 6557 10320 6567 C 10398 6602 10412 6626 10421 6737 C 10425 6791 10429 6842 10430 6851 C 10430 6861 10442 6870 10461 6874 C 10526 6887 10674 7072 10701 7175 C 10717 7236 10722 7242 10790 7289 C 10825 7314 10867 7354 10884 7379 C 10964 7497 11138 7649 11332 7773 C 11449 7848 11470 7875 11470 7952 C 11469 8066 11424 8194 11345 8305 C 11267 8414 11255 8487 11290 8625 C 11328 8774 11344 8797 11473 8894 C 11665 9037 11924 9298 12024 9448 C 12072 9521 12156 9683 12190 9769 C 12215 9833 12235 9927 12245 10025 C 12249 10064 12256 10103 12261 10113 C 12275 10139 12317 10134 12337 10104 C 12351 10082 12355 10034 12362 9769 C 12367 9574 12375 9447 12383 9423 C 12394 9389 12423 9360 12434 9371 C 12437 9374 12441 9416 12444 9465 C 12446 9515 12455 9582 12463 9615 C 12472 9648 12484 9711 12490 9755 C 12497 9799 12509 9851 12517 9870 C 12530 9903 12532 9904 12545 9886 C 12577 9844 12583 9637 12556 9532 C 12548 9500 12514 9413 12481 9338 C 12448 9263 12412 9174 12401 9139 C 12375 9063 12374 8964 12398 8895 C 12412 8854 12420 8844 12441 8842 C 12456 8840 12473 8847 12485 8860 C 12501 8878 12502 8885 12491 8920 C 12477 8968 12487 8996 12557 9102 C 12625 9202 12746 9417 12764 9467 C 12782 9519 12807 9649 12819 9764 C 12834 9895 12821 9974 12764 10087 C 12707 10201 12710 10234 12771 10174 C 12846 10102 12876 10022 12905 9820 C 12928 9662 12978 9522 13028 9477 C 13062 9446 13074 9464 13064 9534 C 13055 9601 13054 9730 13060 9950 L 13065 10095 L 13011 10208 C 12958 10321 12953 10350 12989 10350 C 13000 10350 13064 10378 13132 10412 C 13238 10465 13265 10484 13330 10550 C 13411 10632 13470 10724 13551 10895 L 13602 11000 L 13597 11298 L 13593 11595 L 13551 11820 C 13514 12018 13509 12058 13513 12155 C 13515 12216 13525 12298 13535 12340 C 13552 12407 13577 12460 13697 12691 C 13716 12727 13734 12774 13737 12796 C 13741 12830 13738 12839 13711 12864 C 13677 12896 13650 12893 13650 12857 C 13650 12826 13602 12753 13532 12677 C 13470 12611 13406 12522 13371 12453 C 13344 12400 13321 12386 13292 12406 C 13232 12447 13228 12653 13285 12791 C 13297 12822 13348 12910 13397 12986 C 13516 13171 13554 13241 13584 13332 C 13613 13417 13617 13477 13597 13504 C 13584 13522 13582 13521 13563 13494 C 13552 13478 13524 13428 13500 13383 C 13462 13309 13435 13278 13245 13085 C 13127 12967 13029 12870 13027 12870 C 13014 12870 13010 12984 13019 13075 C 13042 13298 13160 13523 13345 13698 C 13442 13789 13464 13818 13451 13838 C 13434 13865 13328 13800 13172 13665 C 13061 13570 13001 13503 12937 13404 C 12825 13230 12789 13125 12770 12914 C 12756 12758 12765 12708 12860 12370 C 12995 11897 13015 11775 13015 11450 C 13015 11231 13013 11210 12991 11140 C 12948 11000 12895 10924 12737 10774 C 12587 10630 12475 10565 12344 10548 C 12252 10536 12220 10542 12220 10573 C 12220 10624 12072 10867 11945 11025 C 11801 11205 11600 11381 11270 11617 C 10808 11948 10554 12227 10364 12615 C 10321 12703 10307 12745 10294 12822 C 10278 12918 10281 12983 10301 12996 C 10307 12999 10352 12984 10400 12961 C 10455 12934 10512 12915 10554 12909 C 10651 12896 10724 12862 10880 12760 C 11036 12657 11081 12639 11111 12666 C 11139 12691 11135 12710 11102 12710 C 11066 12710 11053 12721 10999 12795 C 10917 12909 10851 12963 10735 13011 L 10705 13024 L 10733 13028 C 10775 13033 10839 13008 10945 12945 C 11046 12884 11073 12880 11078 12921 C 11080 12942 11068 12959 11016 13008 C 10943 13076 10866 13122 10705 13193 C 10594 13243 10549 13270 10582 13270 C 10590 13270 10616 13263 10639 13255 C 10662 13247 10720 13231 10768 13220 C 10816 13209 10905 13179 10965 13155 C 11178 13069 11299 13060 11426 13119 C 11508 13157 11570 13206 11570 13231 C 11570 13256 11546 13255 11505 13230 C 11463 13204 11330 13170 11271 13170 C 11215 13170 11199 13181 11082 13287 C 11020 13343 10977 13374 10943 13385 C 10917 13395 10846 13419 10786 13439 C 10726 13459 10675 13480 10673 13486 C 10670 13494 10731 13499 10872 13504 C 11072 13511 11076 13510 11145 13486 C 11220 13459 11279 13453 11311 13471 C 11336 13484 11329 13495 11277 13521 C 11254 13533 11213 13560 11186 13582 C 11118 13636 11028 13676 10945 13689 C 10857 13704 10839 13713 10868 13729 C 10901 13747 10989 13728 11131 13675 C 11315 13605 11417 13608 11464 13683 C 11477 13704 11461 13717 11410 13726 C 11293 13745 11266 13755 11172 13811 C 11105 13850 11048 13875 11004 13886 C 10925 13904 10859 13934 10833 13962 C 10815 13983 10815 13983 10860 13977 C 10885 13974 10939 13957 10979 13940 C 11086 13894 11108 13912 11045 13994 L 11010 14040 L 11035 14040 C 11049 14040 11088 14029 11123 14015 C 11157 14001 11201 13987 11221 13984 C 11265 13977 11270 13973 11298 13934 C 11327 13892 11409 13840 11446 13840 C 11497 13840 11521 13883 11476 13894 C 11463 13897 11437 13919 11419 13942 C 11286 14115 11240 14159 11130 14219 C 11101 14235 11040 14283 10995 14326 C 10950 14370 10901 14415 10887 14427 C 10828 14474 10860 14484 10975 14455 C 11114 14419 11173 14394 11233 14341 C 11284 14296 11295 14291 11377 14276 C 11476 14258 11549 14263 11582 14290 L 11603 14307 L 11583 14327 C 11562 14348 11509 14370 11426 14391 C 11364 14407 11316 14454 11279 14534 C 11246 14607 11228 14625 11085 14724 C 11024 14766 10954 14821 10930 14847 C 10905 14873 10896 14886 10910 14877 C 10924 14867 10998 14818 11075 14766 C 11152 14714 11255 14640 11303 14601 C 11437 14493 11505 14466 11533 14512 C 11542 14525 11533 14538 11488 14579 C 11457 14607 11423 14649 11412 14672 C 11401 14696 11361 14749 11324 14790 C 11286 14832 11230 14908 11200 14960 C 11161 15027 11114 15086 11036 15167 C 10976 15229 10930 15283 10933 15287 C 10937 15290 10987 15274 11045 15251 C 11103 15228 11201 15198 11263 15185 C 11324 15172 11395 15155 11419 15146 C 11468 15128 11556 15125 11595 15140 C 11636 15155 11625 15191 11575 15209 C 11414 15266 11156 15395 11117 15437 C 11101 15455 11104 15456 11198 15452 C 11251 15450 11356 15445 11430 15441 L 11565 15433 L 11630 15392 C 11697 15349 11714 15343 11725 15360 C 11743 15390 11658 15478 11555 15535 C 11471 15581 11442 15588 11296 15599 L 11168 15609 L 11114 15669 C 11084 15702 11027 15753 10987 15783 C 10852 15885 10857 15901 11002 15837 C 11130 15780 11232 15751 11335 15743 L 11415 15737 L 11475 15680 C 11580 15581 11619 15562 11639 15599 C 11647 15614 11641 15630 11609 15680 C 11529 15804 11425 15886 11285 15936 C 11217 15960 11194 15975 11127 16037 C 11041 16118 11014 16134 10920 16165 C 10884 16177 10855 16192 10855 16200 C 10855 16223 10903 16250 11020 16291 C 11158 16339 11182 16354 11178 16383 C 11172 16429 11134 16435 10869 16435 L 10623 16435 L 10564 16489 C 10464 16580 10285 16650 10150 16650 C 10129 16650 10101 16654 10088 16659 C 10075 16664 10003 16730 9926 16804 C 9850 16879 9782 16940 9775 16940 C 9767 16940 9753 16928 9742 16913 z M 10315 16461 C 10318 16456 10312 16449 10302 16445 C 10280 16439 10250 16448 10250 16461 C 10250 16473 10307 16473 10315 16461 z M 10375 16310 C 10378 16305 10369 16298 10355 16294 C 10326 16287 10314 16293 10325 16309 C 10333 16323 10367 16323 10375 16310 z M 9700 16236 C 9700 16221 9679 16210 9650 16210 C 9621 16210 9616 16229 9642 16239 C 9676 16253 9700 16252 9700 16236 z M 9180 16078 C 9180 16066 9140 16041 9030 15983 C 8983 15959 8849 15926 8821 15933 C 8801 15937 8876 15977 9025 16041 C 9137 16090 9180 16100 9180 16078 z M 9532 16040 C 9557 16009 9571 15951 9559 15929 C 9540 15892 9445 15911 9373 15966 C 9335 15995 9331 16019 9360 16045 C 9402 16083 9499 16080 9532 16040 z M 10390 15942 C 10390 15900 10406 15889 10446 15906 C 10483 15922 10530 15925 10530 15911 C 10530 15902 10330 15800 10312 15800 C 10296 15800 10296 15884 10311 15913 C 10343 15975 10390 15992 10390 15942 z M 8467 15728 C 8509 15689 8489 15632 8423 15605 C 8353 15575 8330 15612 8370 15690 C 8389 15727 8413 15749 8434 15750 C 8440 15750 8454 15740 8467 15728 z M 8638 15717 C 8642 15695 8611 15682 8600 15701 C 8590 15716 8607 15743 8624 15737 C 8630 15735 8636 15726 8638 15717 z M 9586 15531 C 9540 15465 9515 15448 9460 15442 C 9429 15439 9410 15441 9410 15448 C 9410 15463 9604 15592 9608 15580 C 9610 15574 9600 15552 9586 15531 z M 10555 15559 C 10547 15547 10520 15547 10520 15559 C 10520 15570 10542 15579 10553 15573 C 10557 15571 10558 15564 10555 15559 z M 8814 15519 C 8806 15506 8790 15518 8790 15537 C 8790 15550 8793 15550 8805 15540 C 8813 15533 8817 15524 8814 15519 z M 9908 15512 C 9915 15491 9817 15400 9786 15400 C 9747 15400 9754 15418 9815 15478 C 9869 15529 9898 15540 9908 15512 z M 10590 15456 C 10590 15440 10572 15425 10563 15434 C 10555 15442 10568 15470 10580 15470 C 10585 15470 10590 15464 10590 15456 z M 10030 15366 C 10030 15344 9971 15289 9925 15269 C 9882 15249 9786 15243 9792 15260 C 9796 15274 9990 15379 10013 15380 C 10022 15380 10030 15374 10030 15366 z M 10610 15325 C 10610 15312 10574 15290 10554 15290 C 10542 15290 10552 15320 10568 15329 C 10593 15344 10610 15342 10610 15325 z M 10578 15198 C 10573 15183 10530 15174 10530 15188 C 10530 15202 10542 15210 10563 15210 C 10573 15210 10580 15205 10578 15198 z M 10606 15076 C 10620 15041 10561 14994 10536 15020 C 10528 15030 10528 15034 10538 15037 C 10545 15040 10555 15053 10560 15066 C 10570 15092 10597 15098 10606 15076 z M 10610 14900 C 10610 14883 10549 14857 10537 14869 C 10521 14885 10548 14910 10581 14910 C 10597 14910 10610 14906 10610 14900 z M 9810 14821 C 9810 14710 9645 14393 9479 14184 C 9432 14125 9368 14079 9353 14094 C 9349 14098 9356 14120 9369 14143 C 9382 14166 9442 14280 9503 14395 C 9687 14744 9760 14860 9796 14860 C 9806 14860 9810 14848 9810 14821 z M 10590 14745 C 10577 14729 10520 14724 10520 14739 C 10520 14751 10539 14758 10574 14759 C 10598 14760 10601 14758 10590 14745 z M 10610 14635 C 10610 14624 10544 14590 10523 14590 C 10492 14590 10494 14606 10528 14624 C 10554 14639 10610 14646 10610 14635 z M 10591 14489 C 10611 14479 10611 14478 10594 14459 C 10584 14448 10564 14440 10543 14440 C 10516 14440 10510 14444 10510 14460 C 10510 14472 10520 14484 10533 14490 C 10563 14502 10568 14502 10591 14489 z M 10554 14351 C 10562 14339 10541 14324 10508 14316 C 10485 14311 10480 14313 10480 14328 C 10480 14338 10483 14350 10487 14353 C 10496 14363 10548 14361 10554 14351 z M 10514 14202 C 10525 14184 10489 14150 10459 14150 C 10421 14150 10420 14174 10458 14194 C 10489 14211 10507 14214 10514 14202 z M 10450 14015 C 10450 14006 10441 14000 10425 14000 C 10409 14000 10400 14006 10400 14015 C 10400 14024 10409 14030 10425 14030 C 10441 14030 10450 14024 10450 14015 z M 10414 13894 C 10427 13889 10428 13885 10419 13874 C 10413 13866 10402 13860 10394 13860 C 10374 13860 10366 13881 10381 13891 C 10398 13902 10395 13901 10414 13894 z M 10375 13740 C 10378 13734 10374 13727 10365 13724 C 10346 13716 10335 13724 10345 13739 C 10353 13753 10367 13753 10375 13740 z M 7130 13683 C 7133 13681 7124 13669 7111 13659 C 7084 13637 7019 13636 7012 13658 C 7003 13685 7106 13707 7130 13683 z M 9310 13653 C 9390 13627 9456 13550 9397 13550 C 9385 13550 9343 13557 9305 13565 C 9205 13586 9061 13584 8934 13559 C 8819 13537 8790 13543 8835 13578 C 8863 13601 8963 13636 9050 13656 C 9132 13674 9249 13673 9310 13653 z M 10335 13630 C 10338 13624 10334 13617 10325 13614 C 10306 13606 10295 13614 10305 13629 C 10313 13643 10327 13643 10335 13630 z M 6895 13358 C 6878 13247 6822 13110 6793 13110 C 6755 13110 6805 13323 6858 13383 C 6887 13415 6902 13405 6895 13358 z M 7456 13192 C 7501 13159 7525 13132 7517 13124 C 7508 13115 7478 13136 7435 13179 C 7390 13226 7400 13233 7456 13192 z M 9705 13155 L 9705 13095 L 9669 13092 C 9620 13088 9574 13125 9585 13159 C 9594 13188 9648 13221 9680 13218 C 9704 13215 9705 13212 9705 13155 z M 8090 13076 C 8090 13039 8042 12870 8011 12797 C 7987 12741 7905 12650 7879 12650 C 7855 12650 7855 12671 7879 12701 C 7909 12740 7940 12806 7980 12921 C 8022 13038 8034 13066 8058 13093 C 8081 13119 8090 13114 8090 13076 z M 10172 12700 C 10181 12681 10203 12618 10220 12560 C 10238 12502 10268 12426 10288 12390 C 10332 12309 10452 12130 10558 11985 C 10602 11925 10637 11874 10635 11872 C 10614 11850 10362 12102 10268 12237 C 10165 12387 10069 12663 10100 12720 C 10117 12752 10152 12742 10172 12700 z M 6860 12616 C 6860 12601 6836 12550 6829 12550 C 6817 12550 6818 12564 6832 12595 C 6841 12615 6860 12630 6860 12616 z M 7612 12200 C 7662 12178 7713 12152 7724 12141 C 7743 12122 7743 12120 7726 12114 C 7704 12106 7609 12151 7535 12204 C 7469 12251 7496 12250 7612 12200 z M 6936 11819 C 6955 11739 6970 11658 6970 11639 C 6970 11609 6969 11607 6954 11621 C 6925 11651 6880 11800 6880 11871 C 6880 11944 6892 12019 6898 11985 C 6900 11974 6917 11899 6936 11819 z M 13271 11715 C 13308 11579 13314 11529 13314 11360 C 13315 11159 13306 11112 13236 10965 C 13168 10822 13061 10691 12959 10626 C 12937 10612 12931 10612 12921 10623 C 12906 10642 12942 10709 13044 10855 C 13132 10981 13192 11096 13217 11190 C 13232 11245 13235 11297 13234 11524 C 13233 11753 13235 11790 13247 11774 C 13254 11764 13265 11737 13271 11715 z M 6510 11765 C 6510 11757 6503 11750 6495 11750 C 6479 11750 6475 11762 6487 11773 C 6498 11785 6510 11781 6510 11765 z M 8915 11462 C 8932 11452 8986 11401 9035 11349 C 9217 11160 9379 11001 9523 10871 C 9605 10798 9669 10736 9667 10733 C 9659 10726 9371 10921 9219 11036 C 9049 11165 8893 11312 8869 11365 C 8847 11411 8845 11451 8862 11468 C 8878 11484 8879 11483 8915 11462 z M 10625 11183 C 10658 11150 10626 11066 10541 10960 L 10521 10935 L 10521 10990 C 10520 11051 10544 11166 10562 11187 C 10577 11205 10605 11203 10625 11183 z M 7488 10662 C 7492 10636 7466 10631 7456 10656 C 7446 10682 7449 10692 7468 10688 C 7477 10686 7486 10675 7488 10662 z M 12005 10186 C 12028 10151 12033 10100 12018 10056 C 12001 10005 11984 10000 11972 10042 C 11966 10060 11952 10098 11939 10127 C 11920 10170 11919 10181 11929 10194 C 11949 10218 11987 10214 12005 10186 z M 10700 9656 C 10700 9608 10592 9317 10578 9326 C 10564 9335 10575 9462 10595 9526 C 10621 9605 10700 9703 10700 9656 z M 10795 8747 C 10807 8718 10840 8565 10840 8537 C 10840 8532 10831 8535 10821 8544 C 10792 8571 10758 8657 10752 8722 C 10748 8772 10750 8780 10764 8780 C 10774 8780 10787 8766 10795 8747 z M 11298 7978 C 11280 7952 11260 7943 11260 7962 C 11260 7980 11280 8000 11298 8000 C 11310 8000 11310 7997 11298 7978 z M 10968 7765 C 10914 7690 10622 7400 10600 7400 C 10563 7400 10652 7506 10869 7719 C 10955 7804 10986 7829 10988 7816 C 10990 7806 10981 7783 10968 7765 z M 10360 7188 C 10360 7174 10320 7130 10308 7130 C 10291 7130 10301 7170 10322 7184 C 10349 7203 10360 7204 10360 7188 z M 10075 6750 C 10084 6735 10044 6653 10022 6641 C 9958 6607 9950 6662 10009 6721 C 10048 6761 10064 6768 10075 6750 z" stroke-linecap="round" />
</g>
		<g transform="matrix(0.13 0 0 -0.13 -91.21 87.67)"  >
<path style="stroke: none; stroke-width: 1; stroke-dasharray: none; stroke-linecap: butt; stroke-dashoffset: 0; stroke-linejoin: miter; stroke-miterlimit: 4; fill: rgb(0,0,0); fill-rule: nonzero; opacity: 1;" vector-effect="non-scaling-stroke"  transform=" translate(-9316.44, -9341)" d="M 9560 10453 C 9525 10440 9490 10396 9490 10364 C 9490 10322 9523 10166 9554 10058 C 9666 9673 9826 9346 10097 8947 C 10197 8799 10194 8773 10075 8761 C 9867 8739 9467 8804 9225 8898 C 9136 8932 9133 8933 8965 8935 C 8872 8936 8777 8942 8755 8948 C 8685 8967 8521 8980 8330 8982 C 8170 8984 8140 8982 8105 8966 C 8025 8930 8014 8904 8051 8835 C 8097 8748 8149 8692 8237 8634 C 8350 8560 8390 8543 8479 8529 C 8566 8516 8739 8530 8859 8561 L 8934 8580 L 8959 8556 C 8990 8526 9009 8523 9240 8510 C 9336 8504 9459 8493 9513 8485 C 9745 8451 10017 8373 10205 8287 C 10321 8234 10421 8212 10473 8229 C 10518 8244 10543 8273 10576 8345 C 10618 8439 10614 8470 10531 8653 C 10378 8989 10349 9158 10381 9508 C 10388 9589 10388 9634 10381 9652 C 10375 9667 10338 9705 10299 9737 C 10259 9769 10216 9804 10203 9815 C 10188 9828 10173 9861 10159 9910 C 10119 10056 10053 10153 9913 10269 C 9726 10426 9627 10477 9560 10453 z M 8420 8836 C 8420 8828 8412 8812 8402 8800 C 8384 8778 8383 8778 8352 8794 C 8316 8813 8312 8824 8338 8839 C 8364 8855 8420 8853 8420 8836 z M 9471 8732 C 9512 8721 9618 8702 9706 8690 C 9880 8665 9915 8656 9904 8639 C 9882 8603 9407 8700 9368 8748 C 9357 8761 9358 8763 9375 8758 C 9386 8755 9429 8743 9471 8732 z M 10330 8697 C 10330 8678 10309 8660 10288 8660 C 10266 8660 10265 8668 10287 8692 C 10306 8713 10330 8716 10330 8697 z" stroke-linecap="round" />
</g>
		<g transform="matrix(0.13 0 0 -0.13 806.18 571.17)"  >
<path style="stroke: none; stroke-width: 1; stroke-dasharray: none; stroke-linecap: butt; stroke-dashoffset: 0; stroke-linejoin: miter; stroke-miterlimit: 4; fill: rgb(0,0,0); fill-rule: nonzero; opacity: 1;" vector-effect="non-scaling-stroke"  transform=" translate(-16046.85, -5714.69)" d="M 15853 5880 C 15776 5869 15669 5834 15630 5808 C 15526 5738 15562 5652 15720 5591 C 15831 5548 15919 5536 16090 5543 C 16252 5549 16358 5571 16443 5617 C 16608 5705 16505 5838 16240 5880 C 16167 5891 15932 5891 15853 5880 z" stroke-linecap="round" />
</g>
		<g transform="matrix(0.13 0 0 -0.13 -80.73 735.13)"  >
<path style="stroke: none; stroke-width: 1; stroke-dasharray: none; stroke-linecap: butt; stroke-dashoffset: 0; stroke-linejoin: miter; stroke-miterlimit: 4; fill: rgb(0,0,0); fill-rule: nonzero; opacity: 1;" vector-effect="non-scaling-stroke"  transform=" translate(-9395, -4485)" d="M 3656 5858 C 3639 5830 3480 5548 3480 5545 C 3480 5544 3522 5540 3573 5536 C 3698 5528 3732 5517 3773 5471 C 3838 5399 3835 5447 3835 4425 C 3835 3374 3840 3441 3758 3399 C 3725 3382 3685 3374 3588 3367 L 3460 3356 L 3460 3223 L 3460 3090 L 4125 3090 L 4790 3090 L 4790 3224 L 4790 3358 L 4693 3365 C 4571 3373 4531 3383 4470 3421 C 4388 3472 4387 3475 4382 3906 L 4378 4277 L 4416 4306 C 4449 4331 4462 4335 4521 4335 C 4613 4335 4658 4303 4713 4202 L 4752 4130 L 4861 4130 L 4970 4130 L 4970 4550 L 4970 4970 L 4856 4970 L 4743 4970 L 4736 4921 C 4728 4860 4683 4772 4647 4746 C 4605 4715 4479 4716 4429 4747 L 4393 4770 L 4386 5012 C 4379 5277 4388 5415 4414 5454 C 4453 5515 4452 5514 4840 5522 C 5035 5525 6784 5529 8725 5529 C 10667 5530 12947 5533 13793 5537 L 15330 5543 L 15330 5712 L 15330 5880 L 9500 5880 L 3670 5880 L 3656 5858 z" stroke-linecap="round" />
</g>
		<g transform="matrix(0.13 0 0 -0.13 324.88 778.86)"  >
<path style="stroke: none; stroke-width: 1; stroke-dasharray: none; stroke-linecap: butt; stroke-dashoffset: 0; stroke-linejoin: miter; stroke-miterlimit: 4; fill: rgb(0,0,0); fill-rule: nonzero; opacity: 1;" vector-effect="non-scaling-stroke"  transform=" translate(-12437.13, -4157.08)" d="M 12145 5220 C 12016 5210 11964 5196 11862 5147 C 11722 5080 11624 4962 11585 4815 C 11577 4783 11567 4714 11564 4663 L 11557 4570 L 11806 4576 C 11943 4580 12056 4584 12058 4586 C 12060 4587 12070 4626 12080 4672 C 12102 4774 12134 4859 12162 4895 C 12174 4910 12211 4935 12244 4951 C 12295 4975 12318 4980 12380 4980 C 12431 4980 12468 4974 12496 4961 C 12542 4940 12597 4876 12611 4828 C 12623 4784 12623 4464 12610 4419 C 12604 4399 12593 4377 12585 4370 C 12574 4361 12506 4354 12378 4349 C 12063 4335 11851 4302 11752 4251 C 11655 4201 11572 4098 11543 3990 C 11518 3898 11518 3594 11543 3496 C 11581 3347 11675 3232 11815 3165 C 11954 3098 11963 3098 12693 3093 L 13350 3088 L 13350 3194 L 13350 3301 L 13277 3334 C 13224 3358 13201 3374 13192 3395 C 13170 3443 13162 3613 13155 4155 C 13147 4821 13143 4878 13100 4959 C 13040 5071 12913 5163 12758 5206 C 12695 5224 12301 5233 12145 5220 z M 12554 4126 C 12610 4103 12613 4079 12614 3693 C 12615 3431 12612 3348 12602 3338 C 12588 3324 12325 3320 12247 3333 C 12185 3344 12130 3392 12101 3461 C 12080 3508 12079 3524 12082 3744 L 12085 3977 L 12112 4018 C 12146 4069 12210 4107 12292 4125 C 12376 4143 12512 4144 12554 4126 z" stroke-linecap="round" />
</g>
		<g transform="matrix(0.13 0 0 -0.13 -498.87 782.77)"  >
<path style="stroke: none; stroke-width: 1; stroke-dasharray: none; stroke-linecap: butt; stroke-dashoffset: 0; stroke-linejoin: miter; stroke-miterlimit: 4; fill: rgb(0,0,0); fill-rule: nonzero; opacity: 1;" vector-effect="non-scaling-stroke"  transform=" translate(-6259, -4127.72)" d="M 6070 5189 C 5859 5176 5719 5138 5621 5066 C 5544 5009 5491 4927 5453 4805 C 5436 4750 5435 4699 5435 4140 C 5435 3593 5437 3529 5453 3471 C 5480 3374 5528 3292 5605 3214 C 5672 3147 5679 3143 5765 3117 C 5921 3071 6036 3057 6250 3057 C 6599 3056 6817 3116 6939 3245 C 7029 3340 7066 3443 7077 3623 L 7083 3730 L 6817 3730 C 6670 3730 6550 3727 6550 3723 C 6550 3718 6545 3650 6540 3571 C 6528 3383 6513 3350 6420 3301 C 6357 3269 6353 3268 6263 3273 C 6116 3281 6027 3335 5978 3444 C 5957 3493 5956 3507 5955 3751 L 5955 4006 L 5980 4043 L 6005 4080 L 6544 4080 L 7083 4080 L 7077 4408 C 7071 4770 7063 4836 7020 4927 C 6958 5053 6847 5125 6654 5165 C 6587 5179 6279 5202 6215 5198 C 6204 5198 6139 5194 6070 5189 z M 6371 4953 C 6436 4932 6499 4873 6519 4815 C 6527 4790 6534 4705 6537 4589 C 6543 4394 6535 4339 6502 4325 C 6477 4314 6143 4306 6067 4314 C 5954 4327 5955 4324 5956 4552 C 5957 4762 5963 4796 6012 4867 C 6057 4933 6139 4968 6251 4969 C 6289 4970 6341 4962 6371 4953 z" stroke-linecap="round" />
</g>
		<g transform="matrix(0.13 0 0 -0.13 -224.8 780.61)"  >
<path style="stroke: none; stroke-width: 1; stroke-dasharray: none; stroke-linecap: butt; stroke-dashoffset: 0; stroke-linejoin: miter; stroke-miterlimit: 4; fill: rgb(0,0,0); fill-rule: nonzero; opacity: 1;" vector-effect="non-scaling-stroke"  transform=" translate(-8314.5, -4143.94)" d="M 8730 5188 C 8641 5176 8537 5139 8391 5069 C 8323 5037 8261 5010 8254 5010 C 8247 5010 8217 5038 8186 5073 L 8130 5135 L 7805 5138 L 7479 5141 L 7482 5029 L 7485 4916 L 7531 4903 C 7558 4895 7598 4872 7625 4848 L 7672 4807 L 7668 4126 C 7665 3499 7664 3442 7647 3410 C 7628 3371 7589 3343 7526 3325 L 7485 3313 L 7482 3201 L 7479 3090 L 7940 3090 L 8400 3090 L 8400 3196 L 8400 3301 L 8347 3325 C 8275 3357 8233 3394 8220 3438 C 8214 3461 8210 3698 8210 4064 L 8209 4653 L 8242 4688 C 8292 4740 8413 4828 8471 4855 C 8529 4882 8547 4878 8603 4826 L 8630 4801 L 8630 4440 L 8630 4080 L 8890 4080 L 9150 4080 L 9150 4533 C 9149 4875 9146 4994 9136 5021 C 9105 5109 9026 5169 8916 5189 C 8848 5201 8822 5201 8730 5188 z" stroke-linecap="round" />
</g>
		<g transform="matrix(0.13 0 0 -0.13 48.33 780.76)"  >
<path style="stroke: none; stroke-width: 1; stroke-dasharray: none; stroke-linecap: butt; stroke-dashoffset: 0; stroke-linejoin: miter; stroke-miterlimit: 4; fill: rgb(0,0,0); fill-rule: nonzero; opacity: 1;" vector-effect="non-scaling-stroke"  transform=" translate(-10363, -4142.8)" d="M 10771 5189 C 10682 5173 10548 5124 10421 5061 L 10301 5001 L 10240 5068 L 10178 5135 L 9864 5138 C 9690 5140 9544 5140 9537 5137 C 9528 5134 9526 5101 9528 5023 L 9531 4914 L 9573 4902 C 9633 4886 9676 4856 9696 4818 C 9711 4788 9714 4728 9717 4230 C 9720 3925 9718 3615 9713 3543 C 9705 3423 9701 3408 9679 3384 C 9652 3354 9586 3321 9553 3320 C 9532 3320 9531 3316 9528 3205 L 9525 3090 L 9988 3090 L 10450 3090 L 10450 3199 L 10450 3308 L 10406 3319 C 10376 3326 10343 3347 10306 3381 L 10250 3432 L 10250 4040 L 10250 4648 L 10321 4714 C 10403 4790 10465 4832 10527 4856 C 10580 4877 10613 4868 10643 4828 C 10670 4792 10679 4672 10679 4333 L 10680 4080 L 10941 4080 L 11201 4080 L 11198 4543 C 11195 4942 11193 5010 11179 5040 C 11157 5088 11079 5155 11022 5175 C 10964 5195 10843 5202 10771 5189 z" stroke-linecap="round" />
</g>
		<g transform="matrix(0.13 0 0 -0.13 594.87 780.78)"  >
<path style="stroke: none; stroke-width: 1; stroke-dasharray: none; stroke-linecap: butt; stroke-dashoffset: 0; stroke-linejoin: miter; stroke-miterlimit: 4; fill: rgb(0,0,0); fill-rule: nonzero; opacity: 1;" vector-effect="non-scaling-stroke"  transform=" translate(-14462, -4142.61)" d="M 14865 5186 C 14754 5163 14656 5126 14530 5062 L 14405 4999 L 14341 5067 L 14277 5135 L 13951 5135 L 13625 5135 L 13622 5029 L 13619 4923 L 13681 4901 C 13714 4888 13760 4862 13782 4842 L 13823 4805 L 13817 4125 C 13814 3751 13808 3432 13804 3417 C 13795 3379 13730 3333 13675 3325 C 13624 3317 13620 3306 13620 3174 L 13620 3090 L 14085 3090 L 14550 3090 L 14550 3195 L 14550 3300 L 14493 3326 C 14424 3356 14393 3383 14372 3430 C 14358 3460 14355 3544 14352 4056 L 14348 4646 L 14411 4705 C 14493 4780 14543 4817 14605 4846 C 14668 4876 14702 4876 14735 4848 C 14771 4816 14780 4723 14780 4367 L 14780 4080 L 15043 4082 L 15305 4085 L 15305 4540 L 15305 4996 L 15279 5045 C 15251 5100 15181 5160 15122 5179 C 15067 5197 14933 5201 14865 5186 z" stroke-linecap="round" />
</g>
		<g transform="matrix(0.13 0 0 -0.13 810.6 784.47)"  >
<path style="stroke: none; stroke-width: 1; stroke-dasharray: none; stroke-linecap: butt; stroke-dashoffset: 0; stroke-linejoin: miter; stroke-miterlimit: 4; fill: rgb(0,0,0); fill-rule: nonzero; opacity: 1;" vector-effect="non-scaling-stroke"  transform=" translate(-16080, -4115)" d="M 15620 5038 C 15620 4981 15624 4930 15628 4924 C 15632 4917 15653 4907 15676 4901 C 15699 4895 15738 4874 15764 4854 L 15811 4818 L 15808 4121 C 15805 3475 15804 3422 15787 3397 C 15764 3361 15728 3339 15672 3325 L 15625 3313 L 15622 3201 L 15619 3090 L 16080 3090 L 16540 3090 L 16540 3195 L 16540 3300 L 16473 3333 C 16400 3369 16373 3398 16360 3456 C 16355 3477 16350 3787 16350 4143 L 16350 4791 L 16377 4826 C 16407 4866 16449 4891 16500 4899 L 16535 4905 L 16538 5023 L 16541 5140 L 16080 5140 L 15620 5140 L 15620 5038 z" stroke-linecap="round" />
</g>
</g>
</g>
</svg>