<?xml version="1.0" encoding="UTF-8" standalone="no" ?>
<!DOCTYPE svg PUBLIC "-//W3C//DTD SVG 1.1//EN" "http://www.w3.org/Graphics/SVG/1.1/DTD/svg11.dtd">
<svg xmlns="http://www.w3.org/2000/svg" xmlns:xlink="http://www.w3.org/1999/xlink" version="1.1" width="625" height="275" viewBox="0 0 625 275" xml:space="preserve">
<desc>Created with Fabric.js 5.2.4</desc>
<defs>
</defs>
<g transform="matrix(1 0 0 1 312.5 137.5)" id="7c0501a0-cb12-4c83-98d1-3a7951135b17"  >
<rect style="stroke: none; stroke-width: 1; stroke-dasharray: none; stroke-linecap: butt; stroke-dashoffset: 0; stroke-linejoin: miter; stroke-miterlimit: 4; fill: rgb(255,255,255); fill-rule: nonzero; opacity: 1; visibility: hidden;" vector-effect="non-scaling-stroke"  x="-312.5" y="-137.5" rx="0" ry="0" width="625" height="275" />
</g>
<g transform="matrix(Infinity NaN NaN Infinity 0 0)" id="ad4d9e49-4ad0-4e29-9b05-752ad17abdb9"  >
</g>
<g transform="matrix(3.29 0 0 3.29 312.5 137.5)"  >
<g style="" vector-effect="non-scaling-stroke"   >
		<g transform="matrix(1 0 0 1 0 0)" id="Path_643"  >
<path style="stroke: none; stroke-width: 1; stroke-dasharray: none; stroke-linecap: butt; stroke-dashoffset: 0; stroke-linejoin: miter; stroke-miterlimit: 4; fill: rgb(25,31,39); fill-rule: evenodd; opacity: 1;" vector-effect="non-scaling-stroke"  transform=" translate(-93.55, -35.4)" d="M 93.6 0 C 41.9 0 0 15.9 0 35.4 C 0 54.9 41.9 70.8 93.6 70.8 C 145.2 70.8 187.1 55 187.1 35.4 C 187.1 15.799999999999997 145.2 0 93.6 0 M 93.6 67.2 C 44 67.2 3.7 53 3.7 35.4 C 3.7 17.9 44 3.6 93.6 3.6 C 143.3 3.6 183.6 17.900000000000002 183.6 35.5 C 183.5 53 143.3 67.2 93.6 67.2" stroke-linecap="round" />
</g>
		<g transform="matrix(1 0 0 1 0.05 0.05)" id="Path_644"  >
<path style="stroke: none; stroke-width: 1; stroke-dasharray: none; stroke-linecap: butt; stroke-dashoffset: 0; stroke-linejoin: miter; stroke-miterlimit: 4; fill: rgb(25,31,39); fill-rule: evenodd; opacity: 1;" vector-effect="non-scaling-stroke"  transform=" translate(-93.6, -35.45)" d="M 93.6 6.2 C 45.4 6.2 6.5 19.3 6.5 35.4 C 6.5 51.599999999999994 45.4 64.7 93.6 64.7 C 141.7 64.7 180.7 51.6 180.7 35.400000000000006 C 180.7 19.3 141.7 6.2 93.6 6.2 M 50.9 53.4 C 45.699999999999996 53.4 41 50 40.9 43.8 C 40.8 40.099999999999994 43.9 35.5 49.5 34.099999999999994 C 50.2 34.099999999999994 50.4 34.3 50.4 34.699999999999996 C 50.4 34.9 50.199999999999996 35.199999999999996 49.6 35.49999999999999 C 48 36.099999999999994 45.1 39.29999999999999 45.1 42.29999999999999 C 45.1 44.49999999999999 46.5 46.99999999999999 48.800000000000004 47.49999999999999 C 49.400000000000006 47.599999999999994 50.00000000000001 47.699999999999996 50.7 47.599999999999994 C 56.6 47.599999999999994 63.1 40.99999999999999 70.2 30.999999999999993 C 69.10000000000001 31.099999999999994 64.2 31.599999999999994 63 32.99999999999999 C 62.5 33.39999999999999 62.1 33.199999999999996 62 32.699999999999996 C 62.1 32.4 62.2 32.099999999999994 62.4 31.899999999999995 C 64.3 29.699999999999996 70.1 29.199999999999996 71.5 29.099999999999994 C 76.7 21.099999999999994 83.3 15.999999999999995 85.1 15.699999999999994 C 85.1 15.699999999999994 85 15.699999999999994 85 15.699999999999994 C 80.4 14.599999999999994 76.1 13.699999999999994 72.8 13.699999999999994 C 61.199999999999996 13.699999999999994 56 18.699999999999996 56.199999999999996 23.299999999999994 C 56.3 25.199999999999992 57.8 26.399999999999995 60.099999999999994 25.999999999999993 C 62.49999999999999 25.599999999999994 65.89999999999999 23.299999999999994 66.69999999999999 21.299999999999994 C 66.79999999999998 20.999999999999993 67.19999999999999 20.799999999999994 67.49999999999999 20.899999999999995 C 67.49999999999999 20.899999999999995 67.49999999999999 20.899999999999995 67.49999999999999 20.899999999999995 C 67.69999999999999 21.099999999999994 67.79999999999998 21.399999999999995 67.69999999999999 21.599999999999994 C 67.39999999999999 23.999999999999993 63.79999999999999 30.499999999999993 57.499999999999986 30.499999999999993 C 53.999999999999986 30.499999999999993 51.59999999999999 27.199999999999992 51.69999999999999 23.999999999999993 C 51.79999999999999 17.999999999999993 57.89999999999999 11.999999999999993 72.89999999999999 11.999999999999993 C 76.1 11.999999999999993 79.3 12.299999999999994 82.39999999999999 12.799999999999994 C 89.8 14.199999999999994 97.19999999999999 14.999999999999993 104.69999999999999 15.299999999999994 C 107.99999999999999 15.399999999999993 111.39999999999999 15.299999999999994 114.69999999999999 14.899999999999993 C 117.99999999999999 14.399999999999993 117.29999999999998 14.199999999999994 118.6 14.199999999999994 C 119.8 14.199999999999994 119.8 14.699999999999994 119.8 15.199999999999994 C 119.8 17.099999999999994 113 20.799999999999994 107.3 20.799999999999994 C 98.89999999999999 20.799999999999994 90.1 16.999999999999993 85.5 15.699999999999994 C 85.7 15.899999999999993 85.8 16.199999999999996 85.7 16.499999999999993 C 85.4 16.89999999999999 85.10000000000001 17.199999999999992 84.8 17.499999999999993 C 80.8 20.599999999999994 77.5 24.39999999999999 75 28.799999999999994 C 77.6 28.599999999999994 80.2 28.299999999999994 82.8 27.899999999999995 C 82.7 27.399999999999995 82.6 26.899999999999995 82.6 26.499999999999996 C 82.8 23.899999999999995 84.3 22.299999999999997 86.19999999999999 22.599999999999998 C 87.19999999999999 22.799999999999997 87.99999999999999 23.599999999999998 87.99999999999999 24.7 C 87.89999999999999 25.9 87.29999999999998 27.099999999999998 86.39999999999999 28 C 85.8 28.5 85.19999999999999 28.9 84.49999999999999 29.2 C 84.49999999999999 29.9 85.39999999999999 30.4 86.19999999999999 30.5 C 85.99999999999999 31.2 86.1 31.5 85.79999999999998 31.4 C 84.69999999999999 31.299999999999997 83.69999999999999 30.7 83.29999999999998 29.599999999999998 C 80.89999999999998 29.999999999999996 78.49999999999999 30.299999999999997 73.79999999999998 30.799999999999997 C 62 50.2 58.3 53.4 50.9 53.4 M 133.6 50.2 C 136.2 50.1 141 45.1 142.1 43.900000000000006 C 142.29999999999998 43.60000000000001 142.79999999999998 43.10000000000001 143 43.10000000000001 C 143.20000000000002 43.10000000000001 143.7 43.30000000000001 143.7 43.70000000000001 C 143.5 44.30000000000001 143.2 44.90000000000001 142.7 45.40000000000001 C 140.29999999999998 48.40000000000001 136.29999999999998 53.100000000000016 131.79999999999998 53.20000000000001 C 129.6 53.20000000000001 128.7 52.30000000000001 128.39999999999998 50.50000000000001 C 125.99999999999997 52.10000000000001 123.19999999999997 53.00000000000001 120.29999999999998 53.00000000000001 C 118.19999999999999 53.10000000000001 116.29999999999998 51.800000000000004 115.49999999999999 49.800000000000004 C 114.89999999999999 48.400000000000006 114.79999999999998 46.800000000000004 115.09999999999998 45.300000000000004 C 113.39999999999998 46.1 111.59999999999998 46.400000000000006 109.79999999999998 46.2 C 107.29999999999998 46.1 105.69999999999999 45 104.89999999999998 42 C 101.99999999999997 47.3 101.89999999999998 47.5 98.89999999999998 53 L 94 53 L 100.6 41.8 C 101.3 40.599999999999994 101.8 39.199999999999996 102.19999999999999 37.8 C 102.29999999999998 37.199999999999996 101.89999999999999 36.5 101.29999999999998 36.4 C 101.19999999999999 36.4 101.09999999999998 36.4 101.09999999999998 36.4 C 100.29999999999998 36.4 98.89999999999998 37.199999999999996 97.49999999999999 38.5 C 95.39999999999999 40.8 93.39999999999999 43.2 91.59999999999998 45.8 C 89.19999999999997 49.3 85.19999999999997 53.3 80.79999999999998 53.3 C 77.59999999999998 53.3 74.69999999999999 51.599999999999994 74.09999999999998 48.199999999999996 C 74.09999999999998 48.199999999999996 73.79999999999998 48.99999999999999 70.99999999999999 50.599999999999994 C 70.79999999999998 50.699999999999996 70.19999999999999 51.099999999999994 69.99999999999999 50.99999999999999 C 69.49999999999999 50.599999999999994 69.19999999999999 50.099999999999994 69.09999999999998 49.49999999999999 C 69.29999999999998 49.599999999999994 69.59999999999998 49.29999999999999 70.79999999999998 48.39999999999999 C 71.99999999999999 47.599999999999994 72.89999999999998 46.599999999999994 73.49999999999999 45.39999999999999 C 73.99999999999999 44.29999999999999 74.99999999999999 42.39999999999999 75.69999999999999 41.19999999999999 C 77.49999999999999 37.59999999999999 80.6 33.89999999999999 85.79999999999998 33.69999999999999 C 86.29999999999998 33.59999999999999 86.79999999999998 33.89999999999999 87.09999999999998 34.39999999999999 C 87.39999999999998 34.69999999999999 87.49999999999999 35.099999999999994 87.39999999999998 35.49999999999999 C 84.29999999999998 35.99999999999999 81.59999999999998 37.699999999999996 79.79999999999998 40.199999999999996 C 78.79999999999998 41.699999999999996 78.09999999999998 43.49999999999999 77.69999999999999 45.3 C 77.29999999999998 48 78.6 49.8 80.49999999999999 50.199999999999996 C 83.99999999999999 50.699999999999996 86.89999999999999 48.199999999999996 89.19999999999999 44.3 C 89.89999999999999 42.699999999999996 90.19999999999999 40.9 90.19999999999999 39.199999999999996 C 90.19999999999999 37.9 89.69999999999999 36.599999999999994 88.79999999999998 35.599999999999994 C 88.69999999999999 34.8 89.29999999999998 33.99999999999999 90.19999999999999 33.89999999999999 C 90.19999999999999 33.89999999999999 90.29999999999998 33.89999999999999 90.29999999999998 33.89999999999999 C 90.59999999999998 33.89999999999999 90.79999999999998 33.99999999999999 90.99999999999999 34.099999999999994 C 92.19999999999999 35.599999999999994 92.89999999999999 37.39999999999999 92.89999999999999 39.3 C 92.89999999999999 39.9 92.89999999999999 40.5 92.8 41.099999999999994 C 95.3 37.99999999999999 98.5 33.99999999999999 101 33.3 C 101.5 33.099999999999994 102 33 102.4 33.099999999999994 C 106.9 32.99999999999999 106.30000000000001 37.099999999999994 106.30000000000001 37.099999999999994 C 108.70000000000002 34.3 110.4 33.3 112.60000000000001 33.39999999999999 C 114.30000000000001 33.29999999999999 115.80000000000001 34.69999999999999 115.9 36.39999999999999 C 115.9 36.49999999999999 115.9 36.49999999999999 115.9 36.599999999999994 C 115.9 38.39999999999999 114.5 39.89999999999999 112.7 39.99999999999999 C 111.2 40.099999999999994 109.8 39.099999999999994 109.4 37.599999999999994 C 108.30000000000001 37.99999999999999 107.7 38.8 107.5 40.39999999999999 C 107.2 41.99999999999999 108.3 43.599999999999994 109.9 43.89999999999999 C 110.10000000000001 43.89999999999999 110.4 43.99999999999999 110.60000000000001 43.99999999999999 C 112.9 44.099999999999994 115.00000000000001 43.099999999999994 116.60000000000001 41.49999999999999 C 120.7 37.599999999999994 123.00000000000001 33.599999999999994 128.9 33.699999999999996 C 132.5 33.8 133.4 36.599999999999994 134 37.8 L 141.8 24.599999999999998 L 146.60000000000002 24.599999999999998 L 133.70000000000002 47.5 C 133.3 48.1 133.00000000000003 48.9 132.9 49.6 C 132.7 50.5 134.2 50.2 133.6 50.2" stroke-linecap="round" />
</g>
		<g transform="matrix(1 0 0 1 31.85 7.66)" id="Path_645"  >
<path style="stroke: none; stroke-width: 1; stroke-dasharray: none; stroke-linecap: butt; stroke-dashoffset: 0; stroke-linejoin: miter; stroke-miterlimit: 4; fill: rgb(25,31,39); fill-rule: evenodd; opacity: 1;" vector-effect="non-scaling-stroke"  transform=" translate(-125.4, -43.06)" d="M 128.9 36.3 C 126.80000000000001 36.099999999999994 124.10000000000001 37.9 122 40.5 C 120.8 42.1 120 43.9 119.6 45.9 C 119.39999999999999 47.4 119.8 48.9 120.3 49.3 C 120.8 49.699999999999996 123.3 51 127 47.199999999999996 C 128.6 45.49999999999999 130 43.599999999999994 131.2 41.699999999999996 L 130.5 41.49999999999999 C 131.8 39.1 131.5 36.6 128.9 36.3" stroke-linecap="round" />
</g>
		<g transform="matrix(1 0 0 1 -8.05 -19.7)" id="Path_646"  >
<path style="stroke: none; stroke-width: 1; stroke-dasharray: none; stroke-linecap: butt; stroke-dashoffset: 0; stroke-linejoin: miter; stroke-miterlimit: 4; fill: rgb(25,31,39); fill-rule: evenodd; opacity: 1;" vector-effect="non-scaling-stroke"  transform=" translate(-85.5, -15.7)" d="M 85.4 15.6 C 85.30000000000001 15.6 85.2 15.6 85.2 15.6 C 85.4 15.6 85.60000000000001 15.7 85.8 15.799999999999999 C 85.7 15.7 85.5 15.6 85.4 15.6" stroke-linecap="round" />
</g>
		<g transform="matrix(1 0 0 1 -8.03 -9.56)" id="Path_647"  >
<path style="stroke: none; stroke-width: 1; stroke-dasharray: none; stroke-linecap: butt; stroke-dashoffset: 0; stroke-linejoin: miter; stroke-miterlimit: 4; fill: rgb(25,31,39); fill-rule: evenodd; opacity: 1;" vector-effect="non-scaling-stroke"  transform=" translate(-85.52, -25.84)" d="M 86 26.8 C 86.5 26.2 86.8 25.400000000000002 86.8 24.6 C 86.7 24.200000000000003 86.6 23.8 86.1 23.900000000000002 C 85.3 24.000000000000004 84.6 24.6 84.39999999999999 25.400000000000002 C 84.19999999999999 26.200000000000003 84.19999999999999 27.000000000000004 84.39999999999999 27.8 C 84.5 27.8 85.1 27.9 86 26.8" stroke-linecap="round" />
</g>
</g>
</g>
</svg>