<?xml version="1.0" encoding="UTF-8" standalone="no" ?>
<!DOCTYPE svg PUBLIC "-//W3C//DTD SVG 1.1//EN" "http://www.w3.org/Graphics/SVG/1.1/DTD/svg11.dtd">
<svg xmlns="http://www.w3.org/2000/svg" xmlns:xlink="http://www.w3.org/1999/xlink" version="1.1" width="425" height="275" viewBox="0 0 425 275" xml:space="preserve">
<desc>Created with Fabric.js 5.2.4</desc>
<defs>
</defs>
<rect x="0" y="0" width="100%" height="100%" fill="transparent"></rect>
<g transform="matrix(1 0 0 1 212.5 137.5)" id="7c0501a0-cb12-4c83-98d1-3a7951135b17"  >
<rect style="stroke: none; stroke-width: 1; stroke-dasharray: none; stroke-linecap: butt; stroke-dashoffset: 0; stroke-linejoin: miter; stroke-miterlimit: 4; fill: rgb(255,255,255); fill-rule: nonzero; opacity: 1; visibility: hidden;" vector-effect="non-scaling-stroke"  x="-212.5" y="-137.5" rx="0" ry="0" width="425" height="275" />
</g>
<g transform="matrix(Infinity NaN NaN Infinity 0 0)" id="ad4d9e49-4ad0-4e29-9b05-752ad17abdb9"  >
</g>
<g transform="matrix(1.45 0 0 1.45 212.5 137.5)"  >
<g style="" vector-effect="non-scaling-stroke"   >
		<g transform="matrix(1 0 0 1 -109.25 70.4)"  >
<path style="stroke: none; stroke-width: 1; stroke-dasharray: none; stroke-linecap: butt; stroke-dashoffset: 0; stroke-linejoin: miter; stroke-miterlimit: 4; fill: rgb(0,0,0); fill-rule: nonzero; opacity: 1;" vector-effect="non-scaling-stroke"  transform=" translate(-28.38, -157.65)" d="M 31.778 146.25 L 35.978 146.75 C 37.878 146.95 38.078 148.55 38.078 149.55 L 38.078 154.45000000000002 L 18.778000000000002 154.45000000000002 L 18.778000000000002 149.55 C 18.778000000000002 148.55 18.978 146.95000000000002 20.878000000000004 146.75 L 25.078000000000003 146.25 L 25.078000000000003 142.05 L 0.07800000000000296 142.05 L 0.07800000000000296 146.25 L 4.278000000000003 146.75 C 6.178000000000003 146.95 6.378000000000004 148.55 6.378000000000004 149.55 L 6.378000000000004 165.75 C 6.378000000000004 166.75 6.1780000000000035 168.35 4.278000000000004 168.55 L 0.07800000000000384 169.05 L 0.07800000000000384 173.25 L 25.078000000000003 173.25 L 25.078000000000003 169.05 L 20.878000000000004 168.55 C 18.978000000000005 168.35000000000002 18.778000000000002 166.75 18.778000000000002 165.75 L 18.778000000000002 160.85 L 37.978 160.85 L 37.978 165.75 C 37.978 166.75 37.778 168.35 35.878 168.55 L 31.678 169.05 L 31.678 173.25 L 56.678 173.25 L 56.678 169.05 L 52.477999999999994 168.55 C 50.577999999999996 168.35000000000002 50.37799999999999 166.75 50.37799999999999 165.75 L 50.37799999999999 149.55 C 50.37799999999999 148.55 50.577999999999996 146.95000000000002 52.477999999999994 146.75 L 56.678 146.25 L 56.678 142.05 L 31.677999999999997 142.05 L 31.677999999999997 146.25 L 31.778 146.25 z" stroke-linecap="round" />
</g>
		<g transform="matrix(1 0 0 1 55.25 70.35)"  >
<path style="stroke: none; stroke-width: 1; stroke-dasharray: none; stroke-linecap: butt; stroke-dashoffset: 0; stroke-linejoin: miter; stroke-miterlimit: 4; fill: rgb(0,0,0); fill-rule: nonzero; opacity: 1;" vector-effect="non-scaling-stroke"  transform=" translate(-192.88, -157.6)" d="M 198.278 142.05 L 167.47799999999998 142.05 L 167.47799999999998 146.25 L 171.17799999999997 146.65 C 172.47799999999998 146.85 173.37799999999996 147.35 173.37799999999996 149.15 L 173.37799999999996 165.65 C 173.37799999999996 166.65 173.17799999999997 168.25 171.27799999999996 168.45000000000002 L 167.07799999999997 168.95000000000002 L 167.07799999999997 173.15 L 198.27799999999996 173.15 C 209.47799999999995 173.15 218.67799999999997 168.65 218.67799999999997 157.55 C 218.67799999999997 146.45000000000002 209.47799999999998 142.05 198.27799999999996 142.05 M 195.97799999999995 167.25 L 185.47799999999995 167.25 L 185.47799999999995 148.05 L 195.97799999999995 148.05 C 202.17799999999994 148.05 204.27799999999996 150.95000000000002 204.27799999999996 157.65 C 204.27799999999996 164.25 202.17799999999997 167.25 195.97799999999995 167.25" stroke-linecap="round" />
</g>
		<g transform="matrix(1 0 0 1 108.05 70.35)"  >
<path style="stroke: none; stroke-width: 1; stroke-dasharray: none; stroke-linecap: butt; stroke-dashoffset: 0; stroke-linejoin: miter; stroke-miterlimit: 4; fill: rgb(0,0,0); fill-rule: nonzero; opacity: 1;" vector-effect="non-scaling-stroke"  transform=" translate(-245.68, -157.6)" d="M 271.078 168.55 C 269.078 168.35000000000002 268.47799999999995 167.05 267.878 166.15 L 253.47799999999998 144.15 C 252.47799999999998 142.55 251.67799999999997 142.05 250.17799999999997 142.05 L 226.57799999999997 142.05 L 226.57799999999997 146.25 L 232.27799999999996 146.85 C 233.07799999999997 146.95 234.17799999999997 148.04999999999998 233.27799999999996 149.45 L 222.57799999999997 166.75 C 222.17799999999997 167.45 221.57799999999997 168.25 220.378 168.45 L 216.178 168.95 L 216.178 173.14999999999998 L 236.078 173.14999999999998 L 236.078 168.95 L 232.678 168.64999999999998 C 231.178 168.45 230.378 167.45 231.178 166.24999999999997 L 232.778 163.64999999999998 L 251.97799999999998 163.64999999999998 L 253.378 165.74999999999997 C 254.678 167.64999999999998 253.07799999999997 168.44999999999996 251.678 168.54999999999998 L 248.178 168.95 L 248.178 173.14999999999998 L 275.178 173.14999999999998 L 275.178 168.95 L 271.078 168.54999999999998 z M 236.07799999999997 158.15 L 241.97799999999998 148.55 L 248.278 158.15 L 236.078 158.15 z" stroke-linecap="round" />
</g>
		<g transform="matrix(1 0 0 1 0.2 70.35)"  >
<path style="stroke: none; stroke-width: 1; stroke-dasharray: none; stroke-linecap: butt; stroke-dashoffset: 0; stroke-linejoin: miter; stroke-miterlimit: 4; fill: rgb(0,0,0); fill-rule: nonzero; opacity: 1;" vector-effect="non-scaling-stroke"  transform=" translate(-137.83, -157.6)" d="M 145.178 146.25 L 149.378 146.75 C 151.278 146.95 151.47799999999998 148.55 151.47799999999998 149.55 L 151.47799999999998 165.15 L 134.97799999999998 143.35 C 134.278 142.35 133.57799999999997 142.04999999999998 131.778 142.04999999999998 L 110.37799999999999 142.04999999999998 L 110.37799999999999 146.24999999999997 L 114.57799999999999 146.74999999999997 C 116.478 146.94999999999996 116.67799999999998 148.54999999999998 116.67799999999998 149.54999999999998 L 116.67799999999998 165.74999999999997 C 116.67799999999998 166.74999999999997 116.47799999999998 168.34999999999997 114.57799999999999 168.54999999999998 L 110.37799999999999 169.04999999999998 L 110.37799999999999 173.24999999999997 L 130.378 173.24999999999997 L 130.378 169.04999999999998 L 126.17799999999998 168.54999999999998 C 124.27799999999998 168.35 124.07799999999999 166.74999999999997 124.07799999999999 165.74999999999997 L 124.07799999999999 150.14999999999998 L 140.57799999999997 171.84999999999997 C 141.378 172.84999999999997 141.97799999999998 173.14999999999998 143.77799999999996 173.14999999999998 L 158.97799999999995 173.14999999999998 L 158.97799999999995 149.45 C 158.97799999999995 148.45 159.17799999999994 146.85 161.07799999999995 146.64999999999998 L 165.27799999999993 146.14999999999998 L 165.27799999999993 141.95 L 145.37799999999993 141.95 L 145.17799999999994 146.25 z" stroke-linecap="round" />
</g>
		<g transform="matrix(1 0 0 1 -54.15 70.35)"  >
<path style="stroke: none; stroke-width: 1; stroke-dasharray: none; stroke-linecap: butt; stroke-dashoffset: 0; stroke-linejoin: miter; stroke-miterlimit: 4; fill: rgb(0,0,0); fill-rule: nonzero; opacity: 1;" vector-effect="non-scaling-stroke"  transform=" translate(-83.48, -157.6)" d="M 83.478 140.95 C 63.178 140.95 57.977999999999994 149.85 57.977999999999994 157.54999999999998 C 57.977999999999994 165.24999999999997 63.178 174.24999999999997 83.478 174.24999999999997 C 103.77799999999999 174.24999999999997 108.978 165.34999999999997 108.978 157.64999999999998 C 108.978 149.84999999999997 103.77799999999999 140.95 83.478 140.95 M 83.478 168.35 C 75.57799999999999 168.35 72.378 165.04999999999998 72.378 157.65 C 72.378 150.25 75.678 146.95000000000002 83.478 146.95000000000002 C 91.378 146.95000000000002 94.57799999999999 150.25000000000003 94.57799999999999 157.65 C 94.57799999999999 165.05 91.37799999999999 168.35 83.478 168.35" stroke-linecap="round" />
</g>
		<g transform="matrix(1 0 0 1 0.1 -25.6)"  >
<path style="stroke: none; stroke-width: 1; stroke-dasharray: none; stroke-linecap: butt; stroke-dashoffset: 0; stroke-linejoin: miter; stroke-miterlimit: 4; fill: rgb(0,0,0); fill-rule: nonzero; opacity: 1;" vector-effect="non-scaling-stroke"  transform=" translate(-137.73, -61.65)" d="M 172.178 10.55 C 168.778 25.85 167.378 32.95 164.578 43.95 C 161.87800000000001 54.550000000000004 159.778 64.45 156.178 69.25 C 152.578 74.15 147.678 75.15 144.378 75.55 C 142.678 75.75 141.378 75.85 137.678 75.85 C 133.978 75.85 132.678 75.75 130.978 75.55 C 127.67800000000001 75.14999999999999 122.778 74.14999999999999 119.17800000000001 69.25 C 115.57800000000002 64.45 113.47800000000001 54.55 110.87800000000001 43.95 C 108.07800000000002 32.85 106.67800000000001 25.85 103.27800000000002 10.550000000000004 C 103.27800000000002 10.550000000000004 99.87800000000001 10.650000000000004 98.37800000000001 10.750000000000004 C 96.27800000000002 10.850000000000003 94.67800000000001 11.050000000000004 92.97800000000001 11.250000000000004 C 92.97800000000001 11.250000000000004 94.97800000000001 42.75 95.87800000000001 56.150000000000006 C 96.77800000000002 70.15 98.47800000000001 93.85000000000001 99.97800000000001 111.75 C 99.97800000000001 111.75 102.87800000000001 112.25 107.67800000000001 112.45 C 112.67800000000001 112.75 114.97800000000001 112.75 114.97800000000001 112.75 C 117.078 104.85 119.578 93.95 122.47800000000001 89.25 C 124.87800000000001 85.45 128.478 85.05 130.578 84.75 C 133.778 84.35 136.578 84.25 137.778 84.25 C 139.078 84.25 141.778 84.25 144.97799999999998 84.75 C 147.07799999999997 85.05 150.67799999999997 85.45 153.07799999999997 89.25 C 155.97799999999998 93.95 158.57799999999997 104.85 160.57799999999997 112.75 C 160.57799999999997 112.75 162.77799999999996 112.75 167.77799999999996 112.45 C 172.57799999999997 112.15 175.47799999999995 111.75 175.47799999999995 111.75 C 176.97799999999995 93.85 178.67799999999994 70.25 179.57799999999995 56.15 C 180.47799999999995 42.849999999999994 182.47799999999995 11.25 182.47799999999995 11.25 C 180.77799999999996 11.05 179.07799999999995 10.85 177.07799999999995 10.75 C 175.57799999999995 10.65 172.17799999999994 10.55 172.17799999999994 10.55" stroke-linecap="round" />
</g>
		<g transform="matrix(1 0 0 1 0.23 -26.2)"  >
<path style="stroke: none; stroke-width: 1; stroke-dasharray: none; stroke-linecap: butt; stroke-dashoffset: 0; stroke-linejoin: miter; stroke-miterlimit: 4; fill: rgb(0,0,0); fill-rule: nonzero; opacity: 1;" vector-effect="non-scaling-stroke"  transform=" translate(-137.86, -61.05)" d="M 211.878 29.15 C 209.878 9.149999999999999 196.47799999999998 4.949999999999999 184.778 2.9499999999999993 C 178.878 1.9499999999999993 168.378 1.1499999999999992 161.678 0.8499999999999992 C 155.778 0.4499999999999992 141.978 0.24999999999999922 137.778 0.24999999999999922 C 133.57799999999997 0.24999999999999922 119.77799999999999 0.44999999999999923 113.87799999999999 0.8499999999999992 C 107.17799999999998 1.1499999999999992 96.67799999999998 1.9499999999999993 90.77799999999999 2.9499999999999993 C 79.07799999999999 4.949999999999999 65.678 9.149999999999999 63.67799999999999 29.15 C 63.07799999999999 34.65 62.97799999999999 41.75 63.07799999999999 49.349999999999994 C 63.27799999999999 62.05 64.37799999999999 70.55 64.978 76.55 C 65.378 80.64999999999999 67.07799999999999 92.85 69.27799999999999 99.15 C 72.27799999999999 107.85000000000001 74.978 110.35000000000001 78.178 112.95 C 83.978 117.65 93.578 119.15 95.578 119.55 C 106.378 121.45 128.178 121.85 137.878 121.85 C 147.47799999999998 121.85 169.378 121.55 180.178 119.55 C 182.178 119.14999999999999 191.778 117.75 197.578 112.95 C 200.778 110.35000000000001 203.478 107.85000000000001 206.478 99.15 C 208.678 92.85000000000001 210.37800000000001 80.55000000000001 210.77800000000002 76.55000000000001 C 211.37800000000001 70.65 212.478 62.05000000000001 212.67800000000003 49.35000000000001 C 212.57800000000003 41.650000000000006 212.37800000000001 34.55000000000001 211.87800000000001 29.15000000000001 M 204.478 62.750000000000014 C 203.27800000000002 78.75000000000001 201.87800000000001 88.35000000000002 199.87800000000001 95.25000000000001 C 198.078 101.35000000000001 195.87800000000001 105.35000000000001 192.67800000000003 108.25000000000001 C 187.27800000000002 113.15000000000002 179.87800000000001 114.15000000000002 175.47800000000004 114.85000000000001 C 166.07800000000003 116.25000000000001 150.17800000000003 116.75000000000001 137.77800000000002 116.75000000000001 C 125.27800000000002 116.75000000000001 109.47800000000002 116.25000000000001 100.07800000000002 114.85000000000001 C 95.67800000000001 114.15 88.27800000000002 113.15 82.87800000000001 108.25000000000001 C 79.67800000000001 105.35000000000001 77.47800000000001 101.25000000000001 75.67800000000001 95.25000000000001 C 73.67800000000001 88.35000000000001 72.17800000000001 78.75000000000001 71.07800000000002 62.750000000000014 C 70.37800000000001 53.15000000000001 70.47800000000002 37.55000000000001 71.57800000000002 29.150000000000013 C 73.07800000000002 16.55000000000001 79.27800000000002 10.250000000000014 92.57800000000002 7.9500000000000135 C 98.77800000000002 6.850000000000014 107.17800000000001 6.050000000000013 115.07800000000002 5.650000000000014 C 121.47800000000002 5.250000000000013 131.87800000000001 5.050000000000014 137.77800000000002 5.050000000000014 C 143.57800000000003 4.950000000000014 154.07800000000003 5.250000000000014 160.37800000000001 5.650000000000014 C 168.27800000000002 6.050000000000014 176.67800000000003 6.850000000000014 182.87800000000001 7.9500000000000135 C 196.17800000000003 10.350000000000014 202.37800000000001 16.650000000000013 203.978 29.150000000000013 C 205.078 37.45000000000002 205.178 53.05000000000001 204.478 62.750000000000014" stroke-linecap="round" />
</g>
</g>
</g>
</svg>