<?xml version="1.0" encoding="UTF-8" standalone="no" ?>
<!DOCTYPE svg PUBLIC "-//W3C//DTD SVG 1.1//EN" "http://www.w3.org/Graphics/SVG/1.1/DTD/svg11.dtd">
<svg xmlns="http://www.w3.org/2000/svg" xmlns:xlink="http://www.w3.org/1999/xlink" version="1.1" width="625" height="275" viewBox="0 0 625 275" xml:space="preserve">
<desc>Created with Fabric.js 5.2.4</desc>
<defs>
</defs>
<rect x="0" y="0" width="100%" height="100%" fill="transparent"></rect>
<g transform="matrix(1 0 0 1 312.5 137.5)" id="7c0501a0-cb12-4c83-98d1-3a7951135b17"  >
<rect style="stroke: none; stroke-width: 1; stroke-dasharray: none; stroke-linecap: butt; stroke-dashoffset: 0; stroke-linejoin: miter; stroke-miterlimit: 4; fill: rgb(255,255,255); fill-rule: nonzero; opacity: 1; visibility: hidden;" vector-effect="non-scaling-stroke"  x="-312.5" y="-137.5" rx="0" ry="0" width="625" height="275" />
</g>
<g transform="matrix(Infinity NaN NaN Infinity 0 0)" id="ad4d9e49-4ad0-4e29-9b05-752ad17abdb9"  >
</g>
<g transform="matrix(3.25 0 0 3.25 312.5 137.5)"  >
<g style="" vector-effect="non-scaling-stroke"   >
		<g transform="matrix(1 0 0 1 -75 30)" id="Path_664"  >
<path style="stroke: none; stroke-width: 1; stroke-dasharray: none; stroke-linecap: butt; stroke-dashoffset: 0; stroke-linejoin: miter; stroke-miterlimit: 4; fill: rgb(25,31,39); fill-rule: nonzero; opacity: 1;" vector-effect="non-scaling-stroke"  transform=" translate(-12.85, -71.2)" d="M 19 60.8 L 19 68.3 L 6.8 68.3 L 6.8 60.8 L 0 60.8 L 0 81.69999999999999 L 6.7 81.69999999999999 L 6.7 72.89999999999999 L 19 72.89999999999999 L 19 81.69999999999999 L 25.7 81.69999999999999 L 25.7 60.69999999999999 L 19 60.69999999999999 z" stroke-linecap="round" />
</g>
		<g transform="matrix(1 0 0 1 -47.95 30.1)" id="Path_665"  >
<path style="stroke: none; stroke-width: 1; stroke-dasharray: none; stroke-linecap: butt; stroke-dashoffset: 0; stroke-linejoin: miter; stroke-miterlimit: 4; fill: rgb(25,31,39); fill-rule: nonzero; opacity: 1;" vector-effect="non-scaling-stroke"  transform=" translate(-39.9, -71.3)" d="M 46.9 60.8 L 40 68.9 L 33 60.800000000000004 L 26.4 60.800000000000004 L 36.6 73 L 36.6 81.8 L 43.300000000000004 81.8 L 43.300000000000004 73.6 L 53.400000000000006 60.8 L 46.9 60.8 z" stroke-linecap="round" />
</g>
		<g transform="matrix(1 0 0 1 -20.05 30.05)" id="Path_666"  >
<path style="stroke: none; stroke-width: 1; stroke-dasharray: none; stroke-linecap: butt; stroke-dashoffset: 0; stroke-linejoin: miter; stroke-miterlimit: 4; fill: rgb(25,31,39); fill-rule: evenodd; opacity: 1;" vector-effect="non-scaling-stroke"  transform=" translate(-67.8, -71.25)" d="M 54.3 60.8 L 61 60.8 L 61 77 L 71.8 77 C 73.5 77 74.6 75.3 74.6 73.5 L 74.6 60.8 L 81.3 60.8 L 81.3 77.5 C 81.3 80.1 78.3 81.7 76.6 81.7 L 54.3 81.7 L 54.3 60.8 z" stroke-linecap="round" />
</g>
		<g transform="matrix(1 0 0 1 8.55 30.09)" id="Path_667"  >
<path style="stroke: none; stroke-width: 1; stroke-dasharray: none; stroke-linecap: butt; stroke-dashoffset: 0; stroke-linejoin: miter; stroke-miterlimit: 4; fill: rgb(25,31,39); fill-rule: evenodd; opacity: 1;" vector-effect="non-scaling-stroke"  transform=" translate(-96.4, -71.29)" d="M 82.8 60.8 L 105.19999999999999 60.8 C 107.69999999999999 60.599999999999994 109.79999999999998 62.5 109.99999999999999 65 C 109.99999999999999 65.2 109.99999999999999 65.5 109.99999999999999 65.7 L 109.99999999999999 81.80000000000001 L 103.29999999999998 81.80000000000001 L 103.29999999999998 69 C 103.29999999999998 67.2 102.69999999999999 66.2 100.39999999999998 66.2 L 90.2 66.2 L 90.2 81.8 L 82.8 81.8 L 82.8 60.8 z" stroke-linecap="round" />
</g>
		<g transform="matrix(1 0 0 1 37.35 30.1)" id="Path_668"  >
<path style="stroke: none; stroke-width: 1; stroke-dasharray: none; stroke-linecap: butt; stroke-dashoffset: 0; stroke-linejoin: miter; stroke-miterlimit: 4; fill: rgb(25,31,39); fill-rule: evenodd; opacity: 1;" vector-effect="non-scaling-stroke"  transform=" translate(-125.2, -71.3)" d="M 112 60.8 L 131.5 60.8 C 135.4 60.8 138.4 63.9 138.4 66.39999999999999 L 138.4 76 C 138.4 77.7 136 81.8 133 81.8 L 112 81.8 L 112 60.8 z M 118.8 77.1 L 129.1 77.1 C 130.5 77.19999999999999 131.7 76.1 131.7 74.69999999999999 C 131.7 74.69999999999999 131.7 74.69999999999999 131.7 74.69999999999999 L 131.7 68.6 C 131.7 67.1 130.5 66.19999999999999 128.89999999999998 66.19999999999999 L 118.69999999999997 66.19999999999999 L 118.69999999999997 77.1 z" stroke-linecap="round" />
</g>
		<g transform="matrix(1 0 0 1 65.85 30.05)" id="Path_669"  >
<path style="stroke: none; stroke-width: 1; stroke-dasharray: none; stroke-linecap: butt; stroke-dashoffset: 0; stroke-linejoin: miter; stroke-miterlimit: 4; fill: rgb(25,31,39); fill-rule: evenodd; opacity: 1;" vector-effect="non-scaling-stroke"  transform=" translate(-153.7, -71.25)" d="M 146.7 60.7 L 167.7 60.7 L 167.7 81.80000000000001 L 160.2 81.80000000000001 L 160.2 76.4 L 147.29999999999998 76.4 L 147.29999999999998 81.80000000000001 L 139.7 81.80000000000001 L 139.7 68.1 C 139.7 64.1 142.8 60.8 146.7 60.7 M 147.2 68.2 L 147.2 71.60000000000001 L 160.1 71.60000000000001 L 160.1 66.2 L 149.2 66.2 C 148.2 66.10000000000001 147.29999999999998 66.8 147.2 67.9 C 147.2 68 147.2 68.1 147.2 68.2" stroke-linecap="round" />
</g>
		<g transform="matrix(1 0 0 1 84.5 30.35)" id="Rectangle_777"  >
<rect style="stroke: none; stroke-width: 1; stroke-dasharray: none; stroke-linecap: butt; stroke-dashoffset: 0; stroke-linejoin: miter; stroke-miterlimit: 4; fill: rgb(25,31,39); fill-rule: nonzero; opacity: 1;" vector-effect="non-scaling-stroke"  x="-3.35" y="-10.85" rx="0" ry="0" width="6.7" height="21.7" />
</g>
		<g transform="matrix(1 0 0 1 0.45 -16.3)" id="Path_670"  >
<path style="stroke: none; stroke-width: 1; stroke-dasharray: none; stroke-linecap: butt; stroke-dashoffset: 0; stroke-linejoin: miter; stroke-miterlimit: 4; fill: rgb(25,31,39); fill-rule: evenodd; opacity: 1;" vector-effect="non-scaling-stroke"  transform=" translate(-88.3, -24.9)" d="M 88.3 0 C 60.4 0 37.8 11.2 37.8 24.9 C 37.8 38.599999999999994 60.4 49.8 88.3 49.8 C 116.19999999999999 49.8 138.8 38.599999999999994 138.8 24.9 C 138.8 11.200000000000003 116.1 0 88.3 0 M 83.5 5.5 C 89.3 3.5 106.4 5.5 113 8.7 C 115.1 10.7 103.5 17.299999999999997 89.7 20.1 C 69.9 24.2 79.3 8.9 83.5 5.5 M 49.6 35.1 C 45.300000000000004 32 36.7 23.1 50.800000000000004 13.900000000000002 C 55.900000000000006 10.700000000000003 61.60000000000001 8.600000000000001 67.60000000000001 7.500000000000002 C 70.10000000000001 7.000000000000002 71.9 7.600000000000001 69.60000000000001 9.400000000000002 C 64.9 14.300000000000002 55.20000000000001 30.400000000000002 54.30000000000001 34 C 53.5 36.4 52.1 37 49.6 35.1 M 90.1 45.3 C 81.8 46.199999999999996 63.199999999999996 43.4 62.89999999999999 41 C 63.29999999999999 35.2 92.29999999999998 25.7 97.6 31 C 99.8 35.2 95.5 45.1 90.1 45.3 M 132.5 28.6 C 130.4 33.5 123.2 39 108.1 42.7 C 105.8 43.2 105 41.800000000000004 106.5 40.5 C 109 39 120.9 19 122.5 15 C 123.4 13 125.1 13.8 126.1 14.6 C 130.9 17.6 134.5 22.7 132.5 28.6" stroke-linecap="round" />
</g>
</g>
</g>
</svg>