<?xml version="1.0" encoding="UTF-8" standalone="no" ?>
<!DOCTYPE svg PUBLIC "-//W3C//DTD SVG 1.1//EN" "http://www.w3.org/Graphics/SVG/1.1/DTD/svg11.dtd">
<svg xmlns="http://www.w3.org/2000/svg" xmlns:xlink="http://www.w3.org/1999/xlink" version="1.1" width="525" height="275" viewBox="0 0 525 275" xml:space="preserve">
<desc>Created with Fabric.js 5.2.4</desc>
<defs>
</defs>
<g transform="matrix(1 0 0 1 262.5 137.5)" id="efb574f4-8df5-4d58-bc31-f60797c636cc"  >
<rect style="stroke: none; stroke-width: 1; stroke-dasharray: none; stroke-linecap: butt; stroke-dashoffset: 0; stroke-linejoin: miter; stroke-miterlimit: 4; fill: rgb(255,255,255); fill-rule: nonzero; opacity: 1; visibility: hidden;" vector-effect="non-scaling-stroke"  x="-262.5" y="-137.5" rx="0" ry="0" width="525" height="275" />
</g>
<g transform="matrix(Infinity NaN NaN Infinity 0 0)" id="14bed3e2-41de-48a8-bb87-8fe160ed9390"  >
</g>
<g transform="matrix(0.21 0 0 0.21 262.5 137.5)"  >
<g style="" vector-effect="non-scaling-stroke"   >
		<g transform="matrix(12.97 0 0 12.97 0 0)"  >
<path style="stroke: none; stroke-width: 1; stroke-dasharray: none; stroke-linecap: butt; stroke-dashoffset: 0; stroke-linejoin: miter; stroke-miterlimit: 4; fill: rgb(255,255,255); fill-opacity: 0; fill-rule: evenodd; opacity: 1;" vector-effect="non-scaling-stroke"  transform=" translate(-96.38, -96.38)" d="M 0 0 L 192.756 0 L 192.756 192.756 L 0 192.756 L 0 0 z" stroke-linecap="round" />
</g>
		<g transform="matrix(12.97 0 0 12.97 -4.45 311.86)"  >
<path style="stroke: none; stroke-width: 1; stroke-dasharray: none; stroke-linecap: butt; stroke-dashoffset: 0; stroke-linejoin: miter; stroke-miterlimit: 4; fill: rgb(0,0,0); fill-rule: evenodd; opacity: 1;" vector-effect="non-scaling-stroke"  transform=" translate(-96.03, -120.42)" d="M 48.438 129.934 C 47.778000000000006 129.389 46.847 127.598 46.536 126.93599999999999 L 35.98 101.557 L 32.913999999999994 101.557 L 23.211999999999996 125.769 C 22.784999999999997 126.85900000000001 21.024999999999995 130.012 20.688999999999997 130.518 C 20.378999999999998 130.985 19.912999999999997 131.763 21.076999999999998 131.763 L 24.880999999999997 131.763 L 27.917999999999996 124.13300000000001 L 39.007 124.13300000000001 L 42.19 131.763 L 48.283 131.763 C 49.175000000000004 131.763 49.294000000000004 130.641 48.438 129.934 z M 29.463 120.404 L 33.344 110.51599999999999 L 37.458 120.404 L 29.462999999999997 120.404 z M 137.766 129.934 C 137.106 129.389 136.17399999999998 127.598 135.864 126.93599999999999 L 125.307 101.55699999999999 L 122.241 101.55699999999999 L 112.53999999999999 125.76899999999999 C 112.112 126.859 110.35199999999999 130.012 110.017 130.518 C 109.70599999999999 130.985 109.24199999999999 131.763 110.40599999999999 131.763 L 114.20899999999999 131.763 L 117.246 124.13300000000001 L 128.33599999999998 124.13300000000001 L 131.51799999999997 131.763 L 137.61199999999997 131.763 C 138.50199999999995 131.763 138.62099999999995 130.641 137.76599999999996 129.934 z M 118.791 120.404 L 122.672 110.51599999999999 L 126.785 120.404 L 118.791 120.404 z M 9.82 105.581 L 9.82 126.44500000000001 C 9.82 135.475 3.766 138.59 2.8340000000000005 139.757 L 9.665000000000001 139.757 C 13.494000000000002 137.172 15.874 131.59900000000002 15.874 128.157 L 15.874 101.531 L 9.82 101.531 C 9.121 101.531 8.734 101.99900000000001 9.044 102.777 C 9.354000000000001 103.557 9.743 104.258 9.82 105.581 z M 70.666 117.281 L 76.721 117.281 L 76.721 130.205 C 74.935 131.37300000000002 72.45100000000001 132.46300000000002 67.096 132.46300000000002 C 61.74 132.46300000000002 51.106 129.89400000000003 51.106 116.42600000000002 C 51.106 102.95700000000002 64.379 101.08900000000001 67.32900000000001 101.08900000000001 C 70.27900000000001 101.08900000000001 74.16000000000001 101.78900000000002 76.25500000000001 102.64600000000002 L 76.25500000000001 107.08400000000002 C 74.62500000000001 106.53900000000002 72.21900000000001 104.74900000000002 67.71700000000001 104.74900000000002 C 62.594000000000015 104.74900000000002 57.549000000000014 108.95200000000003 57.47100000000001 116.89400000000002 C 57.39300000000001 124.83500000000002 62.98200000000001 131.14000000000001 70.66600000000001 128.41500000000002 L 70.66600000000001 120.47500000000002 C 70.62700000000001 119.61900000000003 70.51100000000001 118.99600000000002 70.123 118.45100000000002 C 69.833 118.04400000000003 69.65700000000001 117.28100000000002 70.66600000000001 117.28100000000002 z M 106.896 122.574 L 106.896 105.72 C 106.935 104.864 107.634 103.268 108.023 102.723 C 108.312 102.317 108.488 101.55499999999999 107.478 101.55499999999999 L 102.9 101.55499999999999 C 101.89 101.55499999999999 102.06800000000001 102.317 102.357 102.723 C 102.744 103.268 103.443 104.864 103.482 105.72 L 103.482 120.473 C 103.482 124.911 100.298 128.881 95.72 128.881 C 91.14 128.881 89.199 124.131 89.199 121.641 L 89.199 101.555 L 83.145 101.555 C 82.136 101.555 82.312 102.31700000000001 82.601 102.72300000000001 C 82.99 103.26800000000001 83.106 103.89000000000001 83.145 104.74600000000001 L 83.145 122.263 C 83.145 127.557 88.966 132.38400000000001 95.719 132.38400000000001 C 102.473 132.38400000000001 106.89599999999999 126.46700000000001 106.89599999999999 122.57400000000001 z M 149.875 126.897 C 149.875 127.48 150.342 129.77700000000002 150.652 130.517 C 150.963 131.256 150.535 131.762 149.875 131.762 L 143.822 131.762 L 143.822 104.747 C 143.78300000000002 103.891 143.666 103.268 143.27700000000002 102.724 C 142.99 102.318 142.812 101.556 143.822 101.556 L 152.67000000000002 101.556 C 154.92200000000003 101.556 162.60600000000002 101.323 162.68400000000003 109.964 C 162.76200000000003 112.29899999999999 162.68400000000003 114.402 159.11400000000003 116.815 C 158.41500000000002 117.282 158.02600000000004 117.905 158.57100000000003 118.839 C 159.11400000000003 119.773 163.34400000000002 127.285 163.34400000000002 127.285 C 164.04100000000003 128.375 165.22100000000003 130.003 165.633 130.321 C 166.137 130.71099999999998 166.293 131.761 165.44 131.761 L 159.192 131.761 L 151.77800000000002 118.29299999999999 C 151.31300000000002 117.437 151.31300000000002 116.657 152.39900000000003 116.347 C 153.76800000000003 115.954 156.70800000000003 116.11399999999999 156.70800000000003 109.80699999999999 C 156.70800000000003 103.92899999999999 152.67100000000002 104.63 151.35300000000004 104.63 C 150.03300000000004 104.63 149.87600000000003 105.603 149.87600000000003 107.00399999999999 L 149.87500000000003 126.89699999999999 z M 18.784 136.465 L 18.784 138.488 L 189.236 138.488 L 189.236 136.465 L 18.784 136.465 z" stroke-linecap="round" />
</g>
		<g transform="matrix(12.97 0 0 12.97 281.5 -210.24)"  >
<path style="stroke: none; stroke-width: 1; stroke-dasharray: none; stroke-linecap: butt; stroke-dashoffset: 0; stroke-linejoin: miter; stroke-miterlimit: 4; fill: rgb(0,0,0); fill-rule: evenodd; opacity: 1;" vector-effect="non-scaling-stroke"  transform=" translate(-118.08, -80.17)" d="M 186.389 96.403 L 181.073 96.403 C 178.118 96.477 176.649 94.885 176.001 94.361 C 157.439 80.988 122.819 65.807 91.617 55.298 C 87.58 54.052 81.60300000000001 53.196000000000005 77.878 53.196000000000005 C 74.15299999999999 53.196000000000005 72.367 52.885000000000005 68.486 53.040000000000006 C 64.763 53.18900000000001 60.879000000000005 53.818000000000005 58.706 54.44100000000001 C 56.533 55.064000000000014 51.643 56.30900000000001 51.410000000000004 59.26800000000001 C 49.547000000000004 60.66900000000001 47.646 62.577000000000005 46.869 63.355000000000004 C 46.092 64.13300000000001 45.821 65.65100000000001 47.373 67.364 C 48.925 69.07600000000001 50.788999999999994 70.789 52.03 70.01100000000001 C 53.27100000000001 69.23300000000002 52.961 68.29800000000002 53.427 67.364 C 53.893 66.42999999999999 55.446 65.02900000000001 56.998 66.741 C 58.55 68.45299999999999 57.58 69.193 56.687 70.011 C 55.86 70.768 54.202999999999996 72.191 55.29 73.592 C 56.376 74.993 57.619 75.461 59.326 74.215 C 60.579 73.301 63.93 71.381 65.872 70.3 C 66.35 70.00999999999999 66.93299999999999 69.31 69.05799999999999 70.169 C 71.345 71.04599999999999 74.87899999999999 72.619 76.363 73.43599999999999 L 73.142 74.91499999999999 C 71.434 76.005 69.959 79.08099999999999 69.804 80.16999999999999 C 69.649 81.88199999999999 70.27 84.33599999999998 72.598 86.35899999999998 L 77.643 86.35899999999998 L 80.67 82 L 80.437 81.533 C 84.318 81.065 94.875 84.258 99.84299999999999 82.311 C 103.25699999999999 83.712 109.31199999999998 84.49100000000001 120.48899999999999 83.40100000000001 C 122.50699999999999 83.245 125.26199999999999 82.81700000000001 126.969 85.03600000000002 C 128.73499999999999 87.32800000000002 137.408 96.48000000000002 140.203 97.41400000000002 C 142.998 98.34900000000002 154.641 98.34900000000002 157.668 98.89300000000001 C 160.28300000000002 99.36400000000002 161.316 98.89300000000001 163.49 101.38400000000001 L 168.14600000000002 105.51000000000002 C 168.68900000000002 106.13300000000002 170.32000000000002 107.34000000000002 172.18300000000002 107.34000000000002 L 175.40400000000002 107.34000000000002 C 177.26700000000002 107.18400000000001 178.27500000000003 105.86100000000002 178.74200000000002 104.30400000000002 L 186.65800000000002 104.30400000000002 C 189.14200000000002 104.30400000000002 189.92000000000002 102.08500000000002 189.92000000000002 100.06100000000002 C 189.92000000000002 98.03700000000002 188.562 96.40300000000002 186.389 96.40300000000002 z M 186.428 102.438 L 178.938 102.438 C 178.51 99.128 176.065 98.664 174.66799999999998 98.584 C 173.30899999999997 98.507 172.26199999999997 97.962 171.641 97.572 C 171.641 97.572 166.596 93.056 165.19799999999998 91.577 C 163.802 90.098 162.86999999999998 89.631 161.54999999999998 89.631 L 156.97199999999998 89.631 C 156.04 89.631 154.95199999999997 89.709 153.39999999999998 87.607 C 151.849 85.504 147.89 82.157 146.87999999999997 81.457 C 145.87199999999996 80.756 145.63799999999998 81.535 146.25899999999996 82.08 C 146.80199999999996 82.625 149.36399999999995 84.26 150.91699999999994 86.829 C 152.46999999999994 89.39799999999998 153.78799999999995 90.722 154.87599999999995 91.267 C 155.80599999999995 91.89 158.67899999999995 91.81099999999999 160.38599999999994 91.81099999999999 C 162.09499999999994 91.81099999999999 162.71599999999995 91.967 164.11299999999994 93.368 C 165.50999999999993 94.76899999999999 168.69299999999996 97.57199999999999 169.54699999999994 98.50699999999999 C 170.40099999999995 99.44099999999999 171.87499999999994 100.297 173.97099999999995 100.297 C 176.06699999999995 100.297 177.07599999999994 101.61999999999999 176.99799999999993 102.866 C 176.92599999999993 104.034 176.29899999999992 105.357 175.36699999999993 105.357 L 172.02899999999994 105.357 C 171.48599999999993 105.357 170.24399999999994 104.579 169.93299999999994 104.267 C 168.84699999999992 103.48899999999999 166.12999999999994 101.15299999999999 164.57799999999995 99.518 C 163.02599999999995 97.88300000000001 161.47399999999993 97.415 159.37899999999993 97.105 C 157.28299999999993 96.793 148.58799999999994 96.40400000000001 146.64899999999994 96.327 C 144.70799999999994 96.249 141.75799999999995 96.249 139.66299999999995 94.925 C 137.60199999999995 93.62299999999999 129.41699999999994 84.649 128.01999999999995 83.014 C 126.38899999999995 81.145 123.94599999999996 81.37899999999999 122.47099999999995 81.33999999999999 C 107.95499999999994 82.93599999999999 102.79299999999995 81.457 101.24099999999994 80.52199999999999 L 102.75499999999994 77.91399999999999 C 107.29599999999994 78.96499999999999 113.50499999999994 77.95299999999999 114.35999999999994 77.71999999999998 C 115.21399999999994 77.48599999999999 115.05699999999995 76.62999999999998 114.20399999999994 76.78499999999998 C 112.26499999999993 77.01899999999998 103.80399999999993 76.00699999999998 102.94799999999994 75.85099999999998 C 102.87199999999994 73.67099999999998 97.98099999999994 67.13099999999999 97.35999999999994 65.88599999999998 C 96.73899999999995 64.63999999999999 97.28399999999995 63.86199999999998 97.90299999999995 63.31699999999998 C 98.52399999999994 62.77199999999998 98.52399999999994 62.07199999999998 97.98099999999995 62.07199999999998 C 95.73099999999995 62.30499999999998 95.18699999999995 64.09599999999998 95.65299999999995 66.27599999999998 C 96.11799999999995 68.45599999999999 100.92999999999995 74.76099999999998 100.61999999999995 76.24099999999999 C 100.30899999999994 77.71999999999998 98.83499999999995 79.78299999999999 97.98099999999995 80.63899999999998 C 93.78999999999995 81.65099999999998 84.47599999999996 79.15999999999998 79.11999999999995 79.31499999999998 C 77.06299999999995 79.37499999999999 77.41199999999995 81.14499999999998 78.14999999999995 81.76799999999999 L 76.44199999999995 84.25899999999999 L 73.99699999999996 84.25899999999999 C 72.67699999999996 83.86899999999999 72.21199999999996 81.84499999999998 71.97799999999995 80.83299999999998 C 72.03799999999995 80.17599999999999 72.52099999999996 78.26399999999998 74.15099999999995 76.86299999999999 C 77.44999999999996 74.02699999999999 90.60699999999996 75.30599999999998 91.77099999999996 75.30599999999998 C 92.93599999999996 75.30599999999998 92.62499999999996 74.76099999999998 91.92699999999996 74.52699999999999 C 90.68499999999996 74.21599999999998 86.91999999999996 73.204 84.70799999999997 73.12599999999999 C 84.20399999999997 71.64699999999999 83.27199999999996 70.59599999999999 82.96099999999997 69.15499999999999 C 82.69599999999997 67.92699999999999 83.03899999999997 66.39099999999999 83.46499999999997 65.457 C 84.04699999999997 63.666 82.80499999999998 63.93899999999999 82.37899999999998 64.445 C 81.79599999999998 65.30099999999999 80.32199999999997 67.20899999999999 80.24399999999997 68.61 C 80.16599999999997 70.011 81.60199999999998 72.503 81.99099999999997 73.126 C 81.29199999999997 73.126 80.04999999999997 73.20400000000001 79.50699999999998 73.20400000000001 C 75.74199999999998 70.012 68.98899999999998 67.87100000000001 67.66999999999997 67.40400000000001 C 67.90199999999997 66.781 68.25199999999997 66.11900000000001 68.48499999999997 65.34100000000001 C 68.71799999999998 64.563 69.18399999999997 64.718 69.72699999999998 64.87400000000001 C 70.50299999999997 65.263 74.15099999999998 66.587 75.31599999999997 67.05400000000002 C 76.47999999999998 67.52100000000002 77.56699999999998 67.28700000000002 78.10999999999997 66.82000000000002 C 78.65299999999998 66.35300000000002 80.43799999999997 64.79600000000002 81.21399999999997 63.706000000000024 C 81.98999999999997 62.61600000000002 80.74799999999998 62.538000000000025 80.28199999999997 63.08300000000003 C 78.80699999999997 64.44500000000002 76.63399999999997 65.18500000000003 75.46999999999997 64.95200000000003 C 74.30499999999996 64.71800000000003 70.57999999999997 62.85000000000003 69.64899999999997 62.227000000000025 C 67.55299999999997 61.29300000000003 66.77699999999997 62.77200000000003 66.54399999999997 63.62800000000003 C 65.18499999999997 67.56600000000003 62.97399999999997 69.42100000000003 61.38199999999997 70.59600000000003 C 60.91599999999997 70.98500000000003 58.81499999999997 72.22300000000003 58.19899999999997 72.62000000000003 C 57.65599999999997 72.97000000000003 57.30599999999997 72.38600000000004 57.53899999999997 72.03600000000003 C 58.004999999999974 71.68500000000003 59.711999999999975 69.93300000000004 59.82899999999997 69.31100000000004 C 60.21699999999997 67.05400000000003 59.595999999999975 66.31400000000004 58.66499999999997 65.30200000000004 C 57.73299999999997 64.29000000000003 56.52999999999997 63.94000000000003 55.13299999999997 63.94000000000003 C 53.73599999999997 63.94000000000003 52.41599999999997 65.22500000000004 51.94999999999997 65.69100000000003 C 51.483999999999966 66.15800000000003 52.066999999999965 67.09200000000003 51.28999999999997 67.63800000000003 C 50.51399999999997 68.18200000000003 49.620999999999974 66.74200000000003 49.15599999999997 66.11900000000003 C 50.16499999999997 64.95200000000003 50.08699999999997 64.40600000000003 49.85399999999997 63.31600000000003 C 50.187999999999974 63.06500000000003 50.71499999999997 62.449000000000034 51.36699999999997 61.87600000000003 C 51.910999999999966 62.18800000000003 52.99699999999997 62.34400000000004 53.69599999999997 62.18800000000003 C 57.46099999999997 61.87600000000003 58.11999999999997 62.30500000000003 58.97399999999997 62.69400000000003 C 59.82799999999997 63.083000000000034 60.09899999999997 62.53800000000003 59.78799999999997 61.99300000000003 C 59.37199999999997 61.26200000000003 59.050999999999966 60.98100000000003 58.27499999999997 60.202000000000034 L 59.78799999999997 59.735000000000035 C 61.49599999999997 59.735000000000035 63.203999999999965 60.35800000000003 64.05799999999996 60.436000000000035 C 64.91199999999996 60.51400000000004 65.45499999999997 60.51400000000004 65.76599999999996 59.891000000000034 C 66.30899999999997 58.256000000000036 67.31799999999997 57.945000000000036 68.01699999999997 57.711000000000034 C 68.71599999999997 57.47700000000003 69.25899999999997 56.85500000000003 68.63799999999996 56.699000000000034 L 67.08499999999997 56.699000000000034 C 65.76599999999996 56.77700000000004 65.68799999999996 57.244000000000035 65.29999999999997 57.711000000000034 C 64.91099999999997 58.17800000000003 64.44599999999997 58.723000000000035 63.43699999999997 58.567000000000036 C 62.42799999999997 58.41100000000004 60.29299999999997 58.061000000000035 59.050999999999966 58.13900000000004 C 58.07999999999997 58.20000000000004 56.68399999999997 59.19000000000004 53.96699999999997 59.11200000000004 C 55.053999999999974 56.387000000000036 65.14499999999997 55.29800000000004 67.08499999999997 55.21900000000004 C 79.96999999999997 54.674000000000035 82.68699999999997 55.29700000000004 88.58599999999997 56.543000000000035 C 94.48499999999997 57.78900000000003 103.35699999999997 60.68500000000004 120.35499999999996 67.45800000000003 C 136.51099999999997 73.89600000000003 167.86499999999995 89.69900000000003 175.11099999999996 96.14900000000003 C 175.52099999999996 96.55800000000004 177.88799999999995 98.23200000000003 180.56599999999997 98.23200000000003 L 186.15399999999997 98.23200000000003 C 187.55199999999996 98.23200000000003 187.93899999999996 99.51700000000002 187.93899999999996 100.14000000000003 C 187.93899999999996 100.76300000000003 187.59199999999996 102.43800000000003 186.42799999999997 102.43800000000003 z" stroke-linecap="round" />
</g>
</g>
</g>
</svg>