<?xml version="1.0" encoding="UTF-8" standalone="no" ?>
<!DOCTYPE svg PUBLIC "-//W3C//DTD SVG 1.1//EN" "http://www.w3.org/Graphics/SVG/1.1/DTD/svg11.dtd">
<svg xmlns="http://www.w3.org/2000/svg" xmlns:xlink="http://www.w3.org/1999/xlink" version="1.1" width="625" height="275" viewBox="0 0 625 275" xml:space="preserve">
<desc>Created with Fabric.js 5.2.4</desc>
<defs>
</defs>
<rect x="0" y="0" width="100%" height="100%" fill="transparent"></rect>
<g transform="matrix(1 0 0 1 312.5 137.5)" id="7c0501a0-cb12-4c83-98d1-3a7951135b17"  >
<rect style="stroke: none; stroke-width: 1; stroke-dasharray: none; stroke-linecap: butt; stroke-dashoffset: 0; stroke-linejoin: miter; stroke-miterlimit: 4; fill: rgb(255,255,255); fill-rule: nonzero; opacity: 1; visibility: hidden;" vector-effect="non-scaling-stroke"  x="-312.5" y="-137.5" rx="0" ry="0" width="625" height="275" />
</g>
<g transform="matrix(Infinity NaN NaN Infinity 0 0)" id="ad4d9e49-4ad0-4e29-9b05-752ad17abdb9"  >
</g>
<g transform="matrix(0.61 0 0 0.61 312.5 137.5)"  >
<g style="" vector-effect="non-scaling-stroke"   >
		<g transform="matrix(6.78 0 0 -6.78 379.34 46.2)"  >
<path style="stroke: none; stroke-width: 1; stroke-dasharray: none; stroke-linecap: butt; stroke-dashoffset: 0; stroke-linejoin: miter; stroke-miterlimit: 4; fill: rgb(35,31,32); fill-rule: nonzero; opacity: 1;" vector-effect="non-scaling-stroke"  transform=" translate(-6.69, 4.8)" d="M 0 0 C -0.12 -6.621 1.31 -10.128 6.768 -10.128 C 12.216999999999999 -10.128 12.998999999999999 -4.154 12.998999999999999 0.39199999999999946 C 12.998999999999999 4.941 11.964999999999998 9.357 6.239999999999998 9.357 C 2.728 9.357 0.135 6.628 0 0 z M -11.042 -27.668 L -11.042 17.15 L 0.135 17.15 L 0.135 15.331999999999999 C 0.135 12.907 1.113 13.906999999999998 1.901 14.851999999999999 C 2.033 15.009999999999998 4.524 18.058999999999997 10.134 18.058999999999997 C 15.727 18.058999999999997 24.428 14.162999999999997 24.428 0.3919999999999959 C 24.428 -10.260000000000003 19.237000000000002 -18.053000000000004 10.272 -18.053000000000004 C 5.332 -18.053000000000004 2.476 -16.108000000000004 1.8230000000000004 -15.323000000000004 C 1.1690000000000005 -14.549000000000003 0.26100000000000034 -14.414000000000003 0.26100000000000034 -15.323000000000004 L 0.26100000000000034 -27.668000000000006 L -11.042 -27.668000000000006" stroke-linecap="round" />
</g>
		<g transform="matrix(6.78 0 0 -6.78 -371.88 -36.52)"  >
<path style="stroke: none; stroke-width: 1; stroke-dasharray: none; stroke-linecap: butt; stroke-dashoffset: 0; stroke-linejoin: miter; stroke-miterlimit: 4; fill: rgb(35,31,32); fill-rule: nonzero; opacity: 1;" vector-effect="non-scaling-stroke"  transform=" translate(6.75, 24.29)" d="M 0 0 L 12.082 0 L 12.082 -31.696 C 12.082 -37.148 9.741 -48.583 -7.013999999999999 -48.583 C -23.771 -48.583 -25.589 -37.925 -25.589 -31.953999999999997 L -25.589 -26.108999999999998 L -13.896999999999998 -26.108999999999998 L -13.896999999999998 -31.822 C -13.896999999999998 -35.329 -11.557999999999998 -38.575 -7.143999999999998 -38.575 C -2.727999999999998 -38.575 1.7763568394002505e-15 -36.108000000000004 1.7763568394002505e-15 -31.954 L 1.7763568394002505e-15 0" stroke-linecap="round" />
</g>
		<g transform="matrix(6.78 0 0 -6.78 -115.25 10.55)"  >
<path style="stroke: none; stroke-width: 1; stroke-dasharray: none; stroke-linecap: butt; stroke-dashoffset: 0; stroke-linejoin: miter; stroke-miterlimit: 4; fill: rgb(35,31,32); fill-rule: nonzero; opacity: 1;" vector-effect="non-scaling-stroke"  transform=" translate(6.23, 4.35)" d="M 0 0 C 0 3.251 -1.815 6.368 -5.972 6.368 C -9.999 6.368 -11.429 3.5130000000000003 -11.429 0 L 0 0 z M -7.137 13.641 C 2.351 13.641 10.660999999999998 10.004999999999999 10.660999999999998 -6.752999999999998 L -11.81 -6.752999999999998 C -11.81 -12.078999999999997 -9.604000000000001 -14.287999999999998 -5.707000000000001 -14.287999999999998 C -1.8090000000000006 -14.287999999999998 -0.511000000000001 -11.168 -0.511000000000001 -11.168 L 10.533999999999999 -11.168 C 10.533999999999999 -15.975999999999999 3.9079999999999986 -22.471 -6.097000000000001 -22.342 C -17.525000000000002 -22.342 -23.112000000000002 -13.897999999999998 -23.112000000000002 -5.193999999999999 C -23.112000000000002 3.5130000000000017 -18.179000000000002 13.641000000000002 -7.137000000000002 13.641000000000002" stroke-linecap="round" />
</g>
		<g transform="matrix(6.78 0 0 -6.78 128.11 10.55)"  >
<path style="stroke: none; stroke-width: 1; stroke-dasharray: none; stroke-linecap: butt; stroke-dashoffset: 0; stroke-linejoin: miter; stroke-miterlimit: 4; fill: rgb(35,31,32); fill-rule: nonzero; opacity: 1;" vector-effect="non-scaling-stroke"  transform=" translate(6.23, 4.35)" d="M 0 0 C 0 3.251 -1.817 6.368 -5.974 6.368 C -9.999 6.368 -11.432 3.5130000000000003 -11.432 0 L 0 0 z M -7.137 13.641 C 2.3500000000000005 13.641 10.658000000000001 10.004999999999999 10.658000000000001 -6.752999999999998 L -11.811999999999998 -6.752999999999998 C -11.811999999999998 -12.078999999999997 -9.603999999999997 -14.287999999999998 -5.703999999999998 -14.287999999999998 C -1.8099999999999978 -14.287999999999998 -0.509999999999998 -11.168 -0.509999999999998 -11.168 L 10.535000000000002 -11.168 C 10.535000000000002 -15.975999999999999 3.908000000000002 -22.471 -6.093999999999999 -22.342 C -17.528 -22.342 -23.115000000000002 -13.897999999999998 -23.115000000000002 -5.193999999999999 C -23.115000000000002 3.5130000000000017 -18.176000000000002 13.641000000000002 -7.137000000000002 13.641000000000002" stroke-linecap="round" />
</g>
		<g transform="matrix(6.78 0 0 -6.78 471.22 164.7)"  >
<path style="stroke: none; stroke-width: 1; stroke-dasharray: none; stroke-linecap: butt; stroke-dashoffset: 0; stroke-linejoin: miter; stroke-miterlimit: 4; fill: rgb(35,31,32); fill-rule: nonzero; opacity: 1;" vector-effect="non-scaling-stroke"  transform=" translate(-3.22, 0)" d="M 0 0 C 0.0033107592876934224 1.7788419333395489 1.447155759162791 3.218658847350145 3.2260000000000018 3.2169999999999996 C 5.004356894455155 3.217 6.446 1.775356894455155 6.446 -0.0030000000000001137 C 6.446 -1.7813568944551554 5.004356894455155 -3.2230000000000003 3.226 -3.2230000000000003 C 1.4464119529366664 -3.2208003502504896 0.00385533587639042 -1.77958523035425 -4.440892098500626e-16 4.440892098500626e-16 z M -0.372 0 C -0.3722653497309674 -0.9543302520847886 0.006723350202814005 -1.8696498121456098 0.6815367690286015 -2.5444632309713975 C 1.3563501878543889 -3.219276649797185 2.2716697479152117 -3.5982653497309673 3.2260000000000004 -3.598 C 5.210644425351054 -3.593593335312745 6.817800950732445 -1.9846480992742808 6.82 -3.552713678800501e-15 C 6.817800950732447 1.984648099274277 5.210644425351054 3.5935933353127436 3.2260000000000004 3.598 C 2.271669747915211 3.598265349730968 1.3563501878543902 3.2192766497971865 0.681536769028602 2.5444632309713984 C 0.006723350202813894 1.8696498121456102 -0.3722653497309678 0.9543302520847892 -0.37200000000000033 0" stroke-linecap="round" />
</g>
		<g transform="matrix(6.78 0 0 -6.78 471.73 164.25)"  >
<path style="stroke: none; stroke-width: 1; stroke-dasharray: none; stroke-linecap: butt; stroke-dashoffset: 0; stroke-linejoin: miter; stroke-miterlimit: 4; fill: rgb(35,31,32); fill-rule: nonzero; opacity: 1;" vector-effect="non-scaling-stroke"  transform=" translate(1.37, -1.91)" d="M 0 0 L -0.747 1.764 C -0.51 1.846 -0.431 1.904 -0.305 2.039 C -0.141 2.2150000000000003 -0.03799999999999998 2.4930000000000003 -0.03799999999999998 2.745 C -0.03799999999999998 3.3810000000000002 -0.5269999999999999 3.814 -1.236 3.814 L -2.7359999999999998 3.814 L -2.7359999999999998 0 L -2.291 0 L -2.291 1.652 L -1.2069999999999999 1.652 L -0.495 0 L 0 0 z M -2.303 2.039 L -2.303 3.399 L -1.2449999999999999 3.399 C -0.8029999999999999 3.399 -0.5219999999999999 3.1470000000000002 -0.5219999999999999 2.757 C -0.5219999999999999 2.314 -0.8199999999999998 2.039 -1.307 2.039 L -2.303 2.039" stroke-linecap="round" />
</g>
</g>
</g>
</svg>