<?xml version="1.0" encoding="UTF-8" standalone="no" ?>
<!DOCTYPE svg PUBLIC "-//W3C//DTD SVG 1.1//EN" "http://www.w3.org/Graphics/SVG/1.1/DTD/svg11.dtd">
<svg xmlns="http://www.w3.org/2000/svg" xmlns:xlink="http://www.w3.org/1999/xlink" version="1.1" width="625" height="275" viewBox="0 0 625 275" xml:space="preserve">
<desc>Created with Fabric.js 5.2.4</desc>
<defs>
</defs>
<rect x="0" y="0" width="100%" height="100%" fill="transparent"></rect>
<g transform="matrix(1 0 0 1 312.5 137.5)" id="7c0501a0-cb12-4c83-98d1-3a7951135b17"  >
<rect style="stroke: none; stroke-width: 1; stroke-dasharray: none; stroke-linecap: butt; stroke-dashoffset: 0; stroke-linejoin: miter; stroke-miterlimit: 4; fill: rgb(255,255,255); fill-rule: nonzero; opacity: 1; visibility: hidden;" vector-effect="non-scaling-stroke"  x="-312.5" y="-137.5" rx="0" ry="0" width="625" height="275" />
</g>
<g transform="matrix(Infinity NaN NaN Infinity 0 0)" id="ad4d9e49-4ad0-4e29-9b05-752ad17abdb9"  >
</g>
<g transform="matrix(1.8 0 0 1.8 312.5 137.5)" id="689f588c-662d-48b6-a386-a973b50880bf"  >
<path style="stroke: rgb(0,0,0); stroke-width: 0; stroke-dasharray: none; stroke-linecap: butt; stroke-dashoffset: 0; stroke-linejoin: miter; stroke-miterlimit: 4; fill: rgb(19,30,41); fill-rule: nonzero; opacity: 1;" vector-effect="non-scaling-stroke"  transform=" translate(-169.33, -39.84)" d="M 196.475 70.537 C 196.475 71.18 196.678 71.55300000000001 197.051 71.55300000000001 C 197.36599999999999 71.55300000000001 197.62699999999998 71.38400000000001 197.86399999999998 71.21400000000001 L 303.416 2.709 C 305.19939871572893 1.4624009204256452 307.3358973023238 0.821276077951149 309.511 0.8799999999999977 L 332.70700000000005 0.88 C 336.26300000000003 0.88 338.66700000000003 3.25 338.66700000000003 6.806 L 338.66700000000003 51.099 C 338.66700000000003 56.449 337.482 59.565 332.74100000000004 62.409 L 304.60100000000006 79.341 C 304.32000000000005 79.53599999999999 303.98800000000006 79.67999999999999 303.6530000000001 79.67999999999999 C 303.3180000000001 79.67999999999999 302.97600000000006 79.40899999999999 302.97600000000006 78.42699999999999 L 302.97600000000006 26.752 C 302.97600000000006 26.142 302.8070000000001 25.735999999999997 302.40000000000003 25.735999999999997 C 302.103 25.735999999999997 301.821 25.887999999999998 301.58700000000005 26.074999999999996 L 224.44600000000003 76.193 C 222.68500000000003 77.378 220.61900000000003 78.02199999999999 218.52000000000004 77.988 L 167.38600000000002 77.988 C 163.79600000000002 77.988 161.42600000000002 75.618 161.42600000000002 72.028 L 161.42600000000002 8.196 C 161.42600000000002 7.7219999999999995 161.223 7.282 160.816 7.282 C 160.52 7.282 160.239 7.437 160.00300000000001 7.621 L 109.108 38.164 C 108.60000000000001 38.503 108.465 38.74 108.465 38.977000000000004 C 108.465 39.18000000000001 108.56700000000001 39.383 108.905 39.75600000000001 L 145.274 76.09100000000001 C 145.748 76.56500000000001 146.087 76.938 146.087 77.34400000000001 C 146.087 77.683 145.545 77.95400000000001 144.902 77.95400000000001 L 112.05399999999999 77.95400000000001 C 109.47999999999999 77.95400000000001 107.48199999999999 77.581 106.094 76.19300000000001 L 84.049 54.182 C 83.8845065362589 53.97452140356803 83.63667037423508 53.85042028255463 83.372 53.843 C 83.133 53.843 82.9 53.92400000000001 82.695 54.04600000000001 L 45.852 76.193 C 43.617 77.548 42.092999999999996 77.92 39.891999999999996 77.92 L 5.995 77.92 C 2.372 77.95400000000001 0.001000000000000334 75.55 0.001000000000000334 71.994 L 0.001000000000000334 28.547 C 0.001000000000000334 23.163 1.1860000000000004 20.081000000000003 5.961 17.237000000000002 L 34.271 0.238 C 34.49104322090684 0.08831730094842885 34.749918637086125 0.005963645063207401 35.016 0.001000000000000112 C 35.455999999999996 0.0010000000000000009 35.693 0.441 35.693 1.423 L 35.693 59.6 C 35.693 60.21 35.827999999999996 60.480000000000004 36.269 60.480000000000004 C 36.568999999999996 60.480000000000004 36.845 60.31100000000001 37.116 60.141000000000005 L 132.74599999999998 2.6070000000000064 C 134.575 1.3540000000000065 136.80999999999997 0.7450000000000063 139.045 0.8460000000000065 L 190.517 0.8460000000000065 C 194.073 0.8460000000000065 196.477 3.2160000000000064 196.477 6.7720000000000065 L 196.443 70.537 z" stroke-linecap="round" />
</g>
</svg>