<?xml version="1.0" encoding="UTF-8" standalone="no" ?>
<!DOCTYPE svg PUBLIC "-//W3C//DTD SVG 1.1//EN" "http://www.w3.org/Graphics/SVG/1.1/DTD/svg11.dtd">
<svg xmlns="http://www.w3.org/2000/svg" xmlns:xlink="http://www.w3.org/1999/xlink" version="1.1" width="625" height="275" viewBox="0 0 625 275" xml:space="preserve">
<desc>Created with Fabric.js 5.2.4</desc>
<defs>
</defs>
<rect x="0" y="0" width="100%" height="100%" fill="transparent"></rect>
<g transform="matrix(1 0 0 1 312.5 137.5)" id="7c0501a0-cb12-4c83-98d1-3a7951135b17"  >
<rect style="stroke: none; stroke-width: 1; stroke-dasharray: none; stroke-linecap: butt; stroke-dashoffset: 0; stroke-linejoin: miter; stroke-miterlimit: 4; fill: rgb(255,255,255); fill-rule: nonzero; opacity: 1; visibility: hidden;" vector-effect="non-scaling-stroke"  x="-312.5" y="-137.5" rx="0" ry="0" width="625" height="275" />
</g>
<g transform="matrix(Infinity NaN NaN Infinity 0 0)" id="ad4d9e49-4ad0-4e29-9b05-752ad17abdb9"  >
</g>
<g transform="matrix(0.43 0 0 0.43 312.5 137.5)"  >
<g style="" vector-effect="non-scaling-stroke"   >
		<g transform="matrix(1 0 0 1 0 0)"  >
<rect style="stroke: none; stroke-width: 1; stroke-dasharray: none; stroke-linecap: butt; stroke-dashoffset: 0; stroke-linejoin: miter; stroke-miterlimit: 4; fill: rgb(255,255,255); fill-rule: nonzero; opacity: 1; visibility: hidden;" vector-effect="non-scaling-stroke"  x="-600" y="-314" rx="0" ry="0" width="1200" height="628" />
</g>
		<g transform="matrix(5.2 0 0 5.2 0 0)"  >
<path style="stroke: rgb(0,0,0); stroke-width: 0; stroke-dasharray: none; stroke-linecap: butt; stroke-dashoffset: 0; stroke-linejoin: miter; stroke-miterlimit: 4; fill: rgb(12,18,28); fill-rule: nonzero; opacity: 1;" vector-effect="non-scaling-stroke"  transform=" translate(-113.5, -59.5)" d="M 153.957 76.659 L 156.024 71.02900000000001 L 146.523 71.02900000000001 L 147.995 66.73400000000001 L 158.28900000000002 66.73400000000001 L 160.549 60.52300000000001 L 141.119 60.52300000000001 L 140.849 61.31300000000001 L 141.31199999999998 61.76900000000001 C 141.814 62.25400000000001 141.79199999999997 62.829000000000015 141.35999999999999 64.08100000000002 L 133.266 87.44100000000002 L 151.42399999999998 87.44100000000002 L 153.617 81.18900000000002 L 143.02 81.18900000000002 L 144.58 76.65900000000002 L 153.95600000000002 76.65900000000002 z M 131.293 60.539 L 121.4 79.883 L 121.19200000000001 79.883 L 120.69200000000001 60.538999999999994 L 112.415 60.538999999999994 L 112.09200000000001 61.236999999999995 L 112.80400000000002 61.666 C 113.48800000000001 62.147 113.67900000000002 62.635999999999996 113.76800000000001 63.977999999999994 L 114.88800000000002 87.451 L 124.11200000000002 87.451 L 138.99300000000002 60.538999999999994 L 131.294 60.538999999999994 z M 57.081 64.009 L 36.682 70.687 L 34.192 77.49199999999999 L 52.182 77.49199999999999 L 54.524 71.07999999999998 L 42.052 71.07999999999998 L 56.208 66.30999999999999 L 57.080999999999996 64.00899999999999 z M 76.40100000000001 70.308 C 75.936 71.45800000000001 75.42200000000001 71.73400000000001 74.754 72.006 C 74.301 72.182 73.35000000000001 72.246 72.429 72.246 L 68.869 72.246 L 70.806 66.685 L 75.108 66.685 C 76.396 66.685 76.922 67.351 76.93900000000001 68.11200000000001 C 76.947 68.596 76.72300000000001 69.48200000000001 76.402 70.308 z M 75.76100000000001 60.53900000000001 L 64.089 60.53900000000001 L 63.853 61.23700000000001 L 64.325 61.69700000000001 C 64.824 62.18700000000001 64.805 62.76400000000001 64.36800000000001 64.00900000000001 L 56.213 87.45 L 63.666000000000004 87.45 L 66.854 78.14500000000001 L 69.375 78.14800000000001 L 72.181 87.45000000000002 L 79.67099999999999 87.45000000000002 L 76.14699999999999 77.93000000000002 C 78.19099999999999 77.60000000000002 79.21999999999998 77.01900000000002 80.24499999999999 76.11000000000003 C 81.64899999999999 74.83000000000003 82.62299999999999 73.03600000000003 83.42899999999999 70.39300000000003 C 84.60399999999998 66.55900000000003 83.89399999999999 64.36900000000003 83.13699999999999 63.24300000000003 C 82.09799999999998 61.69600000000003 79.90599999999999 60.53800000000003 75.76099999999998 60.53800000000003 z M 175.76100000000002 70.308 C 175.29800000000003 71.45800000000001 174.77900000000002 71.73400000000001 174.11900000000003 72.006 C 173.65800000000002 72.182 172.71500000000003 72.246 171.79900000000004 72.246 L 168.24000000000004 72.246 L 170.16200000000003 66.685 L 174.47100000000003 66.685 C 175.75100000000003 66.685 176.28500000000003 67.351 176.29600000000002 68.11200000000001 C 176.30900000000003 68.596 176.079 69.48200000000001 175.76100000000002 70.308 z M 175.11300000000003 60.53900000000001 L 163.44100000000003 60.53900000000001 L 163.21400000000003 61.23700000000001 L 163.68200000000002 61.69700000000001 C 164.18200000000002 62.18700000000001 164.15800000000002 62.76400000000001 163.73200000000003 64.00900000000001 L 155.56800000000004 87.45100000000002 L 163.03000000000003 87.45100000000002 L 166.21300000000002 78.14900000000003 L 168.73600000000002 78.14900000000003 L 171.54200000000003 87.45100000000002 L 179.02400000000003 87.45100000000002 L 175.51100000000002 77.93100000000003 C 177.55100000000002 77.60100000000003 178.57500000000002 77.02000000000002 179.59900000000002 76.11100000000003 C 181.007 74.83100000000003 181.985 73.03700000000003 182.788 70.39400000000003 C 183.967 66.56000000000003 183.256 64.37000000000003 182.501 63.244000000000035 C 181.46200000000002 61.69700000000004 179.267 60.53900000000004 175.113 60.53900000000004 z M 190.41800000000003 96.656 C 169.94200000000004 107.18900000000001 142.62800000000004 112.99000000000001 113.49800000000003 112.99000000000001 C 84.37500000000003 112.99000000000001 57.06600000000003 107.19000000000001 36.58700000000003 96.656 C 16.895 86.523 6.039 73.326 6.039 59.504 C 6.039 45.67 16.895 32.474 36.586999999999996 22.348 C 57.066 11.818 84.375 6.01 113.499 6.01 C 142.629 6.01 169.942 11.818999999999999 190.41899999999998 22.348 C 210.11599999999999 32.473 220.95899999999997 45.67 220.95899999999997 59.504 C 220.95899999999997 73.325 210.11599999999999 86.523 190.41899999999998 96.656 z M 193.19000000000003 17.006 C 171.865 6.04 143.565 0 113.499 0 C 83.435 0 55.135 6.04 33.814 17.006 C 21.186 23.505 0 37.666 0 59.504 C 0 81.332 21.186 95.499 33.814 101.997 C 55.128 112.962 83.427 119 113.5 119 C 143.572 119 171.871 112.962 193.19 101.997 C 205.82 95.499 227 81.337 227 59.504 C 227 37.662 205.818 23.503999999999998 193.19 17.006 z M 187.55000000000004 91.133 C 165.51700000000005 102.463 138.11500000000004 106.768 113.49900000000004 106.768 C 88.88400000000004 106.768 61.48700000000004 102.463 39.45000000000003 91.133 C 27.788000000000032 85.133 12.290000000000031 74.072 12.290000000000031 59.503 C 12.290000000000031 44.923 27.78600000000003 33.873000000000005 39.45000000000003 27.875 C 61.48700000000003 16.546 88.88200000000003 12.238 113.49900000000004 12.238 C 138.11500000000004 12.238 165.51700000000005 16.538 187.54900000000004 27.875 C 199.21900000000002 33.873 214.71200000000005 44.921 214.71200000000005 59.504000000000005 C 214.71200000000005 74.077 199.21600000000004 85.132 187.54900000000004 91.13300000000001 z M 188.69300000000004 25.664999999999992 C 166.32300000000004 14.151999999999992 138.47200000000004 9.745999999999992 113.49900000000004 9.745999999999992 C 88.52500000000003 9.745999999999992 60.67900000000004 14.155999999999992 38.30300000000004 25.664999999999992 C 25.738 32.125 9.79 43.785 9.79 59.504 C 9.79 75.211 25.74 86.875 38.303 93.344 C 60.67999999999999 104.845 88.532 109.255 113.499 109.255 C 138.47199999999998 109.255 166.32299999999998 104.85199999999999 188.69299999999998 93.34299999999999 C 201.26299999999998 86.87499999999999 217.20999999999998 75.21099999999998 217.20999999999998 59.502999999999986 C 217.20999999999998 43.78499999999998 201.26699999999997 32.12599999999999 188.69299999999998 25.664999999999985 z M 101.83900000000004 74.47299999999998 C 100.91100000000004 77.11699999999999 100.18300000000004 78.81999999999998 99.10900000000004 79.94299999999998 C 98.26400000000004 80.82599999999998 97.15100000000004 81.45899999999999 94.58200000000004 81.45899999999999 C 92.56900000000003 81.45899999999999 91.44900000000004 80.64099999999999 91.44900000000004 79.08999999999999 C 91.43600000000004 78.088 91.70700000000004 76.56799999999998 92.78500000000004 73.61399999999999 C 93.71500000000005 70.97099999999999 94.44100000000005 69.26799999999999 95.51900000000003 68.142 C 96.35300000000004 67.262 97.47300000000003 66.62599999999999 100.04100000000004 66.62599999999999 C 102.05300000000004 66.62599999999999 103.17200000000004 67.44399999999999 103.17000000000004 68.98899999999999 C 103.18900000000005 70.00099999999999 102.91700000000004 71.52099999999999 101.84000000000005 74.47299999999998 z M 101.40800000000004 60.207999999999984 L 100.55100000000004 60.207999999999984 C 95.45500000000004 60.207999999999984 92.54700000000004 61.575999999999986 90.15700000000004 64.09899999999999 C 87.18700000000004 67.22899999999998 84.39600000000004 75.68299999999999 84.45100000000004 80.15899999999999 C 84.50600000000004 84.71799999999999 87.47100000000003 87.87899999999999 93.70000000000003 87.87899999999999 L 94.61000000000003 87.87899999999999 C 99.71800000000003 87.87899999999999 102.62800000000003 86.511 105.01600000000003 83.987 C 107.98600000000003 80.853 110.71800000000003 72.401 110.66400000000003 67.93199999999999 C 110.60400000000003 63.371999999999986 107.64100000000003 60.207999999999984 101.40800000000003 60.207999999999984 z M 47.7 54.718 L 66.148 54.714000000000006 L 68.377 48.29900000000001 L 57.653 48.29900000000001 L 64.739 27.809000000000008 L 55.48800000000001 27.809000000000008 L 55.25600000000001 28.503000000000007 L 55.71900000000001 28.961000000000006 C 56.22100000000001 29.451000000000004 56.20300000000001 30.029000000000007 55.76700000000001 31.276000000000007 L 47.7 54.718 z M 96.303 54.708000000000006 L 103.084 54.708000000000006 L 108.995 37.298 L 112.455 54.708 L 119.24 54.708 L 128.49 27.799999999999997 L 121.397 27.81 L 116.45700000000001 42.436 L 113.635 27.810000000000002 L 104.077 27.810000000000002 L 103.844 28.503000000000004 L 104.312 28.961000000000002 C 104.814 29.451 104.78999999999999 30.029000000000003 104.362 31.276000000000003 L 96.303 54.70700000000001 z M 138.248 34.19200000000001 L 141.202 34.19200000000001 C 143.215 34.19200000000001 144.325 34.86200000000001 144.352 36.415000000000006 C 144.367 37.415000000000006 144.09900000000002 38.78300000000001 143.054 41.736000000000004 C 142.132 44.37500000000001 141.39600000000002 45.904 140.346 47.026 C 139.507 47.907000000000004 138.389 48.29900000000001 135.821 48.29900000000001 L 133.353 48.29900000000001 L 138.24800000000002 34.19200000000001 z M 131.76299999999998 31.276000000000007 L 123.69299999999998 54.718 L 135.60199999999998 54.718 C 140.70699999999997 54.718 143.61799999999997 53.594 145.98499999999999 51.07 C 148.94899999999998 47.947 151.66099999999997 39.82 151.57199999999997 35.348 C 151.48499999999999 30.782999999999998 148.52399999999997 27.81 142.29799999999997 27.81 L 131.47599999999997 27.81 L 131.25099999999998 28.503 L 131.72099999999998 28.961 C 132.218 29.450999999999997 132.19899999999998 30.029 131.76299999999998 31.276 z M 176.69799999999998 37.459 L 158.712 37.459 L 156.36999999999998 43.866 L 168.83499999999998 43.866 L 154.677 48.649 L 153.803 50.942 L 174.202 44.264 L 176.698 37.459 z M 86.94299999999998 35.248000000000005 L 87.18799999999999 35.248000000000005 L 87.31499999999998 43.376000000000005 L 82.33799999999998 43.376000000000005 L 86.94299999999998 35.248000000000005 z M 68.06 54.708 L 75.906 54.708 L 79.30600000000001 48.760999999999996 L 87.43200000000002 48.760999999999996 L 87.51200000000001 54.706999999999994 L 94.63300000000001 54.706999999999994 L 93.097 27.81 L 82.437 27.81 L 82.2 28.503 L 82.544 28.845 C 83.106 29.392 82.874 30.180999999999997 80.79899999999999 33.458999999999996 L 68.06 54.707 z" stroke-linecap="round" />
</g>
</g>
</g>
</svg>