<?xml version="1.0" encoding="UTF-8" standalone="no" ?>
<!DOCTYPE svg PUBLIC "-//W3C//DTD SVG 1.1//EN" "http://www.w3.org/Graphics/SVG/1.1/DTD/svg11.dtd">
<svg xmlns="http://www.w3.org/2000/svg" xmlns:xlink="http://www.w3.org/1999/xlink" version="1.1" width="625" height="275" viewBox="0 0 625 275" xml:space="preserve">
<desc>Created with Fabric.js 5.2.4</desc>
<defs>
</defs>
<g transform="matrix(1 0 0 1 312.5 137.5)" id="8b896895-754f-4074-92f4-63a9bedb77cd"  >
<rect style="stroke: none; stroke-width: 1; stroke-dasharray: none; stroke-linecap: butt; stroke-dashoffset: 0; stroke-linejoin: miter; stroke-miterlimit: 4; fill: rgb(255,255,255); fill-rule: nonzero; opacity: 1; visibility: hidden;" vector-effect="non-scaling-stroke"  x="-312.5" y="-137.5" rx="0" ry="0" width="625" height="275" />
</g>
<g transform="matrix(Infinity NaN NaN Infinity 0 0)" id="549265f4-e107-49d3-bcd8-0701c8e7cfa6"  >
</g>
<g transform="matrix(3.26 0 0 3.26 312.5 137.5)"  >
<path style="stroke: none; stroke-width: 1; stroke-dasharray: none; stroke-linecap: butt; stroke-dashoffset: 0; stroke-linejoin: miter; stroke-miterlimit: 4; fill: rgb(0,0,0); fill-rule: nonzero; opacity: 1;" vector-effect="non-scaling-stroke"  transform=" translate(-96.38, -91.91)" d="M 98.047 56.542 C 94.466 60.958 84.252 75.215 83.088 77.061 C 80.847 80.59800000000001 80.649 82.31200000000001 80.583 83.45400000000001 C 80.518 84.575 80.518 86.596 82.341 88.24400000000001 C 85.395 90.96800000000002 89.678 90.52800000000002 93.479 90.52800000000002 L 124.78399999999999 90.52800000000002 C 126.124 90.52800000000002 126.52 90.13200000000002 127.24499999999999 89.16600000000003 C 129.749 85.34300000000003 130.87 81.19100000000003 130.87 77.47800000000002 C 130.87 69.52500000000002 125.708 59.508000000000024 112.636 54.98200000000003 L 111.163 57.09100000000003 C 121.532 62.01100000000003 125.817 68.44800000000004 125.817 77.45500000000003 C 125.883 79.87200000000003 125.24499999999999 82.48600000000003 123.663 84.90300000000002 L 93.214 84.90300000000002 C 91.391 84.90300000000002 91.127 82.83800000000002 91.786 81.67300000000002 C 94.39644769347021 77.02722403954019 97.30974005285533 72.55823823701128 100.50699999999999 68.29500000000002 C 103.583 64.18700000000001 106.614 60.34200000000001 109.80000000000001 56.32200000000002 C 110.65700000000001 55.20200000000002 110.08500000000001 54.125000000000014 108.37200000000001 53.774000000000015 C 104.81300000000002 53.027000000000015 101.10100000000001 52.500000000000014 96.59700000000001 52.500000000000014 C 71.62 52.500000000000014 62.48000000000001 66.84500000000001 62.48000000000001 77.47800000000001 C 62.48000000000001 89.01200000000001 71.68500000000002 102.391 96.66300000000001 102.391 C 110.525 102.391 119.59900000000002 97.93 124.84900000000002 92.197 L 119.55400000000002 92.197 C 114.96200000000002 96.437 107.07500000000002 99.44800000000001 96.66300000000001 99.44800000000001 C 75.507 99.44800000000001 67.709 87.56200000000001 67.709 77.32400000000001 C 67.86200000000001 68.18500000000002 76.232 55.57500000000002 97.191 55.158000000000015 C 97.982 55.13600000000002 98.598 55.86100000000002 98.047 56.542000000000016 z M 173.18 122.381 C 174.43200000000002 122.557 175.399 123.545 175.399 124.711 C 175.399 126.027 174.213 127.082 172.762 127.082 L 145.918 127.082 L 145.918 109.529 L 138.008 109.529 L 138.008 127.127 L 123.465 127.127 C 119.533 127.127 118.721 124.732 118.721 122.535 L 118.721 109.42 L 105.60600000000001 109.42 C 104.30900000000001 110.299 103.057 111.266 101.71700000000001 112.078 L 93.94000000000001 116.867 L 83.83500000000001 109.486 L 68.105 109.486 L 68.105 113.902 L 73.79400000000001 113.902 L 73.79400000000001 111.484 L 87.17300000000002 121.086 L 78.03400000000002 126.818 L 68.10400000000001 126.818 L 68.10400000000001 131.234 L 79.59300000000002 131.234 C 80.82300000000002 130.4 81.98800000000001 129.52100000000002 83.26200000000001 128.752 L 91.25800000000001 123.897 L 101.40700000000001 131.147 L 112.96400000000001 131.147 L 97.69400000000002 119.657 L 105.53800000000001 114.53999999999999 C 107.20800000000001 113.44 108.96600000000001 112.51899999999999 110.67900000000002 111.50899999999999 L 110.67900000000002 123.064 C 110.67900000000002 127.94099999999999 111.93100000000001 131.32399999999998 121.75100000000002 131.32399999999998 L 177.222 131.19299999999998 C 181.505 131.25699999999998 184.251 128.29299999999998 184.251 124.71299999999998 C 184.251 121.15199999999999 181.08700000000002 118.23099999999998 177.222 118.23099999999998 L 157.187 118.23099999999998 C 157.45100000000002 115.79299999999998 159.55800000000002 113.75099999999998 161.68900000000002 113.75099999999998 L 181.966 113.75099999999998 L 181.90200000000002 109.51099999999998 L 160.394 109.51099999999998 C 153.583 109.51099999999998 148.136 115.15699999999998 147.982 121.72599999999998 C 147.961 122.18699999999998 148.267 122.47199999999998 148.773 122.47199999999998 L 173.18 122.38099999999999 z M 68.105 122.316 L 68.105 117.812 L 72.015 117.812 L 72.015 122.316 L 68.105 122.316 z M 68.105 109.486 L 53.254 109.486 C 49.233999999999995 109.486 46.135999999999996 110.54100000000001 43.852 112.34100000000001 C 39.744 115.593 38.425999999999995 119.019 38.47 120.558 L 43.83 120.558 C 41.479 122.316 39.897 124.423 39.062999999999995 126.863 L 21.487 126.863 C 18.323999999999998 126.863 16.279999999999998 124.623 16.279999999999998 122.447 L 16.279999999999998 109.33200000000001 L 8.504 109.33200000000001 L 8.504 122.953 C 8.504 127.851 13.161999999999999 131.234 20.63 131.234 L 68.105 131.234 L 68.105 126.81800000000001 L 49.256 126.81800000000001 C 49.344 124.57800000000002 51.738 122.31600000000002 53.913 122.31600000000002 L 68.10499999999999 122.31600000000002 L 68.10499999999999 117.81200000000001 L 49.036 117.81200000000001 C 48.773 116.49400000000001 51.233000000000004 113.90200000000002 53.122 113.90200000000002 L 68.105 113.90200000000002 L 68.105 109.48600000000002 z" stroke-linecap="round" />
</g>
</svg>