<?xml version="1.0" encoding="UTF-8" standalone="no" ?>
<!DOCTYPE svg PUBLIC "-//W3C//DTD SVG 1.1//EN" "http://www.w3.org/Graphics/SVG/1.1/DTD/svg11.dtd">
<svg xmlns="http://www.w3.org/2000/svg" xmlns:xlink="http://www.w3.org/1999/xlink" version="1.1" width="275" height="275" viewBox="0 0 275 275" xml:space="preserve">
<desc>Created with Fabric.js 5.2.4</desc>
<defs>
</defs>
<g transform="matrix(1 0 0 1 137.5 137.5)" id="29678d90-6913-4631-90f3-97654af0fe5e"  >
<rect style="stroke: none; stroke-width: 1; stroke-dasharray: none; stroke-linecap: butt; stroke-dashoffset: 0; stroke-linejoin: miter; stroke-miterlimit: 4; fill: rgb(255,255,255); fill-rule: nonzero; opacity: 1; visibility: hidden;" vector-effect="non-scaling-stroke"  x="-137.5" y="-137.5" rx="0" ry="0" width="275" height="275" />
</g>
<g transform="matrix(Infinity NaN NaN Infinity 0 0)" id="0cdbe87e-77d0-4732-a914-759e97ccefe8"  >
</g>
<g transform="matrix(5.19 0 0 5.19 137.5 137.5)"  >
<g style="" vector-effect="non-scaling-stroke"   >
		<g transform="matrix(1 0 0 1 0 19.9)"  >
<path style="stroke: none; stroke-width: 1; stroke-dasharray: none; stroke-linecap: butt; stroke-dashoffset: 0; stroke-linejoin: miter; stroke-miterlimit: 4; fill: rgb(30,33,42); fill-rule: nonzero; opacity: 1;" vector-effect="non-scaling-stroke"  transform=" translate(-44.35, -52.9)" d="M 53.8 54.9 L 56.8 54.9 C 56.8 54.9 58.099999999999994 54.9 58.099999999999994 52.9 C 58.099999999999994 50.9 56.8 50.9 56.8 50.9 L 53.8 50.9 C 53.8 50.9 53.8 54.9 53.8 54.9 z M 35 53.6 C 34.7 53.6 34.4 53.9 34.4 54.2 C 34.4 54.50000000000001 34.699999999999996 54.800000000000004 35 54.800000000000004 L 38.5 54.800000000000004 L 38.5 53.50000000000001 L 35 53.6 L 35 53.6 z M 63.6 53.6 C 63.300000000000004 53.6 63 53.9 63 54.2 C 63 54.50000000000001 63.3 54.800000000000004 63.6 54.800000000000004 L 67.1 54.800000000000004 L 67.1 53.50000000000001 L 63.6 53.6 L 63.6 53.6 z M 62.4 51.9 L 67.2 51.9 C 67.2 51.5 67.2 50.8 66.10000000000001 50.8 L 61.20000000000001 50.8 L 61.20000000000001 48.8 L 67.20000000000002 48.8 C 68.70000000000002 48.8 69.80000000000001 49.4 69.80000000000001 51 L 69.80000000000001 57 L 62.500000000000014 57 L 62.600000000000016 57 C 61.600000000000016 57 60.80000000000002 56.2 60.600000000000016 55.1 C 59.8 57 58.3 57 57 57 L 51.1 57 L 51.1 50.6 L 42.8 57 L 33.8 57 L 33.9 57 C 33.1 57 32.4 56.4 32 55.6 L 32 57 L 29.4 57 L 29.4 51.7 C 29.4 51.7 29.4 51 28.599999999999998 51 L 26.7 51 L 26.7 57 L 24.2 57 L 24.2 51 L 21.5 51 L 21.5 57 L 18.9 57 L 18.9 48.8 L 29.599999999999998 48.8 C 30.799999999999997 48.8 31.999999999999996 49.5 31.999999999999996 51 L 31.999999999999996 53.3 C 32.3 52.5 33 51.9 33.9 51.9 L 33.8 51.9 L 38.599999999999994 51.9 C 38.599999999999994 51.5 38.599999999999994 50.8 37.49999999999999 50.8 L 32.599999999999994 50.8 L 32.599999999999994 48.8 L 38.599999999999994 48.8 C 40.099999999999994 48.8 41.199999999999996 49.4 41.199999999999996 51 L 41.199999999999996 55.1 L 49.599999999999994 48.800000000000004 L 57.099999999999994 48.800000000000004 C 58.699999999999996 48.800000000000004 60.8 48.800000000000004 60.8 52.900000000000006 L 60.8 53.00000000000001 C 61.2 52.4 61.8 51.9 62.4 51.9 L 62.4 51.9 C 62.4 51.9 62.4 51.9 62.4 51.9 z M 42.1 48.8 L 48.1 48.8 L 45.4 51 L 42.1 51 L 42.1 48.8 L 42.1 48.8 z M 50.4 57 L 44.4 57 L 47.1 54.8 L 50.4 54.8 L 50.4 57" stroke-linecap="round" />
</g>
		<g transform="matrix(1 0 0 1 -0.15 -5.65)"  >
<path style="stroke: none; stroke-width: 1; stroke-dasharray: none; stroke-linecap: butt; stroke-dashoffset: 0; stroke-linejoin: miter; stroke-miterlimit: 4; fill: rgb(30,33,42); fill-rule: evenodd; opacity: 1;" vector-effect="non-scaling-stroke"  transform=" translate(-44.2, -27.35)" d="M 30.6 38.6 C 29.400000000000002 37.800000000000004 29 36.9 27.1 36.1 C 25.200000000000003 33.6 24.5 30.5 24.5 27.5 C 24.5 25.3 24.9 23 25.5 21 L 27.4 24.8 C 27.299999999999997 25.7 27.2 26.6 27.2 27.5 C 27.2 40.1 35.5 42.6 44.3 42.6 C 53.099999999999994 42.6 61.4 40.1 61.4 27.5 C 61.4 26.3 61.3 25.1 61.1 23.9 L 62.5 21.099999999999998 C 64.4 25.799999999999997 64 33.8 59.5 36.699999999999996 C 58.7 37.8 58 38.699999999999996 56.9 39.599999999999994 C 53 42.699999999999996 47.4 43.099999999999994 42.599999999999994 42.89999999999999 C 38.599999999999994 42.69999999999999 34.099999999999994 41.89999999999999 30.999999999999993 39.099999999999994 C 31 39 30.6 38.6 30.6 38.6 z M 25.4 15.9 L 25.099999999999998 15.6 C 22.9 18.3 21.4 22.1 21.4 27.299999999999997 C 21.4 43.099999999999994 34.3 45.699999999999996 44.2 45.699999999999996 C 54 45.699999999999996 67 43.099999999999994 67 27.299999999999997 C 67 22.099999999999998 65.6 18.299999999999997 63.3 15.599999999999998 L 63 15.899999999999999 C 63 17.299999999999997 62.7 18.7 62.5 20.099999999999998 C 63.5 22.2 63.9 24.699999999999996 64 27.4 C 64.1 35.3 60.1 43.5 44.1 44.099999999999994 C 34 43.99999999999999 27.700000000000003 40.89999999999999 25.1 34.39999999999999 C 23.400000000000002 33.29999999999999 22.5 31.29999999999999 21.8 29.39999999999999 C 21.5 25.29999999999999 22.1 20.699999999999992 24.400000000000002 17.199999999999992 L 24.900000000000002 16.499999999999993 C 25.1 17.799999999999994 25.3 19.599999999999994 25.700000000000003 19.89999999999999 C 30.800000000000004 24.199999999999992 39.800000000000004 23.59999999999999 44.1 32.29999999999999 C 48.800000000000004 22.69999999999999 57.1 23.89999999999999 62.2 19.69999999999999 L 62.7 15.599999999999989 C 56.800000000000004 21.99999999999999 48.7 19.79999999999999 44.2 29.49999999999999 C 39.3 20 31.4 22.3 25.4 15.9 z M 29.4 18.2 C 32.5 13.5 38.3 12.299999999999999 44.3 12.299999999999999 C 50.199999999999996 12.299999999999999 55.9 13.399999999999999 59 18 L 62.7 15.2 L 62.7 15.2 L 62.900000000000006 15 C 58.3 10.1 50.6 9 44.3 9 C 37.8 9 29.999999999999996 10.1 25.4 15.4 L 25.5 15.5 L 25.5 15.5 L 25.7 15.7 C 26.7 16.7 27.8 17.7 28.9 18.3 C 29 18.3 29.2 18.3 29.4 18.2 L 29.4 18.2 L 29.4 18.2 z M 62.3 15 L 60.599999999999994 16 C 55.699999999999996 11.7 50.39999999999999 10.6 44.199999999999996 10.7 C 37.9 10.7 32.39999999999999 11.799999999999999 27.499999999999996 16.4 L 25.799999999999997 15.399999999999999 C 27.599999999999998 13.499999999999998 29.499999999999996 12.299999999999999 31.9 11.299999999999999 C 37.1 9.3 44.5 9 50 9.7 C 54.4 10.299999999999999 59 11.7 62.2 14.899999999999999 L 62.3 15 L 62.3 15 z M 44.2 35.2 C 42.1 30.700000000000003 39.800000000000004 28.6 36.300000000000004 27.200000000000003 L 27.500000000000004 24.200000000000003 L 26.300000000000004 20.900000000000002 C 28.500000000000004 22.6 31.600000000000005 23.700000000000003 34.7 24.900000000000002 C 39.400000000000006 26.700000000000003 41.900000000000006 29 44.2 33.6 L 44.2 35.2 L 44.2 35.2 z M 44.2 35.2 C 46.300000000000004 30.700000000000003 48.6 28.400000000000002 52.1 26.900000000000002 L 60.8 23.8 L 62 20.6 C 59.8 22.3 56.4 23.5 53.4 24.700000000000003 C 48.699999999999996 26.500000000000004 46.5 29.000000000000004 44.2 33.6 L 44.2 35.2 L 44.2 35.2 z M 59.5 21 C 60.2 20.6 60.9 20.2 61.6 19.8 L 62 19.5 L 62.3 16.6 C 59.5 19.200000000000003 56.599999999999994 20.200000000000003 53.099999999999994 21.700000000000003 C 52.599999999999994 21.900000000000002 51.199999999999996 22.500000000000004 50.699999999999996 22.900000000000002 C 49.3 24.1 48.49999999999999 25.3 48.199999999999996 26.6 C 49.99999999999999 25.1 51.99999999999999 24.200000000000003 54.099999999999994 23.3 C 56 22.4 57.8 21.8 59.5 21 L 59.5 21 z M 49 23.9 C 48.6 24.2 47.4 25.2 47.2 25.5 C 46.7 26.4 46.5 27.3 46.5 28.1 L 47.5 27.1 L 47.7 26.900000000000002 C 47.9 25.9 48.3 24.9 49 23.9 L 49 23.9 z M 36.3 22.4 C 35.099999999999994 21.799999999999997 33.199999999999996 21.099999999999998 31.9 20.599999999999998 C 29.2 19.4 27.4 18.499999999999996 25.299999999999997 16.4 C 25.4 16.9 25.4 17.4 25.499999999999996 17.9 C 25.599999999999998 18.299999999999997 25.699999999999996 19.4 25.999999999999996 19.7 C 26.399999999999995 20.099999999999998 27.499999999999996 20.8 27.999999999999996 21 C 30.099999999999998 22.2 32.5 23 34.699999999999996 23.9 C 36.099999999999994 24.5 37.599999999999994 25.2 38.9 26 C 38.2 24.7 37.3 23.6 36.3 22.4 z" stroke-linecap="round" />
</g>
</g>
</g>
</svg>