<?xml version="1.0" encoding="UTF-8" standalone="no" ?>
<!DOCTYPE svg PUBLIC "-//W3C//DTD SVG 1.1//EN" "http://www.w3.org/Graphics/SVG/1.1/DTD/svg11.dtd">
<svg xmlns="http://www.w3.org/2000/svg" xmlns:xlink="http://www.w3.org/1999/xlink" version="1.1" width="275" height="275" viewBox="0 0 275 275" xml:space="preserve">
<desc>Created with Fabric.js 5.2.4</desc>
<defs>
</defs>
<g transform="matrix(1 0 0 1 137.5 137.5)" id="541fc71b-2450-472c-9733-111f60b2a5ef"  >
<rect style="stroke: none; stroke-width: 1; stroke-dasharray: none; stroke-linecap: butt; stroke-dashoffset: 0; stroke-linejoin: miter; stroke-miterlimit: 4; fill: rgb(255,255,255); fill-rule: nonzero; opacity: 1; visibility: hidden;" vector-effect="non-scaling-stroke"  x="-137.5" y="-137.5" rx="0" ry="0" width="275" height="275" />
</g>
<g transform="matrix(Infinity NaN NaN Infinity 0 0)" id="2ca994ba-08b4-4a56-815d-45e2ae94f803"  >
</g>
<g transform="matrix(0.13 0 0 0.13 137.5 137.5)"  >
<g style="" vector-effect="non-scaling-stroke"   >
		<g transform="matrix(1 0 0 1 0 0)"  >
<path style="stroke: none; stroke-width: 1; stroke-dasharray: none; stroke-linecap: butt; stroke-dashoffset: 0; stroke-linejoin: miter; stroke-miterlimit: 4; fill: rgb(0,0,0); fill-rule: evenodd; opacity: 1;" vector-effect="non-scaling-stroke"  transform=" translate(-1250, -1250)" d="M 1692.5 246.4 L 816.6 246.4 L 246.4 816.6 L 246.4 1685.6 L 812.1 2253.6 L 1683.4 2253.6 L 2253.6000000000004 1683.3999999999999 L 2253.6000000000004 812.1 L 1692.5 246.4 L 1692.5 246.4 z M 2080.3 1605.8 L 1605.9 2080.2 L 894.2 2080.2 L 419.80000000000007 1607.9999999999998 L 419.80000000000007 894.2 L 894.2 422 L 1615 422 L 2080.3 889.6 L 2080.3 1605.8 L 2080.3 1605.8 z" stroke-linecap="round" />
</g>
		<g transform="matrix(1 0 0 1 0.05 -2.25)"  >
<path style="stroke: none; stroke-width: 1; stroke-dasharray: none; stroke-linecap: butt; stroke-dashoffset: 0; stroke-linejoin: miter; stroke-miterlimit: 4; fill: rgb(0,0,0); fill-rule: evenodd; opacity: 1;" vector-effect="non-scaling-stroke"  transform=" translate(-1250.05, -1247.75)" d="M 823.8 1021.9 L 702.9 775.6 L 522.7 944.3 L 522.7 1548.6999999999998 L 696.1 1724.2999999999997 L 696.1 1135.7999999999997 L 846.6 1471.0999999999997 L 1017.7 1023.9999999999997 L 1017.7 1961.4999999999995 L 1209.3 1961.4999999999995 L 1209.3 533.8 L 1006.3 533.8 L 823.8 1021.9 z M 1343.3 533.8 L 1343.3 1961.7 L 1562.3 1961.7 L 1977.4 1548.9 L 1977.4 1247.8000000000002 L 1658 1247.8000000000002 L 1658 1421.2000000000003 L 1776.6 1421.2000000000003 C 1808.5 1416.6000000000004 1810.8 1453.1000000000004 1788 1480.5000000000002 C 1765.2 1507.9000000000003 1534.8 1733.7000000000003 1534.8 1733.7000000000003 L 1534.8 761.9 L 1803.9 1042.4 L 1803.9 1110.8000000000002 L 1977.3000000000002 1110.8000000000002 L 1977.3000000000002 951.2 L 1566.7000000000003 533.8000000000001 L 1343.3 533.8000000000001 L 1343.3 533.8 z" stroke-linecap="round" />
</g>
</g>
</g>
</svg>