<?xml version="1.0" encoding="UTF-8" standalone="no" ?>
<!DOCTYPE svg PUBLIC "-//W3C//DTD SVG 1.1//EN" "http://www.w3.org/Graphics/SVG/1.1/DTD/svg11.dtd">
<svg xmlns="http://www.w3.org/2000/svg" xmlns:xlink="http://www.w3.org/1999/xlink" version="1.1" width="625" height="275" viewBox="0 0 625 275" xml:space="preserve">
<desc>Created with Fabric.js 5.2.4</desc>
<defs>
</defs>
<rect x="0" y="0" width="100%" height="100%" fill="transparent"></rect>
<g transform="matrix(1 0 0 1 312.5 137.5)" id="541fc71b-2450-472c-9733-111f60b2a5ef"  >
<rect style="stroke: none; stroke-width: 1; stroke-dasharray: none; stroke-linecap: butt; stroke-dashoffset: 0; stroke-linejoin: miter; stroke-miterlimit: 4; fill: rgb(255,255,255); fill-rule: nonzero; opacity: 1; visibility: hidden;" vector-effect="non-scaling-stroke"  x="-312.5" y="-137.5" rx="0" ry="0" width="625" height="275" />
</g>
<g transform="matrix(Infinity NaN NaN Infinity 0 0)" id="2ca994ba-08b4-4a56-815d-45e2ae94f803"  >
</g>
<g transform="matrix(4.62 0 0 4.62 312.5 137.5)" id="5ebed2a7-346c-4231-902b-03f15149e336"  >
<path style="stroke: rgb(0,0,0); stroke-width: 0; stroke-dasharray: none; stroke-linecap: butt; stroke-dashoffset: 0; stroke-linejoin: miter; stroke-miterlimit: 4; fill: rgb(18,10,8); fill-rule: nonzero; opacity: 1;" vector-effect="non-scaling-stroke"  transform=" translate(-88.73, -183.45)" d="M 88.725 154.442 C 78.82322903906486 154.44394380098822 69.60657575405872 159.49698480428756 64.28 167.844 L 22.58 167.844 L 26.730999999999998 171.995 L 62.114000000000004 171.995 C 61.44226569348497 173.55718666045846 60.90921241596954 175.175419962445 60.521 176.83100000000002 L 31.568 176.83100000000002 L 35.668 180.93200000000002 L 59.85 180.93200000000002 C 59.77060973493841 181.76807040855186 59.72756917854678 182.60719443432674 59.721000000000004 183.44700000000003 C 59.728618677439975 184.22223923535373 59.767316422384745 184.99686133674808 59.837 185.769 L 40.505 185.769 L 44.605000000000004 189.869 L 60.468 189.869 C 60.835745339241114 191.52292580611666 61.34770312812591 193.1414485674472 61.99800000000001 194.70600000000002 L 49.442 194.706 L 53.594 198.85799999999998 L 64.194 198.85799999999998 C 69.49146121107903 207.30382673527166 78.75530139670005 212.43706140337108 88.725 212.45099999999996 C 98.69469860329994 212.43706140337108 107.95853878892096 207.30382673527166 113.256 198.85799999999998 L 123.858 198.85799999999998 L 128.008 194.706 L 115.45400000000001 194.706 C 116.10424138672954 193.1417716631035 116.61619843698296 191.52358584936135 116.98400000000001 189.86999999999998 L 132.845 189.86999999999998 L 136.946 185.76999999999998 L 117.614 185.76999999999998 C 117.68371027652903 184.99752907153518 117.72240804820294 184.2225728336171 117.73 183.44699999999997 C 117.72376325831466 182.6072089332273 117.68105635127931 181.76808493952495 117.602 180.932 L 141.782 180.932 L 145.88400000000001 176.832 L 116.93 176.832 C 116.54184383477381 175.17607969650726 116.00878978816752 173.55750943697515 115.337 171.995 L 150.72 171.995 L 154.871 167.844 L 113.171 167.844 C 107.8442331343931 159.49668545759357 98.62712617282725 154.4436024379214 88.72500000000001 154.442 z M 88.725 158.37300000000002 C 95.37511957409875 158.37273476439998 101.75294369434609 161.01436700508037 106.45528834463286 165.71671165536713 C 111.15763299491964 170.41905630565392 113.79926523560003 176.79688042590126 113.79899999999999 183.447 C 113.79900000528902 190.09694631439558 111.15725067608815 196.47451352370905 106.45493477482503 201.1766418874472 C 101.7526188735619 205.87877025118533 95.37494630910652 208.5202652234003 88.72500000000001 208.52000000000004 C 74.8775644674925 208.52000000000004 63.651999999999994 197.29443553250752 63.651999999999994 183.44700000000003 C 63.651734776599746 176.7970536908935 66.29322974881468 170.41938112643814 70.99535811255282 165.71706522517502 C 75.69748647629096 161.01474932391187 82.07505368560444 158.372999994711 88.72499999999998 158.37300000000002 z M 68.78 176.948 L 68.78 189.945 L 71.49 189.945 L 71.49 179.715 L 74.35 189.945 L 77.16 189.945 L 80.02799999999999 179.715 L 80.02799999999999 189.945 L 82.73799999999999 189.945 L 82.73799999999999 176.94799999999998 L 78.36199999999998 176.94799999999998 L 75.76899999999998 185.81399999999996 L 73.14699999999998 176.94799999999998 z M 85.56700000000001 176.948 L 85.56700000000001 189.945 L 88.48500000000001 189.945 L 88.48500000000001 176.94799999999998 z M 91.284 176.948 L 91.284 189.945 L 93.995 189.945 L 93.995 181.47 L 99.821 189.945 L 102.749 189.945 L 102.749 176.94799999999998 L 100.038 176.94799999999998 L 100.038 185.628 L 94.124 176.94799999999998 z M 105.754 176.948 L 105.754 189.945 L 108.673 189.945 L 108.673 176.94799999999998 z" stroke-linecap="round" />
</g>
</svg>