<?xml version="1.0" encoding="UTF-8" standalone="no" ?>
<!DOCTYPE svg PUBLIC "-//W3C//DTD SVG 1.1//EN" "http://www.w3.org/Graphics/SVG/1.1/DTD/svg11.dtd">
<svg xmlns="http://www.w3.org/2000/svg" xmlns:xlink="http://www.w3.org/1999/xlink" version="1.1" width="275" height="275" viewBox="0 0 275 275" xml:space="preserve">
<desc>Created with Fabric.js 5.2.4</desc>
<defs>
</defs>
<rect x="0" y="0" width="100%" height="100%" fill="transparent"></rect>
<g transform="matrix(0 0 0 0 0 0)" id="2ca994ba-08b4-4a56-815d-45e2ae94f803"  >
</g>
<g transform="matrix(1 0 0 1 137.5 137.5)" id="541fc71b-2450-472c-9733-111f60b2a5ef"  >
<rect style="stroke: none; stroke-width: 1; stroke-dasharray: none; stroke-linecap: butt; stroke-dashoffset: 0; stroke-linejoin: miter; stroke-miterlimit: 4; fill: rgb(255,255,255); fill-rule: nonzero; opacity: 1; visibility: hidden;" vector-effect="non-scaling-stroke"  x="-137.5" y="-137.5" rx="0" ry="0" width="275" height="275" />
</g>
<g transform="matrix(1.51 0 0 1.51 137.5 137.5)"  >
<path style="stroke: none; stroke-width: 1; stroke-dasharray: none; stroke-linecap: butt; stroke-dashoffset: 0; stroke-linejoin: miter; stroke-miterlimit: 4; fill: rgb(255,255,255); fill-rule: evenodd; opacity: 1;" vector-effect="non-scaling-stroke"  transform=" translate(-96.38, -96.38)" d="M 165.547 15.677 L 165.447 14.389 L 165.15 13.196 L 164.65 12.103 L 164.053 11.01 L 163.258 10.116 L 162.264 9.321 L 161.268 8.725999999999999 L 160.172 8.229 L 158.98 7.932999999999999 L 157.68599999999998 7.830999999999999 L 35.071 7.830999999999999 L 33.777 7.932999999999999 L 32.582 8.229 L 31.487000000000002 8.725999999999999 L 30.395000000000003 9.321 L 29.497000000000003 10.116 L 28.701000000000004 11.01 L 28.105000000000004 12.103 L 27.607000000000003 13.196 L 27.308000000000003 14.389 L 27.209000000000003 15.677 L 27.209000000000003 176.97899999999998 L 27.308000000000003 178.26999999999998 L 27.607000000000003 179.46099999999998 L 28.105000000000004 180.654 L 28.701000000000004 181.646 L 29.497000000000003 182.541 L 30.395000000000003 183.334 L 31.487000000000002 184.031 L 32.582 184.428 L 33.777 184.727 L 35.071 184.92600000000002 L 157.68599999999998 184.92600000000002 L 158.98 184.727 L 160.172 184.428 L 161.268 184.031 L 162.264 183.334 L 163.258 182.541 L 164.053 181.646 L 164.65 180.654 L 165.15 179.46099999999998 L 165.447 178.26999999999998 L 165.547 176.97899999999998 L 165.547 15.677 z" stroke-linecap="round" />
</g>
<g transform="matrix(1.51 0 0 1.51 137.5 137.5)"  >
<path style="stroke: rgb(0,0,0); stroke-width: 1.28; stroke-dasharray: none; stroke-linecap: butt; stroke-dashoffset: 0; stroke-linejoin: miter; stroke-miterlimit: 2.61; fill: none; fill-rule: nonzero; opacity: 1;" vector-effect="non-scaling-stroke"  transform=" translate(-96.38, -96.38)" d="M 165.547 15.677 L 165.447 14.389 L 165.148 13.196 L 164.65 12.103 L 164.053 11.01 L 163.258 10.116 L 162.264 9.321 L 161.268 8.725999999999999 L 160.172 8.229 L 158.97899999999998 7.932999999999999 L 157.68599999999998 7.830999999999999 L 35.071 7.830999999999999 L 33.775999999999996 7.932999999999999 L 32.581999999999994 8.229 L 31.486999999999995 8.725999999999999 L 30.394999999999996 9.321 L 29.496999999999996 10.116 L 28.700999999999997 11.01 L 28.104999999999997 12.103 L 27.606999999999996 13.196 L 27.307999999999996 14.389 L 27.208999999999996 15.677 L 27.208999999999996 176.97899999999998 L 27.307999999999996 178.26999999999998 L 27.606999999999996 179.46099999999998 L 28.104999999999997 180.654 L 28.700999999999997 181.646 L 29.496999999999996 182.541 L 30.394999999999996 183.334 L 31.486999999999995 184.031 L 32.581999999999994 184.428 L 33.775999999999996 184.727 L 35.071 184.92600000000002 L 157.68599999999998 184.92600000000002 L 158.97899999999998 184.727 L 160.172 184.428 L 161.268 184.031 L 162.264 183.334 L 163.258 182.541 L 164.053 181.646 L 164.65 180.654 L 165.148 179.46099999999998 L 165.447 178.26999999999998 L 165.547 176.97899999999998 L 165.547 15.677 z" stroke-linecap="round" />
</g>
<g transform="matrix(1.51 0 0 1.51 137.5 141.78)"  >
<path style="stroke: none; stroke-width: 1; stroke-dasharray: none; stroke-linecap: butt; stroke-dashoffset: 0; stroke-linejoin: miter; stroke-miterlimit: 4; fill: rgb(0,0,0); fill-rule: evenodd; opacity: 1;" vector-effect="non-scaling-stroke"  transform=" translate(-96.38, -99.21)" d="M 31.388 127.02 L 74.682 127.02 L 95.979 89.57499999999999 L 52.786 89.57499999999999 L 31.388 127.02 z M 96.178 89.276 L 74.582 51.335 L 96.178 13.493000000000002 L 117.775 51.335 L 96.178 89.27600000000001 z M 160.869 127.02 L 117.576 127.02 L 96.278 89.575 L 139.471 89.575 L 160.869 127.02000000000001 z M 27.209 131.986 L 27.209 176.97899999999998 L 27.308 178.26999999999998 L 27.607 179.46099999999998 L 28.105 180.654 L 28.701 181.646 L 29.497 182.541 L 30.395 183.334 L 31.487 184.031 L 32.582 184.428 L 33.777 184.727 L 35.071 184.92600000000002 L 157.68599999999998 184.92600000000002 L 158.98 184.727 L 160.172 184.428 L 161.268 184.031 L 162.264 183.334 L 163.258 182.541 L 164.053 181.646 L 164.65 180.654 L 165.15 179.46099999999998 L 165.447 178.26999999999998 L 165.547 176.97899999999998 L 165.547 131.986 L 27.209 131.986 z" stroke-linecap="round" />
</g>
<g transform="matrix(1.51 0 0 1.51 137.8 219.08)"  >
<path style="stroke: none; stroke-width: 1; stroke-dasharray: none; stroke-linecap: butt; stroke-dashoffset: 0; stroke-linejoin: miter; stroke-miterlimit: 4; fill: rgb(255,255,255); fill-rule: evenodd; opacity: 1;" vector-effect="non-scaling-stroke"  transform=" translate(-96.58, -150.36)" d="M 120.76 160.688 L 120.76 139.43599999999998 L 116.781 139.43599999999998 L 116.781 160.688 L 120.76 160.688 z M 160.77 160.688 L 160.77 139.43599999999998 L 156.78900000000002 139.43599999999998 L 156.78900000000002 160.688 L 160.77 160.688 z M 56.07 160.688 L 56.07 139.43599999999998 L 52.089 139.43599999999998 L 52.089 160.688 L 56.07 160.688 z M 57.264 139.436 L 69.608 139.436 L 69.608 143.01000000000002 L 65.527 143.01000000000002 L 65.527 160.68800000000002 L 61.444 160.68800000000002 L 61.444 143.01 L 57.264 143.01 L 57.264 139.43599999999998 z M 138.176 139.436 L 138.176 160.68800000000002 L 142.158 160.68800000000002 L 142.158 151.15400000000002 L 149.32399999999998 151.15400000000002 L 149.32399999999998 160.68800000000002 L 153.30499999999998 160.68800000000002 L 153.30499999999998 139.436 L 149.32399999999998 139.436 L 149.32399999999998 147.48000000000002 L 142.158 147.48000000000002 L 142.158 139.436 L 138.176 139.436 z M 32.384 160.688 L 32.384 139.43599999999998 L 37.062 139.43599999999998 L 40.742999999999995 148.96899999999997 L 44.526999999999994 139.43599999999998 L 49.00299999999999 139.43599999999998 L 49.00299999999999 160.688 L 45.02199999999999 160.688 L 45.02199999999999 147.381 L 40.742999999999995 158.105 L 36.36599999999999 147.48 L 36.36599999999999 160.688 L 32.38399999999999 160.688 z M 98.469 154.434 L 98.07 156.615 L 97.074 158.50400000000002 L 95.581 159.99400000000003 L 93.69 160.98600000000002 L 91.5 161.28500000000003 L 89.312 160.98600000000002 L 87.419 159.99400000000003 L 85.928 158.50400000000002 L 84.932 156.615 L 84.534 154.434 L 84.534 139.436 L 88.516 139.436 L 88.516 154.631 L 88.714 155.525 L 89.112 156.32 L 89.70899999999999 157.016 L 90.60499999999999 157.41199999999998 L 91.49999999999999 157.60899999999998 L 92.49599999999998 157.41199999999998 L 93.29299999999998 157.016 L 93.88899999999998 156.32 L 94.38799999999998 155.525 L 94.48699999999998 154.631 L 94.48699999999998 139.436 L 98.46899999999998 139.436 L 98.46899999999998 154.434 z M 101.055 160.688 L 101.055 139.43599999999998 L 109.41600000000001 139.43599999999998 L 110.611 139.635 L 112.004 140.32999999999998 L 113.197 141.422 L 113.992 142.912 L 114.391 144.89600000000002 L 114.09400000000001 146.28900000000002 L 113.596 147.48000000000002 L 112.89800000000001 148.27300000000002 L 112.20300000000002 148.87100000000004 L 111.70300000000002 149.17000000000004 L 112.69900000000001 149.76400000000004 L 113.59600000000002 150.65800000000004 L 114.29100000000001 151.75000000000006 L 114.78900000000002 153.14100000000005 L 114.98800000000001 155.02900000000005 L 114.59000000000002 157.21300000000005 L 113.59600000000002 158.80300000000005 L 112.10200000000002 159.89600000000004 L 110.21100000000001 160.49000000000004 L 108.32000000000001 160.68800000000005 L 101.055 160.68800000000005 z" stroke-linecap="round" />
</g>
<g transform="matrix(1.51 0 0 1.51 155.15 218.62)"  >
<path style="stroke: none; stroke-width: 1; stroke-dasharray: none; stroke-linecap: butt; stroke-dashoffset: 0; stroke-linejoin: miter; stroke-miterlimit: 4; fill: rgb(0,0,0); fill-rule: evenodd; opacity: 1;" vector-effect="non-scaling-stroke"  transform=" translate(-108.07, -150.06)" d="M 105.037 143.01 L 108.32000000000001 143.01 L 108.918 143.10899999999998 L 109.516 143.408 L 109.912 143.904 L 110.21100000000001 144.402 L 110.31200000000001 145.09599999999998 L 110.21100000000001 145.79299999999998 L 110.01200000000001 146.38699999999997 L 109.71300000000001 146.98199999999997 L 109.117 147.38099999999997 L 108.42 147.47999999999996 L 106.23 147.47999999999996 L 106.23 151.15399999999997 L 108.52000000000001 151.15399999999997 L 109.215 151.25399999999996 L 109.912 151.64999999999995 L 110.512 152.24599999999995 L 111.01 153.14099999999996 L 111.105 154.33199999999997 L 110.91000000000001 155.32599999999996 L 110.51200000000001 156.12099999999995 L 109.81200000000001 156.61499999999995 L 109.21500000000002 156.91599999999994 L 108.52000000000002 157.11299999999994 L 105.03700000000002 157.11299999999994 L 105.03700000000002 143.01 z" stroke-linecap="round" />
</g>
<g transform="matrix(1.51 0 0 1.51 112.8 250.84)"  >
<path style="stroke: none; stroke-width: 1; stroke-dasharray: none; stroke-linecap: butt; stroke-dashoffset: 0; stroke-linejoin: miter; stroke-miterlimit: 4; fill: rgb(255,255,255); fill-rule: evenodd; opacity: 1;" vector-effect="non-scaling-stroke"  transform=" translate(-80.06, -171.37)" d="M 64.629 177.873 L 64.629 164.564 L 67.518 164.564 L 69.805 170.521 L 72.19300000000001 164.564 L 74.97900000000001 164.564 L 74.97900000000001 177.873 L 72.49200000000002 177.873 L 72.49200000000002 169.529 L 69.80500000000002 176.283 L 67.11700000000002 169.629 L 67.11700000000002 177.873 L 64.62900000000002 177.873 z M 87.718 164.662 L 95.482 164.662 L 95.482 166.848 L 92.894 166.848 L 92.894 177.87300000000002 L 90.308 177.87300000000002 L 90.308 166.848 L 87.718 166.848 L 87.718 164.662 z M 82.047 178.367 L 83.73899999999999 177.97299999999998 L 85.23199999999999 176.97899999999998 L 86.42499999999998 175.48799999999997 L 87.12299999999998 173.59999999999997 L 87.41899999999998 171.31799999999996 L 87.12299999999998 169.13299999999995 L 86.42499999999998 167.14499999999995 L 85.23199999999999 165.65599999999995 L 83.73899999999999 164.66199999999995 L 82.047 164.36499999999995 L 80.353 164.66199999999995 L 78.862 165.65599999999995 L 77.76899999999999 167.14499999999995 L 76.96999999999998 169.13299999999995 L 76.67099999999998 171.31799999999996 L 76.96999999999998 173.59999999999997 L 77.76899999999999 175.48799999999997 L 78.862 176.97899999999998 L 80.353 177.97299999999998 L 82.047 178.367 z" stroke-linecap="round" />
</g>
<g transform="matrix(1.51 0 0 1.51 115.88 250.84)"  >
<path style="stroke: none; stroke-width: 1; stroke-dasharray: none; stroke-linecap: butt; stroke-dashoffset: 0; stroke-linejoin: miter; stroke-miterlimit: 4; fill: rgb(0,0,0); fill-rule: evenodd; opacity: 1;" vector-effect="non-scaling-stroke"  transform=" translate(-82.1, -171.37)" d="M 82.047 175.887 L 82.941 175.588 L 83.739 174.98999999999998 L 84.33500000000001 173.99999999999997 L 84.733 172.80899999999997 L 84.932 171.31799999999996 L 84.733 169.92799999999997 L 84.33500000000001 168.63499999999996 L 83.739 167.74199999999996 L 82.941 167.04699999999997 L 82.047 166.84799999999996 L 81.151 167.04699999999997 L 80.353 167.74199999999996 L 79.756 168.63499999999996 L 79.359 169.92799999999997 L 79.259 171.31799999999996 L 79.359 172.80899999999997 L 79.756 173.99999999999997 L 80.353 174.98999999999998 L 81.151 175.588 L 82.047 175.887 z" stroke-linecap="round" />
</g>
<g transform="matrix(1.51 0 0 1.51 145.29 250.84)"  >
<path style="stroke: none; stroke-width: 1; stroke-dasharray: none; stroke-linecap: butt; stroke-dashoffset: 0; stroke-linejoin: miter; stroke-miterlimit: 4; fill: rgb(255,255,255); fill-rule: evenodd; opacity: 1;" vector-effect="non-scaling-stroke"  transform=" translate(-101.55, -171.37)" d="M 101.553 178.367 L 103.244 177.97299999999998 L 104.738 176.97899999999998 L 105.932 175.48799999999997 L 106.729 173.59999999999997 L 106.926 171.31799999999996 L 106.729 169.13299999999995 L 105.932 167.14499999999995 L 104.738 165.65599999999995 L 103.244 164.66199999999995 L 101.553 164.36499999999995 L 99.861 164.66199999999995 L 98.46900000000001 165.65599999999995 L 97.27300000000001 167.14499999999995 L 96.48 169.13299999999995 L 96.178 171.31799999999996 L 96.48 173.59999999999997 L 97.27300000000001 175.48799999999997 L 98.46900000000001 176.97899999999998 L 99.861 177.97299999999998 L 101.553 178.367 z" stroke-linecap="round" />
</g>
<g transform="matrix(1.51 0 0 1.51 145.37 250.84)"  >
<path style="stroke: none; stroke-width: 1; stroke-dasharray: none; stroke-linecap: butt; stroke-dashoffset: 0; stroke-linejoin: miter; stroke-miterlimit: 4; fill: rgb(0,0,0); fill-rule: evenodd; opacity: 1;" vector-effect="non-scaling-stroke"  transform=" translate(-101.6, -171.37)" d="M 101.553 175.887 L 102.449 175.588 L 103.244 174.98999999999998 L 103.842 173.99999999999997 L 104.24 172.80899999999997 L 104.439 171.31799999999996 L 104.24 169.92799999999997 L 103.842 168.63499999999996 L 103.244 167.74199999999996 L 102.449 167.04699999999997 L 101.553 166.84799999999996 L 100.658 167.04699999999997 L 99.961 167.74199999999996 L 99.264 168.63499999999996 L 98.865 169.92799999999997 L 98.76599999999999 171.31799999999996 L 98.865 172.80899999999997 L 99.264 173.99999999999997 L 99.961 174.98999999999998 L 100.658 175.588 L 101.553 175.887 z" stroke-linecap="round" />
</g>
<g transform="matrix(1.51 0 0 1.51 147.26 231.47)"  >
<path style="stroke: none; stroke-width: 1; stroke-dasharray: none; stroke-linecap: butt; stroke-dashoffset: 0; stroke-linejoin: miter; stroke-miterlimit: 4; fill: rgb(255,255,255); fill-rule: evenodd; opacity: 1;" vector-effect="non-scaling-stroke"  transform=" translate(-102.85, -158.55)" d="M 109.018 177.973 L 109.018 164.662 L 114.094 164.662 L 115.189 164.86100000000002 L 116.18199999999999 165.35700000000003 L 116.97899999999998 166.15400000000002 L 117.47699999999999 167.14500000000004 L 117.67599999999999 168.23800000000003 L 117.576 169.03100000000003 L 117.377 169.82800000000003 L 116.979 170.72100000000003 L 116.281 171.51600000000002 L 115.387 172.11100000000002 L 118.672 177.973 L 115.88499999999999 177.973 L 112.6 172.311 L 112.502 172.012 L 112.502 171.318 L 112.699 171.02 L 113.098 170.721 L 113.695 170.52100000000002 L 114.193 170.324 L 114.689 169.92800000000003 L 115.08999999999999 169.33200000000002 L 115.189 168.53700000000003 L 115.08999999999999 167.84200000000004 L 114.89099999999999 167.34400000000005 L 114.49 167.04700000000005 L 114.094 166.94700000000006 L 113.695 166.84800000000007 L 111.506 166.84800000000007 L 111.506 177.97300000000007 L 109.018 177.97300000000007 z M 73.288 154.93 L 73.487 155.723 L 73.985 156.518 L 74.582 157.113 L 75.378 157.512 L 76.375 157.709 L 77.27 157.609 L 78.064 157.21300000000002 L 78.66199999999999 156.615 L 79.06099999999999 155.824 L 79.25899999999999 154.93 L 79.16099999999999 154.531 L 79.06099999999999 154.035 L 78.96199999999999 153.639 L 78.66199999999999 153.24 L 78.36299999999999 152.943 L 77.66699999999999 152.346 L 76.67099999999999 151.75 L 75.476 151.154 L 74.185 150.459 L 72.89 149.666 L 71.795 148.871 L 71.10000000000001 147.977 L 70.50000000000001 147.082 L 70.20200000000001 146.088 L 70.10400000000001 145.096 L 70.40100000000001 143.01 L 71.29800000000002 141.322 L 72.69200000000002 140.031 L 74.38300000000002 139.234 L 76.37500000000003 138.93800000000002 L 78.56200000000003 139.234 L 80.25300000000003 140.12900000000002 L 81.54800000000003 141.42200000000003 L 82.24600000000002 143.10900000000004 L 82.54400000000003 145.09600000000003 L 82.54400000000003 146.08800000000002 L 79.06100000000002 146.08800000000002 L 78.96200000000002 145.89100000000002 L 78.96200000000002 145.096 L 78.86200000000002 144.201 L 78.46300000000002 143.506 L 77.86700000000002 142.912 L 77.16800000000002 142.613 L 76.37500000000001 142.414 L 75.47600000000001 142.613 L 74.88100000000001 142.912 L 74.38300000000001 143.40800000000002 L 73.98500000000001 144.104 L 73.88400000000001 144.89600000000002 L 73.98500000000001 145.49200000000002 L 74.18500000000002 145.89100000000002 L 74.48200000000001 146.38700000000003 L 74.97900000000001 146.78500000000003 L 75.57700000000001 147.18200000000002 L 76.47200000000001 147.68 L 77.667 148.273 L 78.962 148.969 L 80.055 149.666 L 80.95100000000001 150.361 L 81.64800000000001 151.057 L 82.24600000000001 151.94899999999998 L 82.64300000000001 152.844 L 82.84300000000002 153.83599999999998 L 82.94100000000002 154.92999999999998 L 82.64300000000001 157.016 L 81.64800000000001 158.703 L 80.25300000000001 159.994 L 78.46300000000001 160.789 L 76.37500000000001 161.08599999999998 L 74.28400000000002 160.789 L 72.39100000000002 159.896 L 70.99800000000002 158.504 L 70.00300000000001 156.71699999999998 L 69.70500000000001 154.63099999999997 L 69.70500000000001 153.73599999999996 L 73.08900000000001 153.73599999999996 L 73.08900000000001 153.93799999999996 L 73.18900000000001 154.23199999999997 L 73.18900000000001 154.72899999999998 L 73.28800000000001 154.92999999999998 z M 121.955 174.297 L 122.05499999999999 174.793 L 122.354 175.291 L 122.75 175.689 L 123.25 175.887 L 123.846 175.984 L 124.44500000000001 175.984 L 124.941 175.68900000000002 L 125.33800000000001 175.39100000000002 L 125.539 174.89300000000003 L 125.639 174.29700000000003 L 125.639 174 L 125.539 173.701 L 125.43900000000001 173.50199999999998 L 125.33800000000001 173.20499999999998 L 125.141 173.00599999999997 L 124.643 172.70899999999997 L 124.045 172.31099999999998 L 123.25 171.91199999999998 L 122.451 171.516 L 121.65599999999999 171.01999999999998 L 121.059 170.521 L 120.562 169.928 L 120.264 169.332 L 120.064 168.736 L 119.967 168.13899999999998 L 120.164 166.84799999999998 L 120.76 165.85399999999998 L 121.55900000000001 165.06099999999998 L 122.65 164.56399999999996 L 123.846 164.46499999999997 L 125.238 164.56399999999996 L 126.334 165.15999999999997 L 127.131 165.95299999999997 L 127.531 166.94699999999997 L 127.729 168.13899999999998 L 127.729 168.736 L 125.539 168.736 L 125.539 168.139 L 125.43900000000001 167.643 L 125.141 167.145 L 124.842 166.848 L 124.344 166.55100000000002 L 123.84599999999999 166.449 L 123.35 166.55100000000002 L 122.951 166.746 L 122.553 167.145 L 122.354 167.543 L 122.354 168.338 L 122.553 168.635 L 122.75 168.934 L 123.051 169.133 L 123.35000000000001 169.43200000000002 L 123.94500000000001 169.729 L 124.643 170.125 L 125.43900000000001 170.623 L 126.137 171.01999999999998 L 126.732 171.41799999999998 L 127.131 171.91199999999998 L 127.531 172.40999999999997 L 127.729 173.00599999999997 L 127.926 173.59999999999997 L 128.02700000000002 174.29699999999997 L 127.82800000000002 175.58799999999997 L 127.22900000000001 176.67999999999998 L 126.33400000000002 177.47499999999997 L 125.14100000000002 177.97299999999996 L 123.84600000000002 178.16999999999996 L 122.55300000000001 177.97299999999996 L 121.36100000000002 177.37699999999995 L 120.46100000000001 176.48199999999994 L 119.86500000000001 175.39099999999993 L 119.668 174.09799999999993 L 119.668 173.59999999999994 L 121.857 173.59999999999994 L 121.857 174.19899999999993 L 121.955 174.29699999999994 z M 126.234 154.93 L 126.533 155.723 L 126.93 156.518 L 127.629 157.113 L 128.424 157.512 L 129.32 157.709 L 130.21699999999998 157.609 L 131.01199999999997 157.21300000000002 L 131.70899999999997 156.615 L 132.10499999999996 155.824 L 132.20499999999996 154.93 L 132.20499999999996 154.531 L 132.10499999999996 154.035 L 131.90799999999996 153.639 L 131.70899999999995 153.24 L 131.40999999999994 152.943 L 130.71499999999995 152.346 L 129.61899999999994 151.75 L 128.42399999999995 151.154 L 127.13099999999994 150.459 L 125.83799999999994 149.666 L 124.84199999999994 148.871 L 124.04499999999994 147.977 L 123.54899999999995 147.082 L 123.24999999999994 146.088 L 123.14999999999995 145.096 L 123.44899999999996 143.01 L 124.34399999999995 141.322 L 125.63899999999995 140.031 L 127.32999999999996 139.234 L 129.31999999999996 138.93800000000002 L 131.50999999999996 139.234 L 133.30099999999996 140.12900000000002 L 134.49599999999995 141.42200000000003 L 135.29299999999995 143.10900000000004 L 135.49199999999996 145.09600000000003 L 135.49199999999996 146.08800000000002 L 132.00599999999997 146.08800000000002 L 132.00599999999997 145.096 L 131.80899999999997 144.201 L 131.50999999999996 143.506 L 130.91399999999996 142.912 L 130.21699999999996 142.613 L 129.31999999999996 142.414 L 128.52299999999997 142.613 L 127.82799999999997 142.912 L 127.32999999999997 143.40800000000002 L 127.03099999999996 144.104 L 126.92999999999996 144.89600000000002 L 127.03099999999996 145.49200000000002 L 127.22899999999996 145.89100000000002 L 127.53099999999996 146.38700000000003 L 128.02699999999996 146.78500000000003 L 128.62299999999996 147.18200000000002 L 129.51999999999995 147.68 L 130.61499999999995 148.273 L 131.90799999999996 148.969 L 133.10199999999995 149.666 L 133.89799999999994 150.361 L 134.59399999999994 151.057 L 135.19099999999995 151.94899999999998 L 135.58999999999995 152.844 L 135.88899999999995 153.83599999999998 L 135.98799999999994 154.92999999999998 L 135.58999999999995 157.016 L 134.69299999999996 158.703 L 133.30099999999996 159.994 L 131.40999999999997 160.789 L 129.31999999999996 161.08599999999998 L 127.22899999999997 160.789 L 125.43899999999996 159.896 L 123.94499999999996 158.504 L 123.05099999999996 156.71699999999998 L 122.64999999999996 154.63099999999997 L 122.64999999999996 153.73599999999996 L 126.13699999999996 153.73599999999996 L 126.13699999999996 154.43399999999997 L 126.23399999999995 154.72899999999996 L 126.23399999999995 154.92999999999995 z" stroke-linecap="round" />
</g>
</svg>