<?xml version="1.0" encoding="UTF-8" standalone="no" ?>
<!DOCTYPE svg PUBLIC "-//W3C//DTD SVG 1.1//EN" "http://www.w3.org/Graphics/SVG/1.1/DTD/svg11.dtd">
<svg xmlns="http://www.w3.org/2000/svg" xmlns:xlink="http://www.w3.org/1999/xlink" version="1.1" width="275" height="275" viewBox="0 0 275 275" xml:space="preserve">
<desc>Created with Fabric.js 5.2.4</desc>
<defs>
</defs>
<g transform="matrix(1 0 0 1 137.5 137.5)" id="6d36dafd-8b76-44da-9a7b-e428677a45ab"  >
<rect style="stroke: none; stroke-width: 1; stroke-dasharray: none; stroke-linecap: butt; stroke-dashoffset: 0; stroke-linejoin: miter; stroke-miterlimit: 4; fill: rgb(255,255,255); fill-rule: nonzero; opacity: 1; visibility: hidden;" vector-effect="non-scaling-stroke"  x="-137.5" y="-137.5" rx="0" ry="0" width="275" height="275" />
</g>
<g transform="matrix(Infinity NaN NaN Infinity 0 0)" id="e8327d55-c40f-4bfe-bea4-058159c57b9e"  >
</g>
<g transform="matrix(0.27 0 0 0.27 137.5 137.5)"  >
<g style="" vector-effect="non-scaling-stroke"   >
		<g transform="matrix(1.98 0 0 1.98 45.04 -0.1)"  >
<path style="stroke: none; stroke-width: 1; stroke-dasharray: none; stroke-linecap: butt; stroke-dashoffset: 0; stroke-linejoin: miter; stroke-miterlimit: 4; fill: rgb(0,0,0); fill-rule: nonzero; opacity: 1;" vector-effect="non-scaling-stroke"  transform=" translate(-274.7, -210.8)" d="M 293.7 227.7 C 293.3 227.79999999999998 291.7 227.79999999999998 291 227.79999999999998 L 239.4 227.79999999999998 L 239.4 239.79999999999998 L 291.9 239.79999999999998 C 292.29999999999995 239.79999999999998 295.4 239.79999999999998 296 239.7 C 306.7 238.7 311.6 229.79999999999998 311.6 222 C 311.6 214 306.5 205.4 296.8 204.5 C 294.90000000000003 204.3 293.3 204.3 292.6 204.3 L 258.3 204.3 C 256.8 204.3 255.10000000000002 204.20000000000002 254.5 204 C 251.8 203.3 250.8 200.9 250.8 198.9 C 250.8 197.1 251.8 194.70000000000002 254.60000000000002 193.9 C 255.40000000000003 193.70000000000002 256.3 193.6 258.20000000000005 193.6 L 307.70000000000005 193.6 L 307.70000000000005 181.79999999999998 L 257.40000000000003 181.79999999999998 C 255.30000000000004 181.79999999999998 253.70000000000005 181.89999999999998 252.40000000000003 182.1 C 243.80000000000004 183.29999999999998 237.80000000000004 190.2 237.80000000000004 199 C 237.80000000000004 206.2 242.30000000000004 214.6 252.20000000000005 216 C 254.00000000000006 216.2 256.50000000000006 216.2 257.6 216.2 L 291 216.2 C 291.6 216.2 293.1 216.2 293.4 216.29999999999998 C 297.2 216.79999999999998 298.5 219.6 298.5 222.1 C 298.5 224.5 297 227.1 293.7 227.7 z" stroke-linecap="round" />
</g>
		<g transform="matrix(1.98 0 0 1.98 -149.01 -0.1)"  >
<path style="stroke: none; stroke-width: 1; stroke-dasharray: none; stroke-linecap: butt; stroke-dashoffset: 0; stroke-linejoin: miter; stroke-miterlimit: 4; fill: rgb(0,0,0); fill-rule: nonzero; opacity: 1;" vector-effect="non-scaling-stroke"  transform=" translate(-176.9, -210.8)" d="M 195.9 227.7 C 195.5 227.79999999999998 193.9 227.79999999999998 193.3 227.79999999999998 L 141.60000000000002 227.79999999999998 L 141.60000000000002 239.79999999999998 L 194.10000000000002 239.79999999999998 C 194.50000000000003 239.79999999999998 197.60000000000002 239.79999999999998 198.20000000000002 239.7 C 208.9 238.7 213.8 229.79999999999998 213.8 222 C 213.8 214 208.70000000000002 205.4 199 204.5 C 197.1 204.3 195.5 204.3 194.8 204.3 L 160.5 204.3 C 159 204.3 157.3 204.20000000000002 156.7 204 C 154 203.3 153 200.9 153 198.9 C 153 197.1 154 194.70000000000002 156.8 193.9 C 157.60000000000002 193.70000000000002 158.5 193.6 160.4 193.6 L 209.9 193.6 L 209.9 181.79999999999998 L 159.60000000000002 181.79999999999998 C 157.50000000000003 181.79999999999998 155.90000000000003 181.89999999999998 154.60000000000002 182.1 C 146.00000000000003 183.29999999999998 140.00000000000003 190.2 140.00000000000003 199 C 140.00000000000003 206.2 144.50000000000003 214.6 154.40000000000003 216 C 156.20000000000005 216.2 158.70000000000005 216.2 159.80000000000004 216.2 L 193.20000000000005 216.2 C 193.80000000000004 216.2 195.30000000000004 216.2 195.60000000000005 216.29999999999998 C 199.40000000000006 216.79999999999998 200.70000000000005 219.6 200.70000000000005 222.1 C 200.70000000000005 224.5 199.30000000000004 227.1 195.90000000000003 227.7 z" stroke-linecap="round" />
</g>
		<g transform="matrix(1.98 0 0 1.98 -285.32 -0.2)"  >
<rect style="stroke: none; stroke-width: 1; stroke-dasharray: none; stroke-linecap: butt; stroke-dashoffset: 0; stroke-linejoin: miter; stroke-miterlimit: 4; fill: rgb(0,0,0); fill-rule: nonzero; opacity: 1;" vector-effect="non-scaling-stroke"  x="-6.5" y="-29.35" rx="0" ry="0" width="13" height="58.7" />
</g>
		<g transform="matrix(1.98 0 0 1.98 -427.58 -0.2)"  >
<polygon style="stroke: none; stroke-width: 1; stroke-dasharray: none; stroke-linecap: butt; stroke-dashoffset: 0; stroke-linejoin: miter; stroke-miterlimit: 4; fill: rgb(0,0,0); fill-rule: nonzero; opacity: 1;" vector-effect="non-scaling-stroke"  points="36.5,29.35 36.5,-29.35 23.5,-29.35 23.5,14.45 -19.8,-29.35 -36.5,-29.35 -36.5,29.35 -23.5,29.35 -23.5,-14.65 20.1,29.35 " />
</g>
		<g transform="matrix(1.98 0 0 1.98 427.68 -0.2)"  >
<polygon style="stroke: none; stroke-width: 1; stroke-dasharray: none; stroke-linecap: butt; stroke-dashoffset: 0; stroke-linejoin: miter; stroke-miterlimit: 4; fill: rgb(0,0,0); fill-rule: nonzero; opacity: 1;" vector-effect="non-scaling-stroke"  points="23.55,-29.35 23.55,14.45 -19.75,-29.35 -36.45,-29.35 -36.45,29.35 -23.45,29.35 -23.45,-14.65 20.05,29.35 36.45,29.35 36.45,-29.35 " />
</g>
		<g transform="matrix(1.98 0 0 1.98 234.92 -0.2)"  >
<path style="stroke: none; stroke-width: 1; stroke-dasharray: none; stroke-linecap: butt; stroke-dashoffset: 0; stroke-linejoin: miter; stroke-miterlimit: 4; fill: rgb(0,0,0); fill-rule: nonzero; opacity: 1;" vector-effect="non-scaling-stroke"  transform=" translate(-370.4, -210.75)" d="M 363.4 181.4 L 326.79999999999995 240.10000000000002 L 342.59999999999997 240.10000000000002 L 349.09999999999997 229.60000000000002 L 391.79999999999995 229.60000000000002 L 398.29999999999995 240.10000000000002 L 413.99999999999994 240.10000000000002 L 377.3999999999999 181.40000000000003 z M 385.09999999999997 218.5 L 355.79999999999995 218.5 L 370.49999999999994 194.9 z" stroke-linecap="round" />
</g>
		<g transform="matrix(1.98 0 0 1.98 0.2 -270.64)"  >
<path style="stroke: none; stroke-width: 1; stroke-dasharray: none; stroke-linecap: butt; stroke-dashoffset: 0; stroke-linejoin: miter; stroke-miterlimit: 4; fill: rgb(0,0,0); fill-rule: nonzero; opacity: 1;" vector-effect="non-scaling-stroke"  transform=" translate(-252.1, -74.45)" d="M 72.3 148.1 C 98.5 71.6 170.7 20.19999999999999 252.10000000000002 20.19999999999999 C 333.50000000000006 20.19999999999999 405.8 71.6 431.90000000000003 148.1 L 432.1 148.7 L 489.40000000000003 148.7 L 489.40000000000003 141.79999999999998 L 465.6 138.99999999999997 C 450.90000000000003 137.29999999999998 447.8 130.79999999999998 443.8 122.59999999999997 L 442.8 120.59999999999997 C 408.40000000000003 47.39999999999996 333.5 -2.842170943040401e-14 252.10000000000002 -2.842170943040401e-14 C 170.60000000000002 -2.842170943040401e-14 95.80000000000001 47.39999999999997 61.400000000000034 120.79999999999997 L 60.400000000000034 122.79999999999997 C 56.400000000000034 130.99999999999997 53.30000000000003 137.49999999999997 38.60000000000004 139.19999999999996 L 14.800000000000036 141.99999999999997 L 14.800000000000036 148.89999999999998 L 72.00000000000004 148.89999999999998 z" stroke-linecap="round" />
</g>
		<g transform="matrix(1.98 0 0 1.98 0.4 270.64)"  >
<path style="stroke: none; stroke-width: 1; stroke-dasharray: none; stroke-linecap: butt; stroke-dashoffset: 0; stroke-linejoin: miter; stroke-miterlimit: 4; fill: rgb(0,0,0); fill-rule: nonzero; opacity: 1;" vector-effect="non-scaling-stroke"  transform=" translate(-252.2, -347.25)" d="M 432.1 272.9 L 431.90000000000003 273.5 C 405.70000000000005 350 333.5 401.3 252.10000000000002 401.3 C 170.70000000000005 401.3 98.40000000000003 349.90000000000003 72.30000000000001 273.4 L 72.10000000000001 272.79999999999995 L 14.900000000000006 272.79999999999995 L 14.900000000000006 279.69999999999993 L 38.7 282.49999999999994 C 53.400000000000006 284.19999999999993 56.5 290.69999999999993 60.5 298.8999999999999 L 61.5 300.8999999999999 C 95.9 374.29999999999995 170.8 421.69999999999993 252.2 421.69999999999993 C 333.59999999999997 421.69999999999993 408.5 374.29999999999995 442.9 300.99999999999994 L 443.9 298.99999999999994 C 447.9 290.79999999999995 451 284.29999999999995 465.7 282.59999999999997 L 489.5 279.79999999999995 L 489.5 272.9 z" stroke-linecap="round" />
</g>
</g>
</g>
</svg>