<?xml version="1.0" encoding="UTF-8" standalone="no" ?>
<!DOCTYPE svg PUBLIC "-//W3C//DTD SVG 1.1//EN" "http://www.w3.org/Graphics/SVG/1.1/DTD/svg11.dtd">
<svg xmlns="http://www.w3.org/2000/svg" xmlns:xlink="http://www.w3.org/1999/xlink" version="1.1" width="275" height="275" viewBox="0 0 275 275" xml:space="preserve">
<desc>Created with Fabric.js 5.2.4</desc>
<defs>
</defs>
<rect x="0" y="0" width="100%" height="100%" fill="transparent"></rect>
<g transform="matrix(1 0 0 1 137.5 137.5)" id="6d36dafd-8b76-44da-9a7b-e428677a45ab"  >
<rect style="stroke: none; stroke-width: 1; stroke-dasharray: none; stroke-linecap: butt; stroke-dashoffset: 0; stroke-linejoin: miter; stroke-miterlimit: 4; fill: rgb(255,255,255); fill-rule: nonzero; opacity: 1; visibility: hidden;" vector-effect="non-scaling-stroke"  x="-137.5" y="-137.5" rx="0" ry="0" width="275" height="275" />
</g>
<g transform="matrix(Infinity NaN NaN Infinity 0 0)" id="e8327d55-c40f-4bfe-bea4-058159c57b9e"  >
</g>
<g transform="matrix(0.8 0 0 0.8 137.5 137.5)"  >
<g style="" vector-effect="non-scaling-stroke"   >
		<g transform="matrix(3.73 0 0 3.73 0 123.87)" clip-path="url(#CLIPPATH_4)"  >
<clipPath id="CLIPPATH_4" >
	<path transform="matrix(1 0 0 1 0 -0.19) translate(-413.58, -538.41)" id="clip2" d="M 368.66 532 L 458.50800000000004 532 L 458.50800000000004 544.816 L 368.66 544.816 z" stroke-linecap="round" />
</clipPath>
<path style="stroke: none; stroke-width: 1; stroke-dasharray: none; stroke-linecap: butt; stroke-dashoffset: 0; stroke-linejoin: miter; stroke-miterlimit: 4; fill: rgb(0,0,0); fill-rule: nonzero; opacity: 1;" vector-effect="non-scaling-stroke"  transform=" translate(-413.58, -538.6)" d="M 379.58 544.13 C 380.6191 543.66906 381.3886 542.9777 381.8925 542.0558 C 382.39641 541.13393 382.65031999999997 539.9777 382.65031999999997 538.5988 C 382.65031999999997 537.216 382.39640999999995 536.0636 381.8925 535.1379 C 381.3886 534.2160299999999 380.6191 533.5246 379.58 533.0676 C 378.5448 532.6066599999999 377.22839999999997 532.3801 375.6347 532.3801 C 374.04100000000005 532.3801 372.7324 532.6066599999999 371.7089 533.0676 C 370.68550000000005 533.52463 369.9198 534.216 369.4159 535.1379 C 368.91200000000003 536.06369 368.65809 537.2159999999999 368.65809 538.5988 C 368.65809 539.9777 368.91200000000003 541.134 369.4159 542.0558 C 369.91981000000004 542.97768 370.6854 543.6691 371.7089 544.13 C 372.7323 544.58703 374.0448 544.8175 375.6542 544.8175 C 377.2362 544.8175 378.5448 544.58703 379.58 544.13 M 373.205 541.9855 C 372.60735 541.71988 372.17769999999996 541.30972 371.9198 540.7511 C 371.65808 540.1925 371.52917 539.4816 371.52917 538.6183 C 371.52917 537.7393999999999 371.65417 537.0245 371.90808000000004 536.4738 C 372.16199000000006 535.9231 372.58386 535.50896 373.18538000000007 535.2277 C 373.7830400000001 534.9503500000001 374.5994800000001 534.8097300000001 375.6345800000001 534.8097300000001 C 376.6970800000001 534.8097300000001 377.5251800000001 534.94254 378.1150800000001 535.2081700000001 C 378.7088300000001 535.4737900000001 379.1306800000001 535.8878500000001 379.3806800000001 536.4464700000001 C 379.6345800000001 537.0050600000001 379.7595800000001 537.7198700000001 379.7595800000001 538.5987700000001 C 379.7595800000001 539.4894 379.6345800000001 540.2042700000001 379.3806800000001 540.75117 C 379.1306800000001 541.29413 378.7009900000001 541.70429 378.0954800000001 541.97777 C 377.4900100000001 542.2473 376.66968000000014 542.38402 375.63458000000014 542.38402 C 374.61118000000016 542.38402 373.80258000000015 542.25121 373.2048800000001 541.9855799999999 M 396.7008800000001 532.5988799999999 L 396.7008800000001 544.5948799999999 L 399.4313800000001 544.5948799999999 L 399.4313800000001 540.8878799999999 L 403.5368800000001 540.8878799999999 C 405.1188800000001 540.8878799999999 406.3024800000001 540.5675699999999 407.0837800000001 539.9230399999999 C 407.8689400000001 539.2785099999999 408.26348000000013 538.2238399999999 408.26348000000013 536.7628399999999 C 408.26348000000013 535.7159399999998 408.08379000000014 534.8878399999999 407.73223000000013 534.2823399999999 C 407.3806700000001 533.6768699999999 406.8611300000001 533.2471399999998 406.1775300000001 532.9854399999998 C 405.4939400000001 532.7276299999999 404.6150300000001 532.5987199999998 403.5369300000001 532.5987199999998 z M 399.4313800000001 538.5988799999999 L 399.4313800000001 534.8683799999999 L 403.3766800000001 534.8683799999999 C 403.9509000000001 534.8683799999999 404.3961800000001 534.9386799999999 404.71258000000006 535.0793199999999 C 405.03289000000007 535.2199499999999 405.2555500000001 535.4230699999999 405.3805500000001 535.6886999999999 C 405.5055500000001 535.9543199999999 405.5719500000001 536.2902599999999 405.5719500000001 536.7042999999999 C 405.5719500000001 537.3839899999999 405.3961700000001 537.8683999999998 405.0524200000001 538.1573999999998 C 404.7047600000001 538.4503599999998 404.1500800000001 538.5987999999999 403.3766200000001 538.5987999999999 z M 421.9353800000001 544.5949799999999 L 432.2553800000001 544.5949799999999 L 432.2553800000001 542.2238799999999 L 424.66158000000013 542.2238799999999 L 424.66158000000013 539.6340799999999 L 431.4974800000001 539.6340799999999 L 431.4974800000001 537.4231799999999 L 424.66158000000013 537.4231799999999 L 424.66158000000013 534.9700799999999 L 432.21628000000015 534.9700799999999 L 432.21628000000015 532.59898 L 421.93528000000015 532.59898 z M 458.5053800000001 544.5949799999999 L 458.5053800000001 542.1457799999998 L 451.25148000000013 542.1457799999998 L 451.25148000000013 532.5988799999998 L 448.5209800000001 532.5988799999998 L 448.5209800000001 544.5948799999998 z" stroke-linecap="round" />
</g>
		<g transform="matrix(3.73 0 0 3.73 -1.91 -45.82)"  >
<path style="stroke: none; stroke-width: 1; stroke-dasharray: none; stroke-linecap: butt; stroke-dashoffset: 0; stroke-linejoin: miter; stroke-miterlimit: 4; fill: rgb(0,0,0); fill-rule: nonzero; opacity: 1;" vector-effect="non-scaling-stroke"  transform=" translate(-413.07, -493.05)" d="M 413.07 517.07 C 399.824 517.07 389.04699999999997 506.29300000000006 389.04699999999997 493.047 C 389.04699999999997 492.36341000000004 389.08209999999997 491.68760000000003 389.1407 491.0197 L 409.2227 492.2736 L 400.5313 498.28139999999996 C 400.41411999999997 498.36339999999996 400.33599 498.50014999999996 400.33599 498.65248999999994 C 400.33599 498.90248999999994 400.53911999999997 499.1095199999999 400.78911999999997 499.1095199999999 L 436.32012 499.1095199999999 C 433.62482 509.4295199999999 424.22211999999996 517.0705199999999 413.07012 517.0705199999999 M 413.07012 469.02351999999985 C 426.32012 469.02351999999985 437.09312 479.80051999999984 437.09312 493.0465199999999 C 437.09312 493.72620999999987 437.05802 494.3981199999999 437.00332 495.0621199999999 L 436.99161999999995 495.0621199999999 L 416.90961999999996 493.7847199999999 L 425.62442 487.8121199999999 C 425.74552 487.7301199999999 425.81973999999997 487.5933699999999 425.81973999999997 487.44101999999987 C 425.81973999999997 487.1871199999999 425.61661 486.9839899999999 425.36661 486.9839899999999 L 389.82361 486.9839899999999 C 392.51500999999996 476.6639899999999 401.91760999999997 469.0229899999999 413.06960999999995 469.0229899999999 M 447.51060999999993 495.7299899999999 L 440.9364099999999 495.3120299999999 L 440.1434399999999 495.2612299999999 C 440.2020399999999 494.5307699999999 440.24113999999986 493.7924299999999 440.24113999999986 493.0464299999999 C 440.24113999999986 478.06642999999985 428.05313999999987 465.87842999999987 413.06913999999983 465.87842999999987 C 400.1711399999998 465.87842999999987 389.35413999999986 474.91362999999984 386.5891399999998 486.9834299999999 L 380.5852399999998 486.9834299999999 C 380.24539999999985 486.9834299999999 379.9446199999998 487.1435899999999 379.75320999999985 487.3935899999999 L 378.2180099999999 489.5146899999999 C 378.1477099999999 489.60448999999994 378.1047299999999 489.7178199999999 378.1047299999999 489.83890999999994 C 378.1047299999999 490.12796999999995 378.3391099999999 490.36234999999994 378.6320799999999 490.36234999999994 L 385.1789799999999 490.76859999999994 L 385.9992899999999 490.82329999999996 C 385.9406899999999 491.55767999999995 385.9016899999999 492.29599999999994 385.9016899999999 493.04599999999994 C 385.9016899999999 508.02599999999995 398.0896899999999 520.218 413.0696899999999 520.218 C 425.96768999999995 520.218 436.7886899999999 511.17889999999994 439.54968999999994 499.109 L 445.5574899999999 499.109 C 445.8973299999999 499.109 446.19810999999993 498.94883999999996 446.3895199999999 498.69883999999996 L 447.92471999999987 496.57773999999995 C 447.99501999999984 496.4879399999999 448.03409999999985 496.37461999999994 448.03409999999985 496.2535199999999 C 448.03409999999985 495.9644599999999 447.79971999999987 495.73007999999993 447.51065999999986 495.73007999999993" stroke-linecap="round" />
</g>
</g>
</g>
</svg>