<?xml version="1.0" encoding="UTF-8" standalone="no" ?>
<!DOCTYPE svg PUBLIC "-//W3C//DTD SVG 1.1//EN" "http://www.w3.org/Graphics/SVG/1.1/DTD/svg11.dtd">
<svg xmlns="http://www.w3.org/2000/svg" xmlns:xlink="http://www.w3.org/1999/xlink" version="1.1" width="275" height="275" viewBox="0 0 275 275" xml:space="preserve">
<desc>Created with Fabric.js 5.2.4</desc>
<defs>
</defs>
<rect x="0" y="0" width="100%" height="100%" fill="transparent"></rect>
<g transform="matrix(1 0 0 1 137.5 137.5)" id="133bdf1d-d9e4-40d1-927f-959a669f4ad1"  >
<rect style="stroke: none; stroke-width: 1; stroke-dasharray: none; stroke-linecap: butt; stroke-dashoffset: 0; stroke-linejoin: miter; stroke-miterlimit: 4; fill: rgb(255,255,255); fill-rule: nonzero; opacity: 1; visibility: hidden;" vector-effect="non-scaling-stroke"  x="-137.5" y="-137.5" rx="0" ry="0" width="275" height="275" />
</g>
<g transform="matrix(Infinity NaN NaN Infinity 0 0)" id="b082f045-b174-4687-a48a-9a22d24852e1"  >
</g>
<g transform="matrix(1.06 0 0 1.06 137.5 186.64)" id="65dca7b7-dad9-47ca-8a75-c9d20f365744"  >
<path style="stroke: rgb(0,0,0); stroke-width: 0; stroke-dasharray: none; stroke-linecap: butt; stroke-dashoffset: 0; stroke-linejoin: miter; stroke-miterlimit: 4; fill: rgb(0,0,0); fill-rule: nonzero; opacity: 1;" vector-effect="non-scaling-stroke"  transform=" translate(-399.8, -299.5)" d="M 403.5 125.8 C 380.8 125.89999999999999 358.2 128.7 336.2 134 C 325.4 136.7 314.7 140.3 304.3 144.4 L 303.7 144.70000000000002 C 303.7 144.70000000000002 305 222.20000000000002 305.9 260.6 C 306.2 271.90000000000003 308.29999999999995 283 312.09999999999997 293.8 C 316.49999999999994 305.90000000000003 322.29999999999995 317.40000000000003 329.4 328.1 C 339.9 343.6 353.4 356.8 369.09999999999997 366.90000000000003 C 376.09999999999997 371.1 383.4 374.8 390.9 377.90000000000003 C 393.4 379.00000000000006 395.59999999999997 380.00000000000006 397.5 380.6 C 399.6 381.5 401.7 382.1 403.8 382.6 C 406 382.1 408.1 381.40000000000003 410.1 380.70000000000005 C 412.20000000000005 380.00000000000006 414.3 379.00000000000006 416.8 378.00000000000006 C 429.40000000000003 373.20000000000005 441.1 366.30000000000007 451.40000000000003 357.6000000000001 C 461.8 349.1000000000001 470.8 339.1000000000001 478.3 328.00000000000006 C 485.5 317.20000000000005 491.3 305.80000000000007 495.6 293.70000000000005 C 499.5 282.90000000000003 501.5 271.80000000000007 501.8 260.50000000000006 C 502.7 222.00000000000006 504 144.60000000000005 504 144.60000000000005 L 503.3 144.20000000000005 C 478.7 134.30000000000004 452.6 128.30000000000004 426.1 126.50000000000004 C 418.6 125.90000000000005 411.8 125.60000000000004 404.20000000000005 125.60000000000004 L 403.5 125.60000000000004 L 403.5 125.8 z M 403.5 129.7 L 404.1 129.7 C 425.90000000000003 129.89999999999998 447.6 132.6 468.8 137.79999999999998 C 479.2 140.49999999999997 489.40000000000003 143.7 499.5 147.79999999999998 L 500.1 148.1 L 499.70000000000005 172.4 L 499.40000000000003 172.4 C 475.70000000000005 162.8 450.70000000000005 156.9 425.20000000000005 155.1 C 418.20000000000005 154.4 411.20000000000005 154.1 404.20000000000005 153.9 L 403.6 153.9 C 381.8 154.1 360.1 156.9 338.90000000000003 162.1 C 328.40000000000003 164.79999999999998 318.1 168.2 308.1 172.29999999999998 L 307.70000000000005 147.79999999999998 L 308.30000000000007 147.6 C 332.00000000000006 138 357.20000000000005 132.2 382.70000000000005 130.4 C 389.5 129.9 396.5 129.6 403.5 129.7 L 403.5 129.7 z M 549.9 132.1 C 537 132.1 526.5 142.6 526.5 155.5 C 526.5 168.4 537 179 549.9 179 C 562.8 179 573.3 168.5 573.3 155.6 C 573.3 142.7 562.9 132.1 549.9 132.1 C 549.9 132.1 549.9 132.1 549.9 132.1 z M 396.2 133.4 C 395.7 133.5 395.2 133.70000000000002 394.8 134 C 394.40000000000003 134.2 394.2 134.6 394.1 135 L 394.1 138.8 L 394 142.4 C 394 142.8 394.4 143.3 394.7 143.5 C 395.09999999999997 143.9 395.59999999999997 143.9 396.2 144 L 401 144 L 406 144.1 L 411 144.4 C 411.4 144.4 411.6 144.6 411.7 144.9 L 411.7 146.9 C 411.7 147.3 411.7 147.6 411.5 148 C 411.4 148.3 411.1 148.4 410.5 148.4 L 406.1 148.4 L 403.70000000000005 148.3 L 397.40000000000003 148.3 L 393.70000000000005 148.5 L 393.50000000000006 151.7 L 398.70000000000005 151.5 L 402.70000000000005 151.4 L 405.90000000000003 151.4 L 408.8 151.5 L 410.8 151.6 L 413 151.6 C 413.5 151.6 414.1 151.4 414.5 151.1 C 414.9 150.79999999999998 415.1 150.4 415.2 149.9 L 415.2 146.3 L 415.3 142.70000000000002 C 415.2 142.3 415 141.9 414.7 141.60000000000002 C 414.4 141.3 414 141.20000000000002 413.5 141.10000000000002 L 408.9 140.90000000000003 L 397.79999999999995 140.90000000000003 L 397.49999999999994 140.70000000000005 C 397.29999999999995 140.50000000000006 397.19999999999993 140.30000000000004 397.19999999999993 140.10000000000005 L 397.19999999999993 138.80000000000004 C 397.19999999999993 138.30000000000004 397.19999999999993 137.70000000000005 397.3999999999999 137.20000000000005 C 397.49999999999994 137.00000000000006 397.7999999999999 136.80000000000004 398.2999999999999 136.80000000000004 L 409.4999999999999 136.90000000000003 L 411.0999999999999 136.90000000000003 L 414.9999999999999 137.00000000000003 L 414.9999999999999 133.80000000000004 L 409.7999999999999 133.60000000000005 L 396.2 133.4 L 396.2 133.4 z M 385.5 133.9 C 383.6 133.9 366.3 135.70000000000002 366.3 135.70000000000002 L 366.3 154.10000000000002 L 368.3 153.90000000000003 L 370.2 153.60000000000002 L 370.2 147.90000000000003 L 381 146.70000000000005 C 382.4 146.70000000000005 383.7 147.40000000000003 384.3 148.70000000000005 C 384.8 149.80000000000004 385.2 151.00000000000006 385.6 152.30000000000004 L 389.8 151.90000000000003 C 389.7 150.70000000000005 389.40000000000003 149.60000000000002 388.90000000000003 148.60000000000002 C 388.3 147.3 387.3 146.10000000000002 386.20000000000005 145.10000000000002 C 387.20000000000005 144.50000000000003 387.90000000000003 143.50000000000003 388.20000000000005 142.40000000000003 C 388.30000000000007 140.20000000000005 388.20000000000005 138.10000000000002 388.00000000000006 136.00000000000003 C 387.9 135 387.4 134 385.5 133.9 z M 424.3 134.1 C 423.40000000000003 134.1 422.40000000000003 134.4 421.7 135 C 421 135.5 420.5 136.3 420.4 137.2 L 420.4 150 L 420.5 150.9 C 420.6 151.3 420.8 151.5 421 151.70000000000002 C 421.3 152.10000000000002 421.7 152.3 422.3 152.4 L 423.1 152.4 L 423.3 152.5 L 423.5 152.5 L 431.9 153.4 L 440.59999999999997 154.3 L 441.9 154.60000000000002 L 441.9 151.20000000000002 L 440.4 150.9 L 439.2 150.8 L 439 150.8 L 431.8 149.9 L 424.6 149 C 424.5 149 424.3 149 424.20000000000005 148.8 L 424.1 148.4 L 424.1 138.6 C 424.1 138.2 424.1 137.9 424.5 137.7 C 424.8 137.5 425.1 137.39999999999998 425.4 137.29999999999998 C 427 137.39999999999998 440.4 139.2 442.4 139.49999999999997 L 442.4 135.89999999999998 L 430.79999999999995 134.59999999999997 L 424.3 134.1 L 424.3 134.1 z M 549.8 135.5 C 557.4 135.5 564.8 139.8 568.0999999999999 147.2 L 568.3 147.6 C 570.3 152.6 570.3 158.2 568.3 163.2 C 566.3 168 562.5999999999999 171.7 557.8 173.7 C 552.8 175.79999999999998 547.1999999999999 175.79999999999998 542.1999999999999 173.7 C 537.4 171.79999999999998 533.5999999999999 168 531.6999999999999 163.2 C 529.6999999999999 158.2 529.6999999999999 152.6 531.6999999999999 147.6 C 533.5999999999999 142.79999999999998 537.4 139.1 542.1999999999999 137.1 C 544.7 136.2 547.3 135.6 549.8 135.5 z M 445.8 137 L 445.8 137.8 C 445.8 138.9 445.8 140.4 445.6 142.10000000000002 C 445.6 144.40000000000003 445.5 146.70000000000002 445.40000000000003 149.00000000000003 L 445.3 150.50000000000003 L 445.3 152.70000000000002 L 445.2 154.9 L 446.09999999999997 155.1 L 446.59999999999997 155.29999999999998 L 447.49999999999994 155.39999999999998 L 448.8999999999999 155.59999999999997 L 448.99999999999994 154.29999999999995 L 448.99999999999994 153.19999999999996 L 449.09999999999997 151.89999999999995 L 449.09999999999997 148.29999999999995 C 449.29999999999995 148.29999999999995 449.59999999999997 148.29999999999995 449.79999999999995 148.39999999999995 L 450.09999999999997 148.39999999999995 L 454.4 149.29999999999995 L 461 150.59999999999997 L 461.5 150.79999999999995 L 462.2 150.99999999999994 L 463 151.19999999999993 L 463 154.79999999999993 L 462.9 155.99999999999991 L 462.9 157.39999999999992 L 462.79999999999995 158.0999999999999 L 463.99999999999994 158.39999999999992 L 464.69999999999993 158.5999999999999 L 465.3999999999999 158.7999999999999 L 466.3999999999999 159.0999999999999 L 466.3999999999999 157.2999999999999 C 466.5999999999999 155.0999999999999 466.5999999999999 152.7999999999999 466.69999999999993 150.0999999999999 L 466.69999999999993 141.2999999999999 L 465.29999999999995 140.8999999999999 L 463.4 140.4999999999999 L 463.4 143.2999999999999 L 463.2 145.0999999999999 L 463.2 148.0999999999999 L 463.09999999999997 148.0999999999999 L 462.2 147.89999999999992 L 461.5 147.69999999999993 L 461 147.59999999999994 L 460.5 147.39999999999995 L 456.3 146.49999999999994 L 452 145.69999999999993 L 451.6 145.69999999999993 L 450.5 145.39999999999992 L 449.4 145.19999999999993 L 449.09999999999997 145.19999999999993 L 449.09999999999997 137.49999999999994 L 448.2 137.29999999999995 L 447.59999999999997 137.29999999999995 L 446.9 137.09999999999997 L 445.8 137 L 445.8 137 z M 358.8 137.2 L 341.8 140.5 C 340.5 140.9 339.1 141.9 339.1 143.3 L 339.1 155.60000000000002 C 339.1 156.90000000000003 340.70000000000005 158.60000000000002 342 158.3 L 359 155 C 360.6 154.6 361.7 153.2 361.9 151.6 L 361.9 139.2 C 361.6 137.8 360.3 137 358.8 137.2 C 358.9 137.2 358.9 137.2 358.8 137.2 L 358.8 137.2 z M 382.6 137.8 C 383.1 137.8 383.5 137.8 383.90000000000003 138.20000000000002 C 384.20000000000005 138.50000000000003 384.3 138.70000000000002 384.3 139.10000000000002 L 384.3 141.20000000000002 C 384.3 141.8 384.1 142.4 383.7 142.8 C 383.3 143.20000000000002 382.7 143.5 382.09999999999997 143.5 L 376.09999999999997 144 L 370.09999999999997 144.5 L 370.09999999999997 138.9 L 382.6 137.8 L 382.6 137.8 z M 355.9 140.7 C 357.5 140.5 358 141.39999999999998 358 142.5 L 358 150.4 C 358.1 151.4 357.4 152.3 356.4 152.6 L 344.29999999999995 154.9 C 343.09999999999997 155.20000000000002 342.4 154.3 342.4 153.20000000000002 L 342.4 145.4 C 342.4 143.8 343.09999999999997 143.1 345 142.70000000000002 C 344.9 142.7 355.9 140.7 355.9 140.7 z M 550.4 141.4 L 540.6999999999999 141.4 L 540.6999999999999 170.6 L 544.3 170.6 L 544.3 157.5 L 549.9 157.5 L 555.6 170.6 L 559.5 170.6 L 553.5 157 C 555.3 156.6 557.1 155.7 558.3 154.3 C 559.4 153 560.0999999999999 151.4 560.0999999999999 149.60000000000002 C 560.0999999999999 148.60000000000002 559.8999999999999 147.60000000000002 559.6999999999999 146.70000000000002 C 559.4 145.70000000000002 558.9 144.8 558.1999999999999 144.00000000000003 C 557.4 143.10000000000002 556.4 142.50000000000003 555.1999999999999 142.00000000000003 C 553.7 141.6 552.1 141.4 550.4 141.4 z M 472.1 142.3 L 471.90000000000003 153.10000000000002 L 471.70000000000005 160.50000000000003 L 481.70000000000005 163.50000000000003 C 484.90000000000003 164.60000000000002 488.50000000000006 165.70000000000002 492.1 167.00000000000003 L 492.5 167.10000000000002 L 493.7 167.50000000000003 C 493.9 166.20000000000002 493.9 165.20000000000002 493.9 163.90000000000003 L 492.9 163.50000000000003 L 492.7 163.50000000000003 L 492.5 163.40000000000003 C 490.7 162.70000000000005 488.6 162.10000000000002 486.7 161.40000000000003 L 480.59999999999997 159.40000000000003 L 479.29999999999995 159.00000000000003 L 477.9 158.60000000000002 L 476.4 158.20000000000002 L 475.59999999999997 157.9 L 475.59999999999997 156.1 L 475.7 154.29999999999998 L 477.7 154.79999999999998 L 485.09999999999997 156.99999999999997 L 492.09999999999997 159.39999999999998 L 492.79999999999995 159.59999999999997 L 493.99999999999994 159.99999999999997 L 493.99999999999994 156.19999999999996 L 492.8999999999999 155.79999999999995 L 492.3999999999999 155.69999999999996 C 488.0999999999999 154.09999999999997 483.7999999999999 152.69999999999996 479.3999999999999 151.49999999999997 L 478.3999999999999 151.19999999999996 L 477.2999999999999 150.89999999999995 L 476.7999999999999 150.69999999999996 L 475.8999999999999 150.39999999999995 L 475.8999999999999 146.69999999999996 L 477.19999999999993 147.09999999999997 L 478.79999999999995 147.49999999999997 L 480.19999999999993 147.89999999999998 L 480.29999999999995 147.89999999999998 C 484.19999999999993 148.99999999999997 488.09999999999997 150.2 491.9 151.59999999999997 L 492.79999999999995 151.99999999999997 L 494.09999999999997 152.49999999999997 L 494.09999999999997 149.19999999999996 L 493.2 148.79999999999995 L 492.4 148.49999999999994 L 492.29999999999995 148.49999999999994 C 485.6 146.3 478.9 144.1 472.1 142.3 z M 333 143 L 331.8 143 C 324.8 145.2 317.90000000000003 147.5 311 150.1 L 311.2 159.29999999999998 L 311.2 167.89999999999998 L 316 166.29999999999998 L 316 160 L 333.9 154.4 C 334.29999999999995 154.3 334.59999999999997 154 334.79999999999995 153.70000000000002 C 335.09999999999997 153.50000000000003 335.19999999999993 153.10000000000002 335.29999999999995 152.8 C 335.29999999999995 152.70000000000002 335.4 152.5 335.4 152.4 L 335.2 145.1 C 335.09999999999997 144.4 334.7 143.7 334 143.29999999999998 C 333.7 143.1 333.4 143 333 143 z M 544.3 144.6 L 549.6999999999999 144.6 C 551.3 144.6 552.8 144.9 554.1999999999999 145.7 C 555.4999999999999 146.6 556.0999999999999 148.1 555.9999999999999 149.6 C 555.9999999999999 150.29999999999998 555.8999999999999 150.9 555.6999999999999 151.6 C 555.4999999999999 152.2 555.1999999999999 152.7 554.6999999999999 153 C 554.0999999999999 153.5 553.3 153.8 552.4999999999999 154 C 551.2999999999998 154.4 550.1999999999999 154.4 548.8999999999999 154.4 L 544.0999999999999 154.4 L 544.3 144.6 L 544.3 144.6 z M 329.5 146.8 L 329.7 146.8 C 330.09999999999997 146.8 330.4 146.9 330.59999999999997 147.20000000000002 C 330.9 147.50000000000003 330.99999999999994 147.70000000000002 330.99999999999994 148.10000000000002 L 331.19999999999993 150.70000000000002 C 331.0999999999999 151.20000000000002 330.8999999999999 151.60000000000002 330.5999999999999 151.9 C 330.2999999999999 152.20000000000002 329.8999999999999 152.4 329.4999999999999 152.5 L 315.6999999999999 157 L 315.59999999999985 151.6 C 315.59999999999985 151.6 320.99999999999983 149.4 323.1999999999999 148.6 C 325.4 147.9 329.5 146.8 329.5 146.8 z M 401.4 157.4 L 401.4 206.8 L 369.79999999999995 206.8 C 369.4 206.8 369.59999999999997 206.60000000000002 369.99999999999994 206.3 C 372.19999999999993 204.60000000000002 374.79999999999995 203.5 377.59999999999997 203 C 377.9 203 377.99999999999994 202.9 377.59999999999997 202.5 C 374.9 199.8 371.09999999999997 198.9 367.59999999999997 200.2 C 364.49999999999994 201.29999999999998 361.99999999999994 203.6 360.9 206.7 C 360.9 207 360.7 207.1 360.5 207.1 L 355.4 207.29999999999998 C 355.09999999999997 207.29999999999998 355 206.89999999999998 355 206.7 C 355.4 204.5 356.8 202.7 358.7 201.6 C 360.4 200.4 362.3 199.79999999999998 364.3 199.6 L 364.40000000000003 199.6 C 364.6 199.5 364.6 199.2 364.50000000000006 199 C 364.20000000000005 198.6 363.80000000000007 198.3 363.30000000000007 198 C 361.70000000000005 197.1 359.80000000000007 196.8 357.9000000000001 197.1 C 352.5000000000001 197.7 348.2000000000001 202 347.80000000000007 207.5 C 347.70000000000005 208.1 347.80000000000007 208.3 347.30000000000007 208.5 C 346.00000000000006 208.9 343.80000000000007 209.2 342.6000000000001 209.4 C 342.4000000000001 209.5 342.1000000000001 209 342.2000000000001 208.8 C 342.6000000000001 206.70000000000002 343.5000000000001 204.9 344.8000000000001 203.20000000000002 C 345.7000000000001 201.9 347.0000000000001 200.9 348.40000000000015 200.10000000000002 C 348.8000000000001 200.00000000000003 348.90000000000015 199.70000000000002 348.8000000000001 199.50000000000003 C 346.10000000000014 197.10000000000002 340.5000000000001 199.60000000000002 338.2000000000001 202.10000000000002 C 336.1000000000001 204.8 335.1000000000001 208.40000000000003 335.3000000000001 211.8 L 335.3000000000001 212.3 L 331.0000000000001 213.8 L 330.8000000000001 213.4 C 330.40000000000015 210.8 331.0000000000001 208.3 332.40000000000015 206.1 C 333.00000000000017 205 333.90000000000015 204.1 335.00000000000017 203.4 L 335.00000000000017 203 C 333.70000000000016 201.4 328.90000000000015 202.5 327.40000000000015 203.9 C 324.00000000000017 207.3 324.3000000000001 210.5 324.10000000000014 215.70000000000002 C 324.10000000000014 216.00000000000003 323.70000000000016 216.9 323.5000000000001 217.00000000000003 C 322.9000000000001 217.40000000000003 322.2000000000001 217.70000000000002 321.5000000000001 217.80000000000004 L 321.2000000000001 217.80000000000004 L 320.8000000000001 216.90000000000003 C 319.60000000000014 214.90000000000003 317.10000000000014 214.20000000000005 315.10000000000014 215.40000000000003 C 314.90000000000015 215.40000000000003 314.8000000000001 215.60000000000002 314.70000000000016 215.70000000000005 C 313.10000000000014 217.10000000000005 312.90000000000015 219.50000000000006 314.3000000000002 221.10000000000005 C 314.50000000000017 221.30000000000004 314.6000000000002 221.50000000000006 314.3000000000002 221.50000000000006 C 311.9000000000002 222.20000000000005 310.6000000000002 224.70000000000005 311.3000000000002 227.10000000000005 C 311.3000000000002 227.20000000000005 311.3000000000002 227.20000000000005 311.4000000000002 227.30000000000004 C 311.9000000000002 228.60000000000005 313.2000000000002 229.50000000000003 314.6000000000002 229.50000000000003 C 316.00000000000017 229.50000000000003 317.4000000000002 229.10000000000002 318.50000000000017 228.30000000000004 C 318.70000000000016 228.10000000000005 318.90000000000015 228.20000000000005 319.1000000000002 228.30000000000004 C 320.3000000000002 230.30000000000004 322.9000000000002 230.90000000000003 324.7000000000002 229.70000000000005 C 326.5000000000002 228.50000000000006 327.2000000000002 226.70000000000005 326.0000000000002 223.70000000000005 C 325.9000000000002 223.50000000000006 326.2000000000002 223.30000000000004 326.4000000000002 223.10000000000005 C 336.6000000000002 217.20000000000005 348.2000000000002 214.00000000000006 360.0000000000002 213.70000000000005 C 361.7000000000002 213.90000000000003 363.30000000000024 214.20000000000005 364.9000000000002 214.90000000000003 L 365.1000000000002 214.90000000000003 L 365.1000000000002 225 L 364.8000000000002 225.3 C 362.6000000000002 226.60000000000002 360.9000000000002 228.70000000000002 360.1000000000002 231.20000000000002 C 360.1000000000002 231.4 360.1000000000002 231.4 359.7000000000002 231.4 L 353.4000000000002 232.1 C 353.2000000000002 232.1 353.0000000000002 231.79999999999998 353.0000000000002 231.7 C 354.5000000000002 227.79999999999998 357.2000000000002 224.29999999999998 360.80000000000024 222 C 360.90000000000026 221.8 360.90000000000026 221.5 360.80000000000024 221.3 C 360.30000000000024 220.8 359.7000000000002 220.4 359.0000000000002 220.20000000000002 C 355.4000000000002 219.9 351.80000000000024 221.4 349.5000000000002 224.10000000000002 C 347.30000000000024 226.8 346.2000000000002 230.00000000000003 346.2000000000002 233.40000000000003 C 346.2000000000002 233.70000000000005 346.2000000000002 234.00000000000003 345.9000000000002 234.10000000000002 L 341.8000000000002 235.3 C 341.6000000000002 235.3 341.4000000000002 235.10000000000002 341.4000000000002 234.9 C 340.7000000000002 230.5 342.8000000000002 226.1 346.6000000000002 223.9 C 347.1000000000002 223.5 346.2000000000002 222.8 345.50000000000017 222.8 C 341.40000000000015 222.60000000000002 337.50000000000017 224.8 335.6000000000002 228.4 C 334.7000000000002 231.1 334.6000000000002 234.1 335.3000000000002 236.9 C 335.3000000000002 237.20000000000002 335.50000000000017 237.6 335.3000000000002 237.6 L 331.70000000000016 238.79999999999998 C 331.50000000000017 238.89999999999998 331.3000000000002 238.79999999999998 331.3000000000002 238.39999999999998 C 330.8000000000002 236.7 330.70000000000016 234.89999999999998 331.1000000000002 233.2 C 331.50000000000017 231.2 332.50000000000017 229.39999999999998 334.00000000000017 228 L 334.00000000000017 227.6 C 332.70000000000016 227 331.20000000000016 226.9 329.90000000000015 227.29999999999998 C 327.70000000000016 227.89999999999998 325.90000000000015 229.29999999999998 324.90000000000015 231.29999999999998 C 323.10000000000014 234.49999999999997 323.60000000000014 237.6 325.40000000000015 242.1 C 325.40000000000015 242.4 325.60000000000014 242.7 325.40000000000015 242.9 L 324 244 C 323.9 244.1 323.7 244 323.6 243.8 C 323 242.9 322.3 241.60000000000002 321.40000000000003 241.20000000000002 C 319.90000000000003 240.50000000000003 318.20000000000005 240.60000000000002 316.8 241.60000000000002 C 315.5 242.8 315 244.60000000000002 315.5 246.3 L 316.5 247.9 C 316.6 248 316.5 248.3 316.4 248.3 C 315.79999999999995 248.8 314.9 249.20000000000002 314.29999999999995 249.8 C 313.19999999999993 251.3 313.19999999999993 253.3 314.29999999999995 254.8 C 315.29999999999995 256.40000000000003 317.29999999999995 257 319.09999999999997 256.1 C 319.99999999999994 255.70000000000002 320.79999999999995 255.3 321.59999999999997 254.8 C 321.9 254.60000000000002 321.99999999999994 254.3 322.29999999999995 254.5 C 322.9 255.2 323.69999999999993 255.8 324.69999999999993 256.1 C 325.99999999999994 256.5 327.3999999999999 256.3 328.49999999999994 255.50000000000003 C 329.79999999999995 254.80000000000004 330.59999999999997 253.40000000000003 330.29999999999995 251.90000000000003 C 329.99999999999994 250.90000000000003 329.4 249.90000000000003 328.79999999999995 249.00000000000003 C 328.4 248.60000000000002 328.4 248.60000000000002 328.79999999999995 248.40000000000003 C 334.4 245.20000000000005 340.49999999999994 242.60000000000002 346.59999999999997 240.70000000000005 C 352.49999999999994 238.90000000000003 358.59999999999997 238.10000000000005 364.7 238.50000000000006 L 365.09999999999997 238.50000000000006 L 365.09999999999997 259.40000000000003 L 309.49999999999994 259.40000000000003 L 307.99999999999994 175.60000000000002 L 308.19999999999993 175.50000000000003 C 331.8999999999999 165.90000000000003 356.99999999999994 160.10000000000002 382.49999999999994 158.40000000000003 C 389 157.8 395 157.5 401.4 157.4 z M 369.2 166.2 C 366.3 166 363.5 166.89999999999998 361 168.6 C 358 170.7 356.1 176.79999999999998 355.6 179.1 C 355.6 179.29999999999998 355.5 179.5 355.20000000000005 179.5 C 352.70000000000005 179.8 350.30000000000007 180.2 347.80000000000007 180.8 C 348.00000000000006 178.4 349.00000000000006 176.20000000000002 350.50000000000006 174.5 C 352.20000000000005 172.9 354.00000000000006 171.5 355.90000000000003 170.2 C 356.00000000000006 170.1 355.90000000000003 169.79999999999998 355.70000000000005 169.7 C 353.00000000000006 168.6 349.90000000000003 168.6 347.20000000000005 169.79999999999998 C 343.30000000000007 171.49999999999997 340.70000000000005 174.99999999999997 340.00000000000006 179.1 C 339.70000000000005 180.5 339.6000000000001 182.1 339.6000000000001 183.6 L 339.2000000000001 183.79999999999998 L 331.6000000000001 186.29999999999998 L 331.2000000000001 186.2 C 331.1000000000001 183.7 331.7000000000001 181.29999999999998 333.0000000000001 179.1 C 334.3000000000001 177 336.7000000000001 175.9 338.4000000000001 174.1 C 338.6000000000001 174 338.80000000000007 173.7 338.6000000000001 173.6 C 334.2000000000001 171.79999999999998 330.1000000000001 173.6 326.6000000000001 177.6 C 324.2000000000001 181.2 323.50000000000006 185.5 324.4000000000001 189.7 C 324.5000000000001 190.1 324.4000000000001 190.39999999999998 324.2000000000001 190.6 L 321.8000000000001 191.5 C 321.60000000000014 191.5 321.40000000000015 191.5 321.40000000000015 191.3 C 320.3000000000001 188.10000000000002 316.60000000000014 188.70000000000002 314.90000000000015 189.70000000000002 C 313.10000000000014 190.8 312.40000000000015 193.10000000000002 313.50000000000017 194.9 C 313.50000000000017 195.20000000000002 313.50000000000017 195.3 313.3000000000002 195.4 C 311.00000000000017 196.6 310.00000000000017 199.3 311.1000000000002 201.70000000000002 C 312.00000000000017 203.3 313.9000000000002 203.9 315.6000000000002 203.20000000000002 L 318.3000000000002 201.9 L 318.6000000000002 201.9 C 318.6000000000002 201.9 318.6000000000002 202.1 318.8000000000002 202.1 C 320.20000000000016 203.9 322.8000000000002 204.29999999999998 324.70000000000016 202.7 C 325.90000000000015 201.79999999999998 326.40000000000015 201.7 326.90000000000015 200.1 C 327.10000000000014 198.9 326.70000000000016 197.79999999999998 326.00000000000017 196.9 C 325.8000000000002 196.9 326.00000000000017 196.5 326.00000000000017 196.5 C 340.00000000000017 189.3 355.3000000000002 185.4 371.00000000000017 185 C 376.6000000000002 185.2 382.1000000000002 187.2 386.40000000000015 190.9 C 386.60000000000014 191.1 386.8000000000001 191.3 387.10000000000014 191.3 C 387.40000000000015 191.20000000000002 387.5000000000001 190.9 387.60000000000014 190.70000000000002 C 388.40000000000015 188.10000000000002 387.5000000000001 185.20000000000002 385.40000000000015 183.4 C 383.60000000000014 181.6 381.40000000000015 180.3 378.90000000000015 179.70000000000002 C 378.70000000000016 179.70000000000002 378.70000000000016 179.3 378.8000000000001 179.3 C 379.7000000000001 178.3 381.0000000000001 177.5 382.40000000000015 177 C 384.50000000000017 176.6 386.60000000000014 176.5 388.90000000000015 176.5 C 389.00000000000017 176.5 389.3000000000001 176.3 389.3000000000001 176.1 C 388.40000000000015 173.7 386.2000000000001 172 383.7000000000001 171.9 C 381.2000000000001 171.6 378.6000000000001 172 376.3000000000001 173 C 373.90000000000015 174.3 372.0000000000001 176.4 370.90000000000015 178.9 L 370.60000000000014 179.1 L 364.10000000000014 179.1 C 364.0000000000001 179.1 363.8000000000001 179.1 363.8000000000001 178.9 C 364.10000000000014 176.70000000000002 365.0000000000001 174.9 366.5000000000001 173.3 C 368.7000000000001 171.5 371.2000000000001 170 373.8000000000001 169.20000000000002 C 374.10000000000014 169.10000000000002 374.2000000000001 168.8 374.2000000000001 168.60000000000002 C 373.6000000000001 167.8 372.9000000000001 167.20000000000002 372.0000000000001 166.8 C 371.3 166.4 370.2 166.2 369.2 166.2 L 369.2 166.2 z M 499.6 175.6 L 499.6 180.4 L 498.8 180.4 L 499.6 180.4 L 499.6 175.6 z M 404.7 183.4 L 499.4 183.4 C 499.4 190.8 499.2 198.6 499 206.9 L 404.8 206.9 L 404.7 183.4 L 404.7 183.4 z M 368.2 210.1 L 439.6 210.1 C 439.8 210.1 439.8 210.2 439.8 210.29999999999998 L 439.8 265.29999999999995 C 439.8 268.19999999999993 439.3 270.9 438.3 273.49999999999994 C 435.40000000000003 280.8999999999999 429.90000000000003 286.8999999999999 422.90000000000003 290.49999999999994 C 417.3 293.79999999999995 410.8 295.69999999999993 404.3 295.79999999999995 C 395.3 295.69999999999993 386.8 292.4 380.1 286.59999999999997 C 372.8 280.99999999999994 368.5 272.49999999999994 368.3 263.29999999999995 L 368.3 210.39999999999995 C 368.1 210.4 368.2 210.1 368.2 210.1 z M 443.1 210.3 L 443.1 210.70000000000002 L 443.1 210.3 z M 498.9 210.3 L 498.5 230.9 L 497.7 230.9 L 498.59999999999997 230.9 C 498.7 230.9 498.9 210.3 498.9 210.3 z M 416.7 214.8 C 416.3 214.9 415.8 215.20000000000002 415.7 215.70000000000002 L 413.2 223.4 L 413.3 224 L 413.8 224.3 C 414.2 224.3 414.40000000000003 224.3 414.5 223.9 L 414.9 222.6 L 418.5 222.6 L 418.9 223.9 C 418.9 224.20000000000002 419.29999999999995 224.3 419.5 224.3 C 419.7 224.3 420 224.20000000000002 420.1 224 C 420.20000000000005 223.8 420.20000000000005 223.5 420.1 223.3 L 417.40000000000003 215.60000000000002 C 417.4 215.2 417 214.9 416.7 214.8 L 416.7 214.8 z M 394.3 215 C 393.90000000000003 215 393.6 215.3 393.6 215.6 C 393.6 215.89999999999998 393.90000000000003 216.2 394.3 216.2 L 395.5 216.2 L 395.5 223.6 C 395.5 224 395.9 224.2 396.2 224.2 C 396.5 224.2 396.8 223.89999999999998 396.8 223.6 L 396.8 216.2 L 398.1 216.2 C 398.40000000000003 216.2 398.70000000000005 215.89999999999998 398.70000000000005 215.6 C 398.70000000000005 215.3 398.40000000000003 215 398.1 215 C 398.1 215 394.3 215 394.3 215 z M 400.2 215 C 399.9 215 399.59999999999997 215.3 399.59999999999997 215.6 C 399.59999999999997 215.89999999999998 399.9 216.2 400.2 216.2 L 401.5 216.2 L 401.5 223.6 C 401.5 224 401.9 224.2 402.2 224.2 C 402.5 224.2 402.8 223.89999999999998 402.8 223.6 L 402.8 216.2 L 404.1 216.2 C 404.40000000000003 216.2 404.70000000000005 215.89999999999998 404.70000000000005 215.6 C 404.70000000000005 215.3 404.40000000000003 215 404.1 215 L 400.2 215 z M 408.8 215 C 407.8 214.9 406.90000000000003 215.5 406.5 216.3 C 405.9 217.3 405.6 218.4 405.6 219.5 C 405.6 220.7 405.90000000000003 221.7 406.40000000000003 222.8 C 406.8 223.70000000000002 407.70000000000005 224.3 408.8 224.3 C 409.40000000000003 224.3 409.90000000000003 224.10000000000002 410.40000000000003 223.9 C 411.20000000000005 223.3 411.70000000000005 222.4 411.90000000000003 221.4 C 412.00000000000006 220.9 412.1 220.3 412.1 219.8 C 412.1 219.4 411.90000000000003 218.9 411.20000000000005 218.9 L 409.20000000000005 218.9 C 408.70000000000005 218.9 408.6 219.1 408.6 219.3 C 408.6 219.70000000000002 408.8 219.9 409.1 219.9 L 410.6 219.9 L 410.6 220.3 C 410.70000000000005 221.5 409.90000000000003 222.60000000000002 408.8 222.9 C 408.1 222.9 407.40000000000003 222.4 407.2 221.70000000000002 C 406.8 221.00000000000003 406.7 220.20000000000002 406.7 219.4 C 406.7 218.5 407 217.70000000000002 407.3 217 C 407.5 216.4 408.1 216 408.7 215.9 C 409.3 215.9 409.8 216.3 410.09999999999997 216.8 C 410.2 217.10000000000002 410.49999999999994 217.20000000000002 410.79999999999995 217.10000000000002 C 411.09999999999997 217.10000000000002 411.19999999999993 216.70000000000002 411.19999999999993 216.50000000000003 C 411 215.5 409.9 214.9 408.8 215 z M 429.6 215 C 429.20000000000005 215 428.90000000000003 215.3 428.90000000000003 215.6 C 428.90000000000003 215.89999999999998 429.20000000000005 216.2 429.6 216.2 L 430.90000000000003 216.2 L 430.90000000000003 223.6 C 430.90000000000003 224 431.20000000000005 224.2 431.50000000000006 224.2 C 431.80000000000007 224.2 432.1000000000001 223.89999999999998 432.1000000000001 223.6 L 432.1000000000001 216.2 L 433.4000000000001 216.2 C 433.80000000000007 216.2 434.0000000000001 215.89999999999998 434.0000000000001 215.6 C 434.0000000000001 215.3 433.7000000000001 215 433.4000000000001 215 L 429.6 215 z M 376.7 215 C 376 214.9 375.2 215.1 374.59999999999997 215.5 C 373.99999999999994 215.9 373.59999999999997 216.6 373.59999999999997 217.3 C 373.49999999999994 218 373.79999999999995 218.8 374.29999999999995 219.4 C 374.69999999999993 219.9 375.4 220.20000000000002 376.09999999999997 220.20000000000002 C 376.99999999999994 220.20000000000002 377.7 220.50000000000003 378.2 221.20000000000002 C 378.4 221.60000000000002 378.2 222.10000000000002 377.9 222.50000000000003 C 377.5 222.90000000000003 376.9 223.10000000000002 376.29999999999995 223.00000000000003 C 375.69999999999993 223.00000000000003 375.09999999999997 222.70000000000002 374.69999999999993 222.30000000000004 C 374.49999999999994 222.00000000000003 374.0999999999999 221.90000000000003 373.79999999999995 222.00000000000003 C 373.4 222.20000000000002 373.4 222.70000000000002 373.4 222.90000000000003 C 374 223.80000000000004 375 224.40000000000003 376.2 224.30000000000004 C 377.2 224.40000000000003 378.2 224.10000000000005 378.9 223.40000000000003 C 379.4 222.90000000000003 379.59999999999997 222.20000000000005 379.59999999999997 221.50000000000003 C 379.7 220.80000000000004 379.29999999999995 220.00000000000003 378.7 219.60000000000002 C 377.8 219.10000000000002 376.8 218.8 375.8 218.70000000000002 C 375.2 218.60000000000002 374.8 218.00000000000003 374.90000000000003 217.4 C 375.1 216.6 375.8 216.20000000000002 376.40000000000003 216.3 C 377.00000000000006 216.3 377.70000000000005 216.5 378.1 217 C 378.5 217.4 379.1 217 379.1 216.6 C 379.1 216.2 378.5 215 376.7 215 z M 380.9 215 C 380.59999999999997 215 380.29999999999995 215.3 380.29999999999995 215.6 C 380.29999999999995 215.6 380.29999999999995 215.7 380.29999999999995 215.7 C 380.29999999999995 216 380.59999999999997 216.29999999999998 380.9 216.29999999999998 L 382.2 216.29999999999998 L 382.2 223.6 C 382.2 224 382.5 224.29999999999998 382.8 224.29999999999998 C 383.2 224.29999999999998 383.5 223.89999999999998 383.5 223.6 L 383.5 216.29999999999998 L 384.8 216.29999999999998 C 385.1 216.29999999999998 385.40000000000003 215.99999999999997 385.40000000000003 215.7 C 385.40000000000003 215.39999999999998 385.20000000000005 215 384.90000000000003 215 C 384.90000000000003 215 384.8 215 384.8 215 L 380.9 215 z M 422.4 215 L 421.9 215.3 C 421.79999999999995 215.4 421.7 215.60000000000002 421.7 215.70000000000002 L 421.7 223.50000000000003 C 421.7 223.90000000000003 421.9 224.10000000000002 422.2 224.20000000000002 L 422.3 224.20000000000002 C 422.7 224.20000000000002 423 223.9 423 223.60000000000002 L 423 221.10000000000002 L 424.3 221.10000000000002 L 426.3 223.8 C 426.5 224.10000000000002 426.7 224.20000000000002 426.90000000000003 224.20000000000002 C 427.3 224.20000000000002 427.50000000000006 223.9 427.50000000000006 223.70000000000002 C 427.50000000000006 223.50000000000003 427.40000000000003 223.20000000000002 427.20000000000005 223.10000000000002 L 425.6 220.90000000000003 L 425.8 220.90000000000003 C 426.3 220.70000000000005 426.7 220.40000000000003 427.1 220.00000000000003 C 427.70000000000005 219.50000000000003 428 218.70000000000002 427.90000000000003 217.90000000000003 C 427.90000000000003 217.00000000000003 427.40000000000003 216.20000000000005 426.70000000000005 215.70000000000005 C 426.00000000000006 215.30000000000004 425.30000000000007 215.10000000000005 424.50000000000006 215.10000000000005 C 424.4 215 422.4 215 422.4 215 z M 387.1 215 C 386.8 215 386.5 215.3 386.5 215.6 C 386.5 215.6 386.5 215.7 386.5 215.7 L 386.5 220.39999999999998 C 386.5 221.29999999999998 386.7 222.39999999999998 387.1 223.2 C 387.70000000000005 224 388.6 224.39999999999998 389.6 224.29999999999998 C 390.5 224.49999999999997 391.40000000000003 223.99999999999997 392 223.2 C 392.4 222.29999999999998 392.7 221.39999999999998 392.6 220.39999999999998 L 392.6 215.7 C 392.6 215.39999999999998 392.3 215.1 392 215.1 C 392 215.1 391.9 215.1 391.9 215.1 C 391.59999999999997 215.1 391.29999999999995 215.4 391.29999999999995 215.7 L 391.29999999999995 220.7 C 391.29999999999995 221.29999999999998 391.19999999999993 221.89999999999998 390.9 222.39999999999998 C 390.59999999999997 222.79999999999998 390.09999999999997 222.99999999999997 389.59999999999997 222.89999999999998 C 389.09999999999997 222.99999999999997 388.59999999999997 222.79999999999998 388.29999999999995 222.39999999999998 C 387.99999999999994 221.89999999999998 387.79999999999995 221.29999999999998 387.9 220.7 L 387.9 215.7 C 387.8 215.3 387.5 215 387.1 215 C 387.1 215 387.1 215 387.1 215 L 387.1 215 z M 422.9 216.3 L 424.59999999999997 216.3 C 425.09999999999997 216.3 425.59999999999997 216.4 425.9 216.70000000000002 C 426.29999999999995 217.10000000000002 426.4 217.4 426.4 217.9 C 426.4 219 425.5 219.8 424.4 219.8 L 423 219.8 L 422.9 216.3 L 422.9 216.3 z M 416.6 216.4 L 418.20000000000005 221.4 L 415.20000000000005 221.4 L 416.6 216.4 z M 404.1 227.3 C 403.20000000000005 227.60000000000002 402.3 227.8 401.6 228.3 C 401 228.8 400.5 229.4 400.1 230.10000000000002 C 400 230.20000000000002 399.90000000000003 230.3 399.70000000000005 230.40000000000003 L 399.20000000000005 230.50000000000003 L 397.30000000000007 231.40000000000003 C 396.70000000000005 231.70000000000005 396.1000000000001 232.10000000000002 395.50000000000006 232.30000000000004 C 395.00000000000006 232.50000000000003 394.6000000000001 232.60000000000005 394.1000000000001 232.70000000000005 C 393.00000000000006 232.50000000000006 391.80000000000007 232.60000000000005 391.4000000000001 233.80000000000004 C 391.4000000000001 234.10000000000005 391.5000000000001 234.30000000000004 391.80000000000007 234.40000000000003 C 392.00000000000006 234.50000000000003 392.1000000000001 234.60000000000002 392.30000000000007 234.70000000000005 L 392.9000000000001 235.00000000000006 C 393.1000000000001 235.00000000000006 393.2000000000001 235.00000000000006 393.30000000000007 235.20000000000005 L 393.4000000000001 235.40000000000003 L 393.4000000000001 235.50000000000003 C 393.4000000000001 235.70000000000002 393.1000000000001 235.90000000000003 393.0000000000001 235.90000000000003 C 392.4000000000001 236.00000000000003 391.9000000000001 235.90000000000003 391.4000000000001 235.60000000000002 L 391.30000000000007 235.60000000000002 C 391.1000000000001 235.40000000000003 390.80000000000007 235.40000000000003 390.6000000000001 235.60000000000002 C 389.50000000000006 236.50000000000003 388.4000000000001 237.40000000000003 387.2000000000001 238.10000000000002 L 386.8000000000001 238.50000000000003 L 386.7000000000001 238.70000000000002 L 386.7000000000001 239.00000000000003 C 386.7000000000001 239.30000000000004 386.4000000000001 239.40000000000003 386.2000000000001 239.40000000000003 C 386.0000000000001 239.50000000000003 385.8000000000001 239.70000000000005 385.8000000000001 239.90000000000003 L 385.8000000000001 240.40000000000003 C 385.90000000000015 240.80000000000004 386.2000000000001 241.00000000000003 386.7000000000001 241.00000000000003 L 386.9000000000001 241.00000000000003 L 387.80000000000007 240.60000000000002 L 388.20000000000005 240.60000000000002 L 388.30000000000007 240.70000000000002 L 388.30000000000007 241.10000000000002 C 388.20000000000005 241.3 388.1000000000001 241.50000000000003 387.9000000000001 241.60000000000002 C 387.7000000000001 241.90000000000003 387.6000000000001 242.10000000000002 387.9000000000001 242.3 C 388.30000000000007 242.70000000000002 388.9000000000001 242.60000000000002 389.2000000000001 242.20000000000002 C 389.4000000000001 242.00000000000003 389.5000000000001 241.70000000000002 389.6000000000001 241.50000000000003 C 389.7000000000001 241.20000000000002 389.9000000000001 241.00000000000003 390.2000000000001 241.00000000000003 C 390.7000000000001 240.80000000000004 391.3000000000001 240.70000000000002 391.8000000000001 240.60000000000002 C 392.2000000000001 240.60000000000002 392.60000000000014 240.60000000000002 392.90000000000015 240.90000000000003 L 393.20000000000016 241.20000000000005 L 393.20000000000016 241.40000000000003 C 393.10000000000014 241.80000000000004 393.00000000000017 242.10000000000002 392.8000000000002 242.50000000000003 L 392.50000000000017 243.40000000000003 L 392.20000000000016 244.20000000000005 L 391.8000000000002 244.60000000000005 L 390.20000000000016 245.90000000000006 C 389.3000000000002 246.70000000000007 388.70000000000016 247.50000000000006 388.00000000000017 248.60000000000005 C 387.8000000000002 248.90000000000006 387.70000000000016 249.20000000000005 387.6000000000002 249.50000000000006 C 387.4000000000002 250.40000000000006 387.2000000000002 251.50000000000006 386.3000000000002 250.80000000000007 C 385.4000000000002 250.40000000000006 384.50000000000017 249.70000000000007 383.6000000000002 249.00000000000006 C 383.3000000000002 248.80000000000007 382.9000000000002 248.50000000000006 382.7000000000002 248.10000000000005 C 381.80000000000024 246.80000000000004 380.7000000000002 248.10000000000005 380.2000000000002 249.00000000000006 C 379.2000000000002 250.70000000000005 378.0000000000002 252.30000000000007 376.7000000000002 253.80000000000007 C 376.6000000000002 254.20000000000007 376.4000000000002 254.50000000000006 376.2000000000002 254.80000000000007 C 375.9000000000002 255.20000000000007 375.7000000000002 255.70000000000007 375.80000000000024 256.20000000000005 C 375.80000000000024 257.1 375.5000000000002 257.90000000000003 375.10000000000025 258.6 C 374.7000000000003 259 374.5000000000002 259.5 374.5000000000002 260 L 374.5000000000002 261.4 C 374.5000000000002 261.79999999999995 374.7000000000002 262 375.0000000000002 262 L 375.30000000000024 262 C 376.0000000000002 261.7 376.7000000000002 261.3 377.40000000000026 260.7 L 377.7000000000003 260.5 C 377.90000000000026 260.3 377.90000000000026 260 377.8000000000003 259.8 L 377.7000000000003 259.6 L 377.5000000000003 259.40000000000003 C 377.40000000000026 259.3 377.2000000000003 259.20000000000005 377.1000000000003 259.00000000000006 L 377.1000000000003 258.40000000000003 L 377.3000000000003 257.8 C 377.3000000000003 257.6 377.4000000000003 257.3 377.6000000000003 257.2 L 378.70000000000033 256.3 C 379.1000000000003 255.9 379.30000000000035 255.20000000000002 379.1000000000003 254.70000000000002 L 379.1000000000003 254 C 379.1000000000003 253.7 379.20000000000033 253.6 379.4000000000003 253.3 L 380.1000000000003 252.4 C 380.4000000000003 251.9 380.9000000000003 251.5 381.4000000000003 251.3 C 382.20000000000033 251.3 382.9000000000003 251.5 383.50000000000034 252 C 384.00000000000034 252.7 384.4000000000003 253.6 384.70000000000033 254.5 C 384.9000000000003 255.3 385.20000000000033 256 385.6000000000003 256.7 C 386.0000000000003 257.09999999999997 386.5000000000003 257.4 387.0000000000003 257.09999999999997 L 387.3000000000003 256.9 L 387.5000000000003 256.79999999999995 C 387.7000000000003 256.79999999999995 387.90000000000026 256.79999999999995 388.0000000000003 257.09999999999997 L 388.90000000000026 257.99999999999994 C 389.30000000000024 258.29999999999995 389.0000000000003 258.49999999999994 388.60000000000025 258.49999999999994 L 387.2000000000003 258.49999999999994 C 385.7000000000003 258.99999999999994 384.0000000000003 259.29999999999995 382.40000000000026 259.29999999999995 L 382.10000000000025 259.29999999999995 C 381.80000000000024 259.29999999999995 381.7000000000003 259.49999999999994 381.7000000000003 259.69999999999993 L 381.60000000000025 259.8999999999999 L 381.40000000000026 260.2999999999999 C 381.30000000000024 260.6999999999999 381.30000000000024 261.0999999999999 381.40000000000026 261.4999999999999 C 382.0000000000003 263.6999999999999 382.30000000000024 265.9999999999999 381.80000000000024 268.2999999999999 C 381.60000000000025 269.1999999999999 381.80000000000024 270.0999999999999 382.40000000000026 270.6999999999999 L 383.10000000000025 271.09999999999985 L 383.5000000000002 271.29999999999984 C 383.7000000000002 271.59999999999985 383.80000000000024 271.79999999999984 383.80000000000024 272.1999999999998 C 383.80000000000024 272.5999999999998 384.10000000000025 273.0999999999998 384.30000000000024 273.3999999999998 C 384.7000000000002 273.8999999999998 385.2000000000002 274.2999999999998 385.80000000000024 274.6999999999998 L 386.0000000000002 274.6999999999998 C 386.4000000000002 274.8999999999998 386.7000000000002 274.6999999999998 386.9000000000002 274.3999999999998 C 387.2000000000002 273.6999999999998 387.4000000000002 272.8999999999998 387.3000000000002 272.0999999999998 C 387.3000000000002 271.6999999999998 387.00000000000017 271.3999999999998 386.6000000000002 271.2999999999998 L 386.2000000000002 271.3999999999998 L 385.9000000000002 271.49999999999983 L 385.5000000000002 271.49999999999983 C 385.30000000000024 271.3999999999998 385.2000000000002 271.1999999999998 385.10000000000025 270.99999999999983 C 384.90000000000026 270.49999999999983 384.90000000000026 269.99999999999983 385.0000000000002 269.49999999999983 L 385.0000000000002 269.1999999999998 L 385.10000000000025 268.49999999999983 C 385.10000000000025 268.29999999999984 385.10000000000025 268.09999999999985 384.90000000000026 267.8999999999998 C 384.7000000000003 267.49999999999983 384.7000000000003 267.3999999999998 384.40000000000026 267.2999999999998 C 384.2000000000003 267.2999999999998 384.10000000000025 267.19999999999976 384.0000000000003 266.9999999999998 C 383.8000000000003 266.7999999999998 383.8000000000003 266.69999999999976 383.90000000000026 266.5999999999998 C 384.10000000000025 265.4999999999998 384.10000000000025 264.3999999999998 384.0000000000003 263.2999999999998 C 384.0000000000003 262.8999999999998 384.0000000000003 262.5999999999998 384.2000000000003 262.3999999999998 C 385.0000000000003 261.6999999999998 386.3000000000003 262.1999999999998 387.0000000000003 262.49999999999983 C 388.1000000000003 262.8999999999998 389.1000000000003 263.09999999999985 390.1000000000003 263.29999999999984 C 391.9000000000003 263.49999999999983 393.70000000000033 262.99999999999983 395.1000000000003 261.99999999999983 C 395.20000000000033 261.8999999999998 395.20000000000033 261.79999999999984 395.4000000000003 261.8999999999998 L 396.9000000000003 262.99999999999983 C 398.20000000000033 263.8999999999998 399.6000000000003 264.49999999999983 401.00000000000034 264.99999999999983 C 403.00000000000034 265.1999999999998 404.9000000000003 265.1999999999998 407.00000000000034 264.8999999999998 C 407.4000000000003 264.8999999999998 408.00000000000034 264.99999999999983 408.4000000000003 265.1999999999998 L 408.6000000000003 265.49999999999983 C 408.6000000000003 266.29999999999984 408.20000000000033 266.8999999999998 408.20000000000033 267.6999999999998 C 408.20000000000033 268.0999999999998 408.4000000000003 268.49999999999983 408.6000000000003 268.8999999999998 L 409.0000000000003 269.99999999999983 L 409.3000000000003 270.3999999999998 C 410.4000000000003 271.7999999999998 410.5000000000003 273.8999999999998 409.3000000000003 275.2999999999998 C 408.6000000000003 275.9999999999998 407.8000000000003 276.69999999999976 406.9000000000003 277.2999999999998 C 406.1000000000003 277.8999999999998 405.1000000000003 278.2999999999998 404.1000000000003 278.3999999999998 C 403.4000000000003 278.3999999999998 402.8000000000003 278.6999999999998 402.3000000000003 279.1999999999998 C 401.7000000000003 279.79999999999984 401.1000000000003 280.29999999999984 400.4000000000003 280.5999999999998 C 400.1000000000003 280.6999999999998 399.8000000000003 280.9999999999998 399.8000000000003 281.2999999999998 C 399.4000000000003 282.0999999999998 399.2000000000003 282.8999999999998 399.0000000000003 283.7999999999998 C 398.90000000000026 284.19999999999976 399.3000000000003 284.3999999999998 399.7000000000003 284.3999999999998 C 400.40000000000026 284.2999999999998 401.10000000000025 283.99999999999983 401.90000000000026 283.7999999999998 C 402.30000000000024 283.7999999999998 402.5000000000003 283.2999999999998 402.40000000000026 282.8999999999998 L 402.30000000000024 282.7999999999998 L 402.0000000000002 282.19999999999976 L 402.0000000000002 281.69999999999976 C 402.2000000000002 281.59999999999974 402.30000000000024 281.39999999999975 402.5000000000002 281.2999999999998 C 402.7000000000002 281.0999999999998 403.0000000000002 281.0999999999998 403.2000000000002 281.0999999999998 L 403.6000000000002 281.0999999999998 C 404.6000000000002 281.4999999999998 405.8000000000002 281.0999999999998 406.2000000000002 280.0999999999998 C 406.2000000000002 280.0999999999998 406.2000000000002 280.0999999999998 406.2000000000002 280.0999999999998 C 406.4000000000002 279.7999999999998 406.6000000000002 279.4999999999998 406.80000000000024 279.2999999999998 C 408.7000000000002 278.0999999999998 410.7000000000002 277.0999999999998 412.90000000000026 276.2999999999998 C 413.10000000000025 276.2999999999998 413.30000000000024 276.0999999999998 413.30000000000024 275.8999999999998 L 413.30000000000024 272.7999999999998 C 413.30000000000024 272.2999999999998 413.5000000000002 271.3999999999998 414.2000000000002 271.3999999999998 C 414.5000000000002 271.3999999999998 414.7000000000002 271.5999999999998 414.80000000000024 271.7999999999998 C 415.5000000000002 272.69999999999976 416.40000000000026 273.2999999999998 417.5000000000002 273.69999999999976 L 418.4000000000002 274.09999999999974 C 419.2000000000002 274.4999999999997 419.7000000000002 275.19999999999976 419.8000000000002 276.09999999999974 C 419.9000000000002 276.59999999999974 419.8000000000002 276.9999999999997 419.50000000000017 277.39999999999975 L 417.40000000000015 280.39999999999975 C 417.10000000000014 280.89999999999975 416.70000000000016 281.39999999999975 416.10000000000014 281.69999999999976 C 414.70000000000016 282.59999999999974 413.5000000000001 283.69999999999976 412.3000000000001 284.89999999999975 L 411.3000000000001 287.9999999999998 C 411.10000000000014 288.5999999999998 411.5000000000001 288.7999999999998 412.0000000000001 288.5999999999998 C 412.9000000000001 288.3999999999998 413.60000000000014 288.0999999999998 414.3000000000001 287.6999999999998 L 414.7000000000001 287.3999999999998 C 414.8000000000001 287.2999999999998 414.8000000000001 287.0999999999998 414.8000000000001 286.99999999999983 C 414.8000000000001 286.6999999999998 414.60000000000014 286.3999999999998 414.40000000000015 286.1999999999998 C 414.20000000000016 285.8999999999998 414.20000000000016 285.49999999999983 414.40000000000015 285.1999999999998 C 414.50000000000017 284.99999999999983 414.70000000000016 284.8999999999998 414.8000000000001 284.79999999999984 L 416.60000000000014 284.29999999999984 C 417.3000000000001 284.1999999999998 418.0000000000001 283.89999999999986 418.60000000000014 283.39999999999986 C 418.70000000000016 283.1999999999999 418.8000000000001 283.09999999999985 418.90000000000015 282.89999999999986 L 418.90000000000015 282.6999999999999 C 419.60000000000014 280.39999999999986 421.20000000000016 278.1999999999999 423.40000000000015 277.09999999999985 C 423.70000000000016 276.99999999999983 423.8000000000001 276.6999999999999 423.8000000000001 276.39999999999986 L 423.7000000000001 275.4999999999999 L 422.1000000000001 272.9999999999999 C 421.6000000000001 272.2999999999999 421.30000000000007 271.5999999999999 421.2000000000001 270.7999999999999 C 421.2000000000001 269.8999999999999 421.4000000000001 269.0999999999999 421.8000000000001 268.3999999999999 L 422.2000000000001 267.7999999999999 C 422.5000000000001 267.1999999999999 423.1000000000001 266.8999999999999 423.5000000000001 266.2999999999999 C 423.9000000000001 265.7999999999999 424.4000000000001 265.1999999999999 424.7000000000001 264.4999999999999 L 425.6000000000001 262.0999999999999 C 425.80000000000007 261.3999999999999 425.50000000000006 260.69999999999993 425.50000000000006 259.9999999999999 C 425.50000000000006 259.6999999999999 425.70000000000005 259.5999999999999 425.80000000000007 259.2999999999999 C 426.1000000000001 258.8999999999999 426.50000000000006 258.5999999999999 427.00000000000006 258.3999999999999 C 427.50000000000006 258.2999999999999 428.00000000000006 258.2999999999999 428.40000000000003 258.49999999999994 L 430.70000000000005 259.3999999999999 C 431.1 259.3999999999999 431.6 259.3999999999999 432.00000000000006 259.19999999999993 C 432.40000000000003 259.0999999999999 432.90000000000003 258.79999999999995 433.30000000000007 258.49999999999994 L 433.30000000000007 258.09999999999997 L 432.20000000000005 258.09999999999997 C 431.80000000000007 257.99999999999994 431.50000000000006 257.79999999999995 431.30000000000007 257.49999999999994 C 431.1000000000001 257.19999999999993 430.9000000000001 256.8999999999999 430.9000000000001 256.59999999999997 L 431.2000000000001 256.09999999999997 C 431.8000000000001 255.69999999999996 432.3000000000001 255.19999999999996 432.6000000000001 254.69999999999996 C 432.9000000000001 254.09999999999997 433.00000000000006 253.49999999999997 433.00000000000006 252.89999999999995 L 432.70000000000005 252.89999999999995 C 432.30000000000007 253.29999999999995 432.20000000000005 253.79999999999995 431.70000000000005 254.09999999999994 C 431.30000000000007 254.39999999999995 430.80000000000007 254.49999999999994 430.40000000000003 254.49999999999994 C 430.1 254.49999999999994 429.8 254.39999999999995 429.50000000000006 254.09999999999994 C 429.30000000000007 253.79999999999993 429.20000000000005 253.49999999999994 429.1000000000001 253.19999999999993 C 429.00000000000006 252.79999999999993 429.50000000000006 252.69999999999993 429.7000000000001 252.59999999999994 C 430.3000000000001 252.59999999999994 430.9000000000001 252.39999999999995 431.5000000000001 252.19999999999993 C 431.9000000000001 251.99999999999994 432.10000000000014 251.69999999999993 432.3000000000001 251.29999999999993 C 432.40000000000015 250.99999999999991 432.5000000000001 250.69999999999993 432.5000000000001 250.39999999999992 C 432.5000000000001 250.19999999999993 432.5000000000001 250.0999999999999 432.4000000000001 250.19999999999993 C 432.0000000000001 250.19999999999993 431.80000000000007 250.49999999999994 431.5000000000001 250.59999999999994 C 431.0000000000001 250.79999999999993 430.4000000000001 250.69999999999993 429.9000000000001 250.49999999999994 C 429.4000000000001 250.09999999999994 429.0000000000001 249.59999999999994 428.7000000000001 249.09999999999994 L 428.7000000000001 248 C 429.3000000000001 248 429.8000000000001 247.4 430.1000000000001 246.7 L 430.30000000000007 246.29999999999998 L 430.70000000000005 245.79999999999998 C 430.80000000000007 245.39999999999998 430.80000000000007 244.99999999999997 430.80000000000007 244.6 C 430.80000000000007 244.29999999999998 430.6000000000001 243.9 430.4000000000001 243.7 L 430 243.7 C 429.8 244.1 430 244.6 429.6 245 C 429.3 245.4 429 245.8 428.6 246.1 C 428.3 246.29999999999998 428.1 246.5 427.90000000000003 246.5 C 427.40000000000003 246.3 427.1 245.9 427.00000000000006 245.4 C 427.00000000000006 245 427.20000000000005 244.4 427.40000000000003 244 L 429.1 241.3 L 430.5 239.70000000000002 C 430.8 239.3 430.9 238.4 430.6 238.20000000000002 C 430.20000000000005 238.10000000000002 430 239.00000000000003 429.70000000000005 239.20000000000002 C 428.30000000000007 239.70000000000002 427.00000000000006 240.4 425.80000000000007 241.3 C 425.20000000000005 242 424.9000000000001 242.8 424.6000000000001 243.70000000000002 C 424.4000000000001 244.20000000000002 424.50000000000006 244.9 424.30000000000007 245.4 C 424.30000000000007 245.6 423.9000000000001 245.8 423.70000000000005 245.70000000000002 C 423.30000000000007 245.3 423.00000000000006 244.70000000000002 422.80000000000007 244.20000000000002 C 422.70000000000005 243.8 422.70000000000005 243.4 422.80000000000007 242.9 C 422.9000000000001 242.70000000000002 422.80000000000007 242.6 422.70000000000005 242.70000000000002 C 422.1 243.00000000000003 421.80000000000007 243.50000000000003 421.50000000000006 244.00000000000003 C 421.30000000000007 244.80000000000004 421.30000000000007 245.60000000000002 421.70000000000005 246.30000000000004 C 422.30000000000007 247.50000000000003 423.00000000000006 248.50000000000003 423.90000000000003 249.50000000000003 C 424.50000000000006 250.40000000000003 425.20000000000005 251.50000000000003 425.70000000000005 252.40000000000003 C 426.20000000000005 253.10000000000002 426.40000000000003 254.10000000000002 426.30000000000007 255.10000000000002 C 426.00000000000006 256 425.6000000000001 256.90000000000003 424.9000000000001 257.5 C 424.9000000000001 257.5 424.6000000000001 257.7 424.5000000000001 257.6 C 423.8000000000001 256.90000000000003 423.0000000000001 256.3 422.2000000000001 255.70000000000002 C 421.2000000000001 255.10000000000002 420.2000000000001 254.60000000000002 419.1000000000001 254.4 C 417.7000000000001 254.20000000000002 416.2000000000001 254.20000000000002 414.80000000000007 254.4 C 413.30000000000007 254.4 411.80000000000007 254.70000000000002 410.30000000000007 254.6 C 409.1000000000001 254.7 407.9000000000001 254.6 406.70000000000005 254.2 C 405.90000000000003 253.79999999999998 405.20000000000005 253.2 404.70000000000005 252.39999999999998 C 404.30000000000007 251.59999999999997 404.1 250.59999999999997 404.30000000000007 249.7 C 404.30000000000007 248.89999999999998 404.6000000000001 248.2 404.9000000000001 247.5 C 405.2000000000001 246.9 405.7000000000001 246.4 406.2000000000001 246.1 C 406.9000000000001 245.7 407.7000000000001 245.6 408.4000000000001 245.79999999999998 L 409.30000000000007 246.39999999999998 C 409.6000000000001 246.7 409.9000000000001 246.99999999999997 410.20000000000005 247.29999999999998 L 410.50000000000006 247.2 C 410.6000000000001 246.2 410.40000000000003 245.2 410.1000000000001 244.2 C 409.80000000000007 243.5 409.30000000000007 242.79999999999998 408.80000000000007 242.1 C 408.80000000000007 241.9 409.20000000000005 242 409.30000000000007 241.9 C 410.1000000000001 241.9 410.9000000000001 242.1 411.50000000000006 242.6 C 411.90000000000003 242.9 412.40000000000003 243.2 412.70000000000005 243.79999999999998 L 412.80000000000007 243.7 C 412.9000000000001 242.5 412.4000000000001 241.29999999999998 411.6000000000001 240.39999999999998 C 411.30000000000007 239.89999999999998 410.80000000000007 239.39999999999998 410.30000000000007 239.09999999999997 C 409.9000000000001 238.99999999999997 410.50000000000006 238.69999999999996 410.80000000000007 238.69999999999996 C 411.4000000000001 238.59999999999997 412.1000000000001 238.69999999999996 412.6000000000001 238.99999999999997 L 413.2000000000001 239.39999999999998 L 413.6000000000001 239.79999999999998 C 413.7000000000001 239.79999999999998 413.9000000000001 239.6 413.80000000000007 239.49999999999997 C 413.70000000000005 239.09999999999997 413.6000000000001 238.79999999999998 413.4000000000001 238.49999999999997 C 412.5000000000001 237.59999999999997 411.5000000000001 236.69999999999996 410.4000000000001 235.89999999999998 L 410.0000000000001 235.59999999999997 C 409.7000000000001 235.19999999999996 409.4000000000001 234.69999999999996 409.3000000000001 234.29999999999995 L 408.90000000000015 233.69999999999996 L 408.90000000000015 233 C 409.3000000000001 232.4 409.50000000000017 232.3 410.20000000000016 232 C 410.70000000000016 231.8 411.20000000000016 231.7 411.70000000000016 231.6 L 412.20000000000016 231.79999999999998 C 412.20000000000016 231.79999999999998 412.3000000000002 231.49999999999997 412.10000000000014 231.39999999999998 C 411.5000000000001 230.99999999999997 410.70000000000016 230.79999999999998 409.90000000000015 230.79999999999998 C 408.90000000000015 230.6 407.90000000000015 230.7 406.90000000000015 230.99999999999997 C 406.20000000000016 231.39999999999998 405.40000000000015 231.59999999999997 404.70000000000016 231.59999999999997 C 404.20000000000016 231.59999999999997 403.60000000000014 231.59999999999997 403.20000000000016 231.29999999999995 C 402.90000000000015 231.09999999999997 402.60000000000014 230.79999999999995 402.60000000000014 230.39999999999995 C 402.60000000000014 229.89999999999995 402.70000000000016 229.19999999999996 403.0000000000001 228.69999999999996 C 403.2000000000001 228.29999999999995 403.60000000000014 227.99999999999997 404.0000000000001 227.79999999999995 C 404.4000000000001 227.79999999999995 404.5000000000001 227.59999999999997 404.4000000000001 227.39999999999995 C 404.6 227.1 404.3 227.2 404.1 227.3 L 404.1 227.3 z M 400.2 233.2 C 400.7 233.2 401.09999999999997 233.39999999999998 401.5 233.7 C 402.7 234.7 403.3 236.1 403.5 237.6 C 403.8 239.6 403.9 241.7 403.5 243.7 C 403.5 244.39999999999998 403.2 245 402.6 245.29999999999998 C 402.3 245.39999999999998 402 245.49999999999997 401.70000000000005 245.49999999999997 C 401.40000000000003 245.49999999999997 401.30000000000007 244.99999999999997 401.30000000000007 244.19999999999996 L 401.30000000000007 238.69999999999996 C 401.1000000000001 237.49999999999997 400.80000000000007 236.29999999999995 400.20000000000005 235.09999999999997 C 400.20000000000005 234.79999999999995 400.00000000000006 234.69999999999996 399.80000000000007 234.49999999999997 L 399.4000000000001 233.99999999999997 C 399.2000000000001 233.79999999999998 398.9000000000001 233.69999999999996 398.7000000000001 233.49999999999997 L 398.8000000000001 233.19999999999996 C 399.3 233.1 399.8 233 400.2 233.2 L 400.2 233.2 z M 443.1 234.2 L 498.5 234.2 L 498 258.4 L 443.1 258.4 C 443.1 258.4 443.1 234.2 443.1 234.2 z M 443.2 261.6 L 498 261.6 C 497.5 272.20000000000005 495.5 282.70000000000005 492 292.70000000000005 C 487.8 304.50000000000006 482.2 315.6 475.3 326.1 C 465.3 341.1 452.3 353.90000000000003 437.1 363.8 C 430.40000000000003 367.90000000000003 423.40000000000003 371.40000000000003 416.1 374.6 C 413.8 375.6 411.6 376.6 409.8 377.20000000000005 C 407.7 377.80000000000007 405.90000000000003 378.50000000000006 404.7 378.80000000000007 L 404.7 299.50000000000006 C 405.9 299.50000000000006 406.9 299.50000000000006 408.09999999999997 299.30000000000007 L 408.49999999999994 300.4000000000001 C 408.99999999999994 301.30000000000007 409.79999999999995 301.9000000000001 410.79999999999995 302.2000000000001 C 412.09999999999997 302.4000000000001 413.29999999999995 301.9000000000001 414.09999999999997 301.0000000000001 C 415.29999999999995 301.9000000000001 416.79999999999995 302.3000000000001 418.2 301.7000000000001 C 419.3 301.4000000000001 420.09999999999997 300.4000000000001 420.09999999999997 299.3000000000001 C 420.2 298.5000000000001 420.09999999999997 297.8000000000001 419.7 297.10000000000014 L 419.3 296.5000000000001 C 422.2 295.2000000000001 424.8 293.8000000000001 427.3 292.0000000000001 L 427.6 292.0000000000001 C 431.5 291.0000000000001 447.6 285.2000000000001 457.5 285.10000000000014 C 463.6 285.0000000000001 469.6 286.40000000000015 474.9 289.3000000000001 C 477.79999999999995 291.0000000000001 480.4 293.10000000000014 482.59999999999997 295.7000000000001 L 482.99999999999994 295.4000000000001 C 483.59999999999997 293.6000000000001 483.99999999999994 291.80000000000007 483.8999999999999 289.80000000000007 C 483.5999999999999 286.80000000000007 480.5999999999999 284.6000000000001 479.69999999999993 283.70000000000005 C 479.69999999999993 283.70000000000005 479.69999999999993 283.50000000000006 479.99999999999994 283.30000000000007 C 480.29999999999995 283.00000000000006 480.69999999999993 282.70000000000005 481.09999999999997 282.4000000000001 C 482.9 281.1000000000001 484.99999999999994 280.2000000000001 487.2 280.2000000000001 C 487.5 280.2000000000001 487.4 279.8000000000001 487.3 279.3000000000001 C 486.7 276.7000000000001 482.8 275.0000000000001 478.90000000000003 275.5000000000001 C 476.20000000000005 276.0000000000001 473.90000000000003 277.7000000000001 472.40000000000003 280.0000000000001 C 472.3 280.2000000000001 471.90000000000003 280.4000000000001 471.8 280.2000000000001 C 470.5 279.7000000000001 469.2 279.3000000000001 467.90000000000003 279.0000000000001 C 467.50000000000006 278.9000000000001 467.70000000000005 278.5000000000001 467.70000000000005 278.5000000000001 C 468.50000000000006 277.10000000000014 469.50000000000006 275.8000000000001 470.90000000000003 274.9000000000001 C 472.40000000000003 273.7000000000001 474.3 272.80000000000007 476.3 272.5000000000001 C 476.5 272.5000000000001 476.5 272.2000000000001 476.3 272.10000000000014 C 475.6 270.5000000000001 474.1 269.3000000000001 472.40000000000003 268.90000000000015 C 469.6 268.00000000000017 466.40000000000003 268.50000000000017 464.1 270.3000000000001 C 461.90000000000003 272.2000000000001 460.20000000000005 274.8000000000001 459.3 277.5000000000001 C 459.2 277.8000000000001 459.1 277.9000000000001 458.90000000000003 277.9000000000001 C 457.8 277.6000000000001 455.20000000000005 277.80000000000007 455.00000000000006 277.6000000000001 C 454.80000000000007 277.6000000000001 454.80000000000007 277.2000000000001 454.90000000000003 277.1000000000001 C 455.3 275.6000000000001 456.20000000000005 274.2000000000001 457.20000000000005 273.1000000000001 C 458.30000000000007 271.80000000000007 459.6 270.7000000000001 461.1 270.1000000000001 L 461.3 269.9000000000001 C 461.5 269.6000000000001 461.5 269.2000000000001 461.2 269.0000000000001 C 461.2 269.0000000000001 461.2 269.0000000000001 461.2 269.0000000000001 C 456.7 266.8000000000001 451.3 268.0000000000001 448.09999999999997 271.9000000000001 C 446.59999999999997 274.1000000000001 445.49999999999994 276.7000000000001 444.9 279.30000000000007 C 444.9 279.4000000000001 444.7 279.70000000000005 444.5 279.70000000000005 L 439.1 281.00000000000006 L 438.20000000000005 281.20000000000005 L 438 281 C 441.2 275.7 443 269.7 443.2 263.4 C 443.2 263.5 443.2 261.6 443.2 261.6 z M 369 270.3 C 369.3 271.5 369.9 272.6 370.3 273.8 L 369 270.3 z M 375.1 283 C 382.20000000000005 291.9 392.8 297.1 404.1 297.3 C 412.8 297.2 421.20000000000005 294 427.8 288.3 C 421.2 293.90000000000003 412.8 297 404.1 297.1 C 392.9 297 382.2 291.8 375.1 283 z M 373.2 285.9 L 374.3 285.9 L 373.2 285.9 z M 314.2 288.6 L 377 288.6 L 378.3 289.70000000000005 C 384.8 295.30000000000007 393 298.70000000000005 401.5 299.40000000000003 L 401.5 312.3 L 324.2 312.3 C 320.1 304.6 316.8 296.7 314.2 288.6 L 314.2 288.6 z M 445.2 293.7 C 443.59999999999997 293.9 442.09999999999997 294.4 440.7 295.3 C 438.9 296.40000000000003 437.4 297.90000000000003 436.5 299.8 C 435.4 302.5 434.9 305.2 434.7 308 L 434.3 308.4 L 430.7 309.29999999999995 C 430.7 309.29999999999995 430.5 309.29999999999995 430.4 309.09999999999997 C 430 306.4 430.59999999999997 303.7 432 301.4 C 432.6 300.29999999999995 433.4 299.29999999999995 434.3 298.5 C 434.5 298.4 434.6 298.1 434.5 298 L 434.1 297.8 C 431.8 297.40000000000003 429.3 297.8 427.20000000000005 299.1 C 424.50000000000006 300.5 422.70000000000005 303.20000000000005 422.40000000000003 306.3 C 422.1 308.40000000000003 422.3 310.5 422.8 312.6 C 422.8 312.70000000000005 422.8 312.90000000000003 422.6 313 L 418.70000000000005 314.9 L 418.50000000000006 314.9 C 418.1000000000001 313.29999999999995 417.1000000000001 311.9 415.6000000000001 311 C 414.00000000000006 310.3 412.30000000000007 310.4 410.80000000000007 311.2 C 409.80000000000007 311.8 409.00000000000006 312.59999999999997 408.6000000000001 313.59999999999997 C 407.80000000000007 315.4 408.4000000000001 317.4 409.9000000000001 318.4 C 409.9000000000001 318.5 410.1000000000001 318.7 409.9000000000001 318.79999999999995 C 408.9000000000001 319.19999999999993 408.9000000000001 319.4 408.1000000000001 320.49999999999994 C 407.4000000000001 322.09999999999997 407.6000000000001 323.99999999999994 408.7000000000001 325.29999999999995 C 410.2000000000001 327.59999999999997 413.3000000000001 328.19999999999993 415.5000000000001 326.69999999999993 C 415.7000000000001 326.5999999999999 415.9000000000001 326.3999999999999 416.10000000000014 326.19999999999993 C 416.10000000000014 326.19999999999993 416.3000000000001 326.19999999999993 416.40000000000015 326.3999999999999 C 416.8000000000001 326.99999999999994 417.3000000000001 327.5999999999999 417.90000000000015 327.99999999999994 C 419.40000000000015 328.8999999999999 421.3000000000001 328.8999999999999 422.70000000000016 327.99999999999994 C 424.3000000000002 327.09999999999997 425.20000000000016 325.29999999999995 424.90000000000015 323.49999999999994 C 424.90000000000015 322.49999999999994 424.50000000000017 321.49999999999994 423.70000000000016 320.79999999999995 C 423.60000000000014 320.59999999999997 423.70000000000016 320.49999999999994 424.10000000000014 320.29999999999995 C 430.60000000000014 316.59999999999997 437.70000000000016 314.09999999999997 445.20000000000016 313.09999999999997 C 449.00000000000017 312.59999999999997 452.90000000000015 312.7 456.70000000000016 313.4 C 459.10000000000014 313.9 461.50000000000017 315.09999999999997 463.40000000000015 316.7 C 465.00000000000017 318 466.40000000000015 319.4 467.8000000000001 321 C 468.2000000000001 321 468.7000000000001 321 469.10000000000014 320.7 C 469.90000000000015 318.9 470.0000000000001 316.9 469.20000000000016 315.09999999999997 C 468.3000000000002 312.7 466.90000000000015 310.59999999999997 465.10000000000014 308.79999999999995 L 465.10000000000014 308.59999999999997 C 465.10000000000014 308.2 465.3000000000001 308.09999999999997 465.60000000000014 307.7 C 467.3000000000001 306.2 469.40000000000015 305 471.60000000000014 304.59999999999997 C 471.90000000000015 304.59999999999997 472.0000000000001 304.29999999999995 471.90000000000015 304.09999999999997 C 470.3000000000001 300.9 466.50000000000017 299.49999999999994 463.20000000000016 300.79999999999995 C 461.10000000000014 301.69999999999993 459.3000000000002 303.29999999999995 458.40000000000015 305.29999999999995 C 458.3000000000001 305.49999999999994 458.10000000000014 305.79999999999995 458.00000000000017 305.69999999999993 L 454.40000000000015 305.29999999999995 C 454.00000000000017 305.29999999999995 454.10000000000014 304.9 454.20000000000016 304.9 C 454.60000000000014 303.59999999999997 455.3000000000002 302.4 456.3000000000002 301.5 C 457.6000000000002 300 459.3000000000002 298.8 461.1000000000002 298.1 C 461.3000000000002 298.1 461.3000000000002 297.90000000000003 461.3000000000002 297.8 C 460.1000000000002 296.3 458.20000000000016 295.40000000000003 456.3000000000002 295.3 C 453.9000000000002 295.2 451.50000000000017 296.1 449.8000000000002 297.8 C 447.70000000000016 300 446.50000000000017 302.8 446.20000000000016 305.8 C 446.00000000000017 306 445.90000000000015 306.2 445.8000000000002 306.2 C 444.9000000000002 306.4 443.8000000000002 306.4 442.8000000000002 306.5 C 442.6000000000002 306.5 442.6000000000002 306.2 442.6000000000002 306.1 C 442.6000000000002 304.6 443.00000000000017 303.1 443.7000000000002 301.8 C 445.0000000000002 299.2 447.1000000000002 297 449.6000000000002 295.5 C 450.00000000000017 295.2 450.00000000000017 294.6 449.9000000000002 294.6 C 448.5 293.8 446.8 293.5 445.2 293.7 L 445.2 293.7 z M 401.3 315.2 L 401.3 315.2 L 401.40000000000003 338.7 L 401.3 315.2 z M 433.4 327.7 C 432.4 327.7 431.4 328 430.59999999999997 328.59999999999997 C 428.2 329.79999999999995 426.4 331.9 425.49999999999994 334.49999999999994 C 425.09999999999997 336.49999999999994 425.09999999999997 338.59999999999997 425.69999999999993 340.59999999999997 L 425.69999999999993 340.9 L 423.3999999999999 342 L 423.0999999999999 342 C 421.69999999999993 339.4 421.9999999999999 336.3 423.9999999999999 334.1 C 424.1999999999999 333.90000000000003 424.2999999999999 333.70000000000005 423.89999999999986 333.6 C 421.79999999999984 333.3 419.6999999999999 334.1 418.29999999999984 335.70000000000005 C 416.59999999999985 337.70000000000005 416.09999999999985 340.40000000000003 416.99999999999983 342.90000000000003 C 417.1999999999998 343.8 417.49999999999983 344.70000000000005 418.09999999999985 345.6 C 418.09999999999985 345.6 418.49999999999983 345.90000000000003 418.1999999999999 346 L 416.6999999999999 347.3 L 416.39999999999986 347.3 C 415.79999999999984 346 414.59999999999985 345.1 413.29999999999984 344.7 C 412.09999999999985 344.4 410.89999999999986 344.8 409.99999999999983 345.59999999999997 C 408.49999999999983 347.09999999999997 408.3999999999998 349.49999999999994 409.8999999999998 351.09999999999997 C 409.8999999999998 351.09999999999997 409.99999999999983 351.2 409.99999999999983 351.2 C 410.3999999999998 351.59999999999997 410.8999999999998 351.9 411.49999999999983 352.09999999999997 C 411.59999999999985 352.09999999999997 411.6999999999998 352.29999999999995 411.59999999999985 352.4 C 410.6999999999999 353 409.99999999999983 353.7 409.49999999999983 354.59999999999997 C 408.8999999999998 356.09999999999997 409.1999999999998 357.79999999999995 410.3999999999998 358.99999999999994 C 411.2999999999998 359.69999999999993 412.3999999999998 360.09999999999997 413.49999999999983 359.8999999999999 C 415.1999999999998 359.3999999999999 416.49999999999983 358.0999999999999 417.3999999999998 356.5999999999999 C 417.3999999999998 356.5999999999999 417.5999999999998 356.3999999999999 417.6999999999998 356.5999999999999 C 418.3999999999998 357.4999999999999 419.3999999999998 358.19999999999993 420.5999999999998 358.69999999999993 C 421.7999999999998 359.19999999999993 423.0999999999998 358.8999999999999 423.9999999999998 357.99999999999994 C 425.2999999999998 357.09999999999997 425.7999999999998 355.29999999999995 425.19999999999976 353.69999999999993 C 424.69999999999976 352.79999999999995 423.9999999999998 351.99999999999994 423.09999999999974 351.49999999999994 C 422.89999999999975 351.29999999999995 423.09999999999974 351.09999999999997 423.2999999999997 350.8999999999999 C 427.59999999999974 347.3999999999999 432.7999999999997 345.0999999999999 438.39999999999975 344.2999999999999 C 442.09999999999974 343.7999999999999 445.89999999999975 344.3999999999999 449.2999999999997 346.0999999999999 C 450.59999999999974 346.7999999999999 451.7999999999997 347.7999999999999 452.89999999999975 348.8999999999999 C 452.9999999999998 348.8999999999999 453.39999999999975 349.0999999999999 453.4999999999998 348.8999999999999 C 455.19999999999976 347.49999999999994 455.2999999999998 344.8999999999999 453.89999999999975 343.19999999999993 C 453.2999999999997 342.49999999999994 452.59999999999974 341.8999999999999 451.69999999999976 341.3999999999999 L 451.59999999999974 341.19999999999993 C 452.69999999999976 338.3999999999999 454.9999999999997 336.19999999999993 457.9999999999997 335.49999999999994 C 458.2999999999997 335.49999999999994 458.1999999999997 335.29999999999995 457.9999999999997 334.99999999999994 C 456.7999999999997 331.99999999999994 451.3999999999997 331.8999999999999 448.8999999999997 333.49999999999994 C 447.29999999999967 334.59999999999997 445.9999999999997 335.99999999999994 445.0999999999997 337.69999999999993 C 445.0999999999997 337.8999999999999 444.99999999999966 338.0999999999999 444.79999999999967 338.0999999999999 L 442.5999999999997 337.3999999999999 L 442.5999999999997 337.0999999999999 C 444.0999999999997 334.0999999999999 446.79999999999967 331.8999999999999 449.99999999999966 331.0999999999999 C 450.19999999999965 330.9999999999999 450.0999999999997 330.7999999999999 449.99999999999966 330.69999999999993 C 448.89999999999964 327.79999999999995 442.99999999999966 327.99999999999994 440.0999999999997 329.8999999999999 C 437.3999999999997 331.69999999999993 435.3999999999997 334.3999999999999 434.6999999999997 337.5999999999999 L 434.6999999999997 337.9999999999999 C 433.7999999999997 338.2999999999999 433.0999999999997 338.4999999999999 432.1999999999997 338.5999999999999 C 432.0999999999997 338.5999999999999 431.9999999999997 338.4999999999999 431.9999999999997 338.2999999999999 C 431.7999999999997 336.8999999999999 431.9999999999997 335.3999999999999 432.6999999999997 334.1999999999999 C 433.5999999999997 332.59999999999985 434.8999999999997 331.09999999999985 436.1999999999997 329.6999999999999 C 436.3999999999997 329.4999999999999 436.3999999999997 329.1999999999999 436.1999999999997 329.09999999999985 C 435.3 328.1 434.4 327.8 433.4 327.7 L 433.4 327.7 z M 344.5 341.7 L 401.3 341.7 L 401.3 378.4 C 400.2 378 399 377.5 397.6 377.09999999999997 C 395.70000000000005 376.49999999999994 393.70000000000005 375.4 391.20000000000005 374.4 C 379.1 369.7 367.90000000000003 363.09999999999997 358.00000000000006 354.7 C 353.2 350.7 348.7 346.4 344.5 341.7 z M 556 426 L 556 473.2 L 566.4 473.2 L 566.4 455.5 L 629.5 455.5 L 629.5 473.2 L 640 473.2 L 640 426 L 629.6 426 L 629.6 445.2 L 566.5 445.2 L 566.5 426 L 556 426 L 556 426 z M 166.9 426 C 161.1 426 156.4 430.7 156.3 436.5 L 156.3 462.9 C 156.3 468.7 161.10000000000002 473.29999999999995 166.9 473.29999999999995 L 233.2 473.29999999999995 C 239 473.29999999999995 243.6 468.59999999999997 243.6 462.9 L 243.6 436.5 C 243.6 430.9 239.1 426.2 233.4 426.1 L 166.9 426 L 166.9 426 z M 256.2 426 L 256.2 473.2 L 266.5 473.2 L 266.5 460.7 L 324.4 460.7 C 330.09999999999997 460.7 334.79999999999995 465.5 334.79999999999995 471.2 L 334.79999999999995 473.09999999999997 L 345.29999999999995 473.09999999999997 L 345.29999999999995 472.99999999999994 C 345.29999999999995 466.19999999999993 341.4 459.99999999999994 335.19999999999993 456.99999999999994 C 340.79999999999995 456.79999999999995 345.19999999999993 452.19999999999993 345.19999999999993 446.59999999999997 L 345.19999999999993 436.4 C 345.19999999999993 430.59999999999997 340.49999999999994 426 334.69999999999993 426 L 256.2 426 L 256.2 426 z M 55.3 426.1 L 55.3 473.3 L 65.7 473.3 L 65.7 460.8 L 133.7 460.8 C 139.5 460.8 144.2 456.1 144.2 450.40000000000003 L 144.2 436.50000000000006 C 144.2 430.70000000000005 139.39999999999998 426.1000000000001 133.7 426.1000000000001 L 55.5 426.1000000000001 L 55.3 426.1 z M 469.1 426.1 C 463.3 426.1 458.5 430.8 458.5 436.5 L 458.5 462.9 C 458.5 468.59999999999997 463.1 473.4 468.8 473.4 L 544.1 473.4 L 544.1 463 L 470.3 463 C 469.6 463 469 462.5 469 461.7 L 469 437.9 C 469 437 469.8 436.5 470.7 436.5 L 544.1 436.5 L 544.1 426 L 469.1 426.1 L 469.1 426.1 z M 652.2 426.1 L 652.2 473.3 L 744.3000000000001 473.3 L 744.3000000000001 464.5 L 662.7 464.5 L 662.7 454.2 L 744.3000000000001 454.2 L 744.3000000000001 445.3 L 662.7 445.3 L 662.7 435 L 744.3000000000001 435 L 744.3000000000001 426.1 L 652.2 426.1 L 652.2 426.1 z M 367.5 426.1 C 361.8 426.3 357.2 430.90000000000003 357.2 436.70000000000005 L 357.2 443.70000000000005 C 357.2 449.50000000000006 362 454.20000000000005 367.8 454.20000000000005 L 434 454.20000000000005 C 434.9 454.20000000000005 435.7 454.90000000000003 435.8 455.80000000000007 L 435.8 463.00000000000006 C 435.8 463.90000000000003 435 464.50000000000006 434 464.50000000000006 L 358.7 464.50000000000006 L 358.7 473.40000000000003 L 435.79999999999995 473.40000000000003 C 441.49999999999994 473.40000000000003 446.19999999999993 468.6 446.19999999999993 462.90000000000003 L 446.19999999999993 455.8 C 446.19999999999993 450.1 441.3999999999999 445.3 435.69999999999993 445.3 L 369.3999999999999 445.3 C 368.49999999999994 445.40000000000003 367.69999999999993 444.7 367.69999999999993 443.8 C 367.69999999999993 443.8 367.69999999999993 443.8 367.69999999999993 443.8 L 367.69999999999993 436.6 C 367.69999999999993 435.70000000000005 368.49999999999994 435 369.3999999999999 435 L 444.4999999999999 435 L 444.4999999999999 426.2 L 367.5 426.1 L 367.5 426.1 z M 266.6 436.4 L 333 436.4 C 334 436.5 334.8 437.29999999999995 334.8 438.2 L 334.8 448.59999999999997 C 334.8 449.49999999999994 334.1 450.29999999999995 333.2 450.4 L 266.6 450.4 L 266.6 436.4 L 266.6 436.4 z M 65.7 436.4 L 132 436.5 C 132.9 436.5 133.8 437.4 133.8 438.3 L 133.8 448.6 C 133.8 449.5 133.10000000000002 450.3 132.20000000000002 450.40000000000003 L 65.9 450.40000000000003 L 65.9 436.40000000000003 L 65.7 436.40000000000003 z M 168.6 436.5 L 231.6 436.5 C 232.5 436.5 233.4 437.3 233.4 438.3 L 233.4 461.2 C 233.4 462.2 232.70000000000002 462.9 231.70000000000002 463 L 168.20000000000002 463 C 167.50000000000003 463 166.9 462.4 166.9 461.7 L 166.9 437.9 C 167 437 167.8 436.4 168.6 436.5 L 168.6 436.5 z" stroke-linecap="round" />
</g>
<g transform="matrix(1 0 0 1 296.5 39.5)" id="dd77265b-5305-4a96-9498-4ec6a4180093"  >
<circle style="stroke: rgb(0,0,0); stroke-opacity: 0; stroke-width: 0; stroke-dasharray: none; stroke-linecap: butt; stroke-dashoffset: 0; stroke-linejoin: miter; stroke-miterlimit: 4; fill: rgb(255,255,255); fill-rule: nonzero; opacity: 1;" vector-effect="non-scaling-stroke"  cx="0" cy="0" r="35" />
</g>
</svg>