<?xml version="1.0" encoding="UTF-8" standalone="no" ?>
<!DOCTYPE svg PUBLIC "-//W3C//DTD SVG 1.1//EN" "http://www.w3.org/Graphics/SVG/1.1/DTD/svg11.dtd">
<svg xmlns="http://www.w3.org/2000/svg" xmlns:xlink="http://www.w3.org/1999/xlink" version="1.1" width="350" height="275" viewBox="0 0 350 275" xml:space="preserve">
<desc>Created with Fabric.js 5.2.4</desc>
<defs>
</defs>
<rect x="0" y="0" width="100%" height="100%" fill="transparent"></rect>
<g transform="matrix(1 0 0 1 175 137.5)" id="133bdf1d-d9e4-40d1-927f-959a669f4ad1"  >
<rect style="stroke: none; stroke-width: 1; stroke-dasharray: none; stroke-linecap: butt; stroke-dashoffset: 0; stroke-linejoin: miter; stroke-miterlimit: 4; fill: rgb(255,255,255); fill-rule: nonzero; opacity: 1; visibility: hidden;" vector-effect="non-scaling-stroke"  x="-175" y="-137.5" rx="0" ry="0" width="350" height="275" />
</g>
<g transform="matrix(Infinity NaN NaN Infinity 0 0)" id="b082f045-b174-4687-a48a-9a22d24852e1"  >
</g>
<g transform="matrix(0.34 0 0 0.34 175 137.5)"  >
<g style="" vector-effect="non-scaling-stroke"   >
		<g transform="matrix(1.33 0 0 1.33 0 -133.68)"  >
<path style="stroke: none; stroke-width: 1; stroke-dasharray: none; stroke-linecap: butt; stroke-dashoffset: 0; stroke-linejoin: miter; stroke-miterlimit: 4; fill: rgb(25,25,27); fill-rule: nonzero; opacity: 1;" vector-effect="non-scaling-stroke"  transform=" translate(-365, -189.74)" d="M 293.01001 1.1199625 C 373.03001 -1.7000374999999999 453.13001 1.0999625 533.01001 6.2299625 C 541.4200099999999 6.9599625 549.9400099999999 6.8999625 558.22001 8.6699625 C 562.70001 9.7499625 567.54001 11.459963 570.16001 15.529963 C 572.55001 19.959963000000002 572.6000100000001 25.129963 573.22001 30.009963 C 575.12001 53.979963 575.68001 78.04996299999999 577.47001 102.01996 C 574.01001 102.43996 570.55001 101.90996 567.09001 101.79996 C 505.48001 98.609963 443.82001 95.959963 382.11001 95.879963 C 350.15001 95.969963 318.15001 95.659963 286.22001 97.209963 C 278.48001 98.349963 269.72001 100.93996 265.25001 107.83996 C 289.41001 112.12996000000001 313.52000999999996 116.75996 337.67001 121.12996000000001 C 417.71001 136.10996 497.81001 150.75996 577.85001 165.71996000000001 C 577.78001 180.89996000000002 577.81001 196.07996000000003 577.84001 211.25996 C 532.83001 203.80996000000002 487.90001 195.76996 442.92001000000005 188.07996 C 346.15001000000007 171.39996 249.41001000000006 154.48996 152.61001000000005 137.96996000000001 C 152.80001000000004 121.11996000000002 153.52001000000004 104.27996000000002 153.87001000000004 87.41996300000002 C 154.48001000000005 74.06996300000003 154.10001000000003 60.53996300000003 157.12001000000004 47.42996300000002 C 159.15001000000004 38.17996300000002 162.91001000000003 28.87996300000002 169.92001000000005 22.269963000000022 C 182.02001000000004 10.289963000000022 199.52001000000004 6.919962500000022 215.81001000000003 5.2299625000000205 C 241.48001000000005 2.8499625000000206 267.26001 2.0699625000000204 293.01001 1.1199625000000202 z M 152.15001 160.13996 C 290.79001 185.71996000000001 429.38001 211.72996 568.00001 237.45996 C 571.03001 238.19996 574.27001 238.25996 577.1800099999999 239.36996 L 577.53001 240.16996 C 576.77001 262.90996 576.3300099999999 285.66996 575.51001 308.40996 C 574.98001 322.43996 573.50001 337.11996 566.28001 349.47996 C 558.5400099999999 362.25996 544.12001 369.32996 529.85001 371.99996 C 508.82001 375.94996 487.34001 376.20995999999997 466.04001 377.37996 C 374.39000999999996 381.53996 282.55001 379.23996 191.05001 372.93996 C 183.74000999999998 372.42996 176.30001 372.29996 169.20001 370.26995999999997 C 165.52000999999998 369.10995999999994 161.72001 367.23996 159.64001 363.83995999999996 C 157.41001 359.37996 157.27000999999998 354.28995999999995 156.72001 349.42995999999994 C 154.76001 322.89995999999996 153.72001 296.3199599999999 152.33001000000002 269.7599599999999 C 199.53001 272.7599599999999 246.81001000000003 274.4399599999999 294.10001 275.48995999999994 C 339.76000999999997 276.22995999999995 385.42001 276.21995999999996 431.08001 276.66995999999995 C 440.93001000000004 277.07995999999997 451.58001 275.1999599999999 459.05001000000004 268.27995999999996 C 460.14001 267.02995999999996 461.91001000000006 265.86995999999994 461.73001000000005 263.99996 C 441.15001000000007 260.90996 420.69001000000003 257.06996 400.15001000000007 253.68995999999999 C 317.5100100000001 239.55996 234.83001000000007 225.55996 152.20001000000008 211.34995999999998 C 152.10001000000008 194.27996 152.2200100000001 177.20995999999997 152.15001000000007 160.13995999999997 z" stroke-linecap="round" />
</g>
		<g transform="matrix(1.33 0 0 1.33 0 319.74)"  >
<path style="stroke: none; stroke-width: 1; stroke-dasharray: none; stroke-linecap: butt; stroke-dashoffset: 0; stroke-linejoin: miter; stroke-miterlimit: 4; fill: rgb(25,25,27); fill-rule: nonzero; opacity: 1;" vector-effect="non-scaling-stroke"  transform=" translate(-365, -529.8)" d="M 519.91881 499.19361 L 519.91881 530.80382 L 419.37694 530.80382 L 419.37694 521.89953 C 419.37694 508.09788000000003 421.59641 498.971 437.79852 498.971 L 519.91881 498.971 z M 431.58401000000003 479.60418 C 405.17235000000005 479.60418 392.96528 493.62843 392.96528 516.33436 L 392.96528 580.00001 L 419.37694 580.00001 L 419.37694 550.61587 L 519.91881 550.61587 L 519.91881 579.7774 L 546.33047 579.7774 L 546.33047 479.60418 Z M 578.95664 479.60418 L 578.95664 499.19361 L 641.10175 499.19361 L 641.10175 579.7774 L 667.51341 579.7774 L 667.51341 499.1936099999999 L 729.65849 499.1936099999999 L 729.65849 479.60417999999993 z M 223.39801 541.26635 C 223.39801 555.29061 226.28332 560.41057 241.8196 560.41057 L 352.12709 560.41057 L 352.12709 580.00001 L 235.60509000000002 580.00001 C 209.19343 580.00001 196.76441000000003 567.97921 196.76441000000003 545.4959 L 196.76441000000003 479.60418 L 351.90514 479.60418 L 351.90514 499.19361 L 223.17607 499.19361 L 223.17607 518.7830299999999 L 346.57841 518.7830299999999 L 346.57841 538.03855 L 223.17607 538.03855 L 223.17607 541.37766 z M 34.299376 514.5535 C 26.087347 513.88568 24.755667000000003 510.99177 24.755667000000003 506.09443 C 24.755667000000003 501.64229 27.197082 498.971 33.411589000000006 498.971 L 155.26036 498.971 L 155.26036 479.60418 L 30.304336 479.60418 C 12.548597999999998 479.60418 0.3415272199999997 486.50498999999996 0.3415272199999997 506.31703 C 0.3415272199999997 526.12907 9.441343 533.02989 29.860442 534.81076 L 128.62675 543.0472199999999 C 136.17292999999998 543.7150399999999 138.39237999999997 546.1637199999999 138.39237999999997 551.7289 C 138.39237999999997 556.84886 136.17292999999998 560.18797 129.29258 560.18797 L 5.224355 560.18797 L 5.224355 579.7774 L 131.2901 579.7774 C 153.04088 579.7774 162.58459 571.0957199999999 162.58459 550.61587 C 162.58459 531.9168599999999 153.92866999999998 524.34821 132.84373 522.5673499999999 z" stroke-linecap="round" />
</g>
</g>
</g>
</svg>