<?xml version="1.0" encoding="UTF-8" standalone="no" ?>
<!DOCTYPE svg PUBLIC "-//W3C//DTD SVG 1.1//EN" "http://www.w3.org/Graphics/SVG/1.1/DTD/svg11.dtd">
<svg xmlns="http://www.w3.org/2000/svg" xmlns:xlink="http://www.w3.org/1999/xlink" version="1.1" width="425" height="275" viewBox="0 0 425 275" xml:space="preserve">
<desc>Created with Fabric.js 5.2.4</desc>
<defs>
</defs>
<rect x="0" y="0" width="100%" height="100%" fill="transparent"></rect>
<g transform="matrix(1 0 0 1 212.5 137.5)" id="85f83a51-a2c2-49da-ac5b-9ac70879106e"  >
<rect style="stroke: none; stroke-width: 1; stroke-dasharray: none; stroke-linecap: butt; stroke-dashoffset: 0; stroke-linejoin: miter; stroke-miterlimit: 4; fill: rgb(255,255,255); fill-rule: nonzero; opacity: 1; visibility: hidden;" vector-effect="non-scaling-stroke"  x="-212.5" y="-137.5" rx="0" ry="0" width="425" height="275" />
</g>
<g transform="matrix(0 0 0 0 0 0)" id="24a6c86f-3d5e-4a80-a52a-2784b16a48ae"  >
</g>
<g transform="matrix(1 0 0 1 212.5 137.5)"  >
<rect style="stroke: none; stroke-width: 1; stroke-dasharray: none; stroke-linecap: butt; stroke-dashoffset: 0; stroke-linejoin: miter; stroke-miterlimit: 4; fill: rgb(255,255,255); fill-rule: nonzero; opacity: 1; visibility: hidden;" vector-effect="non-scaling-stroke"  x="-187.5" y="-137.5" rx="0" ry="0" width="375" height="275" />
</g>
<g transform="matrix(1.13 0 0 1.13 213.59 94.72)"  >
<path style="stroke: none; stroke-width: 1; stroke-dasharray: none; stroke-linecap: butt; stroke-dashoffset: 0; stroke-linejoin: miter; stroke-miterlimit: 4; fill: rgb(0,0,0); fill-rule: evenodd; opacity: 1;" vector-effect="non-scaling-stroke"  transform=" translate(-282.93, -142.51)" d="M 291.83 169.39 C 291.83 159.98999999999998 305.3 157.54 308.54999999999995 165.88 C 311.18999999999994 172.67 305.99999999999994 177.98 301.40999999999997 177.98 C 297.40999999999997 177.98 294.15999999999997 176.57 292.60999999999996 172.91 C 292.36 172.32 291.83 170.03 291.83 169.39 L 291.83 169.39 z M 265.74 85.84 C 265.97 86.71000000000001 268.36 88.71000000000001 269.18 89.34 C 272.83 92.11 276.81 97.01 279.86 100.45 C 281.08000000000004 101.82000000000001 281.97 102.97 283.1 104.48 C 284.25 106.02000000000001 285.09000000000003 107.12 286.15000000000003 108.7 C 287.28000000000003 110.4 291.00000000000006 116.18 291.17 118.21000000000001 C 290.16 118.23 289.97 118.36000000000001 289.19 118.54 L 278.53 107.4 C 277.72999999999996 106.73 277.51 106.7 276.71999999999997 105.91000000000001 C 272.91999999999996 102.10000000000001 266.71999999999997 97.48000000000002 262.38 94.82000000000001 C 261.5 94.28 255.22 90.69000000000001 254.09 91.08000000000001 C 254.07 91.09000000000002 252.37 92.04 252.21 92.13000000000001 L 246.45000000000002 95.94000000000001 C 241.54000000000002 99.63000000000001 240.73000000000002 100.43 236.43 104.74000000000001 L 233.38 108.30000000000001 C 238.01999999999998 111.41000000000001 244.6 114.51 250.45999999999998 118.96000000000001 C 254.35999999999999 121.92 262.53999999999996 127.46000000000001 265.40999999999997 131.75 C 264.53999999999996 131.95 264.43999999999994 132.05 263.76 132.41 C 258.7 129.02 253.04 125.72999999999999 246.87 123.53 C 242.71 122.05 230.56 117.63 226.77 117.54 C 226.32000000000002 119.22000000000001 219.21 130.41 217.9 143.08 C 217.66 145.36 219.11 144.28 226.33 146.39000000000001 C 236.83 149.46 248.70000000000002 154.38000000000002 255.46 163.49 C 256.71000000000004 165.17000000000002 257.51 166.11 258.48 168.06 C 261.15000000000003 173.45 263.63 180.12 263.76 186.23000000000002 C 255.04999999999998 186.23000000000002 258.67 186.61 251.01999999999998 183.45000000000002 C 248.2 182.29000000000002 246.2 180.94000000000003 243.29999999999998 180.93 C 236.46999999999997 180.91 229.64 180.94 222.80999999999997 180.94 C 223.14999999999998 182.38 224.89999999999998 185.47 225.67 187 C 226.22 188.1 226.60999999999999 188.66 227.25 189.72 C 229.52 193.47 231.98 196.98 234.8 200.34 C 235.60000000000002 201.3 236.33 201.72 237.02 202.74 C 248.4 202.74 245.23000000000002 203.75 253.64000000000001 199.55 C 257.07 197.84 256.76 197.45000000000002 261.79 197.46 L 324.21000000000004 197.46 C 324.76000000000005 199.83 325.72 201.06 325.86 202.74 C 329.15000000000003 202.74 335.95 200.58 338.61 198.97 C 341.35 197.3 346.23 194.47 347.99 191.84 C 344.86 187.16 332.64 180.94 325.86 180.94 C 325.72 182.63 324.77000000000004 183.82 324.21000000000004 186.22 L 317.27000000000004 186.22 C 318.31000000000006 181.75 320.74000000000007 177.72 322.75000000000006 167.59 C 326.5400000000001 148.48000000000002 326.19000000000005 133.3 319.5400000000001 115.26 C 318.55000000000007 112.57000000000001 317.1600000000001 109.28 315.69000000000005 106.89 C 314.88000000000005 105.58 314.34000000000003 104.49 313.51000000000005 103.13 C 312.6700000000001 101.75999999999999 311.83000000000004 100.61 311.00000000000006 99.36 C 308.2300000000001 95.18 306.57000000000005 93.89 304.1600000000001 91.01 L 298.0300000000001 84.92 C 294.3400000000001 81.83 294.4500000000001 82.19 288.87000000000006 82.19 C 275.3 82.2 268.14 85.64 265.74 85.84 z" stroke-linecap="round" />
</g>
<g transform="matrix(1.15 0 0 1.15 212.5 105.93)"  >
<path style="stroke: none; stroke-width: 1; stroke-dasharray: none; stroke-linecap: butt; stroke-dashoffset: 0; stroke-linejoin: miter; stroke-miterlimit: 4; fill: rgb(0,0,0); fill-rule: evenodd; opacity: 1;" vector-effect="non-scaling-stroke"  transform=" translate(-288.61, -153.05)" d="M 207.28 152.88 C 207.28 139.57 211.05 125.19 217.41 113.8 C 221.14 107.12 226.91 99.37 232.46 94.17 C 245.98000000000002 81.5 266.14 71.97 284.57 71.97 C 296.2 71.97 305.88 72.52 316.71 76.82 C 319.12 77.77999999999999 321.40999999999997 78.64999999999999 323.65999999999997 79.77999999999999 C 328.38 82.15999999999998 337.49999999999994 87.60999999999999 341.64 91.52999999999999 L 344.28 93.83999999999999 C 347.2 96.57 347.29999999999995 97.10999999999999 349.05999999999995 98.96999999999998 C 352.12999999999994 102.20999999999998 352.8999999999999 103.60999999999999 355.63999999999993 107.24999999999999 C 356.3999999999999 108.25999999999999 356.88999999999993 109.25999999999999 357.56999999999994 110.27999999999999 C 360.7699999999999 115.04999999999998 363.61999999999995 121.64999999999999 365.44999999999993 127.16999999999999 C 366.2799999999999 129.67 367.05999999999995 132.07999999999998 367.66999999999996 134.85999999999999 C 370.18999999999994 146.33999999999997 370.58 159.35 367.73999999999995 170.65999999999997 C 367.10999999999996 173.17999999999998 366.38999999999993 176.34999999999997 365.53999999999996 178.69999999999996 C 365.10999999999996 179.88999999999996 364.62999999999994 181.14999999999995 364.17999999999995 182.28999999999996 C 359.25999999999993 194.53999999999996 356.34 197.78999999999996 348.7099999999999 207.43999999999997 C 345.5899999999999 211.38999999999996 336.9599999999999 218.33999999999997 332.2099999999999 221.31999999999996 C 328.9699999999999 223.35999999999996 325.67999999999995 225.25999999999996 322.13999999999993 226.76999999999995 C 308.30999999999995 232.68999999999994 294.87999999999994 235.40999999999997 279.5799999999999 233.51999999999995 C 274.1099999999999 232.84999999999997 267.79999999999995 231.70999999999995 262.73999999999995 229.87999999999997 C 261.54999999999995 229.44999999999996 260.28999999999996 228.96999999999997 259.15 228.51999999999995 L 253.86999999999998 226.20999999999995 C 253.15999999999997 225.89999999999995 252.77999999999997 225.83999999999995 252.01999999999998 225.40999999999994 L 241.17999999999998 218.73999999999995 C 240.59999999999997 218.31999999999996 240.10999999999999 218.05999999999995 239.60999999999999 217.66999999999996 L 233.99999999999997 213.04999999999995 C 231.11999999999998 210.76999999999995 226.80999999999997 205.50999999999996 224.37999999999997 202.52999999999994 C 213.45 189.2 207.28 169.99 207.28 152.88 L 207.28 152.88 z M 285.8 64.04 C 270.75 64.44000000000001 256.01 68.54 242.88 76.52000000000001 C 237.37 79.87 236.23 80.80000000000001 231.66 84.46000000000001 C 228.5 86.99000000000001 227.18 88.55000000000001 224.35999999999999 91.37 C 220.55999999999997 95.17 217.63 98.86 214.6 103.41 C 207.10999999999999 114.64999999999999 200.76 130.32999999999998 200 143.95999999999998 C 199.49 153.05999999999997 199.22 155.74999999999997 200.28 164.48999999999998 C 201.2 172.05999999999997 203.19 179.32999999999998 205.94 186.23999999999998 C 209.78 195.84999999999997 214.07 202.23 220.52 210.29999999999998 L 225.83 216.21999999999997 C 229.31 219.73999999999998 237.06 225.85999999999996 240.95000000000002 228.17999999999998 C 247.14000000000001 231.86999999999998 252.77 234.83999999999997 259.72 237.14999999999998 C 266.01000000000005 239.23999999999998 276.25 241.79999999999998 282.88000000000005 241.73 C 285.13000000000005 241.70999999999998 285.89000000000004 242.06 288.16 242.06 C 294.91 242.06 301.55 241.06 308.01000000000005 239.78 C 311.15000000000003 239.16 313.87000000000006 238.28 316.77000000000004 237.31 C 326.41 234.1 334.26000000000005 229.86 342.28000000000003 223.84 L 351.33000000000004 216.05 C 352.20000000000005 215.18 353.22 214.3 353.94000000000005 213.38000000000002 C 359.69000000000005 206.10000000000002 362.65000000000003 203.76000000000002 367.76000000000005 193.51000000000002 C 368.38000000000005 192.26000000000002 369.00000000000006 191.12000000000003 369.63000000000005 189.77 C 371.47 185.84 372.78000000000003 181.83 374.08000000000004 177.70000000000002 C 374.50000000000006 176.37 374.83000000000004 174.81000000000003 375.23 173.23000000000002 C 376.6 167.82000000000002 377.67 158.95000000000002 377.67 153.21 C 377.67 131.61 370.46000000000004 113.34 357.72 96.87 C 357.21000000000004 96.21000000000001 356.95000000000005 96.05000000000001 356.48 95.46000000000001 L 354 92.69 C 353.32 91.97 353.32 91.74 352.69 91.03 L 347.05 85.78 C 345.98 84.94 345.2 84.3 344.12 83.42 C 338.51 78.84 333.79 76.09 327.29 72.84 C 322.59000000000003 70.49000000000001 316.70000000000005 68.17 311.46000000000004 66.87 C 304.6 65.17 297.66 64.22 290.74 64.03 L 285.8 64.03 z" stroke-linecap="round" />
</g>
<g transform="matrix(0.94 0 0 0.94 285.98 239.33)"  >
<path style="stroke: none; stroke-width: 1; stroke-dasharray: none; stroke-linecap: butt; stroke-dashoffset: 0; stroke-linejoin: miter; stroke-miterlimit: 4; fill: rgb(0,0,0); fill-rule: evenodd; opacity: 1;" vector-effect="non-scaling-stroke"  transform=" translate(-372.8, -308.28)" d="M 387.28 323.63 L 351.93999999999994 323.63 L 351.93999999999994 293.24 L 386.28999999999996 293.24 C 390.29999999999995 293.24 393.55999999999995 295.57 393.55999999999995 299.52 L 393.55999999999995 316.69 C 393.55 320.56 391.04 323.63 387.28 323.63 L 387.28 323.63 z M 338.4 281.69 L 338.4 335.86 L 390.58 335.86 C 394.47999999999996 335.86 400.28999999999996 331.94 402.81 328.6 C 408.25 321.38 407.1 312.88 407.1 302.5 C 407.1 295.99 405.07000000000005 289.42 399.97 285.52 C 399.3 285 399.15000000000003 284.78 398.52000000000004 284.33 C 395.28000000000003 282 390.36 280.7 385.96000000000004 280.7 L 339.39000000000004 280.7 C 338.63 280.7 338.4 280.93 338.4 281.69 z" stroke-linecap="round" />
</g>
<g transform="matrix(0.94 0 0 0.94 206.76 239.34)"  >
<path style="stroke: none; stroke-width: 1; stroke-dasharray: none; stroke-linecap: butt; stroke-dashoffset: 0; stroke-linejoin: miter; stroke-miterlimit: 4; fill: rgb(0,0,0); fill-rule: evenodd; opacity: 1;" vector-effect="non-scaling-stroke"  transform=" translate(-288.52, -308.27)" d="M 266.4 316.7 C 266.4 311.92 265.57 298.88 267.65999999999997 296.15999999999997 C 268.45 295.13 270.02 293.58 271.68999999999994 293.58 L 304.7199999999999 293.58 C 307.7399999999999 293.58 310.3299999999999 296.18 310.3299999999999 299.19 L 310.3299999999999 318.02 C 310.3299999999999 321.13 307.48999999999995 323.63 304.38999999999993 323.63 L 272.0199999999999 323.63 C 269.46 323.63 266.4 320.84 266.4 316.7 L 266.4 316.7 z M 253.19 299.19 L 253.19 318.35 C 253.19 322.24 255.87 327.46000000000004 258.55 330.16 C 260.90000000000003 332.53000000000003 265.52000000000004 335.85 270.03000000000003 335.85 L 307.02000000000004 335.85 C 308.44000000000005 335.85 309.52000000000004 335.54 310.61 335.15000000000003 C 311.43 334.85 312.86 334.3 313.62 333.87000000000006 C 314.45 333.39000000000004 315.33 332.74000000000007 316.2 332.1600000000001 C 320.45 329.3300000000001 323.86 322.8400000000001 323.86 317.69000000000005 L 323.86 299.52000000000004 C 323.86 296.42 322.86 293.88000000000005 321.77000000000004 291.70000000000005 C 321.02000000000004 290.20000000000005 320.81000000000006 289.81000000000006 319.90000000000003 288.61000000000007 C 319.13000000000005 287.5900000000001 318.31000000000006 286.8300000000001 317.34000000000003 285.88000000000005 C 313.57000000000005 282.20000000000005 307.8 280.69000000000005 302.39000000000004 280.69000000000005 L 275.31000000000006 280.69000000000005 C 267.08000000000004 280.69000000000005 261.81000000000006 282.94000000000005 257.55000000000007 288.03000000000003 C 256.74000000000007 289.00000000000006 256.0200000000001 289.99 255.38000000000008 291.14000000000004 C 254.35 293.02 253.19 296.43 253.19 299.19 z" stroke-linecap="round" />
</g>
<g transform="matrix(0.94 0 0 0.94 136.29 239.33)"  >
<path style="stroke: none; stroke-width: 1; stroke-dasharray: none; stroke-linecap: butt; stroke-dashoffset: 0; stroke-linejoin: miter; stroke-miterlimit: 4; fill: rgb(0,0,0); fill-rule: evenodd; opacity: 1;" vector-effect="non-scaling-stroke"  transform=" translate(-213.56, -308.27)" d="M 177.56 335.85 L 191.1 335.85 L 191.1 314.71000000000004 L 208.6 314.71000000000004 L 219.25 325.20000000000005 C 222.23 328.19000000000005 228.06 332.86000000000007 230.07 335.85 L 248.89999999999998 335.85 L 220.82999999999998 308.77000000000004 L 235.27999999999997 294.82000000000005 C 236.51999999999998 293.58000000000004 237.50999999999996 292.59000000000003 238.74999999999997 291.35 C 241.67999999999998 288.42 247.75999999999996 283.39000000000004 249.56999999999996 280.70000000000005 L 231.06999999999996 280.70000000000005 C 229.87999999999997 282.48 217.66999999999996 293.94000000000005 215.12999999999997 296.47 C 213.68999999999997 297.91 210.91999999999996 300.36 209.92999999999998 301.84000000000003 L 191.1 301.84000000000003 L 191.1 280.7 L 177.56 280.7 L 177.56 335.85 z" stroke-linecap="round" />
</g>
<g transform="matrix(0.94 0 0 0.94 360.74 239.33)"  >
<path style="stroke: none; stroke-width: 1; stroke-dasharray: none; stroke-linecap: butt; stroke-dashoffset: 0; stroke-linejoin: miter; stroke-miterlimit: 4; fill: rgb(0,0,0); fill-rule: evenodd; opacity: 1;" vector-effect="non-scaling-stroke"  transform=" translate(-452.34, -308.27)" d="M 452.34 291.27 C 452.69 292.75 458.84999999999997 303.03 460.26 305.81 L 461.93 308.77 C 462.46 309.69 463.03000000000003 310.71 463.63 311.69 C 464.27 312.71999999999997 464.67 313.7 465.21999999999997 314.73 L 439.13 314.73 C 440.17 312.77000000000004 441.11 310.95000000000005 442.3 308.98 L 452.34 291.27 L 452.34 291.27 z M 412.38 335.85 L 427.24 335.85 L 438.47 315.70000000000005 L 445.41 326.27000000000004 L 471.83000000000004 326.27000000000004 C 472.68000000000006 327.88000000000005 473.58000000000004 329.38000000000005 474.46000000000004 330.91 L 477.11 335.85 L 492.3 335.85 C 491.85 333.92 486.21000000000004 324.94 484.7 321.98 C 484.08 320.76 483.53999999999996 319.84000000000003 482.83 318.57 L 471.28 298.09 C 470.59 296.81 469.98999999999995 295.7 469.25 294.5 L 461.59 280.69 L 443.09 280.69 L 438.45 289.27 C 438.09999999999997 289.88 437.83 290.21 437.46999999999997 290.93 C 436.79999999999995 292.24 436.15999999999997 293.27 435.49999999999994 294.57 L 414.34999999999997 332.21 C 413.71 333.49 413.05 334.59 412.38 335.85 z" stroke-linecap="round" />
</g>
<g transform="matrix(0.94 0 0 0.94 57.89 239.33)"  >
<path style="stroke: none; stroke-width: 1; stroke-dasharray: none; stroke-linecap: butt; stroke-dashoffset: 0; stroke-linejoin: miter; stroke-miterlimit: 4; fill: rgb(0,0,0); fill-rule: evenodd; opacity: 1;" vector-effect="non-scaling-stroke"  transform=" translate(-130.15, -308.27)" d="M 97.96 294.24 C 97.96 300.05 97.21 306.23 101.00999999999999 310.02 C 103.10999999999999 312.12 105.82999999999998 313.72999999999996 109.19 313.72999999999996 L 150.14 313.72999999999996 C 150.14 326.7 153.63 324.29999999999995 128.33999999999997 324.29999999999995 C 120.18999999999997 324.29999999999995 112.04999999999998 324.29999999999995 103.89999999999998 324.29999999999995 C 102.75999999999998 326.46 97.31999999999998 334.53999999999996 96.95999999999998 335.85999999999996 L 154.68999999999997 335.79999999999995 C 156.62999999999997 335.47999999999996 159.45999999999998 333.54999999999995 160.56999999999996 332.09999999999997 C 162.02999999999997 330.17999999999995 163.33999999999997 328.15 163.33999999999997 324.96999999999997 L 163.33999999999997 312.4 C 163.33999999999997 308.27 160.35999999999999 304.28 156.7 302.85999999999996 C 152.66 301.28999999999996 145.91 301.83 141.20999999999998 301.83 L 116.76999999999998 301.83 C 113.79999999999998 301.83 111.15999999999998 302.2 111.15999999999998 299.19 L 111.15999999999998 280.69 C 102.85 280.7 97.96 286 97.96 294.24 z" stroke-linecap="round" />
</g>
<g transform="matrix(0.94 0 0 0.94 66.6 218.84)"  >
<path style="stroke: none; stroke-width: 1; stroke-dasharray: none; stroke-linecap: butt; stroke-dashoffset: 0; stroke-linejoin: miter; stroke-miterlimit: 4; fill: rgb(0,0,0); fill-rule: evenodd; opacity: 1;" vector-effect="non-scaling-stroke"  transform=" translate(-139.41, -286.48)" d="M 123.72 292.26 L 155.1 292.26 L 161.32 282.3 C 161.78 281.56 161.81 281.69 162.04 280.7 L 116.78999999999999 280.7 C 117.25 282.68 122.37 289.7 123.72 292.26 z" stroke-linecap="round" />
</g>
</svg>