<?xml version="1.0" encoding="UTF-8" standalone="no" ?>
<!DOCTYPE svg PUBLIC "-//W3C//DTD SVG 1.1//EN" "http://www.w3.org/Graphics/SVG/1.1/DTD/svg11.dtd">
<svg xmlns="http://www.w3.org/2000/svg" xmlns:xlink="http://www.w3.org/1999/xlink" version="1.1" width="375" height="275" viewBox="0 0 375 275" xml:space="preserve">
<desc>Created with Fabric.js 5.2.4</desc>
<defs>
</defs>
<g transform="matrix(1 0 0 1 187.5 137.5)" id="632cd248-a1cd-4517-850e-cbfd76d770b6"  >
<rect style="stroke: none; stroke-width: 1; stroke-dasharray: none; stroke-linecap: butt; stroke-dashoffset: 0; stroke-linejoin: miter; stroke-miterlimit: 4; fill: rgb(255,255,255); fill-rule: nonzero; opacity: 1; visibility: hidden;" vector-effect="non-scaling-stroke"  x="-187.5" y="-137.5" rx="0" ry="0" width="375" height="275" />
</g>
<g transform="matrix(0 0 0 0 0 0)" id="17547c99-accb-4ba6-ae5d-0fced4a98e07"  >
</g>
<g transform="matrix(2.04 0 0 2.04 187.5 243.77)"  >
<path style="stroke: none; stroke-width: 1; stroke-dasharray: none; stroke-linecap: butt; stroke-dashoffset: 0; stroke-linejoin: miter; stroke-miterlimit: 4; fill: rgb(0,0,0); fill-rule: evenodd; opacity: 1;" vector-effect="non-scaling-stroke"  transform=" translate(-96.38, -113.74)" d="M 30.639 102.584 C 36.28 102.584 35.576 108.578 35.676 108.83 L 29.833000000000002 108.83 C 29.833000000000002 108.779 29.833000000000002 107.01599999999999 28.222 107.01599999999999 L 16.437 107.01599999999999 C 14.120000000000001 107.01599999999999 14.120000000000001 111.047 16.235 111.14699999999999 C 20.063 111.34799999999998 26.308 111.297 31.445 111.54899999999999 C 33.862 111.701 35.978 113.26199999999999 35.978 115.88099999999999 C 35.978 115.98099999999998 36.079 120.41399999999999 36.079 120.41399999999999 C 36.129 123.43499999999999 33.511 124.84599999999999 30.942 124.84599999999999 L 14.12 124.84599999999999 C 11.299999999999999 124.84599999999999 8.983 122.78199999999998 8.579999999999998 120.00999999999999 C 8.478995936790824 119.34246575583676 8.478995936790826 118.66353424416323 8.579999999999998 117.996 L 14.421999999999997 117.996 C 14.421999999999997 117.996 14.320999999999996 120.514 16.839 120.514 C 21.271 120.514 23.788999999999998 120.616 27.817999999999998 120.514 C 30.839999999999996 120.463 31.342999999999996 116.082 27.817999999999998 115.881 C 23.587999999999997 115.68 20.363999999999997 115.529 15.025999999999998 115.377 C 11.399999999999999 115.277 8.779999999999998 113.86699999999999 8.779999999999998 110.945 L 8.779999999999998 106.41199999999999 C 8.779999999999998 104.297 10.794999999999998 102.58399999999999 13.614999999999998 102.58399999999999 L 30.639 102.58399999999999 z M 44.541 103.289 C 44.44 103.441 44.541 112.154 44.541 118.803 C 44.541 119.75999999999999 45.144999999999996 120.514 46.352999999999994 120.514 L 57.63499999999999 120.514 C 58.843999999999994 120.514 59.145999999999994 119.508 59.145999999999994 118.702 C 59.24699999999999 112.759 59.24699999999999 103.542 59.145999999999994 103.39099999999999 L 65.592 103.39099999999999 C 65.592 103.39099999999999 65.643 114.47099999999999 65.693 120.41399999999999 C 65.744 123.08399999999999 63.477 124.79499999999999 60.254 124.84599999999999 C 54.21 124.948 51.187999999999995 124.84599999999999 45.547 124.84599999999999 C 41.617999999999995 124.84599999999999 38.244 123.68799999999999 38.193 120.41399999999999 C 38.143 113.66399999999999 37.992 103.44099999999999 38.092 103.28899999999999 L 44.541 103.28899999999999 z M 88.055 103.391 C 93.998 103.391 94.602 107.723 94.602 109.03200000000001 C 94.602 112.55700000000002 91.631 114.01800000000001 91.479 114.06900000000002 C 91.53 114.06900000000002 95.005 115.37800000000001 95.005 118.80300000000001 C 95.005 120.71700000000001 94.70299999999999 124.79500000000002 88.054 124.84600000000002 C 80.399 124.94800000000002 68.059 124.84600000000002 68.009 124.84600000000002 L 68.009 103.39100000000002 L 88.055 103.39100000000002 z M 86.444 112.254 C 87.652 112.254 88.66 111.549 88.66 109.938 C 88.66 108.528 87.502 107.723 86.243 107.723 C 82.01299999999999 107.723 74.609 107.621 74.458 107.723 L 74.458 112.254 C 74.608 112.355 81.81 112.254 86.444 112.254 z M 86.544 120.51400000000001 C 87.803 120.51400000000001 89.062 119.811 89.062 118.19800000000001 C 89.062 116.686 87.803 115.73100000000001 86.443 115.78 C 82.514 115.831 74.607 115.78 74.456 115.882 L 74.456 120.515 C 74.608 120.615 81.407 120.514 86.544 120.514 z M 106.389 103.391 L 114.244 103.391 L 125.83 124.846 L 119.482 124.846 L 117.166 120.51400000000001 L 103.66799999999999 120.51400000000001 L 101.24999999999999 124.846 L 94.80399999999999 124.846 L 106.38899999999998 103.391 z M 110.21499999999999 108.125 L 105.98499999999999 115.881 L 114.64899999999999 115.881 L 110.21499999999999 108.125 z M 145.875 107.723 C 147.486 107.723 148.494 109.635 148.494 111.147 C 148.494 112.659 147.435 114.27000000000001 145.875 114.27000000000001 C 141.24 114.27000000000001 134.189 114.32100000000001 134.09 114.27000000000001 L 134.09 107.72300000000001 C 134.24 107.62100000000001 141.643 107.72300000000001 145.875 107.72300000000001 z M 134.09 118.197 C 134.139 118.197 141.846 118.248 145.674 118.197 C 147.334 118.146 148.69400000000002 119.91 148.69400000000002 121.422 L 148.69400000000002 124.846 L 154.436 124.846 L 154.436 121.522 C 154.436 118.399 151.163 116.58600000000001 151.112 116.58600000000001 C 151.26399999999998 116.53500000000001 154.337 114.47100000000002 154.337 111.04700000000001 C 154.337 107.016 152.726 103.391 146.78199999999998 103.391 L 127.64299999999999 103.391 L 127.64299999999999 124.846 L 134.08999999999997 124.846 L 134.08999999999997 118.197 z M 163.1 103.289 C 162.948 103.49 163.2 112.154 163.2 118.803 C 163.2 119.75999999999999 163.70399999999998 120.514 165.01399999999998 120.514 L 176.194 120.514 C 177.403 120.514 177.706 119.508 177.706 118.702 C 177.80599999999998 112.759 177.90699999999998 103.542 177.80599999999998 103.39099999999999 L 184.154 103.39099999999999 C 184.154 103.39099999999999 184.203 114.47099999999999 184.254 120.41399999999999 C 184.30499999999998 123.08399999999999 182.13899999999998 124.79499999999999 178.916 124.84599999999999 C 172.771 124.948 169.748 124.84599999999999 164.209 124.84599999999999 C 160.281 124.84599999999999 156.805 123.73899999999999 156.756 120.41399999999999 C 156.654 113.66399999999999 156.654 103.44099999999999 156.756 103.28899999999999 L 163.1 103.28899999999999 z" stroke-linecap="round" />
</g>
<g transform="matrix(5.36 0 0 5.36 187.5 104.79)"  >
<path style="stroke: none; stroke-width: 1; stroke-dasharray: none; stroke-linecap: butt; stroke-dashoffset: 0; stroke-linejoin: miter; stroke-miterlimit: 4; fill: rgb(0,0,0); fill-rule: nonzero; opacity: 1;" vector-effect="non-scaling-stroke"  transform=" translate(-97.96, -78.16)" d="M 97.879 60.55 C 89.807 60.55 82.358 62.692 76.86800000000001 65.942 C 71.245 69.27099999999999 67.697 73.74699999999999 67.697 78.234 C 67.697 82.711 71.229 87.13799999999999 76.83 90.42599999999999 C 82.322 93.64999999999999 89.787 95.76499999999999 97.878 95.76499999999999 C 106.034 95.76499999999999 113.53 93.65399999999998 119.042 90.43499999999999 C 124.673 87.14499999999998 128.212 82.71399999999998 128.212 78.23399999999998 C 128.212 73.74199999999998 124.65699999999998 69.26199999999999 119.005 65.93199999999999 C 113.5 62.68799999999999 106.02 60.54999999999999 97.87899999999999 60.54999999999999 z M 76.40700000000001 65.16 C 82.02600000000001 61.833 89.64000000000001 59.64 97.87900000000002 59.64 C 106.18400000000003 59.64 113.82600000000002 61.828 119.46500000000002 65.149 C 125.39300000000001 68.642 129.12300000000002 73.403 129.12300000000002 78.232 C 129.12300000000002 83.053 125.40800000000002 87.767 119.50000000000001 91.218 C 113.86100000000002 94.512 106.20100000000002 96.673 97.87900000000002 96.673 C 89.62500000000001 96.673 81.99600000000002 94.507 76.37300000000002 91.206 C 70.49500000000002 87.75500000000001 66.78900000000002 83.048 66.78900000000002 78.232 C 66.78800000000001 73.40899999999999 70.50900000000001 68.652 76.40700000000001 65.16 z" stroke-linecap="round" />
</g>
<g transform="matrix(5.36 0 0 5.36 187.5 104.79)"  >
<path style="stroke: none; stroke-width: 1; stroke-dasharray: none; stroke-linecap: butt; stroke-dashoffset: 0; stroke-linejoin: miter; stroke-miterlimit: 4; fill: rgb(0,0,0); fill-rule: evenodd; opacity: 1;" vector-effect="non-scaling-stroke"  transform=" translate(-98.03, -78.61)" d="M 89.496 71.527 L 103.52 74.57600000000001 L 89.648 77.471 L 86.6 85.092 L 83.55199999999999 77.319 L 70.749 74.57600000000001 L 83.55199999999999 71.83200000000001 L 86.448 64.516 L 89.496 71.527 z M 104.891 78.69 L 110.834 79.91 L 104.891 81.282 L 103.67 84.482 L 102.299 81.129 L 96.81200000000001 79.91000000000001 L 102.299 78.69000000000001 L 103.52000000000001 75.64200000000001 L 104.891 78.69000000000001 z M 119.371 78.69 L 125.314 79.91 L 119.371 81.282 L 118.14999999999999 84.482 L 116.779 81.129 L 111.443 79.91000000000001 L 116.779 78.69000000000001 L 118.14999999999999 75.64200000000001 L 119.371 78.69000000000001 z M 115.561 69.698 L 121.504 70.91699999999999 L 115.561 72.13599999999998 L 114.34 75.48999999999998 L 112.96900000000001 72.13599999999998 L 107.48200000000001 70.91699999999999 L 112.96900000000001 69.698 L 114.188 66.64899999999999 L 115.561 69.698 z M 109.92 85.854 L 116.018 87.226 L 110.072 88.445 L 108.70100000000001 91.64599999999999 L 107.328 88.445 L 101.994 87.226 L 107.328 86.007 L 108.70100000000001 82.958 L 109.92 85.854 z M 94.221 86.921 L 100.166 88.293 L 94.221 89.512 L 93.001 92.713 L 91.63000000000001 89.36 L 86.14300000000001 88.293 L 91.63000000000001 87.07300000000001 L 92.849 83.873 L 94.221 86.921 z" stroke-linecap="round" />
</g>
</svg>