<?xml version="1.0" encoding="UTF-8" standalone="no" ?>
<!DOCTYPE svg PUBLIC "-//W3C//DTD SVG 1.1//EN" "http://www.w3.org/Graphics/SVG/1.1/DTD/svg11.dtd">
<svg xmlns="http://www.w3.org/2000/svg" xmlns:xlink="http://www.w3.org/1999/xlink" version="1.1" width="275" height="275" viewBox="0 0 275 275" xml:space="preserve">
<desc>Created with Fabric.js 5.2.4</desc>
<defs>
</defs>
<rect x="0" y="0" width="100%" height="100%" fill="transparent"></rect>
<g transform="matrix(0 0 0 0 0 0)" id="24a6c86f-3d5e-4a80-a52a-2784b16a48ae"  >
</g>
<g transform="matrix(1 0 0 1 137.5 137.5)" id="85f83a51-a2c2-49da-ac5b-9ac70879106e"  >
<rect style="stroke: none; stroke-width: 1; stroke-dasharray: none; stroke-linecap: butt; stroke-dashoffset: 0; stroke-linejoin: miter; stroke-miterlimit: 4; fill: rgb(255,255,255); fill-rule: nonzero; opacity: 1; visibility: hidden;" vector-effect="non-scaling-stroke"  x="-137.5" y="-137.5" rx="0" ry="0" width="275" height="275" />
</g>
<g transform="matrix(0.79 0 0 0.79 137.5 251.57)"  >
<path style="stroke: none; stroke-width: 1; stroke-dasharray: none; stroke-linecap: butt; stroke-dashoffset: 0; stroke-linejoin: miter; stroke-miterlimit: 4; fill: rgb(0,0,0); fill-rule: nonzero; opacity: 1;" vector-effect="non-scaling-stroke"  transform=" translate(-139.34, -342.27)" d="M 238.077 338.483 L 238.077 360.395 L 245.10399999999998 360.395 L 245.10399999999998 345.806 L 270.679 345.806 L 270.679 360.395 L 277.70099999999996 360.395 L 277.70099999999996 338.52099999999996 z M 244.321 331.395 L 271.341 331.395 C 275.094 330.649 277.885 327.337 278.672 324.133 L 236.99100000000004 324.133 C 237.77000000000004 327.33799999999997 240.60200000000003 330.649 244.32100000000005 331.395 M 216.79500000000004 360.409 C 220.33800000000005 358.907 222.24400000000006 356.30899999999997 222.97400000000005 353.269 L 191.45700000000005 353.269 L 191.47700000000006 324.151 L 184.41200000000006 324.171 L 184.41200000000006 360.409 z M 131.87400000000002 331.29699999999997 L 156.82800000000003 331.29699999999997 C 160.59000000000003 330.20399999999995 163.74900000000002 327.33799999999997 164.51900000000003 324.16099999999994 L 124.87900000000003 324.16099999999994 L 124.87900000000003 345.57599999999996 L 157.32300000000004 345.57599999999996 L 157.32300000000004 353.09099999999995 L 131.87400000000002 353.11099999999993 C 127.88600000000002 354.22299999999996 124.50400000000002 356.90099999999995 122.81700000000002 360.43799999999993 L 124.87900000000002 360.3999999999999 L 164.294 360.3999999999999 L 164.294 338.4559999999999 L 131.87400000000002 338.4559999999999 z M 70.27100000000002 331.366 L 97.28200000000001 331.366 C 101.04 330.61699999999996 103.83300000000001 327.308 104.61600000000001 324.101 L 62.93700000000001 324.101 C 63.71500000000001 327.308 66.549 330.617 70.27100000000002 331.366 M 70.27100000000002 345.688 L 97.28200000000001 345.688 C 101.04 344.947 103.83300000000001 341.635 104.61600000000001 338.426 L 62.93700000000001 338.426 C 63.71500000000001 341.63599999999997 66.549 344.947 70.27100000000002 345.688 M 70.27100000000002 360.405 L 97.28200000000001 360.405 C 101.04 359.65799999999996 103.83300000000001 356.347 104.61600000000001 353.142 L 62.93700000000001 353.142 C 63.71500000000001 356.348 66.549 359.658 70.27100000000002 360.405 M 1.4210854715202004e-14 324.18899999999996 C 0.8120000000000143 327.35599999999994 3.554000000000014 330.59299999999996 7.316000000000014 331.40399999999994 L 18.686000000000014 331.40399999999994 L 19.266000000000012 331.6329999999999 L 19.266000000000012 360.3239999999999 L 26.366000000000014 360.3239999999999 L 26.366000000000014 331.6329999999999 L 27.011000000000013 331.40399999999994 L 38.39100000000001 331.40399999999994 C 42.195000000000014 330.4239999999999 44.878000000000014 327.35599999999994 45.676000000000016 324.18899999999996 L 45.676000000000016 324.11899999999997 L 1.4210854715202004e-14 324.11899999999997 z" stroke-linecap="round" />
</g>
<g transform="matrix(0.85 0 0 0.85 137.5 120)"  >
<path style="stroke: none; stroke-width: 1; stroke-dasharray: none; stroke-linecap: butt; stroke-dashoffset: 0; stroke-linejoin: miter; stroke-miterlimit: 4; fill: rgb(0,0,0); fill-rule: nonzero; opacity: 1;" vector-effect="non-scaling-stroke"  transform=" translate(-139.32, -138.53)" d="M 139.35 252.502 L 174.826 52.983000000000004 C 208.641 52.983000000000004 219.307 56.691 220.84699999999998 71.82600000000001 C 220.84699999999998 71.82600000000001 243.53099999999998 63.36800000000001 254.97199999999998 46.19000000000001 C 210.32599999999996 25.502000000000013 165.46699999999998 24.569000000000013 165.46699999999998 24.569000000000013 L 139.291 56.451000000000015 L 139.35 56.44700000000002 L 113.17399999999999 24.564000000000018 C 113.17399999999999 24.564000000000018 68.314 25.49800000000002 23.673999999999992 46.18600000000002 C 35.10499999999999 63.36400000000002 57.797999999999995 71.82200000000002 57.797999999999995 71.82200000000002 C 59.346999999999994 56.68600000000002 70 52.978000000000016 103.588 52.95400000000002 z" stroke-linecap="round" />
</g>
<g transform="matrix(0.85 0 0 0.85 137.5 18.39)"  >
<path style="stroke: none; stroke-width: 1; stroke-dasharray: none; stroke-linecap: butt; stroke-dashoffset: 0; stroke-linejoin: miter; stroke-miterlimit: 4; fill: rgb(0,0,0); fill-rule: nonzero; opacity: 1;" vector-effect="non-scaling-stroke"  transform=" translate(-139.34, -19.69)" d="M 139.336 15.36 C 175.42600000000002 15.084 216.735 20.942999999999998 259.023 39.373999999999995 C 264.675 29.200999999999993 266.12800000000004 24.704999999999995 266.12800000000004 24.704999999999995 C 219.90100000000004 6.415999999999993 176.61000000000004 0.15699999999999648 139.33100000000005 -3.552713678800501e-15 C 102.05400000000004 0.15699999999999645 58.76500000000004 6.416999999999996 12.54400000000004 24.704999999999995 C 12.54400000000004 24.704999999999995 14.606000000000039 30.242999999999995 19.64400000000004 39.373999999999995 C 61.92400000000004 20.942999999999994 103.24000000000004 15.083999999999996 139.33100000000005 15.359999999999996 z" stroke-linecap="round" />
</g>
</svg>