<?xml version="1.0" encoding="UTF-8" standalone="no" ?>
<!DOCTYPE svg PUBLIC "-//W3C//DTD SVG 1.1//EN" "http://www.w3.org/Graphics/SVG/1.1/DTD/svg11.dtd">
<svg xmlns="http://www.w3.org/2000/svg" xmlns:xlink="http://www.w3.org/1999/xlink" version="1.1" width="1080" height="1080" viewBox="0 0 1080 1080" xml:space="preserve">
<desc>Created with Fabric.js 5.2.4</desc>
<defs>
</defs>
<rect x="0" y="0" width="100%" height="100%" fill="transparent"></rect>
<g transform="matrix(1 0 0 1 540 540)" id="1569c842-de82-472d-bc3d-f3a7dfcf1e32"  >
<rect style="stroke: none; stroke-width: 1; stroke-dasharray: none; stroke-linecap: butt; stroke-dashoffset: 0; stroke-linejoin: miter; stroke-miterlimit: 4; fill: rgb(255,255,255); fill-rule: nonzero; opacity: 1; visibility: hidden;" vector-effect="non-scaling-stroke"  x="-540" y="-540" rx="0" ry="0" width="1080" height="1080" />
</g>
<g transform="matrix(1 0 0 1 540 540)" id="69e06f58-e0be-476d-92fb-34f85284646d"  >
</g>
<g transform="matrix(20.47 0 0 20.47 538.44 543)" id="d9270696-0a4a-41b1-be23-380303efc648"  >
<path style="stroke: rgb(0,0,0); stroke-width: 0; stroke-dasharray: none; stroke-linecap: butt; stroke-dashoffset: 0; stroke-linejoin: miter; stroke-miterlimit: 4; fill: rgb(0,0,0); fill-rule: nonzero; opacity: 1;" vector-effect="non-scaling-stroke"  transform=" translate(-71.2, -42.25)" d="M 71.2 65.1 C 58.7 65.1 48.400000000000006 54.699999999999996 48.400000000000006 42.199999999999996 C 48.400000000000006 39.599999999999994 48.900000000000006 37.099999999999994 49.7 34.699999999999996 L 63 60.6 C 63.2 61 63.4 61.2 63.8 61.2 C 64.3 61.2 64.39999999999999 60.900000000000006 64.6 60.6 L 70.8 46.8 C 70.89999999999999 46.599999999999994 71 46.5 71.1 46.5 C 71.3 46.5 71.3 46.7 71.39999999999999 46.8 L 77.69999999999999 60.599999999999994 C 77.89999999999999 60.99999999999999 78.1 61.199999999999996 78.49999999999999 61.199999999999996 C 78.99999999999999 61.199999999999996 79.09999999999998 60.9 79.29999999999998 60.599999999999994 L 92.59999999999998 34.699999999999996 C 93.39999999999998 36.99999999999999 93.89999999999998 39.49999999999999 93.89999999999998 42.199999999999996 C 93.99999999999997 54.699999999999996 83.69999999999997 65.1 71.19999999999997 65.1 z M 71.2 36.3 C 71 36.3 71 36.099999999999994 70.9 36 L 63.800000000000004 20.6 C 68.60000000000001 18.900000000000002 73.80000000000001 18.900000000000002 78.60000000000001 20.6 L 71.5 36 C 71.4 36.1 71.4 36.3 71.2 36.3 z M 63.7 53 C 63.5 53 63.5 52.8 63.400000000000006 52.7 L 51.8 30.3 C 53.8 27 56.8 24.200000000000003 60.199999999999996 22.200000000000003 L 68.4 40 C 68.60000000000001 40.4 68.80000000000001 40.5 69 40.5 L 73.3 40.5 C 73.6 40.5 73.8 40.4 73.89999999999999 40 L 82.1 22.2 C 85.5 24.099999999999998 88.5 26.9 90.5 30.299999999999997 L 79 52.7 C 78.9 52.900000000000006 78.8 53 78.7 53 C 78.5 53 78.5 52.8 78.4 52.7 L 74 42.9 C 73.8 42.5 73.6 42.4 73.4 42.4 L 69.10000000000001 42.4 C 68.80000000000001 42.4 68.60000000000001 42.5 68.50000000000001 42.9 L 64 52.7 C 63.9 52.800000000000004 63.9 53 63.7 53 z M 71.2 68.2 C 85.60000000000001 68.2 97.1 56.6 97.1 42.300000000000004 C 97.1 28.000000000000007 85.6 16.300000000000004 71.19999999999999 16.300000000000004 C 56.79999999999998 16.300000000000004 45.29999999999999 27.900000000000006 45.29999999999999 42.2 C 45.29999999999999 56.5 56.89999999999999 68.2 71.19999999999999 68.2 z" stroke-linecap="round" />
</g>
</svg>