<?xml version="1.0" encoding="UTF-8" standalone="no" ?>
<!DOCTYPE svg PUBLIC "-//W3C//DTD SVG 1.1//EN" "http://www.w3.org/Graphics/SVG/1.1/DTD/svg11.dtd">
<svg xmlns="http://www.w3.org/2000/svg" xmlns:xlink="http://www.w3.org/1999/xlink" version="1.1" width="275" height="275" viewBox="0 0 275 275" xml:space="preserve">
<desc>Created with Fabric.js 5.2.4</desc>
<defs>
</defs>
<g transform="matrix(1 0 0 1 137.5 137.5)" id="9b0532a6-ffd9-41b5-9988-8b8d5999083a"  >
<rect style="stroke: none; stroke-width: 1; stroke-dasharray: none; stroke-linecap: butt; stroke-dashoffset: 0; stroke-linejoin: miter; stroke-miterlimit: 4; fill: rgb(255,255,255); fill-rule: nonzero; opacity: 1; visibility: hidden;" vector-effect="non-scaling-stroke"  x="-137.5" y="-137.5" rx="0" ry="0" width="275" height="275" />
</g>
<g transform="matrix(Infinity NaN NaN Infinity 0 0)" id="a51e48e7-ddc0-4b81-9878-b02044cc99ba"  >
</g>
<g transform="matrix(1.18 0 0 1.18 137.5 137.5)"  >
<g style="" vector-effect="non-scaling-stroke"   >
		<g transform="matrix(1 0 0 1 0 0)"  >
<rect style="stroke: none; stroke-width: 1; stroke-dasharray: none; stroke-linecap: butt; stroke-dashoffset: 0; stroke-linejoin: miter; stroke-miterlimit: 4; fill: none; fill-rule: nonzero; opacity: 1;" vector-effect="non-scaling-stroke"  x="-169.35" y="-169.35" rx="0" ry="0" width="338.7" height="338.7" />
</g>
		<g transform="matrix(1 0 0 1 2.8 -1.2)"  >
<path style="stroke: none; stroke-width: 1; stroke-dasharray: none; stroke-linecap: butt; stroke-dashoffset: 0; stroke-linejoin: miter; stroke-miterlimit: 4; fill: rgb(0,0,0); fill-rule: nonzero; opacity: 1;" vector-effect="non-scaling-stroke"  transform=" translate(-181.95, -133.25)" d="M 168.3 143.1 L 195.70000000000002 143.1 L 195.70000000000002 134 L 192.70000000000002 134 C 192.70000000000002 137.5 190.10000000000002 140.1 186.20000000000002 140.1 L 182 140.1 L 182 126.39999999999999 L 186.5 126.39999999999999 L 186.5 123.39999999999999 L 168.2 123.39999999999999 L 168.2 126.39999999999999 L 172.79999999999998 126.39999999999999 L 172.79999999999998 140.1 L 168.2 140.1 L 168.2 143.1 z" stroke-linecap="round" />
</g>
		<g transform="matrix(1 0 0 1 34.95 -1.25)"  >
<polygon style="stroke: none; stroke-width: 1; stroke-dasharray: none; stroke-linecap: butt; stroke-dashoffset: 0; stroke-linejoin: miter; stroke-miterlimit: 4; fill: rgb(0,0,0); fill-rule: nonzero; opacity: 1;" vector-effect="non-scaling-stroke"  points="-5.2,9.9 5.5,9.9 14.5,-6.8 19,-6.8 19,-9.9 5.4,-9.9 5.4,-6.8 9.3,-6.8 2.7,5.4 -3.9,-6.8 0.9,-6.8 0.9,-9.9 -18.9,-9.9 -19,-6.8 -14.4,-6.8 " />
</g>
		<g transform="matrix(1 0 0 1 -66.25 -1.25)"  >
<polygon style="stroke: none; stroke-width: 1; stroke-dasharray: none; stroke-linecap: butt; stroke-dashoffset: 0; stroke-linejoin: miter; stroke-miterlimit: 4; fill: rgb(0,0,0); fill-rule: nonzero; opacity: 1;" vector-effect="non-scaling-stroke"  points="0.8,-9.9 -19,-9.9 -19,-6.8 -14.5,-6.8 -5.2,9.9 5.4,9.9 14.5,-6.8 19,-6.8 19,-9.9 5.4,-9.9 5.4,-6.8 9.3,-6.8 2.7,5.4 -4,-6.8 0.8,-6.8 " />
</g>
		<g transform="matrix(1 0 0 1 -30.5 -1.15)"  >
<path style="stroke: none; stroke-width: 1; stroke-dasharray: none; stroke-linecap: butt; stroke-dashoffset: 0; stroke-linejoin: miter; stroke-miterlimit: 4; fill: rgb(0,0,0); fill-rule: nonzero; opacity: 1;" vector-effect="non-scaling-stroke"  transform=" translate(-148.65, -133.3)" d="M 134.6 133.2 C 134.6 139 139.29999999999998 143.7 148.7 143.7 C 158.1 143.7 162.7 139.1 162.7 133.2 C 162.7 127.49999999999999 157.79999999999998 122.89999999999999 148.6 122.89999999999999 C 139.4 122.9 134.6 127.5 134.6 133.2 z M 153.5 133.3 C 153.4 136.9 152 140.60000000000002 148.5 140.60000000000002 C 145.2 140.50000000000003 143.7 136.8 143.7 133.20000000000002 C 143.79999999999998 129.4 145.6 126.10000000000002 148.7 126.10000000000002 C 151.9 126.1 153.6 129.5 153.5 133.3 z" stroke-linecap="round" />
</g>
		<g transform="matrix(1 0 0 1 70.7 -1.15)"  >
<path style="stroke: none; stroke-width: 1; stroke-dasharray: none; stroke-linecap: butt; stroke-dashoffset: 0; stroke-linejoin: miter; stroke-miterlimit: 4; fill: rgb(0,0,0); fill-rule: nonzero; opacity: 1;" vector-effect="non-scaling-stroke"  transform=" translate(-249.85, -133.3)" d="M 235.8 133.2 C 235.8 139 240.5 143.7 249.9 143.7 C 259.3 143.7 263.9 139.1 263.9 133.2 C 263.9 127.49999999999999 259 122.89999999999999 249.79999999999998 122.89999999999999 C 240.6 122.9 235.8 127.5 235.8 133.2 z M 250 126 C 253.1 126.1 254.8 129.4 254.7 133.2 C 254.6 136.79999999999998 253.2 140.5 249.7 140.5 C 246.29999999999998 140.4 244.89999999999998 136.7 244.89999999999998 133.1 C 245 129.3 246.8 126 250 126 z" stroke-linecap="round" />
</g>
		<g transform="matrix(1 0 0 1 -0.25 0.05)"  >
<path style="stroke: none; stroke-width: 1; stroke-dasharray: none; stroke-linecap: butt; stroke-dashoffset: 0; stroke-linejoin: miter; stroke-miterlimit: 4; fill: rgb(0,0,0); fill-rule: nonzero; opacity: 1;" vector-effect="non-scaling-stroke"  transform=" translate(-178.9, -134.5)" d="M 271.8 70.4 L 260.3 81.9 C 270.1 97.10000000000001 275.8 115.2 275.8 134.60000000000002 C 275.8 188.20000000000002 232.4 231.60000000000002 178.8 231.60000000000002 C 125.20000000000002 231.60000000000002 81.80000000000001 188.20000000000002 81.80000000000001 134.60000000000002 C 81.80000000000001 81.00000000000003 125.20000000000002 37.60000000000002 178.8 37.60000000000002 C 198.3 37.60000000000002 216.4 43.300000000000026 231.60000000000002 53.200000000000024 L 243.10000000000002 41.700000000000024 C 224.90000000000003 29.000000000000025 202.70000000000002 21.600000000000023 178.8 21.600000000000023 C 116.5 21.6 66 72.2 66 134.5 C 66 196.8 116.6 247.4 178.9 247.4 C 241.20000000000002 247.4 291.8 196.8 291.8 134.5 C 291.8 110.7 284.4 88.6 271.8 70.4 z" stroke-linecap="round" />
</g>
		<g transform="matrix(1 0 0 1 82.4 -82.5)"  >
<path style="stroke: none; stroke-width: 1; stroke-dasharray: none; stroke-linecap: butt; stroke-dashoffset: 0; stroke-linejoin: miter; stroke-miterlimit: 4; fill: rgb(0,0,0); fill-rule: nonzero; opacity: 1;" vector-effect="non-scaling-stroke"  transform=" translate(-261.55, -51.95)" d="M 235.7 26.1 L 235.7 29.3 C 242.6 33 249 37.4 255 42.3 L 238.9 58.4 C 245 63.199999999999996 250.5 68.6 255.20000000000002 74.7 L 271.3 58.6 C 276.2 64.6 280.6 71 284.3 77.8 L 287.40000000000003 77.8 L 287.40000000000003 26.1 L 235.7 26.1 z" stroke-linecap="round" />
</g>
</g>
</g>
</svg>